<?xml version="1.0" encoding="utf-8"?>
<!-- Generator: Adobe Illustrator 16.2.0, SVG Export Plug-In . SVG Version: 6.00 Build 0)  -->
<!DOCTYPE svg PUBLIC "-//W3C//DTD SVG 1.1//EN" "http://www.w3.org/Graphics/SVG/1.1/DTD/svg11.dtd">
<svg version="1.1" id="Layer_1" xmlns="http://www.w3.org/2000/svg" xmlns:xlink="http://www.w3.org/1999/xlink" x="0px" y="0px"
	 width="20px" height="15px" viewBox="0 0 20 15" enable-background="new 0 0 20 15" xml:space="preserve">
<path fill="#FFFFFF" d="M1.721,3.403h16.75c0.771,0,1.397-0.625,1.397-1.396c0-0.771-0.627-1.396-1.397-1.396H1.721
	c-0.772,0-1.396,0.626-1.396,1.396C0.324,2.777,0.949,3.403,1.721,3.403z M18.471,6.194H1.721c-0.772,0-1.396,0.626-1.396,1.396
	c0,0.77,0.625,1.396,1.396,1.396h16.75c0.771,0,1.397-0.626,1.397-1.396C19.868,6.819,19.24,6.194,18.471,6.194z M18.471,11.776
	H1.721c-0.772,0-1.396,0.628-1.396,1.397c0,0.771,0.625,1.396,1.396,1.396h16.75c0.771,0,1.397-0.626,1.397-1.396
	C19.868,12.404,19.24,11.776,18.471,11.776z"/>
</svg>
