<?xml version="1.0" encoding="utf-8"?>
<!-- Generator: Adobe Illustrator 16.2.0, SVG Export Plug-In . SVG Version: 6.00 Build 0)  -->
<!DOCTYPE svg PUBLIC "-//W3C//DTD SVG 1.1//EN" "http://www.w3.org/Graphics/SVG/1.1/DTD/svg11.dtd">
<svg version="1.1" id="Layer_1" xmlns="http://www.w3.org/2000/svg" xmlns:xlink="http://www.w3.org/1999/xlink" x="0px" y="0px"
	 width="40px" height="40px" viewBox="0 0 40 40" enable-background="new 0 0 40 40" xml:space="preserve">
<g>
	<polygon fill="#FFFFFF" points="6.8,27.6 13.3,21.1 13.3,13.4 17.3,13.4 10,6.1 2.7,13.4 6.8,13.4 	"/>
	<polygon fill="#FFFFFF" points="12.3,6.9 18.8,13.4 26.5,13.4 26.5,17.5 33.8,10.2 26.5,2.9 26.5,6.9 	"/>
	<polygon fill="#FFFFFF" points="33,12.7 26.5,19.2 26.5,26.9 22.4,26.9 29.7,34.2 37,26.9 33,26.9 	"/>
	<polygon fill="#FFFFFF" points="27.4,33.4 21,26.9 13.2,26.9 13.2,22.8 6,30.1 13.2,37.4 13.2,33.4 	"/>
</g>
</svg>
