<?xml version="1.0" encoding="utf-8"?>
<!-- Generator: Adobe Illustrator 16.2.0, SVG Export Plug-In . SVG Version: 6.00 Build 0)  -->
<!DOCTYPE svg PUBLIC "-//W3C//DTD SVG 1.1//EN" "http://www.w3.org/Graphics/SVG/1.1/DTD/svg11.dtd">
<svg version="1.1" id="Layer_1" xmlns="http://www.w3.org/2000/svg" xmlns:xlink="http://www.w3.org/1999/xlink" x="0px" y="0px"
	 width="40px" height="40px" viewBox="0 0 40 40" enable-background="new 0 0 40 40" xml:space="preserve">
<g>
	<path fill="#FFFFFF" d="M23.006,14.778L17.833,4.295l-4.063,8.232c5.577,1.506,11.252,4.632,16.375,8.249l4.43-4.317L23.006,14.778
		z"/>
	<path fill="#FFFFFF" d="M5.473,15.822L1.09,16.459l8.372,8.16L7.486,36.14L17.833,30.7L28.18,36.14l-1.285-7.492
		C20.937,22,13.476,16.168,5.473,15.822z"/>
	<path fill="#FFFFFF" d="M39.631,31.248c-8.705-8.336-23.659-19.406-35.425-17.45c13.125-0.361,24.751,13.052,31.538,22.98
		C37.037,34.942,38.366,33.051,39.631,31.248z"/>
</g>
</svg>
