<?xml version="1.0" encoding="utf-8"?>
<!-- Generator: Adobe Illustrator 16.2.0, SVG Export Plug-In . SVG Version: 6.00 Build 0)  -->
<!DOCTYPE svg PUBLIC "-//W3C//DTD SVG 1.1//EN" "http://www.w3.org/Graphics/SVG/1.1/DTD/svg11.dtd">
<svg version="1.1" id="Layer_1" xmlns="http://www.w3.org/2000/svg" xmlns:xlink="http://www.w3.org/1999/xlink" x="0px" y="0px"
	 width="40px" height="40px" viewBox="0 0 40 40" enable-background="new 0 0 40 40" xml:space="preserve">
<g>
	<path fill="#FFFFFF" d="M12.758,20.067l7.071-0.189v-7.967l-7.071,1.959V20.067z M12.758,26.887l7.071,1.959v-7.754l-7.071-0.214
		V26.887z M20.764,11.09l7.287,2.31V7.068l-7.287-4.183V11.09z M28.693,26.561l4.119-1.176v-4.624l-4.119,0.113V26.561z
		 M28.693,20.098l4.119,0.112v-4.838l-4.119-1.175V20.098z M35.682,11.447l-2.348-1.347v4.974l2.357,0.747L35.682,11.447z
		 M35.691,16.194l-2.357-0.673v4.704l2.369,0.065L35.691,16.194z M35.715,24.928l-2.381,0.755v4.864l2.391-1.384L35.715,24.928z
		 M35.705,20.681l-2.371,0.065v4.49l2.379-0.68L35.705,20.681z M20.764,37.817l7.287-4.215v-6.245l-7.287,2.31V37.817z
		 M28.693,33.23l4.119-2.383v-5l-4.119,1.307V33.23z M28.693,13.604l4.119,1.305V9.802l-4.119-2.364V13.604z"/>
	<path fill="#FFFFFF" d="M20.749,11.936v7.945l7.287,0.199v-6.065L20.749,11.936z M20.749,28.822l7.287-2.079v-5.851l-7.287,0.2
		V28.822z M5.018,20.273l2.457-0.065v-4.875l-2.47,0.684L5.018,20.273z M5.005,15.651l2.47-0.764v-4.802l-2.48,1.44L5.005,15.651z
		 M5.03,24.744l2.445,0.678v-4.706l-2.456-0.074L5.03,24.744z M5.041,29.242l2.435,1.404v-4.777L5.03,25.111L5.041,29.242z
		 M7.997,30.946l4.119,2.377v-6.019l-4.119-1.275V30.946z M12.758,33.693l7.071,4.08v-8.081l-7.071-2.188V33.693z M12.758,13.252
		l7.071-2.188V2.91l-7.071,4.107V13.252z M7.997,20.194l4.119-0.11v-6.036l-4.119,1.141V20.194z M7.997,14.726l4.119-1.275V7.39
		L7.997,9.783V14.726z M7.997,25.566l4.119,1.143v-5.852l-4.119-0.126V25.566z"/>
</g>
</svg>
