<?xml version="1.0" encoding="utf-8"?>
<!-- Generator: Adobe Illustrator 16.2.0, SVG Export Plug-In . SVG Version: 6.00 Build 0)  -->
<!DOCTYPE svg PUBLIC "-//W3C//DTD SVG 1.1//EN" "http://www.w3.org/Graphics/SVG/1.1/DTD/svg11.dtd">
<svg version="1.1" id="Layer_1" xmlns="http://www.w3.org/2000/svg" xmlns:xlink="http://www.w3.org/1999/xlink" x="0px" y="0px"
	 width="40px" height="40px" viewBox="0 0 40 40" enable-background="new 0 0 40 40" xml:space="preserve">
<g>
	<path fill="#FFFFFF" d="M36.45,18.024c-1.054-1.056-2.61-1.288-3.896-0.715l-9.043-9.04c0.572-1.285,0.342-2.842-0.713-3.898
		c-1.369-1.367-3.583-1.367-4.95,0c-1.055,1.056-1.288,2.613-0.713,3.898l-9.18,9.178c-1.242-0.457-2.687-0.196-3.685,0.801
		c-1.367,1.367-1.367,3.583,0,4.951c1.057,1.055,2.613,1.287,3.898,0.715l8.891,8.891c-0.573,1.286-0.341,2.842,0.714,3.896
		c1.367,1.367,3.582,1.367,4.949,0c1.028-1.027,1.283-2.533,0.768-3.799l9.162-9.163c1.266,0.517,2.771,0.261,3.798-0.765
		C37.817,21.607,37.817,19.39,36.45,18.024z M18.826,31.035c-2.332-2.332-6.518-6.519-8.891-8.89
		c0.434-0.974,0.395-2.091-0.103-3.041l9.069-9.068c0.906,0.403,1.938,0.403,2.843,0c2.34,2.341,6.657,6.656,9.042,9.04
		c-0.419,0.937-0.397,2.013,0.051,2.941l-9.069,9.068C20.84,30.639,19.765,30.617,18.826,31.035z"/>
	<g>
		<path fill="#FFFFFF" d="M18.003,21.935l-8.622,8.622c-0.245,0.244-0.245,0.641,0,0.886c0.244,0.243,0.639,0.243,0.883,0
			l8.623-8.622c0.244-0.244,0.244-0.641,0-0.886C18.644,21.691,18.248,21.691,18.003,21.935z"/>
	</g>
	<g>
		<path fill="#FFFFFF" d="M30.785,9.154l-8.622,8.62c-0.245,0.246-0.245,0.64,0,0.885c0.244,0.244,0.64,0.244,0.884,0l8.623-8.622
			c0.243-0.243,0.243-0.64,0-0.883C31.426,8.908,31.029,8.908,30.785,9.154z"/>
	</g>
	<g>
		<path fill="#FFFFFF" d="M9.487,9.471c-0.245,0.246-0.245,0.64,0,0.885l8.621,8.622c0.245,0.244,0.641,0.244,0.884,0
			c0.246-0.246,0.246-0.639,0-0.885l-8.621-8.622C10.126,9.227,9.731,9.227,9.487,9.471z"/>
	</g>
	<g>
		<path fill="#FFFFFF" d="M22.27,22.254c-0.246,0.242-0.246,0.639,0,0.885l8.623,8.622c0.242,0.243,0.639,0.243,0.883,0
			c0.245-0.245,0.245-0.64,0-0.886l-8.623-8.621C22.91,22.01,22.513,22.01,22.27,22.254z"/>
	</g>
</g>
</svg>
