<?xml version="1.0" encoding="utf-8"?>
<!-- Generator: Adobe Illustrator 16.2.0, SVG Export Plug-In . SVG Version: 6.00 Build 0)  -->
<!DOCTYPE svg PUBLIC "-//W3C//DTD SVG 1.1//EN" "http://www.w3.org/Graphics/SVG/1.1/DTD/svg11.dtd">
<svg version="1.1" id="Layer_1" xmlns="http://www.w3.org/2000/svg" xmlns:xlink="http://www.w3.org/1999/xlink" x="0px" y="0px"
	 width="40px" height="40px" viewBox="0 0 40 40" enable-background="new 0 0 40 40" xml:space="preserve">
<g>
	<path fill="#FFFFFF" d="M12.8,20.1l7.1-0.2v-8l-7.1,2V20.1z M12.8,26.9l7.1,2v-7.8l-7.1-0.2V26.9z M20.8,11.1l7.3,2.3V7.1l-7.3-4.2
		V11.1z M28.7,26.6l4.1-1.2v-4.6l-4.1,0.1V26.6z M28.7,20.1l4.1,0.1v-4.8l-4.1-1.2V20.1z M35.7,11.4l-2.3-1.3v5l2.4,0.7L35.7,11.4z
		 M35.7,16.2l-2.4-0.7v4.7l2.4,0.1L35.7,16.2z M35.7,24.9l-2.4,0.8v4.9l2.4-1.4L35.7,24.9z M35.7,20.7l-2.4,0.1v4.5l2.4-0.7
		L35.7,20.7z M20.8,37.8l7.3-4.2v-6.2l-7.3,2.3V37.8z M28.7,33.2l4.1-2.4v-5l-4.1,1.3V33.2z M28.7,13.6l4.1,1.3V9.8l-4.1-2.4V13.6z"
		/>
	<path fill="#FFFFFF" d="M20.7,11.9v7.9l7.3,0.2V14L20.7,11.9z M20.7,28.8l7.3-2.1v-5.9l-7.3,0.2V28.8z M5,20.3l2.5-0.1v-4.9L5,16
		L5,20.3z M5,15.7l2.5-0.8v-4.8L5,11.5L5,15.7z M5,24.7l2.4,0.7v-4.7L5,20.6L5,24.7z M5,29.2l2.4,1.4v-4.8L5,25.1L5,29.2z M8,30.9
		l4.1,2.4v-6L8,26V30.9z M12.8,33.7l7.1,4.1v-8.1l-7.1-2.2V33.7z M12.8,13.3l7.1-2.2V2.9L12.8,7V13.3z M8,20.2l4.1-0.1v-6L8,15.2
		V20.2z M8,14.7l4.1-1.3V7.4L8,9.8V14.7z M8,25.6l4.1,1.1v-5.9L8,20.7V25.6z"/>
</g>
</svg>
