<?xml version="1.0" encoding="utf-8"?>
<!-- Generator: Adobe Illustrator 16.2.0, SVG Export Plug-In . SVG Version: 6.00 Build 0)  -->
<!DOCTYPE svg PUBLIC "-//W3C//DTD SVG 1.1//EN" "http://www.w3.org/Graphics/SVG/1.1/DTD/svg11.dtd">
<svg version="1.1" id="Layer_1" xmlns="http://www.w3.org/2000/svg" xmlns:xlink="http://www.w3.org/1999/xlink" x="0px" y="0px"
	 width="40px" height="40px" viewBox="0 0 40 40" enable-background="new 0 0 40 40" xml:space="preserve">
<g>
	<polygon fill-rule="evenodd" clip-rule="evenodd" fill="#FFFFFF" points="6.785,27.588 13.251,21.123 13.251,13.415 17.306,13.415 
		10.018,6.125 2.726,13.415 6.785,13.415 	"/>
	<polygon fill-rule="evenodd" clip-rule="evenodd" fill="#FFFFFF" points="12.329,6.938 18.792,13.402 26.5,13.402 26.5,17.458 
		33.789,10.168 26.5,2.879 26.5,6.938 	"/>
	<polygon fill-rule="evenodd" clip-rule="evenodd" fill="#FFFFFF" points="32.965,12.715 26.499,19.179 26.499,26.887 
		22.443,26.887 29.731,34.177 37.021,26.887 32.965,26.887 	"/>
	<polygon fill-rule="evenodd" clip-rule="evenodd" fill="#FFFFFF" points="27.421,33.367 20.957,26.902 13.248,26.902 
		13.248,22.844 5.96,30.133 13.248,37.423 13.248,33.367 	"/>
</g>
</svg>
