<?xml version="1.0" encoding="utf-8"?>
<!-- Generator: Adobe Illustrator 16.2.0, SVG Export Plug-In . SVG Version: 6.00 Build 0)  -->
<!DOCTYPE svg PUBLIC "-//W3C//DTD SVG 1.1//EN" "http://www.w3.org/Graphics/SVG/1.1/DTD/svg11.dtd">
<svg version="1.1" id="Layer_1" xmlns="http://www.w3.org/2000/svg" xmlns:xlink="http://www.w3.org/1999/xlink" x="0px" y="0px"
	 width="40px" height="40px" viewBox="0 0 40 40" enable-background="new 0 0 40 40" xml:space="preserve">
<g>
	<path fill="#FFFFFF" d="M15.1,7.6c3.3,0.9,6.6,7.3,5.4,14c-1.2,6.7-6.8,12.3-13.4,13.7c1,0.2,16-1.5,19.5-13.7
		C28.9,14.1,22.9,7.6,15.1,7.6z"/>
	<path fill="#FFFFFF" d="M6.9,11.6c2.8,0.6,5.9,5.9,5.2,11.5c-0.7,5.7-5.2,10.7-10.6,12.2c0.8,0.1,13.4-2.1,15.8-12.5
		C18.8,16.4,13.4,11.3,6.9,11.6z"/>
	<path fill="#FFFFFF" d="M24.4,4.7c3.7,1.3,6.9,8.6,5.1,16.1c-1.7,7.4-8.5,13.3-15.8,14.5c1.1,0.3,18-0.7,22.8-14.1
		C39.4,12.9,33.1,5.2,24.4,4.7z"/>
</g>
</svg>
