<?xml version="1.0" encoding="utf-8"?>
<!-- Generator: Adobe Illustrator 16.2.0, SVG Export Plug-In . SVG Version: 6.00 Build 0)  -->
<!DOCTYPE svg PUBLIC "-//W3C//DTD SVG 1.1//EN" "http://www.w3.org/Graphics/SVG/1.1/DTD/svg11.dtd">
<svg version="1.1" id="Layer_1" xmlns="http://www.w3.org/2000/svg" xmlns:xlink="http://www.w3.org/1999/xlink" x="0px" y="0px"
	 width="40px" height="40px" viewBox="0 0 40 40" enable-background="new 0 0 40 40" xml:space="preserve">
<g>
	<path fill="#FFFFFF" d="M15.114,7.605c3.326,0.936,6.564,7.345,5.385,14.035c-1.18,6.689-6.848,12.283-13.36,13.69
		c0.954,0.223,15.98-1.527,19.537-13.69C28.883,14.085,22.865,7.605,15.114,7.605z"/>
	<path fill="#FFFFFF" d="M6.888,11.637c2.841,0.625,5.875,5.859,5.207,11.542C11.426,28.863,6.93,33.842,1.521,35.341
		c0.813,0.142,13.367-2.058,15.767-12.46C18.78,16.42,13.406,11.262,6.888,11.637z"/>
	<path fill="#FFFFFF" d="M24.397,4.735c3.669,1.259,6.892,8.649,5.146,16.071c-1.746,7.425-8.455,13.333-15.844,14.497
		c1.056,0.312,18.008-0.696,22.765-14.104C39.42,12.871,33.086,5.226,24.397,4.735z"/>
</g>
</svg>
