<?xml version="1.0" encoding="utf-8"?>
<!-- Generator: Adobe Illustrator 16.2.0, SVG Export Plug-In . SVG Version: 6.00 Build 0)  -->
<!DOCTYPE svg PUBLIC "-//W3C//DTD SVG 1.1//EN" "http://www.w3.org/Graphics/SVG/1.1/DTD/svg11.dtd">
<svg version="1.1" id="Layer_1" xmlns="http://www.w3.org/2000/svg" xmlns:xlink="http://www.w3.org/1999/xlink" x="0px" y="0px"
	 width="40px" height="40px" viewBox="0 0 40 40" enable-background="new 0 0 40 40" xml:space="preserve">
<g>
	<path fill="#FFFFFF" d="M36.5,18c-1.1-1.1-2.6-1.3-3.9-0.7l-9-9c0.6-1.3,0.3-2.8-0.7-3.9c-1.4-1.4-3.6-1.4-4.9,0
		c-1.1,1.1-1.3,2.6-0.7,3.9L8,17.4c-1.2-0.5-2.7-0.2-3.7,0.8c-1.4,1.4-1.4,3.6,0,5c1.1,1.1,2.6,1.3,3.9,0.7l8.9,8.9
		c-0.6,1.3-0.3,2.8,0.7,3.9c1.4,1.4,3.6,1.4,4.9,0c1-1,1.3-2.5,0.8-3.8l9.2-9.2c1.3,0.5,2.8,0.3,3.8-0.8
		C37.8,21.6,37.8,19.4,36.5,18z M18.8,31c-2.3-2.3-6.5-6.5-8.9-8.9c0.4-1,0.4-2.1-0.1-3l9.1-9.1c0.9,0.4,1.9,0.4,2.8,0
		c2.3,2.3,6.7,6.7,9,9c-0.4,0.9-0.4,2,0.1,2.9l-9.1,9.1C20.8,30.6,19.8,30.6,18.8,31z"/>
	<g>
		<path fill="#FFFFFF" d="M18,21.9l-8.6,8.6c-0.2,0.2-0.2,0.6,0,0.9c0.2,0.2,0.6,0.2,0.9,0l8.6-8.6c0.2-0.2,0.2-0.6,0-0.9
			C18.6,21.7,18.2,21.7,18,21.9z"/>
	</g>
	<g>
		<path fill="#FFFFFF" d="M30.8,9.2l-8.6,8.6c-0.2,0.2-0.2,0.6,0,0.9c0.2,0.2,0.6,0.2,0.9,0l8.6-8.6c0.2-0.2,0.2-0.6,0-0.9
			C31.4,8.9,31,8.9,30.8,9.2z"/>
	</g>
	<g>
		<path fill="#FFFFFF" d="M9.5,9.5c-0.2,0.2-0.2,0.6,0,0.9l8.6,8.6c0.2,0.2,0.6,0.2,0.9,0c0.2-0.2,0.2-0.6,0-0.9l-8.6-8.6
			C10.1,9.2,9.7,9.2,9.5,9.5z"/>
	</g>
	<g>
		<path fill="#FFFFFF" d="M22.3,22.3c-0.2,0.2-0.2,0.6,0,0.9l8.6,8.6c0.2,0.2,0.6,0.2,0.9,0c0.2-0.2,0.2-0.6,0-0.9l-8.6-8.6
			C22.9,22,22.5,22,22.3,22.3z"/>
	</g>
</g>
</svg>
