<?xml version="1.0" encoding="utf-8"?>
<!-- Generator: Adobe Illustrator 16.2.0, SVG Export Plug-In . SVG Version: 6.00 Build 0)  -->
<!DOCTYPE svg PUBLIC "-//W3C//DTD SVG 1.1//EN" "http://www.w3.org/Graphics/SVG/1.1/DTD/svg11.dtd">
<svg version="1.1" id="Layer_1" xmlns="http://www.w3.org/2000/svg" xmlns:xlink="http://www.w3.org/1999/xlink" x="0px" y="0px"
	 width="40px" height="40px" viewBox="0 0 40 40" enable-background="new 0 0 40 40" xml:space="preserve">
<g>
	<path fill="#FFFFFF" d="M23,14.8L17.8,4.3l-4.1,8.2c5.6,1.5,11.3,4.6,16.4,8.2l4.4-4.3L23,14.8z"/>
	<path fill="#FFFFFF" d="M5.5,15.8l-4.4,0.6l8.4,8.2l-2,11.5l10.3-5.4l10.3,5.4l-1.3-7.5C20.9,22,13.5,16.2,5.5,15.8z"/>
	<path fill="#FFFFFF" d="M39.6,31.2C30.9,22.9,16,11.8,4.2,13.8c13.1-0.4,24.8,13.1,31.5,23C37,34.9,38.4,33.1,39.6,31.2z"/>
</g>
</svg>
