<?xml version="1.0" encoding="utf-8"?>
<!-- Generator: Adobe Illustrator 16.2.0, SVG Export Plug-In . SVG Version: 6.00 Build 0)  -->
<!DOCTYPE svg PUBLIC "-//W3C//DTD SVG 1.1//EN" "http://www.w3.org/Graphics/SVG/1.1/DTD/svg11.dtd">
<svg version="1.1" id="Layer_1" xmlns="http://www.w3.org/2000/svg" xmlns:xlink="http://www.w3.org/1999/xlink" x="0px" y="0px"
	 width="729px" height="437px" viewBox="0 0 729 437" enable-background="new 0 0 729 437" xml:space="preserve">
<g>
	<g>
		
			<rect x="505.5" y="135.5" transform="matrix(-0.7071 -0.7071 0.7071 -0.7071 884.7052 639.9291)" fill="#FFFFFF" width="138.8" height="2.4"/>
	</g>
	<g>
		<path fill="#FFFFFF" d="M63.2,99.5c-0.7,0-1.2-0.5-1.2-1.2V43.8c0-0.7,0.5-1.2,1.2-1.2c0.7,0,1.2,0.5,1.2,1.2v54.5
			C64.3,98.9,63.8,99.5,63.2,99.5z"/>
	</g>
	<g>
		<rect x="199.3" y="287.7" fill="#FFFFFF" width="290.8" height="2.4"/>
	</g>
	<g>
		<rect x="179.9" y="87" fill="#FFFFFF" width="333.4" height="2.4"/>
	</g>
	<g>
		
			<rect x="129" y="66.8" transform="matrix(-0.707 -0.7072 0.7072 -0.707 125.9128 324.5663)" fill="#FFFFFF" width="2.4" height="138.8"/>
	</g>
	<g>
		
			<rect x="60.8" y="235.3" transform="matrix(-0.7071 -0.7071 0.7071 -0.7071 55.0375 495.8181)" fill="#FFFFFF" width="138.8" height="2.4"/>
	</g>
	<g>
		
			<rect x="573.8" y="174" transform="matrix(-0.7069 -0.7073 0.7073 -0.7069 809.3359 822.205)" fill="#FFFFFF" width="2.4" height="138.8"/>
	</g>
	<g>
		<path fill="#FFFFFF" d="M170,143.7c-0.5,0.2-1.4,0.5-2.5,0.5c-2.7,0-4.7-1.7-4.7-4.8c0-3,2-5,5-5c1.2,0,1.9,0.3,2.3,0.4l-0.3,1
			c-0.5-0.2-1.1-0.4-1.9-0.4c-2.2,0-3.7,1.4-3.7,3.9c0,2.3,1.3,3.8,3.7,3.8c0.8,0,1.5-0.2,2-0.4L170,143.7z"/>
		<path fill="#FFFFFF" d="M173.9,135.5H171v-1h7.1v1h-2.9v8.5H174v-8.5H173.9z"/>
		<path fill="#FFFFFF" d="M179.5,141l-1,3h-1.3l3.2-9.5h1.5l3.3,9.5h-1.3l-1-3H179.5z M182.6,140l-0.9-2.7c-0.2-0.6-0.4-1.2-0.5-1.7
			l0,0c-0.1,0.6-0.3,1.1-0.5,1.7l-0.9,2.8h2.8V140z"/>
		<path fill="#FFFFFF" d="M187.9,134.5v4h4.6v-4h1.2v9.5h-1.2v-4.5h-4.6v4.5h-1.2v-9.5H187.9z"/>
		<path fill="#FFFFFF" d="M202.4,134.5v8.5h0.8l-0.1,3.3h-1L202,144h-6l-0.1,2.3h-1l-0.1-3.3h0.7c0.4-0.7,0.7-1.3,0.9-2.1
			c0.3-1.1,0.5-2.4,0.5-4v-2.4H202.4L202.4,134.5z M198.2,137.3c0,1.5-0.1,2.8-0.5,3.9c-0.2,0.7-0.5,1.3-0.8,1.8h4.2v-7.5h-3v1.8
			H198.2z"/>
		<path fill="#FFFFFF" d="M206.3,141l-1,3H204l3.2-9.5h1.5l3.3,9.5h-1.3l-1-3H206.3z M209.5,140l-0.9-2.7c-0.2-0.6-0.4-1.2-0.5-1.7
			l0,0c-0.1,0.6-0.3,1.1-0.5,1.7l-0.9,2.8h2.8V140z"/>
		<path fill="#FFFFFF" d="M213.4,134.6c0.6-0.1,1.4-0.2,2.4-0.2c1.2,0,2.1,0.3,2.7,0.8c0.5,0.5,0.8,1.1,0.8,2s-0.3,1.5-0.7,2
			c-0.7,0.7-1.7,1-2.9,1c-0.4,0-0.7,0-1-0.1v3.8h-1.2L213.4,134.6L213.4,134.6L213.4,134.6z M214.7,139.2c0.3,0.1,0.6,0.1,1,0.1
			c1.5,0,2.4-0.7,2.4-2c0-1.3-0.9-1.9-2.2-1.9c-0.5,0-0.9,0-1.2,0.1V139.2L214.7,139.2z"/>
		<path fill="#FFFFFF" d="M222.8,135.5h-2.9v-1h7.1v1h-3v8.5h-1.2V135.5z"/>
		<path fill="#FFFFFF" d="M229.2,134.5v4h4.6v-4h1.2v9.5h-1.2v-4.5h-4.6v4.5H228v-9.5H229.2z"/>
		<path fill="#FFFFFF" d="M238.8,141l-1,3h-1.3l3.2-9.5h1.5l3.3,9.5h-1.3l-1-3H238.8z M241.9,140l-0.9-2.7c-0.2-0.6-0.4-1.2-0.5-1.7
			l0,0c-0.1,0.6-0.3,1.1-0.5,1.7l-1,2.7H241.9z"/>
		<path fill="#FFFFFF" d="M245,144c0.1-0.3,0.3-0.6,0.4-0.9c0.4-1.1,0.7-2.4,1.4-3.2c0.2-0.2,0.5-0.4,0.8-0.5l0,0
			c-1.2-0.2-2.1-1-2.1-2.3c0-0.8,0.3-1.5,0.9-1.9c0.6-0.5,1.5-0.7,2.7-0.7c0.8,0,1.7,0.1,2.3,0.2v9.4h-1.2V140h-0.9
			c-0.6,0-1,0.1-1.4,0.5c-0.7,0.7-0.9,2.1-1.3,3c-0.1,0.2-0.2,0.4-0.3,0.7L245,144L245,144z M250.2,135.5c-0.2,0-0.6-0.1-1.2-0.1
			c-1.2,0-2.2,0.5-2.2,1.8c0,1.1,1,1.8,2.4,1.8c0.4,0,0.8,0,1,0V135.5L250.2,135.5z"/>
		<path fill="#FFFFFF" d="M177.4,151.4v9.5h-1.2v-8.5h-4.4v8.5h-1.2v-9.5H177.4z"/>
		<path fill="#FFFFFF" d="M179.5,151.6c0.6-0.1,1.4-0.2,2.4-0.2c1.2,0,2.1,0.3,2.7,0.8c0.5,0.5,0.8,1.1,0.8,2s-0.3,1.5-0.7,2
			c-0.7,0.7-1.7,1-2.9,1c-0.4,0-0.7,0-1-0.1v3.8h-1.2v-9.3H179.5z M180.7,156.2c0.3,0.1,0.6,0.1,1,0.1c1.5,0,2.4-0.7,2.4-2
			c0-1.3-0.9-1.9-2.2-1.9c-0.5,0-0.9,0-1.2,0.1V156.2L180.7,156.2z"/>
		<path fill="#FFFFFF" d="M195.1,156.1c0,3.3-2,5-4.4,5c-2.5,0-4.3-2-4.3-4.8c0-3,1.9-5,4.4-5C193.4,151.3,195.1,153.3,195.1,156.1z
			 M187.7,156.3c0,2,1.1,3.9,3,3.9c2,0,3.1-1.8,3.1-4c0-1.9-1-3.9-3-3.9C188.7,152.3,187.7,154.2,187.7,156.3z"/>
		<path fill="#FFFFFF" d="M202.9,151.4v8.5h0.8l-0.1,3.3h-1l-0.1-2.3h-6l-0.1,2.3h-1l-0.1-3.3h0.7c0.4-0.7,0.7-1.3,0.9-2.1
			c0.3-1.1,0.5-2.4,0.5-4v-2.4H202.9L202.9,151.4z M198.7,154.3c0,1.5-0.1,2.8-0.5,3.9c-0.2,0.7-0.5,1.3-0.8,1.8h4.2v-7.5h-3v1.8
			H198.7z"/>
		<path fill="#FFFFFF" d="M205.6,151.4l1.9,4.1c0.2,0.6,0.5,1.1,0.7,1.7l0,0c0.2-0.5,0.4-1,0.6-1.7l1.5-4h1.3l-2,4.9
			c-0.5,1.3-1.1,2.7-1.8,3.6c-0.6,0.8-1.3,1.2-2.2,1.2c-0.3,0-0.5,0-0.7-0.1l0.1-1c0.1,0,0.2,0,0.5,0c1,0,1.6-1,1.9-1.6
			c0.1-0.2,0.1-0.4,0-0.6l-3.2-6.4L205.6,151.4L205.6,151.4z"/>
		<path fill="#FFFFFF" d="M213.8,151.4v4.2h0.4l3.3-4.2h1.5l-3.6,4.4c1.6,0.2,2.2,1.2,2.7,2.5c0.4,1,0.6,1.9,1,2.7h-1.3
			c-0.3-0.7-0.6-1.5-0.9-2.2c-0.4-1.3-1-2.1-2.7-2.1h-0.4v4.4h-1.2v-9.5h1.2V151.4z"/>
		<path fill="#FFFFFF" d="M221.5,151.4v8.5h4.4v-8.5h1.2v8.5h0.8l-0.1,3.3h-1l-0.1-2.3h-6.5v-9.5H221.5L221.5,151.4z"/>
		<path fill="#FFFFFF" d="M230.6,151.4v4c0,1.5,0,2.8-0.1,4l0,0c0.5-1,1.1-2,1.8-3.2l3.1-4.9h1.2v9.5h-1.2v-4.1c0-1.5,0-2.7,0.1-3.9
			l0,0c-0.5,1-1.1,2.2-1.8,3.2l-3,4.7h-1.3v-9.5L230.6,151.4L230.6,151.4z"/>
		<path fill="#FFFFFF" d="M237.9,161c0.1-0.3,0.3-0.6,0.4-0.9c0.4-1.1,0.7-2.4,1.4-3.2c0.2-0.2,0.5-0.4,0.8-0.5l0,0
			c-1.2-0.2-2.1-1-2.1-2.3c0-0.8,0.3-1.5,0.9-1.9c0.6-0.5,1.5-0.7,2.7-0.7c0.8,0,1.7,0.1,2.3,0.2v9.4h-1.2V157h-0.9
			c-0.6,0-1,0.1-1.4,0.5c-0.7,0.7-0.9,2.1-1.3,3c-0.1,0.2-0.2,0.4-0.3,0.7h-1.3V161z M243.1,152.4c-0.2,0-0.6-0.1-1.2-0.1
			c-1.2,0-2.2,0.5-2.2,1.8c0,1.1,1,1.8,2.4,1.8c0.4,0,0.8,0,1,0V152.4z"/>
	</g>
	<g>
		<path fill="#FFFFFF" d="M445.7,213.7v4c0,1.5,0,2.8-0.1,4l0,0c0.5-1,1.1-2,1.8-3.1l3.1-4.9h1.2v9.5h-1.2v-4.1c0-1.5,0-2.7,0.1-3.9
			l0,0c-0.5,1-1.1,2.2-1.8,3.2l-3,4.7h-1.3v-9.5L445.7,213.7L445.7,213.7L445.7,213.7z"/>
		<path fill="#FFFFFF" d="M453.4,214.3c0.6-0.4,1.5-0.7,2.5-0.7c1.7,0,2.8,0.9,2.8,2.3c0,1.2-0.8,2.1-2,2.3l0,0
			c1.3,0.1,2.3,1,2.3,2.4c0,2-1.7,2.8-3.4,2.8c-0.9,0-1.8-0.2-2.5-0.6l0.3-1c0.5,0.3,1.4,0.6,2.1,0.6c1.4,0,2.2-0.8,2.2-1.8
			c0-1.4-1.4-1.8-2.6-1.8h-0.6v-0.9h0.6c1.3,0,2.2-0.8,2.2-1.8s-0.7-1.5-1.7-1.5c-0.7,0-1.5,0.3-2,0.6L453.4,214.3z"/>
		<path fill="#FFFFFF" d="M465.8,213.7v1H462v8.5h-1.2v-9.5H465.8z"/>
		<path fill="#FFFFFF" d="M474.5,218.4c0,3.3-2,5-4.4,5c-2.5,0-4.3-2-4.3-4.8c0-3,1.9-5,4.4-5C472.9,213.6,474.5,215.6,474.5,218.4z
			 M467.2,218.6c0,2,1.1,3.9,3,3.9c2,0,3.1-1.8,3.1-4c0-1.9-1-3.9-3-3.9C468.2,214.6,467.2,216.5,467.2,218.6z"/>
		<path fill="#FFFFFF" d="M477.8,214.8h-2.9v-1h7.1v1h-2.9v8.5h-1.2L477.8,214.8L477.8,214.8z"/>
		<path fill="#FFFFFF" d="M490.7,218.4c0,3.3-2,5-4.4,5c-2.5,0-4.3-2-4.3-4.8c0-3,1.9-5,4.4-5C489,213.6,490.7,215.6,490.7,218.4z
			 M483.3,218.6c0,2,1.1,3.9,3,3.9c2,0,3.1-1.8,3.1-4c0-1.9-1-3.9-3-3.9C484.3,214.6,483.3,216.5,483.3,218.6z"/>
		<path fill="#FFFFFF" d="M492.3,213.9c0.5-0.1,1.4-0.2,2.2-0.2c1.2,0,2,0.2,2.6,0.7c0.5,0.4,0.8,0.9,0.8,1.7c0,0.9-0.6,1.7-1.6,2.1
			l0,0c0.9,0.2,2,1,2,2.4c0,0.8-0.3,1.4-0.8,1.9c-0.7,0.6-1.7,0.9-3.3,0.9c-0.9,0-1.5-0.1-1.9-0.1V213.9L492.3,213.9z M493.5,217.8
			h1.1c1.3,0,2.1-0.7,2.1-1.6c0-1.1-0.8-1.6-2.1-1.6c-0.6,0-0.9,0-1.1,0.1V217.8L493.5,217.8z M493.5,222.3c0.2,0,0.6,0.1,1,0.1
			c1.3,0,2.4-0.5,2.4-1.9c0-1.3-1.1-1.8-2.5-1.8h-1L493.5,222.3L493.5,222.3z"/>
		<path fill="#FFFFFF" d="M506.3,213.7v9.5H505v-8.5h-3.2v2.9c0,2.1-0.1,4.4-1.4,5.3c-0.4,0.2-0.9,0.5-1.5,0.5l-0.2-1
			c0.4-0.1,0.8-0.3,1-0.5c0.8-0.8,0.8-2.6,0.8-4.1v-4L506.3,213.7L506.3,213.7z"/>
		<path fill="#FFFFFF" d="M513.4,218.8h-3.7v3.4h4.1v1h-5.4v-9.5h5.1v1h-3.9v3h3.7v1.1H513.4z"/>
		<path fill="#FFFFFF" d="M516.6,213.7v4h4.6v-4h1.2v9.5h-1.2v-4.5h-4.6v4.5h-1.2v-9.5H516.6z"/>
		<path fill="#FFFFFF" d="M525.7,213.7v4c0,1.5,0,2.8-0.1,4l0,0c0.5-1,1.1-2,1.8-3.2l3.1-4.9h1.2v9.5h-1.2V219c0-1.5,0-2.7,0.1-3.9
			l0,0c-0.5,1-1.1,2.2-1.8,3.2l-3,4.7h-1.3v-9.5h1.2V213.7L525.7,213.7z"/>
		<path fill="#FFFFFF" d="M538.8,218.8h-3.7v3.4h4.1v1h-5.4v-9.5h5.1v1H535v3h3.7L538.8,218.8L538.8,218.8z"/>
		<path fill="#FFFFFF" d="M462.8,236.8c0,2.5-1.8,3.6-3.4,3.6c-1.9,0-3.3-1.4-3.3-3.5c0-2.3,1.5-3.6,3.4-3.6
			C461.5,233.2,462.8,234.7,462.8,236.8z M457.4,236.8c0,1.5,0.9,2.6,2.1,2.6s2.1-1.1,2.1-2.7c0-1.2-0.6-2.6-2-2.6
			C458.2,234.1,457.4,235.5,457.4,236.8z"/>
		<path fill="#FFFFFF" d="M468.9,233.4v1h-2.1v5.9h-1.2v-5.9h-2.1v-1H468.9z"/>
		<path fill="#FFFFFF" d="M473,238.8c0.4,0.2,1.2,0.6,2,0.6c1.6,0,2.1-1,2.1-1.8c0-1.3-1.2-1.8-2.4-1.8H474v-0.9h0.7
			c0.9,0,2.1-0.5,2.1-1.6c0-0.7-0.5-1.4-1.6-1.4c-0.7,0-1.4,0.3-1.8,0.6l-0.3-0.9c0.5-0.4,1.4-0.7,2.4-0.7c1.8,0,2.6,1.1,2.6,2.2
			c0,0.9-0.6,1.8-1.7,2.2l0,0c1.1,0.2,2.1,1.1,2.1,2.4c0,1.5-1.1,2.8-3.4,2.8c-1,0-1.9-0.3-2.4-0.6L473,238.8z"/>
		<path fill="#FFFFFF" d="M483.2,236v0.9h-3.5V236H483.2z"/>
		<path fill="#FFFFFF" d="M485.3,233.4l1,1.5c0.3,0.4,0.5,0.7,0.7,1.1l0,0c0.2-0.4,0.5-0.8,0.7-1.1l1-1.5h1.3l-2.3,3.3l2.4,3.5h-1.4
			l-1-1.5c-0.3-0.4-0.5-0.8-0.7-1.2l0,0c-0.2,0.4-0.5,0.8-0.7,1.2l-1,1.5h-1.4l2.4-3.5l-2.3-3.3H485.3z"/>
		<path fill="#FFFFFF" d="M500.8,230.7v8.5h0.8l-0.1,3.3h-1l-0.1-2.3h-6l-0.1,2.3h-1l-0.1-3.3h0.7c0.4-0.7,0.7-1.3,0.9-2.1
			c0.3-1.1,0.5-2.4,0.5-4v-2.4H500.8L500.8,230.7z M496.6,233.5c0,1.5-0.1,2.8-0.5,3.9c-0.2,0.7-0.5,1.3-0.8,1.8h4.2v-7.5h-3
			L496.6,233.5L496.6,233.5z"/>
		<path fill="#FFFFFF" d="M504.4,230.7v4h4.6v-4h1.2v9.5H509v-4.5h-4.6v4.5h-1.2v-9.5H504.4L504.4,230.7z"/>
		<path fill="#FFFFFF" d="M517.4,235.8h-3.7v3.4h4.1v1h-5.4v-9.5h5.1v1h-3.9v3h3.7v1.1H517.4z"/>
		<path fill="#FFFFFF" d="M520.5,230.7v4c0,1.5,0,2.8-0.1,4l0,0c0.5-1,1.1-2,1.8-3.2l3.1-4.9h1.2v9.5h-1.2V236c0-1.5,0-2.7,0.1-3.9
			l0,0c-0.5,1-1.1,2.1-1.8,3.2l-3,4.7h-1.3v-9.5h1.2V230.7z M522.1,228.7c0.1,0.4,0.2,0.9,0.9,0.9c0.6,0,0.8-0.4,0.9-0.9h0.9
			c-0.1,0.9-0.6,1.5-1.8,1.5s-1.7-0.6-1.8-1.5H522.1z"/>
	</g>
	<g>
		<path fill="#FFFFFF" d="M473.7,139.1c0,3.3-2,5-4.4,5c-2.5,0-4.3-2-4.3-4.8c0-3,1.9-5,4.4-5C472,134.3,473.7,136.3,473.7,139.1z
			 M466.3,139.3c0,2,1.1,3.9,3,3.9c2,0,3.1-1.8,3.1-4c0-1.9-1-3.9-3-3.9C467.3,135.3,466.3,137.2,466.3,139.3z"/>
		<path fill="#FFFFFF" d="M477,135.5h-2.9v-1h7.1v1h-2.9v8.5H477V135.5L477,135.5z"/>
		<path fill="#FFFFFF" d="M487.2,134.5v1h-3.8v8.5h-1.2v-9.5H487.2L487.2,134.5z"/>
		<path fill="#FFFFFF" d="M488.3,134.6c0.6-0.1,1.4-0.2,2.4-0.2c1.2,0,2.1,0.3,2.7,0.8c0.5,0.5,0.8,1.1,0.8,2s-0.3,1.5-0.7,2
			c-0.6,0.7-1.7,1-2.9,1c-0.4,0-0.7,0-1-0.1v3.8h-1.2L488.3,134.6L488.3,134.6z M489.5,139.2c0.3,0.1,0.6,0.1,1,0.1
			c1.5,0,2.4-0.7,2.4-2c0-1.3-0.9-1.9-2.2-1.9c-0.5,0-0.9,0-1.2,0.1V139.2L489.5,139.2z"/>
		<path fill="#FFFFFF" d="M496,134.5l1.9,4.1c0.2,0.6,0.5,1.1,0.7,1.7l0,0c0.2-0.5,0.4-1,0.6-1.7l1.5-4h1.3l-2,4.9
			c-0.5,1.3-1.1,2.7-1.8,3.6c-0.6,0.8-1.3,1.2-2.2,1.2c-0.3,0-0.5,0-0.7-0.1l0.1-1c0.1,0,0.2,0,0.5,0c1,0,1.6-1,1.9-1.6
			c0.1-0.2,0.1-0.4,0-0.6l-3.2-6.4h1.4V134.5z"/>
		<path fill="#FFFFFF" d="M502.8,135c0.6-0.4,1.5-0.7,2.5-0.7c1.7,0,2.8,0.9,2.8,2.3c0,1.2-0.8,2.1-2,2.3l0,0c1.3,0.1,2.3,1,2.3,2.4
			c0,2-1.7,2.8-3.5,2.8c-0.9,0-1.8-0.2-2.5-0.6l0.3-1c0.5,0.3,1.4,0.6,2.1,0.6c1.4,0,2.2-0.8,2.2-1.8c0-1.4-1.4-1.8-2.6-1.8H504
			v-0.9h0.6c1.3,0,2.2-0.8,2.2-1.8s-0.7-1.5-1.7-1.5c-0.7,0-1.5,0.3-2,0.6L502.8,135z"/>
		<path fill="#FFFFFF" d="M511.3,134.5v4.2h0.4l3.3-4.2h1.5l-3.6,4.4c1.6,0.2,2.2,1.2,2.7,2.5c0.4,1,0.6,1.9,1,2.7h-1.3
			c-0.3-0.6-0.6-1.5-0.9-2.2c-0.4-1.3-1-2.1-2.7-2.1h-0.4v4.4h-1.2v-9.5L511.3,134.5L511.3,134.5z"/>
		<path fill="#FFFFFF" d="M519.4,141l-1,3h-1.3l3.2-9.5h1.5l3.3,9.5h-1.3l-1-3H519.4z M522.5,140l-0.9-2.7c-0.2-0.6-0.4-1.2-0.5-1.7
			l0,0c-0.1,0.6-0.3,1.1-0.5,1.7l-0.9,2.8h2.8V140z"/>
		<path fill="#FFFFFF" d="M430.8,151.6c0.5-0.1,1.4-0.2,2.2-0.2c1.2,0,2,0.2,2.6,0.7c0.5,0.4,0.8,0.9,0.8,1.7c0,0.9-0.6,1.7-1.6,2.1
			l0,0c0.9,0.2,2,1,2,2.4c0,0.8-0.3,1.4-0.8,1.9c-0.7,0.6-1.7,0.9-3.3,0.9c-0.8,0-1.5-0.1-1.9-0.1V151.6L430.8,151.6z M432,155.5
			h1.1c1.3,0,2.1-0.7,2.1-1.6c0-1.1-0.8-1.6-2.1-1.6c-0.6,0-0.9,0-1.1,0.1V155.5L432,155.5z M432,160c0.2,0,0.6,0.1,1,0.1
			c1.3,0,2.4-0.5,2.4-1.9c0-1.3-1.1-1.8-2.5-1.8h-1L432,160L432,160z"/>
		<path fill="#FFFFFF" d="M443.3,152.5h-2.9v-1h7.1v1h-2.9v8.5h-1.2L443.3,152.5L443.3,152.5z"/>
		<path fill="#FFFFFF" d="M453.4,156.5h-3.7v3.4h4.1v1h-5.4v-9.5h5.1v1h-3.9v3h3.7v1.1H453.4z"/>
		<path fill="#FFFFFF" d="M456.4,151.4v3c0,1.3,0.7,2,2,2c0.7,0,1.4-0.2,1.9-0.5v-4.5h1.2v9.5h-1.2v-4l0,0c-0.7,0.4-1.5,0.6-2.3,0.6
			c-1.3,0-2.8-0.5-2.8-2.9v-3.2H456.4L456.4,151.4z"/>
		<path fill="#FFFFFF" d="M468.7,156.5H465v3.4h4.1v1h-5.4v-9.5h5.1v1h-3.9v3h3.7v1.1H468.7z"/>
		<path fill="#FFFFFF" d="M471.9,151.4v4h4.6v-4h1.2v9.5h-1.2v-4.5h-4.6v4.5h-1.2v-9.5H471.9z"/>
		<path fill="#FFFFFF" d="M481.1,151.4v4c0,1.5,0,2.8-0.1,4l0,0c0.5-1,1.1-2,1.8-3.2l3.1-4.9h1.2v9.5h-1.2v-4.1c0-1.5,0-2.7,0.1-3.9
			l0,0c-0.5,1-1.1,2.1-1.8,3.2l-3,4.7h-1.3v-9.5h1.2V151.4z"/>
		<path fill="#FFFFFF" d="M501.1,161v-0.8l1-0.9c2.3-2.2,3.4-3.4,3.4-4.8c0-0.9-0.5-1.8-1.8-1.8c-0.8,0-1.5,0.4-2,0.8l-0.4-0.9
			c0.6-0.5,1.5-0.9,2.6-0.9c2,0,2.8,1.4,2.8,2.7c0,1.7-1.2,3.1-3.2,4.9l-0.7,0.7l0,0h4.1v1H501.1L501.1,161z"/>
		<path fill="#FFFFFF" d="M512.2,161v-2.5h-4.3v-0.8l4.1-5.9h1.3v5.7h1.3v1h-1.3v2.5H512.2L512.2,161z M512.2,157.5v-3.1
			c0-0.5,0-1,0-1.4l0,0c-0.3,0.5-0.5,0.9-0.8,1.4l-2.3,3.1l0,0H512.2z"/>
		<path fill="#FFFFFF" d="M520.2,151.4v3c0,1.3,0.7,2,2,2c0.7,0,1.4-0.2,1.9-0.5v-4.5h1.2v9.5h-1.2v-4l0,0c-0.7,0.4-1.5,0.6-2.3,0.6
			c-1.3,0-2.8-0.5-2.8-2.9v-3.2H520.2L520.2,151.4z"/>
		<path fill="#FFFFFF" d="M529,158l-1,3h-1.3l3.2-9.5h1.5l3.3,9.5h-1.3l-1-3H529z M532.1,157l-0.9-2.7c-0.2-0.6-0.4-1.2-0.5-1.7l0,0
			c-0.1,0.6-0.3,1.1-0.5,1.7l-0.9,2.8h2.8V157z"/>
		<path fill="#FFFFFF" d="M542.5,160.7c-0.5,0.2-1.4,0.5-2.5,0.5c-2.7,0-4.7-1.7-4.7-4.8c0-3,2-5,5-5c1.2,0,1.9,0.3,2.3,0.4l-0.3,1
			c-0.5-0.2-1.1-0.4-1.9-0.4c-2.2,0-3.7,1.4-3.7,3.9c0,2.3,1.3,3.8,3.7,3.8c0.8,0,1.5-0.2,2-0.4L542.5,160.7z"/>
		<path fill="#FFFFFF" d="M552,156.1c0,3.3-2,5-4.4,5c-2.5,0-4.3-2-4.3-4.8c0-3,1.9-5,4.4-5C550.3,151.3,552,153.3,552,156.1z
			 M544.6,156.3c0,2,1.1,3.9,3,3.9c2,0,3.1-1.8,3.1-4c0-1.9-1-3.9-3-3.9C545.6,152.3,544.6,154.2,544.6,156.3z"/>
		<path fill="#FFFFFF" d="M553.6,151.6c0.5-0.1,1.4-0.2,2.2-0.2c1.2,0,2,0.2,2.6,0.7c0.5,0.4,0.8,0.9,0.8,1.7c0,0.9-0.6,1.7-1.6,2.1
			l0,0c0.9,0.2,2,1,2,2.4c0,0.8-0.3,1.4-0.8,1.9c-0.7,0.6-1.7,0.9-3.3,0.9c-0.9,0-1.5-0.1-1.9-0.1V151.6L553.6,151.6z M554.8,155.5
			h1.1c1.3,0,2.1-0.7,2.1-1.6c0-1.1-0.8-1.6-2.1-1.6c-0.6,0-0.9,0-1.1,0.1V155.5L554.8,155.5z M554.8,160c0.2,0,0.6,0.1,1,0.1
			c1.3,0,2.4-0.5,2.4-1.9c0-1.3-1.1-1.8-2.5-1.8h-1L554.8,160L554.8,160z"/>
		<path fill="#FFFFFF" d="M494.1,156.4h-3.7v3.4h4.1v1h-5.4v-9.5h5.1v1h-3.9v3h3.7L494.1,156.4L494.1,156.4z"/>
	</g>
	<g>
		<path fill="#FFFFFF" d="M578.9,253.2v8.5h0.8l-0.1,3.3h-1l-0.1-2.3h-6l-0.1,2.3h-1l-0.1-3.3h0.7c0.4-0.6,0.7-1.3,0.9-2.1
			c0.3-1.1,0.5-2.4,0.5-4v-2.4H578.9L578.9,253.2z M574.7,256c0,1.5-0.1,2.8-0.5,3.9c-0.2,0.7-0.5,1.3-0.8,1.8h4.2v-7.5h-3
			L574.7,256L574.7,256z"/>
		<path fill="#FFFFFF" d="M589.3,257.9c0,3.3-2,5-4.4,5c-2.5,0-4.3-2-4.3-4.8c0-3,1.9-5,4.4-5C587.6,253,589.3,255,589.3,257.9z
			 M581.9,258c0,2,1.1,3.9,3,3.9c2,0,3.1-1.8,3.1-4c0-1.9-1-3.9-3-3.9C582.9,254,581.9,255.9,581.9,258z"/>
		<path fill="#FFFFFF" d="M597.6,262.4c-0.5,0.2-1.4,0.5-2.5,0.5c-2.7,0-4.7-1.7-4.7-4.8c0-3,2-5,5-5c1.2,0,1.9,0.3,2.3,0.4l-0.3,1
			c-0.5-0.2-1.1-0.4-1.9-0.4c-2.2,0-3.7,1.4-3.7,3.9c0,2.3,1.3,3.8,3.7,3.8c0.7,0,1.5-0.2,2-0.4L597.6,262.4z"/>
		<path fill="#FFFFFF" d="M601.4,254.2h-2.9v-1h7.1v1h-2.9v8.5h-1.2L601.4,254.2L601.4,254.2z"/>
		<path fill="#FFFFFF" d="M607,259.7l-1,3h-1.3l3.2-9.5h1.5l3.3,9.5h-1.3l-1-3H607z M610.2,258.8l-0.9-2.7c-0.2-0.6-0.4-1.2-0.5-1.7
			l0,0c-0.1,0.6-0.3,1.1-0.5,1.7l-0.9,2.8L610.2,258.8L610.2,258.8z"/>
		<path fill="#FFFFFF" d="M614.2,253.3c0.5-0.1,1.4-0.2,2.2-0.2c1.2,0,2,0.2,2.6,0.7c0.5,0.4,0.8,0.9,0.8,1.7c0,0.9-0.6,1.7-1.6,2.1
			l0,0c0.9,0.2,2,1,2,2.4c0,0.8-0.3,1.4-0.8,1.9c-0.7,0.6-1.7,0.9-3.3,0.9c-0.8,0-1.5-0.1-1.9-0.1V253.3z M615.4,257.2h1.1
			c1.3,0,2.1-0.7,2.1-1.6c0-1.1-0.8-1.6-2.1-1.6c-0.6,0-0.9,0-1.1,0.1V257.2L615.4,257.2z M615.4,261.8c0.2,0,0.6,0.1,1,0.1
			c1.3,0,2.4-0.5,2.4-1.9c0-1.3-1.1-1.8-2.5-1.8h-1L615.4,261.8L615.4,261.8z"/>
		<path fill="#FFFFFF" d="M623,253.2v4.2h0.4l3.3-4.2h1.5l-3.6,4.4c1.6,0.2,2.2,1.2,2.7,2.5c0.4,1,0.6,1.9,1,2.7H627
			c-0.3-0.6-0.6-1.5-0.9-2.2c-0.4-1.3-1-2.1-2.7-2.1H623v4.4h-1.2v-9.5h1.2V253.2z"/>
		<path fill="#FFFFFF" d="M631.1,259.7l-1,3h-1.3l3.2-9.5h1.5l3.3,9.5h-1.3l-1-3H631.1z M634.2,258.8l-0.9-2.7
			c-0.2-0.6-0.4-1.2-0.5-1.7l0,0c-0.1,0.6-0.3,1.1-0.5,1.7l-0.9,2.8L634.2,258.8L634.2,258.8z"/>
		<path fill="#FFFFFF" d="M648.1,253.2v9.5h-1.2v-8.5h-4.4v8.5h-1.2v-9.5H648.1L648.1,253.2z"/>
		<path fill="#FFFFFF" d="M650.2,253.3c0.6-0.1,1.4-0.2,2.4-0.2c1.2,0,2.1,0.3,2.7,0.8c0.5,0.5,0.8,1.1,0.8,2c0,0.9-0.3,1.5-0.7,2
			c-0.7,0.7-1.7,1-2.9,1c-0.4,0-0.7,0-1-0.1v3.8h-1.2L650.2,253.3L650.2,253.3z M651.5,257.9c0.3,0.1,0.6,0.1,1,0.1
			c1.5,0,2.4-0.7,2.4-2s-0.9-1.9-2.2-1.9c-0.5,0-0.9,0-1.2,0.1V257.9L651.5,257.9L651.5,257.9z"/>
		<path fill="#FFFFFF" d="M665.8,257.9c0,3.3-2,5-4.4,5c-2.5,0-4.3-2-4.3-4.8c0-3,1.9-5,4.4-5C664.1,253,665.8,255,665.8,257.9z
			 M658.4,258c0,2,1.1,3.9,3,3.9c2,0,3.1-1.8,3.1-4c0-1.9-1-3.9-3-3.9C659.4,254,658.4,255.9,658.4,258z"/>
		<path fill="#FFFFFF" d="M673.6,253.2v8.5h0.8l-0.1,3.3h-1l-0.1-2.3h-6l-0.1,2.3h-1l-0.1-3.3h0.7c0.4-0.6,0.7-1.3,0.9-2.1
			c0.3-1.1,0.5-2.4,0.5-4v-2.4H673.6L673.6,253.2z M669.4,256c0,1.5-0.1,2.8-0.5,3.9c-0.2,0.7-0.5,1.3-0.8,1.8h4.2v-7.5h-3
			L669.4,256L669.4,256L669.4,256z"/>
		<path fill="#FFFFFF" d="M676.3,253.2l1.9,4.1c0.2,0.6,0.5,1.1,0.7,1.7l0,0c0.2-0.5,0.4-1,0.6-1.7l1.5-4h1.3l-2,4.9
			c-0.5,1.3-1.1,2.7-1.8,3.6c-0.6,0.8-1.3,1.2-2.2,1.2c-0.3,0-0.5,0-0.7-0.1l0.1-1c0.1,0,0.2,0,0.5,0c1,0,1.6-1,1.9-1.6
			c0.1-0.2,0.1-0.4,0-0.6l-3.2-6.4L676.3,253.2L676.3,253.2z"/>
		<path fill="#FFFFFF" d="M684.5,253.2v4.2h0.4l3.3-4.2h1.5l-3.6,4.4c1.6,0.2,2.2,1.2,2.7,2.5c0.4,1,0.6,1.9,1,2.7h-1.3
			c-0.3-0.6-0.6-1.5-0.9-2.2c-0.4-1.3-1-2.1-2.7-2.1h-0.4v4.4h-1.2v-9.5h1.2V253.2z"/>
		<path fill="#FFFFFF" d="M692.2,253.2v8.5h4.4v-8.5h1.2v8.5h0.8l-0.1,3.3h-1l-0.1-2.3H691v-9.5H692.2L692.2,253.2z"/>
		<path fill="#FFFFFF" d="M701.4,253.2v4c0,1.5,0,2.8-0.1,4l0,0c0.5-1,1.1-2,1.8-3.2l3.1-4.9h1.2v9.5h-1.2v-4.1c0-1.5,0-2.7,0.1-3.9
			l0,0c-0.5,1-1.1,2.1-1.8,3.2l-3,4.7h-1.3V253h1.2V253.2z"/>
		<path fill="#FFFFFF" d="M710.7,253.2v4c0,1.5,0,2.8-0.1,4l0,0c0.5-1,1.1-2,1.8-3.2l3.1-4.9h1.2v9.5h-1.2v-4.1c0-1.5,0-2.7,0.1-3.9
			l0,0c-0.5,1-1.1,2.1-1.8,3.2l-3,4.7h-1.3V253h1.2V253.2z"/>
		<path fill="#FFFFFF" d="M561.7,270.2v4h4.6v-4h1.2v9.5h-1.2v-4.5h-4.6v4.5h-1.2v-9.5H561.7z"/>
		<path fill="#FFFFFF" d="M577.9,274.8c0,3.3-2,5-4.4,5c-2.5,0-4.3-1.9-4.3-4.8c0-3,1.9-5,4.4-5C576.2,270,577.9,272,577.9,274.8z
			 M570.5,275c0,2,1.1,3.9,3,3.9c2,0,3.1-1.8,3.1-4c0-1.9-1-3.9-3-3.9C571.5,271,570.5,272.9,570.5,275z"/>
		<path fill="#FFFFFF" d="M579.4,270.3c0.5-0.1,1.4-0.2,2.3-0.2c1.2,0,2,0.2,2.6,0.7c0.5,0.4,0.8,0.9,0.8,1.7c0,0.9-0.6,1.7-1.6,2.1
			l0,0c0.9,0.2,2,1,2,2.4c0,0.8-0.3,1.4-0.8,1.9c-0.7,0.6-1.7,0.9-3.3,0.9c-0.9,0-1.5-0.1-1.9-0.1L579.4,270.3L579.4,270.3z
			 M580.7,274.2h1.1c1.3,0,2.1-0.7,2.1-1.6c0-1.1-0.9-1.6-2.1-1.6c-0.6,0-0.9,0-1.1,0.1V274.2L580.7,274.2z M580.7,278.8
			c0.2,0,0.6,0.1,1,0.1c1.3,0,2.4-0.5,2.4-1.9c0-1.3-1.1-1.8-2.5-1.8h-1L580.7,278.8L580.7,278.8z"/>
		<path fill="#FFFFFF" d="M588.7,276.7l-1,3h-1.3l3.2-9.5h1.5l3.3,9.5h-1.3l-1-3H588.7z M591.8,275.7l-0.9-2.7
			c-0.2-0.6-0.4-1.2-0.5-1.7l0,0c-0.1,0.6-0.3,1.1-0.5,1.7l-0.9,2.8L591.8,275.7L591.8,275.7z"/>
		<path fill="#FFFFFF" d="M594.9,279.7c0.1-0.3,0.3-0.6,0.4-0.9c0.4-1.1,0.7-2.4,1.4-3.2c0.2-0.2,0.5-0.4,0.8-0.5l0,0
			c-1.2-0.2-2.1-1-2.1-2.4c0-0.8,0.3-1.5,0.9-1.9c0.6-0.5,1.5-0.7,2.7-0.7c0.8,0,1.7,0.1,2.3,0.2v9.4h-1.2v-4.1h-0.9
			c-0.6,0-1,0.1-1.4,0.5c-0.6,0.7-0.9,2.1-1.3,3c-0.1,0.2-0.2,0.4-0.3,0.7L594.9,279.7L594.9,279.7z M600.1,271.1
			c-0.2,0-0.6-0.1-1.2-0.1c-1.2,0-2.2,0.5-2.2,1.8c0,1.1,1,1.8,2.4,1.8c0.4,0,0.8,0,1,0V271.1L600.1,271.1z"/>
		<path fill="#FFFFFF" d="M613.3,270.2v9.5h-1.2v-8.5h-4.4v8.5h-1.2v-9.5H613.3z"/>
		<path fill="#FFFFFF" d="M623.6,274.8c0,3.3-2,5-4.4,5c-2.5,0-4.3-1.9-4.3-4.8c0-3,1.9-5,4.4-5C621.9,270,623.6,272,623.6,274.8z
			 M616.2,275c0,2,1.1,3.9,3,3.9c2,0,3.1-1.8,3.1-4c0-1.9-1-3.9-3-3.9C617.2,271,616.2,272.9,616.2,275z"/>
		<path fill="#FFFFFF" d="M626.3,270.2v3c0,1.3,0.7,2,2,2c0.7,0,1.4-0.2,1.9-0.5v-4.5h1.2v9.5h-1.2v-4l0,0c-0.7,0.4-1.5,0.6-2.3,0.6
			c-1.3,0-2.8-0.5-2.8-2.9v-3.2H626.3z"/>
		<path fill="#FFFFFF" d="M635.4,271.2h-2.9v-1h7.1v1h-2.9v8.5h-1.2L635.4,271.2L635.4,271.2z"/>
		<path fill="#FFFFFF" d="M641,276.7l-1,3h-1.3l3.2-9.5h1.5l3.3,9.5h-1.3l-1-3H641z M644.1,275.7l-0.9-2.7c-0.2-0.6-0.4-1.2-0.5-1.7
			l0,0c-0.1,0.6-0.3,1.1-0.5,1.7l-0.9,2.8L644.1,275.7L644.1,275.7z"/>
		<path fill="#FFFFFF" d="M652.2,272.8v2.9c0,1.1,0,1.8-0.1,2.7l0,0c0.4-0.8,0.6-1.3,1.1-2.1l2.1-3.5h1.5v6.8h-1.2v-2.9
			c0-1.1,0-1.7,0.1-2.8l0,0c-0.4,0.9-0.7,1.4-1.1,2.1c-0.6,1.1-1.4,2.4-2.1,3.6H651v-6.8H652.2L652.2,272.8L652.2,272.8z"/>
		<path fill="#FFFFFF" d="M664.1,272.8v6.8h-1.2v-5.9h-2.3v1.8c0,1.9-0.2,3.2-1.1,3.8c-0.3,0.3-0.7,0.4-1.4,0.4l-0.1-1
			c0.2,0,0.5-0.1,0.7-0.3c0.6-0.5,0.7-1.4,0.7-3v-2.8L664.1,272.8L664.1,272.8z"/>
		<path fill="#FFFFFF" d="M667.3,272.8v2.9c0,1.1,0,1.8-0.1,2.7l0,0c0.4-0.8,0.6-1.3,1.1-2.1l2.1-3.5h1.5v6.8h-1.2v-2.9
			c0-1.1,0-1.7,0.1-2.8l0,0c-0.4,0.9-0.7,1.4-1.1,2.1c-0.6,1.1-1.4,2.4-2.1,3.6h-1.4v-6.8H667.3L667.3,272.8L667.3,272.8z"/>
		<path fill="#FFFFFF" d="M678.2,270.2v4c0,1.5,0,2.8-0.1,4l0,0c0.5-1,1.1-2,1.8-3.2l3.1-4.9h1.2v9.5H683v-4.1c0-1.5,0-2.7,0.1-3.9
			l0,0c-0.5,1-1.1,2.1-1.8,3.2l-3,4.7H677V270h1.2V270.2z"/>
		<path fill="#FFFFFF" d="M687.5,270.2v4h4.6v-4h1.2v9.5h-1.2v-4.5h-4.6v4.5h-1.2v-9.5H687.5z"/>
		<path fill="#FFFFFF" d="M697.3,271.2h-2.9v-1h7.1v1h-2.9v8.5h-1.2L697.3,271.2L697.3,271.2z"/>
		<path fill="#FFFFFF" d="M702.9,276.7l-1,3h-1.3l3.2-9.5h1.5l3.3,9.5h-1.3l-1-3H702.9z M706.1,275.7l-0.9-2.7
			c-0.2-0.6-0.4-1.2-0.5-1.7l0,0c-0.1,0.6-0.3,1.1-0.5,1.7l-0.9,2.8L706.1,275.7L706.1,275.7z"/>
		<path fill="#FFFFFF" d="M711.2,270.2v4c0,1.5,0,2.8-0.1,4l0,0c0.5-1,1.1-2,1.8-3.2l3.1-4.9h1.2v9.5H716v-4.1c0-1.5,0-2.7,0.1-3.9
			l0,0c-0.5,1-1.1,2.1-1.8,3.2l-3,4.7H710V270h1.2V270.2z M712.8,268.2c0.1,0.4,0.2,0.9,0.9,0.9c0.6,0,0.8-0.4,0.9-0.9h0.9
			c-0.1,0.9-0.6,1.5-1.8,1.5s-1.7-0.6-1.8-1.5H712.8z"/>
		<path fill="#FFFFFF" d="M727.4,275.5c-0.1-1.3-0.2-2.9-0.1-4.1l0,0c-0.3,1.1-0.7,2.3-1.2,3.6l-1.7,4.6h-0.9l-1.5-4.5
			c-0.5-1.3-0.8-2.6-1.1-3.7l0,0c0,1.2-0.1,2.8-0.2,4.2l-0.3,4.1h-1.2l0.7-9.5h1.6l1.6,4.6c0.4,1.2,0.7,2.2,1,3.2l0,0
			c0.2-1,0.6-2,1-3.2l1.7-4.6h1.6l0.6,9.5h-1.2L727.4,275.5z"/>
	</g>
	<g>
		<path fill="#FFFFFF" d="M608.2,74.6v9.5H607v-8.5h-4.4v8.5h-1.2v-9.5H608.2z"/>
		<path fill="#FFFFFF" d="M618.5,79.3c0,3.3-2,5-4.4,5c-2.5,0-4.3-2-4.3-4.8c0-3,1.9-5,4.4-5C616.8,74.5,618.5,76.5,618.5,79.3z
			 M611.1,79.4c0,2,1.1,3.9,3,3.9c2,0,3.1-1.8,3.1-4c0-1.9-1-3.9-3-3.9C612.1,75.5,611.1,77.3,611.1,79.4z"/>
		<path fill="#FFFFFF" d="M628.3,84.1l-1.2-2.1c-0.5-0.8-0.8-1.3-1.1-1.9l0,0c-0.3,0.6-0.5,1.1-1,1.9l-1.1,2.1h-1.4l2.9-4.8
			l-2.8-4.7h1.4l1.3,2.2c0.4,0.6,0.6,1.1,0.9,1.6l0,0c0.3-0.6,0.5-1,0.9-1.6l1.3-2.2h1.4l-2.9,4.6l3,4.9H628.3L628.3,84.1z"/>
		<path fill="#FFFFFF" d="M632.6,81.2l-1,3h-1.3l3.2-9.5h1.5l3.3,9.5H637l-1-3H632.6z M635.8,80.2l-0.9-2.7
			c-0.2-0.6-0.4-1.2-0.5-1.7l0,0c-0.1,0.6-0.3,1.1-0.5,1.7l-0.9,2.8L635.8,80.2L635.8,80.2z"/>
		<path fill="#FFFFFF" d="M639.7,74.7c0.6-0.1,1.4-0.2,2.4-0.2c1.2,0,2.1,0.3,2.7,0.8c0.5,0.5,0.8,1.1,0.8,2c0,0.9-0.3,1.5-0.7,2
			c-0.7,0.7-1.7,1-2.9,1c-0.4,0-0.7,0-1-0.1V84h-1.2L639.7,74.7L639.7,74.7z M641,79.3c0.3,0.1,0.6,0.1,1,0.1c1.5,0,2.4-0.7,2.4-2
			s-0.9-1.9-2.2-1.9c-0.5,0-0.9,0-1.2,0.1V79.3L641,79.3z"/>
		<path fill="#FFFFFF" d="M648.5,74.6v3.6c0.3,0,0.8-0.1,1.2-0.1c2,0,3.7,0.9,3.7,3c0,0.9-0.3,1.5-0.7,2c-0.8,0.8-2.1,1.1-3.4,1.1
			c-0.9,0-1.5-0.1-1.9-0.1v-9.5H648.5L648.5,74.6z M648.5,83.2c0.3,0.1,0.6,0.1,1,0.1c1.4,0,2.5-0.7,2.5-2.1c0-1.5-1.2-2.1-2.6-2.1
			c-0.3,0-0.7,0-1,0.1L648.5,83.2L648.5,83.2z"/>
		<path fill="#FFFFFF" d="M656.2,74.6v4.2h0.4l3.3-4.2h1.5l-3.6,4.4c1.6,0.2,2.2,1.2,2.7,2.5c0.4,1,0.6,1.9,1,2.7h-1.3
			c-0.3-0.7-0.6-1.5-0.9-2.2c-0.4-1.3-1-2.1-2.7-2.1h-0.4v4.4H655v-9.5h1.2V74.6z"/>
		<path fill="#FFFFFF" d="M670.5,79.3c0,3.3-2,5-4.4,5c-2.5,0-4.3-2-4.3-4.8c0-3,1.9-5,4.4-5C668.8,74.5,670.5,76.5,670.5,79.3z
			 M663.1,79.4c0,2,1.1,3.9,3,3.9c2,0,3.1-1.8,3.1-4c0-1.9-1-3.9-3-3.9C664.1,75.5,663.1,77.3,663.1,79.4z"/>
		<path fill="#FFFFFF" d="M672.1,74.7c0.5-0.1,1.4-0.2,2.3-0.2c1.2,0,2,0.2,2.6,0.7c0.5,0.4,0.8,0.9,0.8,1.7c0,0.9-0.6,1.7-1.6,2.1
			l0,0c0.9,0.2,2,1,2,2.4c0,0.8-0.3,1.4-0.8,1.9c-0.7,0.6-1.7,0.9-3.3,0.9c-0.9,0-1.5-0.1-1.9-0.1v-9.4H672.1z M673.3,78.6h1.1
			c1.3,0,2.1-0.7,2.1-1.6c0-1.1-0.9-1.6-2.1-1.6c-0.6,0-0.9,0-1.1,0.1V78.6L673.3,78.6z M673.3,83.2c0.2,0,0.6,0.1,1,0.1
			c1.3,0,2.4-0.5,2.4-1.9c0-1.3-1.1-1.8-2.5-1.8h-1L673.3,83.2L673.3,83.2z"/>
		<path fill="#FFFFFF" d="M679.9,74.6l1.9,4.1c0.2,0.6,0.5,1.1,0.7,1.7l0,0c0.2-0.5,0.4-1,0.6-1.7l1.5-4h1.3l-2,4.9
			c-0.5,1.3-1.1,2.7-1.8,3.6c-0.6,0.8-1.3,1.2-2.2,1.2c-0.3,0-0.5,0-0.7-0.1l0.1-1c0.1,0,0.2,0,0.5,0c1,0,1.6-1,1.9-1.6
			c0.1-0.2,0.1-0.4,0-0.6l-3.2-6.4L679.9,74.6L679.9,74.6z"/>
		<path fill="#FFFFFF" d="M611.6,94.3v2.9c0,1.1,0,1.8-0.1,2.7l0,0c0.4-0.8,0.7-1.3,1.1-2.1l2.1-3.5h1.5v6.8H615v-2.9
			c0-1.1,0-1.7,0.1-2.8l0,0c-0.4,0.9-0.7,1.4-1.1,2.1c-0.7,1.1-1.4,2.4-2.1,3.6h-1.4v-6.8H611.6L611.6,94.3z"/>
		<path fill="#FFFFFF" d="M629.5,96.3c0,3.3-2,5-4.4,5c-2.5,0-4.3-2-4.3-4.8c0-3,1.9-5,4.4-5C627.8,91.4,629.5,93.4,629.5,96.3z
			 M622.1,96.4c0,2,1.1,3.9,3,3.9c2,0,3.1-1.8,3.1-4c0-1.9-1-3.9-3-3.9C623.1,92.4,622.1,94.3,622.1,96.4z"/>
		<path fill="#FFFFFF" d="M636.4,91.6v1h-4.1v2.6c0.3,0,0.9-0.1,1.2-0.1c0.9,0,1.8,0.2,2.5,0.6c0.7,0.5,1.2,1.2,1.2,2.3
			c0,0.9-0.3,1.6-0.8,2.1c-0.8,0.8-2.1,1.1-3.4,1.1c-0.9,0-1.5-0.1-1.9-0.1v-9.5H636.4z M632.3,100.2c0.3,0.1,0.6,0.1,1,0.1
			c0.8,0,1.5-0.2,2-0.7c0.3-0.3,0.5-0.8,0.5-1.4c0-0.7-0.3-1.2-0.8-1.6c-0.5-0.3-1.1-0.5-1.8-0.5c-0.3,0-0.7,0-1,0.1L632.3,100.2
			L632.3,100.2z"/>
		<path fill="#FFFFFF" d="M645.1,91.6v9.5h-1.2v-8.5h-3.2v2.9c0,2.1-0.1,4.4-1.4,5.3c-0.4,0.2-0.9,0.5-1.5,0.5l-0.2-1
			c0.4-0.1,0.8-0.3,1-0.5c0.8-0.7,0.8-2.6,0.8-4.1v-4L645.1,91.6L645.1,91.6z"/>
		<path fill="#FFFFFF" d="M648.8,98.1l-1,3h-1.3l3.2-9.5h1.5l3.3,9.5h-1.3l-1-3H648.8z M651.9,97.2l-0.9-2.7
			c-0.2-0.6-0.4-1.2-0.5-1.7l0,0c-0.1,0.6-0.3,1.1-0.5,1.7l-0.9,2.8L651.9,97.2L651.9,97.2z"/>
		<path fill="#FFFFFF" d="M662.4,100.8c-0.5,0.2-1.4,0.5-2.5,0.5c-2.7,0-4.7-1.7-4.7-4.8c0-3,2-5,5-5c1.2,0,1.9,0.3,2.3,0.4l-0.3,1
			c-0.5-0.2-1.1-0.4-1.9-0.4c-2.2,0-3.7,1.4-3.7,3.9c0,2.3,1.3,3.8,3.7,3.8c0.7,0,1.5-0.2,2-0.4L662.4,100.8z"/>
		<path fill="#FFFFFF" d="M666.2,92.6h-2.9v-1h7.1v1h-2.9v8.5h-1.2L666.2,92.6L666.2,92.6z"/>
		<path fill="#FFFFFF" d="M672.6,91.6v4c0,1.5,0,2.8-0.1,4l0,0c0.5-1,1.1-2,1.8-3.2l3.1-4.9h1.2v9.5h-1.2v-4.1c0-1.5,0-2.7,0.1-3.9
			l0,0c-0.5,1-1.1,2.2-1.8,3.2l-3,4.7h-1.3v-9.5h1.2V91.6z"/>
		<path fill="#FFDF6A" d="M619.2,108.6v8.5h0.8l-0.1,3.3h-1l-0.1-2.3h-6l-0.1,2.3h-1l-0.1-3.3h0.7c0.4-0.6,0.7-1.3,0.9-2.1
			c0.3-1.1,0.5-2.4,0.5-4v-2.4H619.2z M615,111.4c0,1.5-0.1,2.8-0.5,3.9c-0.2,0.7-0.5,1.3-0.8,1.8h4.2v-7.5h-3L615,111.4L615,111.4z
			"/>
		<path fill="#FFDF6A" d="M629.6,113.2c0,3.3-2,5-4.4,5c-2.5,0-4.3-2-4.3-4.8c0-3,1.9-5,4.4-5C627.9,108.4,629.6,110.4,629.6,113.2z
			 M622.2,113.4c0,2,1.1,3.9,3,3.9c2,0,3.1-1.8,3.1-4c0-1.9-1-3.9-3-3.9S622.2,111.3,622.2,113.4z"/>
		<path fill="#FFDF6A" d="M637.9,117.8c-0.5,0.2-1.4,0.5-2.5,0.5c-2.7,0-4.7-1.7-4.7-4.8c0-3,2-5,5-5c1.2,0,1.9,0.3,2.3,0.4l-0.3,1
			c-0.5-0.2-1.1-0.4-1.9-0.4c-2.2,0-3.7,1.4-3.7,3.9c0,2.3,1.3,3.8,3.7,3.8c0.8,0,1.5-0.2,2-0.4L637.9,117.8z"/>
		<path fill="#FFDF6A" d="M641.7,109.6h-2.9v-1h7.1v1H643v8.5h-1.2L641.7,109.6L641.7,109.6z"/>
		<path fill="#FFDF6A" d="M647.3,115.1l-1,3H645l3.2-9.5h1.5l3.3,9.5h-1.3l-1-3H647.3z M650.5,114.1l-0.9-2.7
			c-0.2-0.6-0.4-1.2-0.5-1.7l0,0c-0.1,0.6-0.3,1.1-0.5,1.7l-0.9,2.8L650.5,114.1L650.5,114.1z"/>
		<path fill="#FFDF6A" d="M654.5,108.7c0.5-0.1,1.4-0.2,2.2-0.2c1.2,0,2,0.2,2.6,0.7c0.5,0.4,0.8,0.9,0.8,1.7c0,0.9-0.6,1.7-1.6,2.1
			l0,0c0.9,0.2,2,1,2,2.4c0,0.8-0.3,1.4-0.8,1.9c-0.7,0.6-1.7,0.9-3.3,0.9c-0.8,0-1.5-0.1-1.9-0.1V108.7z M655.7,112.6h1.1
			c1.3,0,2.1-0.7,2.1-1.6c0-1.1-0.8-1.6-2.1-1.6c-0.6,0-0.9,0-1.1,0.1V112.6L655.7,112.6z M655.7,117.2c0.2,0,0.6,0.1,1,0.1
			c1.3,0,2.4-0.5,2.4-1.9c0-1.3-1.1-1.8-2.5-1.8h-1L655.7,117.2L655.7,117.2z"/>
		<path fill="#FFDF6A" d="M663.3,108.6v4.2h0.4l3.3-4.2h1.5l-3.6,4.4c1.6,0.2,2.2,1.2,2.7,2.5c0.4,1,0.6,1.9,1,2.7h-1.3
			c-0.3-0.7-0.6-1.5-0.9-2.2c-0.4-1.3-1-2.1-2.7-2.1h-0.4v4.4h-1.2v-9.5L663.3,108.6L663.3,108.6z"/>
		<path fill="#FFDF6A" d="M671.4,115.1l-1,3h-1.3l3.2-9.5h1.5l3.3,9.5h-1.3l-1-3H671.4z M674.5,114.1l-0.9-2.7
			c-0.2-0.6-0.4-1.2-0.5-1.7l0,0c-0.1,0.6-0.3,1.1-0.5,1.7l-0.9,2.8L674.5,114.1L674.5,114.1z"/>
		<path fill="#FFDF6A" d="M613.8,125.5v1h-4.1v2.6c0.3,0,0.9-0.1,1.2-0.1c0.9,0,1.8,0.2,2.5,0.6c0.7,0.5,1.2,1.2,1.2,2.3
			c0,0.9-0.3,1.6-0.8,2.1c-0.8,0.8-2.1,1.1-3.4,1.1c-0.9,0-1.5-0.1-1.9-0.1v-9.5H613.8L613.8,125.5z M609.7,134.1
			c0.3,0.1,0.6,0.1,1,0.1c0.8,0,1.5-0.2,2-0.7c0.3-0.3,0.5-0.8,0.5-1.4c0-0.7-0.3-1.2-0.8-1.6c-0.5-0.3-1.1-0.5-1.8-0.5
			c-0.3,0-0.7,0-1,0.1L609.7,134.1L609.7,134.1z"/>
		<path fill="#FFDF6A" d="M621.1,130.6h-3.7v3.4h4.1v1h-5.4v-9.5h5.1v1h-3.9v3h3.7L621.1,130.6L621.1,130.6z"/>
		<path fill="#FFDF6A" d="M629.7,134.7c-0.5,0.2-1.4,0.5-2.5,0.5c-2.7,0-4.7-1.7-4.7-4.8c0-3,2-5,5-5c1.2,0,1.9,0.3,2.3,0.4l-0.3,1
			c-0.5-0.2-1.1-0.4-1.9-0.4c-2.2,0-3.7,1.4-3.7,3.9c0,2.3,1.3,3.8,3.7,3.8c0.7,0,1.5-0.2,2-0.4L629.7,134.7z"/>
		<path fill="#FFDF6A" d="M638.2,125.5v9.5H637v-8.5h-4.4v8.5h-1.2v-9.5H638.2z"/>
		<path fill="#FFDF6A" d="M646.6,125.5v9.5h-1.2v-8.5h-3.2v2.9c0,2.1-0.1,4.4-1.4,5.3c-0.4,0.2-0.9,0.5-1.5,0.5l-0.2-1
			c0.4-0.1,0.8-0.3,1-0.5c0.8-0.8,0.8-2.6,0.8-4.1v-4h5.7V125.5z"/>
		<path fill="#FFDF6A" d="M650.3,132.1l-1,3H648l3.2-9.5h1.5l3.3,9.5h-1.3l-1-3H650.3z M653.4,131.1l-0.9-2.7
			c-0.2-0.6-0.4-1.2-0.5-1.7l0,0c-0.1,0.6-0.3,1.1-0.5,1.7l-0.9,2.8L653.4,131.1L653.4,131.1z"/>
		<path fill="#FFDF6A" d="M658.6,126.6h-2.9v-1h7.1v1h-2.9v8.5h-1.2L658.6,126.6L658.6,126.6z"/>
		<path fill="#FFDF6A" d="M665,125.5v4h4.6v-4h1.2v9.5h-1.2v-4.5H665v4.5h-1.2v-9.5H665z"/>
		<path fill="#FFDF6A" d="M681.2,130.2c0,3.3-2,5-4.4,5c-2.5,0-4.3-2-4.3-4.8c0-3,1.9-5,4.4-5C679.5,125.4,681.2,127.4,681.2,130.2z
			 M673.8,130.3c0,2,1.1,3.9,3,3.9c1.9,0,3.1-1.8,3.1-4c0-1.9-1-3.9-3-3.9C674.8,126.4,673.8,128.3,673.8,130.3z"/>
	</g>
	<g>
		<path fill="#FFFFFF" d="M583.5,417.2c-0.5,0.2-1.4,0.5-2.5,0.5c-2.7,0-4.7-1.7-4.7-4.8c0-3,2-5,5-5c1.2,0,1.9,0.3,2.3,0.4l-0.3,1
			c-0.5-0.2-1.1-0.4-1.9-0.4c-2.2,0-3.7,1.4-3.7,3.9c0,2.3,1.3,3.8,3.7,3.8c0.8,0,1.5-0.2,2-0.4L583.5,417.2z"/>
		<path fill="#FFFFFF" d="M586,408v3c0,1.3,0.7,2,2,2c0.7,0,1.4-0.2,1.9-0.5V408h1.2v9.5h-1.2v-4l0,0c-0.7,0.4-1.5,0.6-2.3,0.6
			c-1.3,0-2.8-0.5-2.8-2.9V408H586z"/>
		<path fill="#FFFFFF" d="M594.8,414.5l-1,3h-1.3l3.2-9.5h1.5l3.3,9.5h-1.3l-1-3H594.8z M597.9,413.6l-0.9-2.7
			c-0.2-0.6-0.4-1.2-0.5-1.7l0,0c-0.1,0.6-0.3,1.1-0.5,1.7l-0.9,2.8L597.9,413.6L597.9,413.6L597.9,413.6z"/>
		<path fill="#FFFFFF" d="M608.4,417.2c-0.5,0.2-1.4,0.5-2.5,0.5c-2.7,0-4.7-1.7-4.7-4.8c0-3,2-5,5-5c1.2,0,1.9,0.3,2.3,0.4l-0.3,1
			c-0.5-0.2-1.1-0.4-1.9-0.4c-2.2,0-3.7,1.4-3.7,3.9c0,2.3,1.3,3.8,3.7,3.8c0.8,0,1.5-0.2,2-0.4L608.4,417.2z"/>
		<path fill="#FFFFFF" d="M612.2,409h-2.9v-1h7.1v1h-2.9v8.5h-1.2L612.2,409L612.2,409z"/>
		<path fill="#FFFFFF" d="M623.4,408v9.5h-1.2V409H619v2.9c0,2.1-0.1,4.4-1.4,5.3c-0.4,0.2-0.9,0.5-1.5,0.5l-0.2-1
			c0.4-0.1,0.8-0.3,1-0.5c0.8-0.7,0.8-2.6,0.8-4.1v-4L623.4,408L623.4,408z"/>
		<path fill="#FFFFFF" d="M626.7,408v4c0,1.5,0,2.8-0.1,4l0,0c0.5-1,1.1-2,1.8-3.2l3.1-4.9h1.2v9.5h-1.2v-4.1c0-1.5,0-2.7,0.1-3.9
			l0,0c-0.5,1-1.1,2.1-1.8,3.2l-3,4.7h-1.3V408H626.7L626.7,408z"/>
		<path fill="#FFFFFF" d="M634.8,408.1c0.5-0.1,1.4-0.2,2.2-0.2c1.2,0,2,0.2,2.6,0.7c0.5,0.4,0.8,0.9,0.8,1.7c0,0.9-0.6,1.7-1.6,2.1
			l0,0c0.9,0.2,2,1,2,2.4c0,0.8-0.3,1.4-0.8,1.9c-0.7,0.6-1.7,0.9-3.3,0.9c-0.8,0-1.5-0.1-1.9-0.1V408.1z M636,412h1.1
			c1.3,0,2.1-0.7,2.1-1.6c0-1.1-0.8-1.6-2.1-1.6c-0.6,0-0.9,0-1.1,0.1V412L636,412z M636,416.6c0.2,0,0.6,0.1,1,0.1
			c1.3,0,2.4-0.5,2.4-1.9c0-1.3-1.1-1.8-2.5-1.8h-1L636,416.6L636,416.6z"/>
		<path fill="#FFFFFF" d="M643.7,408v3.6c0.3,0,0.8-0.1,1.1-0.1c2,0,3.7,0.9,3.7,3c0,0.9-0.3,1.5-0.7,2c-0.8,0.8-2.1,1.1-3.4,1.1
			c-0.8,0-1.5-0.1-1.9-0.1V408H643.7L643.7,408z M643.7,416.6c0.3,0.1,0.6,0.1,1,0.1c1.4,0,2.5-0.7,2.5-2.1c0-1.5-1.3-2.1-2.5-2.1
			c-0.5,0-0.8,0-1,0.1V416.6L643.7,416.6z M650.8,408v9.5h-1.2V408H650.8z"/>
		<path fill="#FFFFFF" d="M654.2,408v4c0,1.5,0,2.8-0.1,4l0,0c0.5-1,1.1-2,1.8-3.2l3.1-4.9h1.2v9.5H659v-4.1c0-1.5,0-2.7,0.1-3.9
			l0,0c-0.5,1-1.1,2.1-1.8,3.2l-3,4.7H653V408H654.2L654.2,408z M655.7,406c0.1,0.4,0.2,0.9,0.9,0.9c0.6,0,0.8-0.4,0.9-0.9h0.9
			c-0.1,0.9-0.6,1.5-1.8,1.5c-1.2,0-1.7-0.6-1.8-1.5H655.7z"/>
		<path fill="#FFFFFF" d="M666.5,408v4.2h0.4l3.3-4.2h1.5l-3.6,4.4c1.6,0.2,2.2,1.2,2.7,2.5c0.4,1,0.6,1.8,1,2.7h-1.3
			c-0.3-0.6-0.6-1.5-0.9-2.2c-0.4-1.3-1-2.1-2.7-2.1h-0.4v4.4h-1.2V408H666.5z"/>
		<path fill="#FFFFFF" d="M679.7,408v9.5h-1.2V409h-3.2v2.9c0,2.1-0.1,4.4-1.4,5.3c-0.4,0.2-0.9,0.5-1.5,0.5l-0.2-1
			c0.4-0.1,0.8-0.3,1-0.5c0.8-0.7,0.8-2.6,0.8-4.1v-4L679.7,408L679.7,408z"/>
		<path fill="#FFFFFF" d="M683,408v4c0,1.5,0,2.8-0.1,4l0,0c0.5-1,1.1-2,1.8-3.2l3.1-4.9h1.2v9.5h-1.2v-4.1c0-1.5,0-2.7,0.1-3.9l0,0
			c-0.5,1-1.1,2.1-1.8,3.2l-3,4.7h-1.3V408H683L683,408z"/>
		<path fill="#FFFFFF" d="M696.1,413.1h-3.7v3.4h4.1v1h-5.4V408h5.1v1h-3.9v3h3.7L696.1,413.1L696.1,413.1z"/>
		<path fill="#FFFFFF" d="M699.4,408v4h4.6v-4h1.2v9.5H704V413h-4.6v4.5h-1.2V408H699.4z"/>
		<path fill="#FFFFFF" d="M709.2,409h-2.9v-1h7.1v1h-2.9v8.5h-1.2L709.2,409L709.2,409z"/>
		<path fill="#FFFFFF" d="M600.4,425v8.5h0.8l-0.1,3.3h-1l-0.1-2.3h-6l-0.1,2.3h-1l-0.1-3.3h0.7c0.4-0.6,0.7-1.3,0.9-2.1
			c0.3-1.1,0.5-2.4,0.5-4V425H600.4L600.4,425z M596.2,427.8c0,1.5-0.1,2.8-0.5,3.9c-0.2,0.7-0.5,1.3-0.8,1.8h4.2V426h-3
			L596.2,427.8L596.2,427.8z"/>
		<path fill="#FFFFFF" d="M610.8,429.6c0,3.3-2,5-4.4,5c-2.5,0-4.3-1.9-4.3-4.8c0-3,1.9-5,4.4-5
			C609.1,424.8,610.8,426.8,610.8,429.6z M603.4,429.8c0,2,1.1,3.9,3,3.9c2,0,3.1-1.8,3.1-4c0-1.9-1-3.9-3-3.9
			C604.4,425.8,603.4,427.7,603.4,429.8z"/>
		<path fill="#FFFFFF" d="M612.4,425.1c0.5-0.1,1.4-0.2,2.3-0.2c1.2,0,2,0.2,2.6,0.7c0.5,0.4,0.8,0.9,0.8,1.7c0,0.9-0.6,1.7-1.6,2.1
			l0,0c0.9,0.2,2,1,2,2.4c0,0.8-0.3,1.4-0.8,1.9c-0.7,0.6-1.7,0.9-3.3,0.9c-0.9,0-1.5-0.1-1.9-0.1L612.4,425.1L612.4,425.1z
			 M613.6,429h1.1c1.3,0,2.1-0.7,2.1-1.6c0-1.1-0.9-1.6-2.1-1.6c-0.6,0-0.9,0-1.1,0.1V429L613.6,429z M613.6,433.6
			c0.2,0,0.6,0.1,1,0.1c1.3,0,2.4-0.5,2.4-1.9c0-1.3-1.1-1.8-2.5-1.8h-1L613.6,433.6L613.6,433.6z"/>
		<path fill="#FFFFFF" d="M628.1,429.6c0,3.3-2,5-4.4,5c-2.5,0-4.3-1.9-4.3-4.8c0-3,1.9-5,4.4-5
			C626.4,424.8,628.1,426.8,628.1,429.6z M620.7,429.8c0,2,1.1,3.9,3,3.9c2,0,3.1-1.8,3.1-4c0-1.9-1-3.9-3-3.9
			C621.7,425.8,620.7,427.7,620.7,429.8z"/>
		<path fill="#FFFFFF" d="M635.9,425v9.5h-1.2V426h-3.2v2.9c0,2.1-0.1,4.4-1.4,5.3c-0.4,0.2-0.9,0.5-1.5,0.5l-0.2-1
			c0.4-0.1,0.8-0.3,1-0.5c0.8-0.8,0.8-2.6,0.8-4.1v-4L635.9,425L635.9,425z"/>
		<path fill="#FFFFFF" d="M639.3,425v3.6c0.3,0,0.8-0.1,1.2-0.1c2,0,3.7,0.9,3.7,3c0,0.9-0.3,1.5-0.7,2c-0.8,0.8-2.1,1.1-3.4,1.1
			c-0.9,0-1.5-0.1-1.9-0.1V425H639.3L639.3,425z M639.3,433.6c0.3,0.1,0.6,0.1,1,0.1c1.4,0,2.5-0.7,2.5-2.1c0-1.5-1.2-2.1-2.6-2.1
			c-0.3,0-0.7,0-1,0.1L639.3,433.6L639.3,433.6z"/>
		<path fill="#FFFFFF" d="M646.9,425v4h4.6v-4h1.2v9.5h-1.2V430h-4.6v4.5h-1.2V425H646.9z"/>
		<path fill="#FFFFFF" d="M656.1,425v3.6c0.3,0,0.8-0.1,1.1-0.1c2,0,3.7,0.9,3.7,3c0,0.9-0.3,1.5-0.7,2c-0.8,0.8-2.1,1.1-3.4,1.1
			c-0.9,0-1.5-0.1-1.9-0.1V425H656.1L656.1,425z M656.1,433.6c0.3,0.1,0.6,0.1,1,0.1c1.4,0,2.5-0.7,2.5-2.1c0-1.5-1.3-2.1-2.5-2.1
			c-0.5,0-0.8,0-1,0.1V433.6L656.1,433.6z M663.3,425v9.5H662V425H663.3z"/>
		<path fill="#FFFFFF" d="M670.4,430h-3.7v3.4h4.1v1h-5.4V425h5.1v1h-3.9v3h3.7L670.4,430L670.4,430z"/>
		<path fill="#FFFFFF" d="M683.4,430.3c-0.1-1.3-0.2-2.9-0.1-4.1l0,0c-0.3,1.1-0.7,2.3-1.2,3.6l-1.7,4.6h-0.9l-1.5-4.5
			c-0.5-1.3-0.8-2.6-1.1-3.7l0,0c0,1.2-0.1,2.8-0.2,4.2l-0.3,4.1h-1.2l0.7-9.5h1.6l1.6,4.6c0.4,1.2,0.7,2.2,1,3.2l0,0
			c0.2-1,0.6-2,1-3.2l1.7-4.6h1.6l0.6,9.5h-1.2L683.4,430.3z"/>
		<path fill="#FFFFFF" d="M688,425v3.6c0.3,0,0.8-0.1,1.1-0.1c2,0,3.7,0.9,3.7,3c0,0.9-0.3,1.5-0.7,2c-0.8,0.8-2.1,1.1-3.4,1.1
			c-0.8,0-1.5-0.1-1.9-0.1V425H688L688,425z M688,433.6c0.3,0.1,0.6,0.1,1,0.1c1.4,0,2.5-0.7,2.5-2.1c0-1.5-1.3-2.1-2.5-2.1
			c-0.5,0-0.8,0-1,0.1V433.6L688,433.6z M695.1,425v9.5h-1.2V425H695.1z"/>
	</g>
	<g>
		<path fill="#FFFFFF" d="M38,109c0.6-0.4,1.5-0.7,2.5-0.7c1.7,0,2.8,0.9,2.8,2.3c0,1.2-0.8,2.1-2,2.3l0,0c1.3,0.1,2.3,1,2.3,2.4
			c0,2-1.7,2.8-3.5,2.8c-0.9,0-1.8-0.2-2.5-0.6l0.3-1c0.5,0.3,1.4,0.6,2.1,0.6c1.4,0,2.2-0.8,2.2-1.8c0-1.4-1.4-1.8-2.6-1.8H39v-0.9
			h0.6c1.3,0,2.2-0.8,2.2-1.8s-0.7-1.5-1.7-1.5c-0.7,0-1.5,0.3-2,0.6L38,109z"/>
		<path fill="#FFFFFF" d="M45.3,108.6c0.5-0.1,1.4-0.2,2.2-0.2c1.2,0,2,0.2,2.6,0.7c0.5,0.4,0.8,0.9,0.8,1.7c0,0.9-0.6,1.7-1.6,2.1
			l0,0c0.9,0.2,2,1,2,2.4c0,0.8-0.3,1.4-0.8,1.9c-0.7,0.6-1.7,0.9-3.3,0.9c-0.8,0-1.5-0.1-1.9-0.1V108.6z M46.6,112.5h1.1
			c1.3,0,2.1-0.7,2.1-1.6c0-1.1-0.8-1.6-2.1-1.6c-0.6,0-0.9,0-1.1,0.1V112.5z M46.6,117c0.2,0,0.6,0.1,1,0.1c1.3,0,2.4-0.5,2.4-1.9
			c0-1.3-1.1-1.8-2.5-1.8h-1v3.6H46.6z"/>
		<path fill="#FFFFFF" d="M61,113.1c0,3.3-2,5-4.4,5c-2.5,0-4.3-2-4.3-4.8c0-3,1.9-5,4.4-5C59.4,108.3,61,110.3,61,113.1z
			 M53.6,113.2c0,2,1.1,3.9,3,3.9c2,0,3.1-1.8,3.1-4c0-1.9-1-3.9-3-3.9C54.7,109.3,53.6,111.2,53.6,113.2z"/>
		<path fill="#FFFFFF" d="M63.9,108.4v4h4.6v-4h1.2v9.5h-1.2v-4.5h-4.6v4.5h-1.2v-9.5H63.9z"/>
		<path fill="#FFFFFF" d="M80,113.1c0,3.3-2,5-4.4,5c-2.5,0-4.3-2-4.3-4.8c0-3,1.9-5,4.4-5C78.3,108.3,80,110.3,80,113.1z
			 M72.6,113.2c0,2,1.1,3.9,3,3.9c2,0,3.1-1.8,3.1-4c0-1.9-1-3.9-3-3.9C73.6,109.3,72.6,111.2,72.6,113.2z"/>
		<path fill="#FFFFFF" d="M82.8,108.4v4.2h0.4l3.3-4.2H88l-3.6,4.4c1.6,0.2,2.2,1.2,2.7,2.5c0.4,1,0.6,1.9,1,2.7h-1.3
			c-0.3-0.7-0.6-1.5-0.9-2.2c-0.4-1.3-1-2.1-2.7-2.1h-0.4v4.4h-1.2v-9.5h1.2V108.4z"/>
	</g>
	<g>
		<path fill="#FFFFFF" d="M16.1,234.8v4.2h0.4l3.3-4.2h1.5l-3.6,4.4c1.6,0.2,2.2,1.2,2.7,2.5c0.4,1,0.6,1.9,1,2.7h-1.3
			c-0.3-0.6-0.6-1.5-0.9-2.2c-0.4-1.3-1-2.1-2.7-2.1h-0.4v4.4h-1.2V235h1.2V234.8z"/>
		<path fill="#FFFFFF" d="M30.5,239.5c0,3.3-2,5-4.4,5c-2.5,0-4.3-2-4.3-4.8c0-3,1.9-5,4.4-5C28.8,234.6,30.5,236.6,30.5,239.5z
			 M23.1,239.6c0,2,1.1,3.9,3,3.9c2,0,3.1-1.8,3.1-4c0-1.9-1-3.9-3-3.9C24.1,235.7,23.1,237.5,23.1,239.6z"/>
		<path fill="#FFFFFF" d="M33.3,234.8v4h4.6v-4h1.2v9.5h-1.2v-4.5h-4.6v4.5h-1.2v-9.5H33.3z"/>
		<path fill="#FFFFFF" d="M48,244c-0.5,0.2-1.4,0.5-2.5,0.5c-2.7,0-4.7-1.7-4.7-4.8c0-3,2-5,5-5c1.2,0,1.9,0.3,2.3,0.4l-0.3,1
			c-0.5-0.2-1.1-0.4-1.9-0.4c-2.2,0-3.7,1.4-3.7,3.9c0,2.3,1.3,3.8,3.7,3.8c0.8,0,1.5-0.2,2-0.4L48,244z"/>
		<path fill="#FFFFFF" d="M50.1,234.8l1.9,4.1c0.2,0.6,0.5,1.1,0.7,1.7l0,0c0.2-0.5,0.4-1,0.6-1.7l1.5-4h1.3l-2,4.9
			c-0.5,1.3-1.1,2.7-1.8,3.6c-0.6,0.8-1.3,1.2-2.2,1.2c-0.3,0-0.5,0-0.7-0.1l0.1-1c0.1,0,0.2,0,0.5,0c1,0,1.6-1,1.9-1.6
			c0.1-0.2,0.1-0.4,0-0.6l-3.2-6.4h1.4V234.8z"/>
		<path fill="#FFFFFF" d="M63.2,234.8v9.5H62v-8.5h-3.2v2.9c0,2.1-0.1,4.4-1.4,5.3c-0.4,0.2-0.9,0.5-1.5,0.5l-0.2-1
			c0.4-0.1,0.8-0.3,1-0.5c0.8-0.7,0.8-2.6,0.8-4.1v-4L63.2,234.8L63.2,234.8z"/>
		<path fill="#FFFFFF" d="M66.5,234.8v3.6c0.3,0,0.8-0.1,1.2-0.1c2,0,3.7,0.9,3.7,3c0,0.9-0.3,1.5-0.7,2c-0.8,0.8-2.1,1.1-3.4,1.1
			c-0.9,0-1.5-0.1-1.9-0.1v-9.5H66.5z M66.5,243.4c0.3,0.1,0.6,0.1,1,0.1c1.4,0,2.5-0.7,2.5-2.1c0-1.5-1.2-2.1-2.6-2.1
			c-0.3,0-0.7,0-1,0.1v4H66.5z"/>
		<path fill="#FFFFFF" d="M73.8,235.8h-2.9v-1H78v1h-3v8.5h-1.2V235.8z"/>
		<path fill="#FFFFFF" d="M79.4,241.3l-1,3h-1.3l3.2-9.5h1.5l3.3,9.5h-1.3l-1-3H79.4z M82.5,240.4l-0.9-2.7
			c-0.2-0.6-0.4-1.2-0.5-1.7l0,0c-0.1,0.6-0.3,1.1-0.5,1.7l-0.9,2.8L82.5,240.4L82.5,240.4z"/>
		<path fill="#FFFFFF" d="M87.7,234.8v8.5h4.4v-8.5h1.2v8.5h0.8l-0.1,3.3h-1l-0.1-2.3h-6.5v-9.5H87.7z"/>
		<path fill="#FFFFFF" d="M96.9,234.8v4c0,1.5,0,2.8-0.1,4l0,0c0.5-1,1.1-2,1.8-3.2l3.1-4.9h1.2v9.5h-1.2v-4.1c0-1.5,0-2.7,0.1-3.9
			l0,0c-0.5,1-1.1,2.2-1.8,3.2l-3,4.7h-1.3v-9.5h1.2V234.8z"/>
		<path fill="#FFFFFF" d="M104.2,244.3c0.1-0.3,0.3-0.6,0.4-0.9c0.4-1.1,0.7-2.4,1.4-3.2c0.2-0.2,0.5-0.4,0.8-0.5l0,0
			c-1.2-0.2-2.1-1-2.1-2.3c0-0.8,0.3-1.5,0.9-1.9c0.6-0.5,1.5-0.7,2.7-0.7c0.8,0,1.7,0.1,2.3,0.2v9.4h-1.2v-4.1h-0.9
			c-0.6,0-1,0.1-1.4,0.5c-0.7,0.7-0.9,2.1-1.3,3c-0.1,0.2-0.2,0.4-0.3,0.7h-1.3V244.3z M109.3,235.8c-0.2,0-0.6-0.1-1.2-0.1
			c-1.2,0-2.2,0.5-2.2,1.8c0,1.1,1,1.8,2.4,1.8c0.4,0,0.8,0,1,0V235.8z"/>
		<path fill="#FFFFFF" d="M7.2,261c-0.5,0.2-1.4,0.5-2.5,0.5c-2.7,0-4.7-1.7-4.7-4.8c0-3,2-5,5-5c1.2,0,1.9,0.3,2.3,0.4l-0.3,1
			c-0.5-0.2-1.1-0.4-1.9-0.4c-2.2,0-3.7,1.4-3.7,3.9c0,2.3,1.3,3.8,3.7,3.8c0.8,0,1.5-0.2,2-0.4L7.2,261z"/>
		<path fill="#FFFFFF" d="M16.6,256.4c0,3.3-2,5-4.4,5c-2.5,0-4.3-2-4.3-4.8c0-3,1.9-5,4.4-5C14.9,251.6,16.6,253.6,16.6,256.4z
			 M9.2,256.6c0,2,1.1,3.9,3,3.9c2,0,3.1-1.8,3.1-4c0-1.9-1-3.9-3-3.9S9.2,254.5,9.2,256.6z"/>
		<path fill="#FFFFFF" d="M27.9,261c-0.5,0.2-1.4,0.5-2.5,0.5c-2.7,0-4.7-1.7-4.7-4.8c0-3,2-5,5-5c1.2,0,1.9,0.3,2.3,0.4l-0.3,1
			c-0.5-0.2-1.1-0.4-1.9-0.4c-2.2,0-3.7,1.4-3.7,3.9c0,2.3,1.3,3.8,3.7,3.8c0.8,0,1.5-0.2,2-0.4L27.9,261z"/>
		<path fill="#FFFFFF" d="M36.3,251.8v9.5h-1.2v-8.5h-4.4v8.5h-1.2v-9.5H36.3L36.3,251.8z"/>
		<path fill="#FFFFFF" d="M43.4,256.8h-3.7v3.4h4.1v1h-5.4v-9.5h5.1v1h-3.9v3h3.7v1.1H43.4z"/>
		<path fill="#FFFFFF" d="M46.7,251.8v8.5H51v-8.5h1.2v8.5H53l-0.1,3.3h-1l-0.1-2.3h-6.5v-9.5H46.7L46.7,251.8z"/>
		<path fill="#FFFFFF" d="M55.8,251.8v4c0,1.5,0,2.8-0.1,4l0,0c0.5-1,1.1-2,1.8-3.2l3.1-4.9h1.2v9.5h-1.2v-4.1c0-1.5,0-2.7,0.1-3.9
			l0,0c-0.5,1-1.1,2.1-1.8,3.2l-3,4.7h-1.3v-9.5h1.2V251.8z"/>
		<path fill="#FFFFFF" d="M65.5,258.3l-1,3h-1.3l3.2-9.5h1.5l3.3,9.5h-1.3l-1-3H65.5z M68.6,257.3l-0.9-2.7
			c-0.2-0.6-0.4-1.2-0.5-1.7l0,0c-0.1,0.6-0.3,1.1-0.5,1.7l-0.9,2.8L68.6,257.3L68.6,257.3z"/>
		<path fill="#FFFFFF" d="M79.3,251.8v9.5h-1.2v-8.5h-3.2v2.9c0,2.1-0.1,4.4-1.4,5.3c-0.4,0.2-0.9,0.5-1.5,0.5l-0.2-1
			c0.4-0.1,0.8-0.3,1-0.5c0.8-0.8,0.8-2.6,0.8-4.1v-4L79.3,251.8L79.3,251.8z"/>
		<path fill="#FFFFFF" d="M82.6,251.8v4c0,1.5,0,2.8-0.1,4l0,0c0.5-1,1.1-2,1.8-3.2l3.1-4.9h1.2v9.5h-1.2v-4.1c0-1.5,0-2.7,0.1-3.9
			l0,0c-0.5,1-1.1,2.1-1.8,3.2l-3,4.7h-1.3v-9.5h1.2V251.8z"/>
		<path fill="#FFFFFF" d="M97.4,261c-0.5,0.2-1.4,0.5-2.5,0.5c-2.7,0-4.7-1.7-4.7-4.8c0-3,2-5,5-5c1.2,0,1.9,0.3,2.3,0.4l-0.3,1
			c-0.5-0.2-1.1-0.4-1.9-0.4c-2.2,0-3.7,1.4-3.7,3.9c0,2.3,1.3,3.8,3.7,3.8c0.8,0,1.5-0.2,2-0.4L97.4,261z"/>
		<path fill="#FFFFFF" d="M101.3,252.8h-2.9v-1h7.1v1h-2.9v8.5h-1.2v-8.5H101.3z"/>
		<path fill="#FFFFFF" d="M114.2,256.4c0,3.3-2,5-4.4,5c-2.5,0-4.3-2-4.3-4.8c0-3,1.9-5,4.4-5C112.5,251.6,114.2,253.6,114.2,256.4z
			 M106.8,256.6c0,2,1.1,3.9,3,3.9c2,0,3.1-1.8,3.1-4c0-1.9-1-3.9-3-3.9C107.8,252.6,106.8,254.5,106.8,256.6z"/>
		<path fill="#FFFFFF" d="M123.7,257.1c-0.1-1.3-0.2-2.9-0.1-4.1l0,0c-0.3,1.1-0.7,2.3-1.2,3.6l-1.7,4.6h-0.9l-1.5-4.5
			c-0.5-1.3-0.8-2.6-1.1-3.7l0,0c0,1.2-0.1,2.8-0.2,4.2l-0.3,4.1h-1.2l0.7-9.5h1.6l1.6,4.6c0.4,1.2,0.7,2.2,1,3.2l0,0
			c0.2-1,0.6-2,1-3.2l1.7-4.6h1.6l0.6,9.5H124L123.7,257.1z"/>
	</g>
	<g>
		<path fill="#FFFFFF" d="M177.4,213.7v9.5h-1.2v-8.5h-4.4v8.5h-1.2v-9.5H177.4z"/>
		<path fill="#FFFFFF" d="M179.5,213.9c0.6-0.1,1.4-0.2,2.4-0.2c1.2,0,2.1,0.3,2.7,0.8c0.5,0.5,0.8,1.1,0.8,2c0,0.9-0.3,1.5-0.7,2
			c-0.7,0.7-1.7,1-2.9,1c-0.4,0-0.7,0-1-0.1v3.8h-1.2L179.5,213.9L179.5,213.9z M180.7,218.4c0.3,0.1,0.6,0.1,1,0.1
			c1.5,0,2.4-0.7,2.4-2s-0.9-1.9-2.2-1.9c-0.5,0-0.9,0-1.2,0.1V218.4L180.7,218.4z"/>
		<path fill="#FFFFFF" d="M195.1,218.4c0,3.3-2,5-4.4,5c-2.5,0-4.3-2-4.3-4.8c0-3,1.9-5,4.4-5C193.4,213.6,195.1,215.6,195.1,218.4z
			 M187.7,218.6c0,2,1.1,3.9,3,3.9c2,0,3.1-1.8,3.1-4c0-1.9-1-3.9-3-3.9C188.7,214.6,187.7,216.5,187.7,218.6z"/>
		<path fill="#FFFFFF" d="M202.9,213.7v8.5h0.8l-0.1,3.3h-1l-0.1-2.3h-6l-0.1,2.3h-1l-0.1-3.3h0.7c0.4-0.7,0.7-1.3,0.9-2.1
			c0.3-1.1,0.5-2.4,0.5-4v-2.4H202.9L202.9,213.7z M198.7,216.6c0,1.5-0.1,2.8-0.5,3.9c-0.2,0.7-0.5,1.3-0.8,1.8h4.2v-7.5h-3
			L198.7,216.6L198.7,216.6z"/>
		<path fill="#FFFFFF" d="M205.6,213.7l1.9,4.1c0.2,0.6,0.5,1.1,0.7,1.7l0,0c0.2-0.5,0.4-1,0.6-1.7l1.5-4h1.3l-2,4.9
			c-0.5,1.3-1.1,2.7-1.8,3.6c-0.6,0.8-1.3,1.2-2.2,1.2c-0.3,0-0.5,0-0.7-0.1l0.1-1c0.1,0,0.2,0,0.5,0c1,0,1.6-1,1.9-1.6
			c0.1-0.2,0.1-0.4,0-0.6l-3.2-6.4L205.6,213.7L205.6,213.7z"/>
		<path fill="#FFFFFF" d="M213.8,213.7v4.2h0.4l3.3-4.2h1.5l-3.6,4.4c1.6,0.2,2.2,1.2,2.7,2.5c0.4,1,0.6,1.9,1,2.7h-1.3
			c-0.3-0.7-0.6-1.5-0.9-2.3c-0.4-1.3-1-2.1-2.7-2.1h-0.4v4.4h-1.2v-9.5L213.8,213.7L213.8,213.7z"/>
		<path fill="#FFFFFF" d="M221.5,213.7v8.5h4.4v-8.5h1.2v8.5h0.8l-0.1,3.3h-1l-0.1-2.3h-6.5v-9.5H221.5z"/>
		<path fill="#FFFFFF" d="M230.6,213.7v4c0,1.5,0,2.8-0.1,4l0,0c0.5-1,1.1-2,1.8-3.1l3.1-4.9h1.2v9.5h-1.2v-4.1c0-1.5,0-2.7,0.1-3.9
			l0,0c-0.5,1-1.1,2.2-1.8,3.2l-3,4.7h-1.3v-9.5L230.6,213.7L230.6,213.7L230.6,213.7z"/>
		<path fill="#FFFFFF" d="M237.9,223.3c0.1-0.3,0.3-0.6,0.4-0.9c0.4-1.1,0.7-2.4,1.4-3.2c0.2-0.2,0.5-0.4,0.8-0.5l0,0
			c-1.2-0.2-2.1-1-2.1-2.3c0-0.8,0.3-1.5,0.9-1.9c0.6-0.5,1.5-0.7,2.7-0.7c0.8,0,1.7,0.1,2.3,0.2v9.4h-1.2v-4.1h-0.9
			c-0.6,0-1,0.1-1.4,0.5c-0.7,0.7-0.9,2.1-1.3,3c-0.1,0.2-0.2,0.4-0.3,0.7L237.9,223.3L237.9,223.3z M243.1,214.7
			c-0.2,0-0.6-0.1-1.2-0.1c-1.2,0-2.2,0.5-2.2,1.8c0,1.1,1,1.8,2.4,1.8c0.4,0,0.8,0,1,0V214.7z"/>
		<path fill="#FFFFFF" d="M180.6,230.7v9.5h-1.2v-8.5H175v8.5h-1.2v-9.5H180.6z"/>
		<path fill="#FFFFFF" d="M190.9,235.4c0,3.3-2,5-4.4,5c-2.5,0-4.3-2-4.3-4.8c0-3,1.9-5,4.4-5C189.2,230.6,190.9,232.5,190.9,235.4z
			 M183.5,235.5c0,2,1.1,3.9,3,3.9c2,0,3.1-1.8,3.1-4c0-1.9-1-3.9-3-3.9C184.5,231.6,183.5,233.4,183.5,235.5z"/>
		<path fill="#FFFFFF" d="M198.7,230.7v8.5h0.8l-0.1,3.3h-1l-0.1-2.3h-6l-0.1,2.3h-1l-0.1-3.3h0.7c0.4-0.7,0.7-1.3,0.9-2.1
			c0.3-1.1,0.5-2.4,0.5-4v-2.4H198.7L198.7,230.7z M194.5,233.5c0,1.5-0.1,2.8-0.5,3.9c-0.2,0.7-0.5,1.3-0.8,1.8h4.2v-7.5h-3v1.8
			H194.5z"/>
		<path fill="#FFFFFF" d="M203.7,231.3c0.7-0.4,1.5-0.7,2.5-0.7c1.7,0,2.8,0.9,2.8,2.3c0,1.2-0.8,2.1-2,2.3l0,0
			c1.3,0.1,2.3,1,2.3,2.4c0,2-1.7,2.8-3.5,2.8c-0.9,0-1.8-0.2-2.5-0.6l0.3-1c0.5,0.3,1.4,0.6,2.1,0.6c1.4,0,2.2-0.8,2.2-1.8
			c0-1.4-1.4-1.8-2.6-1.8H205v-0.9h0.6c1.3,0,2.2-0.8,2.2-1.8s-0.7-1.5-1.7-1.5c-0.7,0-1.5,0.3-2,0.6L203.7,231.3z"/>
		<path fill="#FFFFFF" d="M212.6,237.2l-1,3h-1.3l3.2-9.5h1.5l3.3,9.5H217l-1-3H212.6z M215.7,236.3l-0.9-2.7
			c-0.2-0.6-0.4-1.2-0.5-1.7l0,0c-0.1,0.6-0.3,1.1-0.5,1.7l-0.9,2.8L215.7,236.3L215.7,236.3z"/>
		<path fill="#FFFFFF" d="M220.9,230.7v4.2h0.4l3.3-4.2h1.5l-3.6,4.4c1.6,0.2,2.2,1.2,2.7,2.5c0.4,1,0.6,1.9,1,2.7h-1.3
			c-0.3-0.7-0.6-1.5-0.9-2.2c-0.4-1.3-1-2.1-2.7-2.1h-0.4v4.4h-1.2v-9.5h1.2V230.7z"/>
		<path fill="#FFFFFF" d="M229,237.2l-1,3h-1.3l3.2-9.5h1.5l3.3,9.5h-1.3l-1-3H229z M232.1,236.3l-0.9-2.7c-0.2-0.6-0.4-1.2-0.5-1.7
			l0,0c-0.1,0.6-0.3,1.1-0.5,1.7l-0.9,2.8L232.1,236.3L232.1,236.3z"/>
		<path fill="#FFFFFF" d="M235.9,231.3c0.6-0.4,1.5-0.7,2.5-0.7c1.7,0,2.8,0.9,2.8,2.3c0,1.2-0.8,2.1-2,2.3l0,0
			c1.3,0.1,2.3,1,2.3,2.4c0,2-1.7,2.8-3.5,2.8c-0.9,0-1.8-0.2-2.5-0.6l0.3-1c0.5,0.3,1.4,0.6,2.1,0.6c1.4,0,2.2-0.8,2.2-1.8
			c0-1.4-1.4-1.8-2.6-1.8h-0.6v-0.9h0.6c1.3,0,2.2-0.8,2.2-1.8s-0.7-1.5-1.7-1.5c-0.7,0-1.5,0.3-2,0.6L235.9,231.3z"/>
	</g>
	<g>
		<circle fill="#FFFFFF" cx="644.5" cy="356.9" r="40.2"/>
		<g>
			<circle fill="#FFDF6A" cx="648.7" cy="343.2" r="6.8"/>
			<g>
				<g>
					<rect x="647" y="330" fill="#354872" width="2.2" height="4.5"/>
				</g>
				<g>
					
						<rect x="640.6" y="333" transform="matrix(-0.4998 -0.8661 0.8661 -0.4998 674.7538 1057.78)" fill="#354872" width="4.5" height="2.2"/>
				</g>
				<g>
					
						<rect x="636.9" y="337.1" transform="matrix(-0.866 -0.5 0.5 -0.866 1023.6177 950.5928)" fill="#354872" width="4.5" height="2.2"/>
				</g>
				<g>
					<rect x="635.7" y="342.5" fill="#354872" width="4.5" height="2.2"/>
				</g>
				<g>
					
						<rect x="638.6" y="346.6" transform="matrix(-0.4993 -0.8664 0.8664 -0.4993 656.8841 1077.2944)" fill="#354872" width="2.2" height="4.5"/>
				</g>
				<g>
					
						<rect x="656.1" y="346.7" transform="matrix(-0.8661 -0.4998 0.4998 -0.8661 1054.7596 978.0912)" fill="#354872" width="4.5" height="2.2"/>
				</g>
				<g>
					<rect x="657.2" y="341.3" fill="#354872" width="4.5" height="2.2"/>
				</g>
				<g>
					
						<rect x="656.5" y="334.9" transform="matrix(-0.5002 -0.8659 0.8659 -0.5002 694.6583 1075.2048)" fill="#354872" width="2.2" height="4.5"/>
				</g>
				<g>
					
						<rect x="652.3" y="331.2" transform="matrix(-0.8663 -0.4995 0.4995 -0.8663 1052.9401 948.6942)" fill="#354872" width="2.2" height="4.5"/>
				</g>
			</g>
			<g>
				<path fill="#FFFFFF" d="M635.1,377.1h3.7c1.3,1.8,3.4,2.9,5.8,2.9h4.8h6.9h0.4l0,0h2.9c1.8,0,3.3-1.5,3.3-3.3s-1.5-3.3-3.3-3.3
					h2.6c1.8,0,3.3-1.5,3.3-3.3s-1.5-3.3-3.3-3.3h0.9c1.8,0,3.3-1.5,3.3-3.3c0-1.8-1.5-3.3-3.3-3.3h1.8c1.8,0,3.3-1.5,3.3-3.3
					s-1.5-3.3-3.3-3.3h-9.2c-0.2,0-0.4,0-0.6,0.1h-3.7l1.2-4.1V345c0-2.3-1.8-4.1-4.1-4.1h-1.4c-0.1,0-0.1,0-0.2,0v6.3l-1.6,2.2
					l-6,6.5c-0.9,0.9-1.5,2-1.8,3.3h-2.4V377.1L635.1,377.1L635.1,377.1z"/>
				<path fill="#354872" d="M656.7,381.1h-12.1c-2.5,0-4.7-1.1-6.3-2.9h-3.1V376h4.2l0.3,0.4c1.2,1.6,3,2.5,4.9,2.5h15
					c1.2,0,2.2-1,2.2-2.2s-1-2.2-2.2-2.2v-2.2h2.6c1.2,0,2.2-1,2.2-2.2s-1-2.2-2.2-2.2v-2.2h0.9c1.2,0,2.2-1,2.2-2.2
					c0-1.2-1-2.2-2.2-2.2v-2.2h1.8c1.2,0,2.2-1,2.2-2.2s-1-2.2-2.2-2.2h-9.2c-0.1,0-0.2,0-0.4,0h-0.2H650l1.5-5.3v-4.5
					c0-1.7-1.3-3-3-3H648v5.5l-1.9,2.6l-6,6.5c-0.7,0.8-1.3,1.7-1.5,2.8l-0.2,0.8h-3.3v-2.2h1.6c0.4-1.1,1-2.1,1.8-2.9l5.9-6.5
					l1.3-1.9v-7l1.1-0.1c0.1,0,0.2,0,0.2,0h1.4c2.9,0,5.2,2.3,5.2,5.2v4.8l-0.8,2.8h2.1c0.2,0,0.4,0,0.6,0h9.2c2.4,0,4.4,2,4.4,4.4
					c0,1.8-1.1,3.3-2.6,4c0.5,0.7,0.8,1.6,0.8,2.6c0,1.5-0.8,2.9-2,3.7c0.7,0.8,1.1,1.8,1.1,2.9c0,2-1.4,3.8-3.3,4.3
					c0.4,0.7,0.7,1.5,0.7,2.3c0,2.4-2,4.4-4.4,4.4L656.7,381.1z"/>
			</g>
			<rect x="619.9" y="358" fill="#354872" width="13.7" height="25.8"/>
			<g>
				<rect x="628.9" y="379.3" fill="#FFFFFF" width="1.7" height="1.7"/>
			</g>
		</g>
	</g>
	<g>
		<rect x="348.9" y="119.6" fill="#FFFFFF" width="2.4" height="44.1"/>
	</g>
	<g>
		<rect x="348.9" y="209.4" fill="#FFFFFF" width="2.4" height="44.1"/>
	</g>
	<g>
		<path fill="#FFFFFF" d="M316.8,172.7v9.5h-1.2v-8.5h-4.4v8.5H310v-9.5H316.8z"/>
		<path fill="#FFFFFF" d="M319,172.8c0.6-0.1,1.4-0.2,2.4-0.2c1.2,0,2.1,0.3,2.7,0.8c0.5,0.5,0.8,1.1,0.8,2c0,0.9-0.3,1.5-0.7,2
			c-0.6,0.7-1.7,1-2.9,1c-0.4,0-0.7,0-1-0.1v3.8H319V172.8L319,172.8z M320.2,177.4c0.3,0.1,0.6,0.1,1,0.1c1.5,0,2.4-0.7,2.4-2
			s-0.9-1.9-2.2-1.9c-0.5,0-0.9,0-1.2,0.1V177.4L320.2,177.4z"/>
		<path fill="#FFFFFF" d="M331.5,177.8h-3.7v3.4h4.1v1h-5.4v-9.5h5.1v1h-3.9v3h3.7v1.1H331.5z"/>
		<path fill="#FFFFFF" d="M340.3,172.7v8.5h0.8l-0.1,3.3h-1l-0.1-2.3h-6l-0.1,2.3h-1l-0.1-3.3h0.7c0.4-0.7,0.7-1.3,0.9-2.1
			c0.3-1.1,0.5-2.4,0.5-4v-2.4H340.3z M336.1,175.5c0,1.5-0.1,2.8-0.5,3.9c-0.2,0.7-0.5,1.3-0.8,1.8h4.2v-7.5h-3L336.1,175.5
			L336.1,175.5z"/>
		<path fill="#FFFFFF" d="M350.7,177.4c0,3.3-2,5-4.4,5c-2.5,0-4.3-2-4.3-4.8c0-3,1.9-5,4.4-5C349,172.6,350.7,174.6,350.7,177.4z
			 M343.3,177.5c0,2,1.1,3.9,3,3.9c2,0,3.1-1.8,3.1-4c0-1.9-1-3.9-3-3.9C344.3,173.6,343.3,175.5,343.3,177.5z"/>
		<path fill="#FFFFFF" d="M359.2,172.7v9.5H358v-8.5h-4.4v8.5h-1.2v-9.5H359.2z"/>
		<path fill="#FFFFFF" d="M367.6,172.7v9.5h-1.2v-8.5h-3.2v2.9c0,2.1-0.1,4.4-1.4,5.3c-0.4,0.2-0.9,0.5-1.5,0.5l-0.2-1
			c0.4-0.1,0.8-0.3,1-0.5c0.8-0.8,0.8-2.6,0.8-4.1v-4L367.6,172.7L367.6,172.7z"/>
		<path fill="#FFFFFF" d="M371.3,179.3l-1,3H369l3.2-9.5h1.5l3.3,9.5h-1.3l-1-3H371.3z M374.4,178.3l-0.9-2.7
			c-0.2-0.6-0.4-1.2-0.5-1.7l0,0c-0.1,0.6-0.3,1.1-0.5,1.7l-0.9,2.8h2.8V178.3z"/>
		<path fill="#FFFFFF" d="M379.6,173.8h-2.9v-1h7.1v1h-2.9v8.5h-1.2L379.6,173.8L379.6,173.8z"/>
		<path fill="#FFFFFF" d="M385.2,179.3l-1,3H383l3.2-9.5h1.5l3.3,9.5h-1.3l-1-3H385.2z M388.3,178.3l-0.9-2.7
			c-0.2-0.6-0.4-1.2-0.5-1.7l0,0c-0.1,0.6-0.3,1.1-0.5,1.7l-0.9,2.8h2.8V178.3z"/>
		<path fill="#FFFFFF" d="M312.4,191.1h-3.5l-0.4,2.4c0.2,0,0.4-0.1,0.8-0.1c0.7,0,1.4,0.2,2,0.5c0.7,0.4,1.3,1.2,1.3,2.4
			c0,1.8-1.4,3.1-3.4,3.1c-1,0-1.9-0.3-2.3-0.6l0.3-0.9c0.4,0.2,1.1,0.5,2,0.5c1.2,0,2.2-0.8,2.2-2s-0.8-2-2.6-2
			c-0.5,0-0.9,0.1-1.3,0.1l0.6-4.4h4.4v1H312.4z"/>
		<path fill="#FFFFFF" d="M320.3,194.5c0,3.1-1.2,4.9-3.2,4.9c-1.8,0-3-1.7-3-4.7c0-3.1,1.3-4.8,3.2-4.8
			C319.2,189.9,320.3,191.6,320.3,194.5z M315.3,194.7c0,2.4,0.7,3.7,1.9,3.7c1.3,0,1.9-1.5,1.9-3.8c0-2.3-0.6-3.7-1.9-3.7
			C316.1,190.8,315.3,192.2,315.3,194.7z"/>
		<path fill="#FFFFFF" d="M325.6,192.6c0,1.9-1,2.9-2.2,2.9c-1.1,0-2.1-0.9-2.1-2.8c0-1.8,1-2.9,2.2-2.9
			C324.7,189.9,325.6,190.9,325.6,192.6z M322.2,192.7c0,1.2,0.4,2.1,1.2,2.1c0.8,0,1.2-0.9,1.2-2.1c0-1.1-0.3-2-1.2-2
			C322.6,190.6,322.2,191.5,322.2,192.7z M323.3,199.4l5.4-9.5h0.8l-5.4,9.5H323.3z M331.6,196.4c0,1.9-1,2.9-2.2,2.9
			c-1.1,0-2.1-0.9-2.1-2.8c0-1.9,1-2.9,2.2-2.9C330.7,193.7,331.6,194.7,331.6,196.4z M328.2,196.5c0,1.2,0.4,2.1,1.2,2.1
			c0.8,0,1.2-0.9,1.2-2.1c0-1.1-0.3-2-1.2-2C328.6,194.4,328.2,195.3,328.2,196.5z"/>
		<path fill="#FFFFFF" d="M337.2,192.4v2.9c0,1.1,0,1.8-0.1,2.7l0,0c0.4-0.8,0.6-1.3,1.1-2.1l2.1-3.5h1.5v6.8h-1.2v-2.9
			c0-1.1,0-1.7,0.1-2.8l0,0c-0.4,0.9-0.7,1.4-1.1,2.1c-0.7,1.1-1.4,2.4-2.1,3.6H336v-6.8H337.2L337.2,192.4z"/>
		<path fill="#FFFFFF" d="M349.1,192.4v6.8h-1.2v-5.9h-2.3v1.8c0,1.9-0.2,3.2-1.1,3.8c-0.3,0.3-0.7,0.4-1.4,0.4l-0.1-1
			c0.2,0,0.5-0.1,0.7-0.3c0.6-0.5,0.7-1.4,0.7-3v-2.8L349.1,192.4L349.1,192.4z"/>
		<path fill="#FFFFFF" d="M352.2,192.4v2.9c0,1.1,0,1.8-0.1,2.7l0,0c0.4-0.8,0.7-1.3,1.1-2.1l2.1-3.5h1.5v6.8h-1.2v-2.9
			c0-1.1,0-1.7,0.1-2.8l0,0c-0.4,0.9-0.7,1.4-1.1,2.1c-0.6,1.1-1.4,2.4-2.1,3.6h-1.4v-6.8H352.2L352.2,192.4L352.2,192.4z"/>
		<path fill="#FFFFFF" d="M364.2,191.2L364.2,191.2l-1.6,0.9l-0.2-0.9l2-1.1h1.1v9.2h-1.2L364.2,191.2L364.2,191.2z"/>
		<path fill="#FFFFFF" d="M374.9,194.5c0,3.1-1.2,4.9-3.2,4.9c-1.8,0-3-1.7-3-4.7c0-3.1,1.3-4.8,3.2-4.8
			C373.8,189.9,374.9,191.6,374.9,194.5z M369.9,194.7c0,2.4,0.7,3.7,1.9,3.7c1.3,0,1.9-1.5,1.9-3.8c0-2.3-0.6-3.7-1.9-3.7
			C370.7,190.8,369.9,192.2,369.9,194.7z"/>
		<path fill="#FFFFFF" d="M382.1,194.5c0,3.1-1.2,4.9-3.2,4.9c-1.8,0-3-1.7-3-4.7c0-3.1,1.3-4.8,3.2-4.8
			C381,189.9,382.1,191.6,382.1,194.5z M377.2,194.7c0,2.4,0.7,3.7,1.9,3.7c1.3,0,1.9-1.5,1.9-3.8c0-2.3-0.6-3.7-1.9-3.7
			C377.9,190.8,377.2,192.2,377.2,194.7z"/>
		<path fill="#FFFFFF" d="M387.4,192.6c0,1.9-1,2.9-2.2,2.9c-1.1,0-2.1-0.9-2.1-2.8c0-1.8,1-2.9,2.2-2.9
			C386.6,189.9,387.4,190.9,387.4,192.6z M384.1,192.7c0,1.2,0.4,2.1,1.2,2.1s1.2-0.9,1.2-2.1c0-1.1-0.3-2-1.2-2
			C384.5,190.6,384.1,191.5,384.1,192.7z M385.1,199.4l5.4-9.5h0.8l-5.4,9.5H385.1z M393.4,196.4c0,1.9-1,2.9-2.2,2.9
			c-1.1,0-2.1-0.9-2.1-2.8c0-1.9,1-2.9,2.2-2.9C392.6,193.7,393.4,194.7,393.4,196.4z M390,196.5c0,1.2,0.4,2.1,1.2,2.1
			s1.2-0.9,1.2-2.1c0-1.1-0.3-2-1.2-2C390.5,194.4,390,195.3,390,196.5z"/>
	</g>
	<g>
		<g>
			<circle fill="#FFFFFF" cx="350.1" cy="87.7" r="40.2"/>
			<g>
				<path fill="#FFDF6A" d="M340.7,109.7h15.8V77c-0.7-1.1-5.3-1-6,0.1l-13.7,13.3c-0.6,1.1-0.2,1.9,0.1,3.9L340.7,109.7z"/>
				<g>
					<g>
						<path fill="#FFFFFF" d="M360.8,59.6c1,0,1.8,0.8,1.8,1.8V93c0,1-0.8,1.8-1.8,1.8h-18.4c-1,0-1.8-0.8-1.8-1.8V61.4
							c0-1,0.8-1.8,1.8-1.8H360.8z"/>
						<path fill="#354872" d="M360.8,95.9h-18.4c-1.6,0-2.9-1.3-2.9-2.9V61.4c0-1.6,1.3-2.9,2.9-2.9h18.4c1.6,0,2.9,1.3,2.9,2.9V93
							C363.7,94.6,362.4,95.9,360.8,95.9z M342.4,60.7c-0.4,0-0.7,0.3-0.7,0.7V93c0,0.4,0.3,0.7,0.7,0.7h18.4c0.4,0,0.7-0.3,0.7-0.7
							V61.4c0-0.4-0.3-0.7-0.7-0.7H342.4L342.4,60.7z"/>
					</g>
					<g>
						<path fill="#FFFFFF" d="M352.9,92v-6.3V92z"/>
						<rect x="351.8" y="85.7" fill="#354872" width="2.2" height="6.3"/>
					</g>
					<g>
						<path fill="#FFFFFF" d="M357.4,92V80.9V92z"/>
						<rect x="356.3" y="80.9" fill="#354872" width="2.2" height="11.2"/>
					</g>
					<g>
						<path fill="#FFFFFF" d="M352.9,84.1v-6.3V84.1z"/>
						<rect x="351.8" y="77.8" fill="#354872" width="2.2" height="6.3"/>
					</g>
					<g>
						<path fill="#FFFFFF" d="M352.9,76.2v-6.3V76.2z"/>
						<rect x="351.8" y="69.9" fill="#354872" width="2.2" height="6.3"/>
					</g>
					<g>
						<path fill="#FFFFFF" d="M352.9,68.3V62V68.3z"/>
						<rect x="351.8" y="62" fill="#354872" width="2.2" height="6.3"/>
					</g>
					<circle fill="#FFDF6A" cx="346" cy="65.5" r="2.8"/>
					<circle fill="#354872" cx="346" cy="69.2" r="2.8"/>
				</g>
				<g>
					<path fill="#FFDF6A" d="M352.5,107.8c0.1-0.9,0.2-1.8,0.2-2.7c0-4.5-1-8-2.8-10.5V82.4c0-1.4-1.2-2.6-2.6-2.6h-1
						c-1.4,0-2.6,1.2-2.6,2.6v15.3L352.5,107.8z"/>
					<path fill="#354872" d="M353.6,107.9l-2.2-0.2c0.1-0.9,0.1-1.7,0.1-2.6c0-4.2-0.9-7.5-2.6-9.8l-0.2-0.3V82.4
						c0-0.8-0.7-1.5-1.5-1.5h-1c-0.8,0-1.5,0.7-1.5,1.5v15.3h-2.2V82.4c0-2.1,1.7-3.7,3.7-3.7h1c2.1,0,3.7,1.7,3.7,3.7v11.9
						c1.9,2.7,2.8,6.3,2.8,10.8C353.7,106,353.7,107,353.6,107.9z"/>
				</g>
				<g>
					<rect x="336.4" y="111.1" fill="#354872" width="23.8" height="5.9"/>
				</g>
			</g>
		</g>
		<g>
			<circle fill="#FFFFFF" cx="350.1" cy="287.6" r="40.2"/>
			<g>
				<path fill="#FFDF6A" d="M340.7,309.5h15.8v-32.7c-0.7-1.1-5.3-1-6,0.1l-13.7,13.3c-0.6,1.1-0.2,1.9,0.1,3.9L340.7,309.5z"/>
				<g>
					<g>
						<path fill="#FFFFFF" d="M360.8,259.4c1,0,1.8,0.8,1.8,1.8v31.6c0,1-0.8,1.8-1.8,1.8h-18.4c-1,0-1.8-0.8-1.8-1.8v-31.6
							c0-1,0.8-1.8,1.8-1.8H360.8z"/>
						<path fill="#354872" d="M360.8,295.7h-18.4c-1.6,0-2.9-1.3-2.9-2.9v-31.6c0-1.6,1.3-2.9,2.9-2.9h18.4c1.6,0,2.9,1.3,2.9,2.9
							v31.6C363.7,294.4,362.4,295.7,360.8,295.7z M342.4,260.5c-0.4,0-0.7,0.3-0.7,0.7v31.6c0,0.4,0.3,0.7,0.7,0.7h18.4
							c0.4,0,0.7-0.3,0.7-0.7v-31.6c0-0.4-0.3-0.7-0.7-0.7H342.4L342.4,260.5z"/>
					</g>
					<g>
						<path fill="#FFFFFF" d="M352.9,291.9v-6.3V291.9z"/>
						<rect x="351.8" y="285.6" fill="#354872" width="2.2" height="6.3"/>
					</g>
					<g>
						<path fill="#FFFFFF" d="M357.4,291.9v-11.2V291.9z"/>
						<rect x="356.3" y="280.7" fill="#354872" width="2.2" height="11.2"/>
					</g>
					<g>
						<path fill="#FFFFFF" d="M352.9,284v-6.3V284z"/>
						<rect x="351.8" y="277.7" fill="#354872" width="2.2" height="6.3"/>
					</g>
					<g>
						<path fill="#FFFFFF" d="M352.9,276.1v-6.3V276.1z"/>
						<rect x="351.8" y="269.8" fill="#354872" width="2.2" height="6.3"/>
					</g>
					<g>
						<path fill="#FFFFFF" d="M352.9,268.2v-6.3V268.2z"/>
						<rect x="351.8" y="261.9" fill="#354872" width="2.2" height="6.3"/>
					</g>
					<circle fill="#FFDF6A" cx="346" cy="265.3" r="2.8"/>
					<circle fill="#354872" cx="346" cy="269" r="2.8"/>
				</g>
				<g>
					<path fill="#FFDF6A" d="M352.5,307.7c0.1-0.9,0.2-1.8,0.2-2.7c0-4.5-1-8-2.8-10.5v-12.2c0-1.4-1.2-2.6-2.6-2.6h-1
						c-1.4,0-2.6,1.2-2.6,2.6v15.3L352.5,307.7z"/>
					<path fill="#354872" d="M353.6,307.8l-2.2-0.2c0.1-0.9,0.1-1.7,0.1-2.6c0-4.2-0.9-7.5-2.6-9.8l-0.2-0.3v-12.6
						c0-0.8-0.7-1.5-1.5-1.5h-1c-0.8,0-1.5,0.7-1.5,1.5v15.3h-2.2v-15.3c0-2,1.7-3.7,3.7-3.7h1c2.1,0,3.7,1.7,3.7,3.7v11.9
						c1.9,2.7,2.8,6.3,2.8,10.8C353.7,305.9,353.7,306.9,353.6,307.8z"/>
				</g>
				<g>
					<rect x="336.4" y="310.9" fill="#354872" width="23.8" height="5.9"/>
				</g>
			</g>
		</g>
	</g>
	<g>
		<g>
			<circle fill="#FFFFFF" cx="206.7" cy="287.6" r="40.2"/>
			<g>
				<g>
					<path fill="#FFDF6A" d="M181.4,310.5h50.5L181.4,260V310.5z M190.7,301.2v-18.7l18.7,18.7H190.7z"/>
					<g>
						<path fill="#FFFFFF" d="M181.4,307.4h4.1H181.4z"/>
						<rect x="181.4" y="306.3" fill="#354872" width="4.1" height="2.2"/>
					</g>
					<g>
						<path fill="#FFFFFF" d="M181.4,303.4h2.4H181.4z"/>
						<rect x="181.4" y="302.3" fill="#354872" width="2.4" height="2.2"/>
					</g>
					<g>
						<path fill="#FFFFFF" d="M181.4,299.4h4.1H181.4z"/>
						<rect x="181.4" y="298.2" fill="#354872" width="4.1" height="2.2"/>
					</g>
					<g>
						<path fill="#FFFFFF" d="M181.4,295.3h2.4H181.4z"/>
						<rect x="181.4" y="294.2" fill="#354872" width="2.4" height="2.2"/>
					</g>
					<g>
						<path fill="#FFFFFF" d="M181.4,291.3h4.1H181.4z"/>
						<rect x="181.4" y="290.2" fill="#354872" width="4.1" height="2.2"/>
					</g>
					<g>
						<path fill="#FFFFFF" d="M181.4,287.3h2.4H181.4z"/>
						<rect x="181.4" y="286.2" fill="#354872" width="2.4" height="2.2"/>
					</g>
					<g>
						<path fill="#FFFFFF" d="M181.4,283.3h4.1H181.4z"/>
						<rect x="181.4" y="282.2" fill="#354872" width="4.1" height="2.2"/>
					</g>
					<g>
						<path fill="#FFFFFF" d="M181.4,279.2h2.4H181.4z"/>
						<rect x="181.4" y="278.1" fill="#354872" width="2.4" height="2.2"/>
					</g>
					<g>
						<path fill="#FFFFFF" d="M181.4,275.2h4.1H181.4z"/>
						<rect x="181.4" y="274.1" fill="#354872" width="4.1" height="2.2"/>
					</g>
					<g>
						<path fill="#FFFFFF" d="M181.4,271.2h2.4H181.4z"/>
						<rect x="181.4" y="270.1" fill="#354872" width="2.4" height="2.2"/>
					</g>
					<g>
						<path fill="#FFFFFF" d="M181.4,267.2h4.1H181.4z"/>
						<rect x="181.4" y="266.1" fill="#354872" width="4.1" height="2.2"/>
					</g>
				</g>
				<g>
					<polygon fill="#FFFFFF" points="217.8,304.7 217.8,306 214.2,312.7 210.5,306 210.5,304.7 					"/>
					<polygon fill="#354872" points="214.2,315 209.4,306.3 209.4,304.7 211.7,304.7 211.7,305.7 214.2,310.4 216.7,305.7 
						216.7,304.7 218.9,304.7 218.9,306.3 					"/>
				</g>
				<g>
					<rect x="210.6" y="273" fill="#FFFFFF" width="7.3" height="31.6"/>
					<path fill="#354872" d="M216.7,274.1v29.4h-5.1v-29.4H216.7L216.7,274.1z M218.9,271.9h-9.5v33.9h9.5V271.9L218.9,271.9z"/>
				</g>
				<g>
					<rect x="213.1" y="272.6" fill="#354872" width="2.2" height="31.2"/>
				</g>
				<g>
					<path fill="#FFFFFF" d="M217.8,263.9V261c0-0.4-0.4-0.7-0.8-0.7h-5.7c-0.4,0-0.8,0.3-0.8,0.7v2.9H217.8L217.8,263.9z"/>
					<path fill="#354872" d="M218.9,263.9h-2.2v-2.5h-5.1v2.5h-2.2V261c0-0.4,0.2-0.9,0.5-1.2c0.4-0.4,0.9-0.6,1.4-0.6l0,0h5.7
						c1.1,0,1.9,0.8,1.9,1.8V263.9L218.9,263.9z"/>
				</g>
				<rect x="209.4" y="265.3" fill="#FFDF6A" width="9.5" height="5.6"/>
				<g>
					<g>
						<rect x="200.4" y="312.2" fill="#354872" width="2.2" height="3.8"/>
					</g>
					<g>
						<g>
							<polygon fill="#354872" points="205.4,263.6 203.2,263.6 203.2,261.4 199.8,261.4 199.8,263.6 197.6,263.6 197.6,259.2 
								205.4,259.2 							"/>
						</g>
					</g>
					<g>
						<rect x="198.6" y="285.3" fill="#FFFFFF" width="5.8" height="19.3"/>
						<polygon fill="#354872" points="205.5,305.7 197.4,305.7 197.4,285.3 199.7,285.3 199.7,303.5 203.3,303.5 203.3,285.3 
							205.5,285.3 						"/>
					</g>
					<g>
						<polygon fill="#354872" points="198.7,313.8 198.7,309.5 200.9,309.5 200.9,311.5 202,311.5 202,309.5 204.2,309.5 
							204.2,313.8 						"/>
					</g>
					<g>
						<g>
							<rect x="197.9" y="263.8" fill="#354872" width="7.1" height="21.1"/>
							<path fill="#354872" d="M206.1,286h-9.3v-23.3h9.3V286z M199.1,283.8h4.9v-18.9h-4.9V283.8z"/>
						</g>
					</g>
					<g>
						<g>
							<polygon fill="#354872" points="193.4,286.2 193.4,267 205,267 205,269.2 195.6,269.2 195.6,286.2 							"/>
						</g>
					</g>
					<g>
						<rect x="198.9" y="304.7" fill="#354872" width="5.1" height="4.6"/>
						<path fill="#354872" d="M197.8,310.4v-6.8h7.3v6.8H197.8z M200,305.8v2.4h2.9v-2.4H200L200,305.8z"/>
					</g>
				</g>
			</g>
		</g>
		<g>
			<circle fill="#FFFFFF" cx="206.7" cy="87.7" r="40.2"/>
			<g>
				<g>
					<g>
						<polygon fill="#354872" points="206.4,86 205.2,84.1 206.8,83.2 208.3,84.1 207.2,86 206.8,85.8 						"/>
					</g>
					<g>
						<path fill="#354872" d="M228.9,98.4l-1.8-1l1.1-1.9l1.8,1L228.9,98.4z M225.3,96.4l-1.8-1l1.1-1.9l1.8,1L225.3,96.4z
							 M221.7,94.3l-1.8-1l1.1-1.9l1.8,1L221.7,94.3z M218,92.2l-1.8-1l1.1-1.9l1.8,1L218,92.2z M214.4,90.1l-1.8-1l1.1-1.9l1.8,1
							L214.4,90.1z M210.8,88.1l-1.8-1l1.1-1.9l1.8,1L210.8,88.1z"/>
					</g>
					<g>
						<polygon fill="#354872" points="231.8,100.6 231.4,99.9 230.7,99.5 231,99.1 230.7,98.6 231.4,98.2 231.8,97.5 234.5,99 
													"/>
					</g>
					<g>
						<path fill="#354872" d="M209.9,113.2l-1.1-1.9l1.8-1.1l1.1,1.9L209.9,113.2z M213.6,111.1l-1.1-1.9l1.8-1.1l1.1,1.9
							L213.6,111.1z M217.2,109l-1.1-1.9l1.8-1.1l1.1,1.9L217.2,109z M220.9,106.9l-1.1-1.9l1.8-1.1l1.1,1.9L220.9,106.9z
							 M224.5,104.8l-1.1-1.9l1.8-1.1l1.1,1.9L224.5,104.8z M228.2,102.7l-1.1-1.9l1.8-1.1l1.1,1.9L228.2,102.7z"/>
					</g>
					<g>
						<polygon fill="#354872" points="206.6,115.1 205.1,114.3 206.2,112.4 206.6,112.6 207,112.4 208.1,114.3 						"/>
					</g>
					<g>
						<path fill="#354872" d="M203.3,113.2l-1.8-1l1.1-1.9l1.8,1L203.3,113.2z M199.6,111.2l-1.8-1l1.1-1.9l1.8,1L199.6,111.2z
							 M196,109.1l-1.8-1l1.1-1.9l1.8,1L196,109.1z M192.4,107l-1.8-1l1.1-1.9l1.8,1L192.4,107z M188.8,105l-1.8-1l1.1-1.9l1.8,1
							L188.8,105z M185.1,102.9l-1.8-1l1.1-1.9l1.8,1L185.1,102.9z"/>
					</g>
					<g>
						<polygon fill="#354872" points="181.5,100.8 178.9,99.3 181.5,97.8 181.9,98.5 182.6,98.9 182.4,99.3 182.6,99.7 181.9,100.1 
													"/>
					</g>
					<g>
						<path fill="#354872" d="M184.4,98.6l-1.1-1.9l1.8-1.1l1.1,1.9L184.4,98.6z M188.1,96.5l-1.1-1.9l1.8-1.1l1.1,1.9L188.1,96.5z
							 M191.7,94.4l-1.1-1.9l1.8-1.1l1.1,1.9L191.7,94.4z M195.4,92.3l-1.1-1.9l1.8-1.1l1.1,1.9L195.4,92.3z M199,90.2l-1.1-1.9
							l1.8-1.1l1.1,1.9L199,90.2z M202.7,88.1l-1.1-1.9l1.8-1.1l1.1,1.9L202.7,88.1z"/>
					</g>
				</g>
				<g>
					<g>
						<polygon fill="#FFDF6A" points="206.7,68.5 223.9,78.3 206.6,88.2 189.5,78.5 						"/>
						<path fill="#354872" d="M206.6,89.4c-0.2,0-0.4,0-0.5-0.1L189,79.4c-0.3-0.2-0.6-0.6-0.6-1c0-0.4,0.2-0.8,0.6-1l17.2-9.9
							c0.3-0.2,0.8-0.2,1.1,0l17.1,9.8c0.3,0.2,0.6,0.6,0.6,1c0,0.4-0.2,0.8-0.6,1l-17.2,9.9C207,89.3,206.8,89.4,206.6,89.4z
							 M191.7,78.5l14.9,8.5l15-8.7l-14.9-8.5L191.7,78.5z"/>
					</g>
					<g>
						<g>
							<polygon fill="#354872" points="223.8,78.2 224,98.1 206.7,108 206.5,88.1 							"/>
						</g>
						<g>
							<g>
								<path fill="#354872" d="M206.8,109.2c-0.2,0-0.4,0-0.5-0.1c-0.3-0.2-0.6-0.6-0.6-1l-0.2-19.9c0-0.4,0.2-0.8,0.6-1l17.2-9.9
									c0.3-0.2,0.8-0.2,1.1,0c0.3,0.2,0.6,0.6,0.6,1l0.2,19.9c0,0.4-0.2,0.8-0.6,1l-17.2,9.9C207.2,109.2,207,109.2,206.8,109.2z
									 M207.7,88.9l0.2,17.3l15-8.7l-0.2-17.3L207.7,88.9z"/>
							</g>
						</g>
					</g>
					<g>
						<g>
							<polygon fill="#FFFFFF" points="206.6,88.2 206.8,108.1 189.7,98.3 189.5,78.5 							"/>
						</g>
						<g>
							<g>
								<path fill="#354872" d="M206.8,109.2L206.8,109.2c-0.2,0-0.4,0-0.6-0.1l-17.1-9.8c-0.3-0.2-0.6-0.6-0.6-1l-0.2-19.9
									c0-0.4,0.2-0.8,0.5-1c0.3-0.2,0.8-0.2,1.1,0l17.1,9.8c0.3,0.2,0.6,0.6,0.6,1l0.2,19.7c0,0.1,0,0.1,0,0.2
									C207.9,108.7,207.5,109.2,206.8,109.2z M190.8,97.7l14.9,8.5l-0.2-17.3l-14.9-8.5L190.8,97.7z"/>
							</g>
						</g>
					</g>
				</g>
				<g>
					<g>
						<polygon fill="#FFDF6A" points="206.8,61.4 215.8,66.6 206.7,71.8 197.7,66.7 						"/>
						<path fill="#354872" d="M206.7,72.9c-0.2,0-0.4,0-0.6-0.1l-9-5.2c-0.3-0.2-0.6-0.6-0.6-1c0-0.4,0.2-0.8,0.6-1l9.1-5.2
							c0.3-0.2,0.8-0.2,1.1,0l9,5.2c0.3,0.2,0.6,0.6,0.6,1c0,0.4-0.2,0.8-0.6,1l-9.1,5.2C207.1,72.9,206.9,72.9,206.7,72.9z
							 M199.9,66.7l6.8,3.9l6.9-4l-6.8-3.9L199.9,66.7z"/>
					</g>
					<g>
						<g>
							<polygon fill="#354872" points="215.7,66.5 215.8,77 206.7,82.2 206.6,71.7 							"/>
						</g>
						<g>
							<g>
								<path fill="#354872" d="M206.8,83.4c-0.2,0-0.4,0-0.5-0.1c-0.3-0.2-0.6-0.6-0.6-1l-0.1-10.5c0-0.4,0.2-0.8,0.6-1l9.1-5.2
									c0.3-0.2,0.8-0.2,1.1,0c0.3,0.2,0.6,0.6,0.6,1l0.1,10.5c0,0.4-0.2,0.8-0.6,1l-9.1,5.2C207.2,83.4,207,83.4,206.8,83.4z
									 M207.8,72.5l0.1,7.9l6.9-4l-0.1-7.9L207.8,72.5z"/>
							</g>
						</g>
					</g>
					<g>
						<g>
							<polygon fill="#FFFFFF" points="206.7,71.8 206.8,82.3 197.8,77.2 197.7,66.7 							"/>
						</g>
						<g>
							<g>
								<path fill="#354872" d="M206.8,83.4L206.8,83.4c-0.2,0-0.4,0-0.6-0.1l-9-5.2c-0.3-0.2-0.6-0.6-0.6-1l-0.1-10.5
									c0-0.4,0.2-0.8,0.5-1c0.3-0.2,0.8-0.2,1.1,0l9,5.2c0.3,0.2,0.6,0.6,0.6,1l0.1,10.3c0,0.1,0,0.1,0,0.2
									C207.9,82.9,207.4,83.4,206.8,83.4z M198.9,76.5l6.8,3.9l-0.1-7.9l-6.8-3.9L198.9,76.5z"/>
							</g>
						</g>
					</g>
				</g>
			</g>
		</g>
	</g>
	<g>
		<g>
			<circle fill="#FFFFFF" cx="493.5" cy="87.7" r="40.2"/>
			<g>
				<circle fill="#FFDF6A" cx="490.9" cy="87.7" r="13.3"/>
				<g>
					<polygon fill="#354872" points="490.7,89.6 484,82.8 485.6,81.3 490.7,86.5 498.6,78.5 500.2,80.1 					"/>
				</g>
				<g>
					<g>
						<path fill="#354872" d="M505.1,112.8h-8.6v-1.1c0-0.1,0-2.5,1.8-5.1c0.8-1.1,1.9-2.1,3-2.9c0.9-0.7,2.1-1.8,2.1-2.2V101
							c0-1.4-1.2-2.6-2.6-2.6c-1.4,0-2.6,1.2-2.6,2.6H496c0-2.7,2.2-4.8,4.8-4.8c2.7,0,4.8,2.2,4.8,4.8v0.5c0,1.5-1.4,2.7-3,4
							c-1,0.8-2,1.6-2.5,2.5c-0.7,1-1.1,2-1.2,2.8h6.3L505.1,112.8L505.1,112.8z"/>
					</g>
					<g>
						<rect x="511.4" y="96.7" fill="#354872" width="2.2" height="15.8"/>
					</g>
					<g>
						<polygon fill="#354872" points="515.7,107.9 504.9,107.9 511.5,96.6 513.4,97.7 508.8,105.7 515.7,105.7 						"/>
					</g>
				</g>
				<g>
					<path fill="#FFFFFF" d="M491.2,106.5c-0.1,0-0.1,0-0.2,0c-10.4,0-18.8-8.4-18.8-18.8s8.4-18.8,18.8-18.8
						c9.2,0,16.9,6.7,18.5,15.4h-3l3.1,3.6l3.1,3.6l3.1-3.6l3.1-3.6H515c-1.6-11.7-11.8-20.8-23.9-20.8c-13.3,0-24.2,10.8-24.2,24.2
						c0,13.3,10.8,24.2,24.2,24.2c0.1,0,0.1,0,0.2,0L491.2,106.5L491.2,106.5z"/>
					<path fill="#354872" d="M491,113L491,113c-13.9,0-25.3-11.3-25.3-25.3c0-13.9,11.3-25.3,25.3-25.3c12.2,0,22.7,8.9,24.9,20.8
						h5.3l-8.5,10.1l-8.5-10.1h4c-2-7.7-9-13.2-17.1-13.2c-9.7,0-17.7,7.9-17.7,17.7c0,9.7,7.9,17.7,17.7,17.7h1.3v7.6H491z
						 M491,64.7c-12.7,0-23,10.3-23,23c0,12.4,9.9,22.6,22.2,23.1v-3.2c-10.5-0.5-19-9.2-19-19.9c0-11,8.9-19.9,19.9-19.9
						c9.6,0,17.8,6.9,19.6,16.3l0.2,1.3H509l3.8,4.5l3.8-4.5H514l-0.1-1C512.3,73.2,502.5,64.7,491,64.7z"/>
				</g>
				<g>
					<circle fill="#FFFFFF" cx="490.9" cy="87.7" r="2.9"/>
					<path fill="#354872" d="M490.9,91.7c-2.2,0-4-1.8-4-4s1.8-4,4-4c2.2,0,4,1.8,4,4S493.1,91.7,490.9,91.7z M490.9,86
						c-1,0-1.8,0.8-1.8,1.8s0.8,1.8,1.8,1.8s1.8-0.8,1.8-1.8S491.9,86,490.9,86z"/>
				</g>
				<g>
					<g>
						<rect x="489.4" y="74.2" fill="#354872" width="2.2" height="2.2"/>
					</g>
					<g>
						<rect x="477.2" y="86.9" fill="#354872" width="2.2" height="2.2"/>
					</g>
					<g>
						<rect x="489.9" y="99.1" fill="#354872" width="2.2" height="2.2"/>
					</g>
					<g>
						<rect x="502.1" y="86.4" fill="#354872" width="2.2" height="2.2"/>
					</g>
				</g>
			</g>
		</g>
		<g>
			<circle fill="#FFFFFF" cx="493.5" cy="287.6" r="40.2"/>
			<g>
				<g>
					<path fill="#354872" d="M498.3,315.1h-9l-0.7-3.1c-0.9-0.2-1.7-0.4-2.6-0.6l-2.2,2.4l-7.8-4.5l1-3c-0.6-0.6-1.3-1.2-1.8-1.8
						l-3.2,1l-4.5-7.8l2.5-2.3c-0.2-0.7-0.4-1.5-0.6-2.3l-3.5-0.8v-9l3.7-0.8c0.2-0.6,0.3-1.2,0.6-1.9l-3-2.7l4.5-7.8l4.1,1.3
						c0.4-0.4,0.7-0.8,1.1-1.1l-1.4-4.2l7.8-4.5l3.1,3.4c0.4-0.1,0.8-0.2,1.2-0.3l1-4.7h9l1,4.7c0.4,0.1,0.7,0.2,1.1,0.3l3.3-3.7
						l7.8,4.5l-1.5,4.5c0.3,0.3,0.6,0.5,0.8,0.8l4.7-1.5l4.5,7.8l-3.3,3c0.2,0.4,0.3,0.9,0.4,1.3l4.5,1v9l-4,0.9
						c-0.1,0.6-0.2,1.2-0.4,1.7l3.1,2.8l-4.5,7.8l-3.5-1.1c-0.5,0.5-0.9,1.1-1.5,1.6l1.2,3.6l-7.8,4.5l-2.2-2.5
						c-0.8,0.3-1.6,0.5-2.4,0.7L498.3,315.1z M491,312.9h5.4l0.6-2.9l0.7-0.1c1.1-0.2,2.3-0.6,3.5-1.1l0.7-0.3l2,2.3l4.7-2.7l-1-3.2
						l0.5-0.5c0.8-0.8,1.6-1.6,2.2-2.4l0.5-0.6l3.3,1.1l2.7-4.7l-2.8-2.5l0.2-0.7c0.3-0.9,0.5-1.8,0.6-2.9l0.1-0.8l3.8-0.8v-5.4
						l-4.1-0.9l-0.2-0.7c-0.2-0.8-0.5-1.7-0.8-2.5l-0.3-0.7l3.1-2.8l-2.7-4.7l-4.3,1.4l-0.5-0.5c-0.6-0.6-1.1-1.1-1.7-1.6l-0.6-0.5
						l1.4-4.2l-4.7-2.7l-3,3.4l-0.7-0.2c-0.7-0.2-1.5-0.4-2.3-0.6l-0.7-0.1l-0.9-4.3h-5.4l-0.9,4.3l-0.7,0.1
						c-0.8,0.2-1.6,0.4-2.4,0.6l-0.7,0.2l-2.8-3.1l-4.7,2.7l1.3,3.9l-0.6,0.5c-0.7,0.6-1.3,1.2-2,1.9l-0.5,0.5l-3.7-1.2l-2.7,4.7
						l2.8,2.5l-0.3,0.7c-0.4,1.1-0.7,2.1-0.9,3l-0.1,0.7l-3.4,0.7v5.4l3.2,0.7l0.1,0.7c0.2,1.2,0.5,2.3,0.9,3.4l0.2,0.7l-2.3,2.1
						l2.7,4.7l2.9-0.9l0.5,0.6c0.8,0.9,1.7,1.8,2.6,2.6l0.6,0.5l-0.9,2.7l4.7,2.7l1.9-2.2l0.7,0.2c1.2,0.4,2.4,0.7,3.6,0.9l0.8,0.1
						L491,312.9z"/>
				</g>
				<path fill="#FFDF6A" d="M493.6,301.9c-3.5,0-6.8-1.3-9.4-3.5l9.9-9.9h13.8c-0.2,3.5-1.7,6.7-4.1,9.2
					C500.9,300.4,497.4,301.9,493.6,301.9z"/>
				<path fill="#FFFFFF" d="M494.5,286.3v-12.9c7,0.4,12.6,5.9,13.3,12.9H494.5z"/>
				<path fill="#FFDF6A" d="M493.6,301.9c-3.5,0-6.8-1.3-9.4-3.5l9.9-9.9h13.8c-0.2,3.5-1.7,6.7-4.1,9.2
					C500.9,300.4,497.4,301.9,493.6,301.9z"/>
				<path fill="#354872" d="M494.5,286.3v-12.9c7,0.4,12.6,5.9,13.3,12.9H494.5z"/>
				<g>
					<path fill="#354872" d="M493.5,305.9c-4.5,0-8.8-1.6-12.2-4.6l1.5-1.7c3,2.6,6.8,4.1,10.7,4.1c8.9,0,16.1-7.2,16.1-16.1
						c0-8.6-6.7-15.7-15.3-16.1l0.1-2.2c9.8,0.5,17.5,8.5,17.5,18.3C511.8,297.7,503.6,305.9,493.5,305.9z"/>
				</g>
				<path fill="#354872" d="M490,272.1v14.1l-9.9,10.1c-1.7-2.6-2.5-5.5-2.5-8.6C477.6,280.1,482.9,273.7,490,272.1L490,272.1z
					 M492.2,269.6c-9.4,0.7-16.8,8.5-16.8,18.1c0,4.6,1.7,8.8,4.6,12l12.3-12.5L492.2,269.6L492.2,269.6z"/>
			</g>
		</g>
	</g>
	<g>
		<path fill="#FFFFFF" d="M63.2,182.1c-0.7,0-1.2-0.5-1.2-1.2v-54.5c0-0.7,0.5-1.2,1.2-1.2c0.7,0,1.2,0.5,1.2,1.2v54.5
			C64.3,181.5,63.8,182.1,63.2,182.1z"/>
	</g>
	<g>
		<circle fill="#FFFFFF" cx="62.7" cy="187.7" r="40.2"/>
		<g>
			<g>
				<path fill="#354872" d="M79.9,187.3h-2.2v-10.2c0-8.3-6.8-15.1-15.1-15.1c-8.3,0-15.1,6.8-15.1,15.1v10.2h-2.2v-10.2
					c0-9.5,7.8-17.3,17.3-17.3s17.3,7.8,17.3,17.3V187.3z"/>
			</g>
			<path fill="#FFDF6A" d="M80.9,188.1c0,1.9-1.6,3.5-3.5,3.5h-0.3c-1.9,0-3.5-1.6-3.5-3.5v-6.4c0-1.9,1.6-3.5,3.5-3.5h0.3
				c1.9,0,3.5,1.6,3.5,3.5V188.1z"/>
			<g>
				<path fill="#FFFFFF" d="M44.3,215v-6.3c0-2.8,2.6-5.1,5.7-5.1h25.1c3.2,0,5.7,2.3,5.7,5.1v6.3H44.3z"/>
				<path fill="#354872" d="M81.9,215h-2.2v-6.3c0-2.2-2.1-4-4.6-4H50c-2.5,0-4.6,1.8-4.6,4v6.3h-2.2v-6.3c0-3.4,3.1-6.2,6.8-6.2
					h25.1c3.8,0,6.8,2.8,6.8,6.2V215z"/>
			</g>
			<g>
				<path fill="#FFFFFF" d="M75.3,177.1v10.2c0,7.1-5.7,12.8-12.8,12.8l0,0c-7.1,0-12.8-5.7-12.8-12.8v-10.2H75.3z"/>
				<path fill="#354872" d="M62.6,201.2c-7.7,0-13.9-6.2-13.9-13.9v-10.2h2.2v10.2c0,6.4,5.2,11.7,11.7,11.7s11.7-5.2,11.7-11.7
					v-10.2h2.2v10.2C76.5,195,70.2,201.2,62.6,201.2z"/>
			</g>
			<path fill="#354872" d="M71.5,163.7h-6.6H58c-2.1,0-3.9,1.1-4.9,2.7h-2c-0.2,0-0.4,0-0.5,0c-2.3,2.5-3.7,5.8-4,9.3v11.9h3.2v-9.9
				c0-1.8,1.4-3.2,3.2-3.2h1.9H65h5.8h1.7h1.3h1.7c3.3,0,5.9-2.6,5.9-5.9v-4.8L71.5,163.7L71.5,163.7z"/>
			<g>
				<path fill="#354872" d="M50.8,187.6h-2.2v-9.9c0-2.4,1.9-4.3,4.3-4.3h22.4c2.6,0,4.8-2.2,4.8-4.8v-4.8h2.2v4.8c0,3.9-3.1,7-7,7
					H52.9c-1.2,0-2.1,0.9-2.1,2.1V187.6L50.8,187.6z"/>
			</g>
			<path fill="#FFDF6A" d="M51.3,188.1c0,1.9-1.6,3.5-3.5,3.5h-0.3c-1.9,0-3.5-1.6-3.5-3.5v-6.4c0-1.9,1.6-3.5,3.5-3.5h0.3
				c1.9,0,3.5,1.6,3.5,3.5V188.1z"/>
			<g>
				<path fill="#354872" d="M47.5,187.3h-2.2v-10.2c0-9.5,7.8-17.3,17.3-17.3v2.2c-8.3,0-15.1,6.8-15.1,15.1V187.3z"/>
			</g>
			<g>
				<polygon fill="#354872" points="64.9,208.6 59.7,208.6 57.4,204.6 59.3,203.5 61,206.4 63.7,206.4 65.3,203.5 67.2,204.6 				
					"/>
			</g>
			<g>
				
					<rect x="60.8" y="210.3" transform="matrix(-0.2128 -0.9771 0.9771 -0.2128 -127.9447 319.7397)" fill="#354872" width="8" height="2.2"/>
			</g>
			<g>
				
					<rect x="58.7" y="207.4" transform="matrix(-0.9771 -0.2127 0.2127 -0.9771 73.2581 430.6757)" fill="#354872" width="2.2" height="8"/>
			</g>
			<g>
				<path fill="#354872" d="M75.3,196.9h-10v-2.2h10c1.3,0,2.3-1,2.3-2.3h2.2C79.9,194.9,77.8,196.9,75.3,196.9z"/>
			</g>
			<g>
				<rect x="62.2" y="182.4" fill="#354872" width="2.2" height="7"/>
			</g>
		</g>
	</g>
	<g>
		<circle fill="#FFFFFF" cx="62.7" cy="40.2" r="40.2"/>
		<g>
			<g>
				<path fill="#354872" d="M71.1,50.4c-4.1,0-7.9-1.3-11.1-3.7L54.8,48l1.4-5.1c-2.4-3.2-3.7-7.1-3.7-11.1
					c0-10.2,8.3-18.6,18.6-18.6c10.2,0,18.6,8.3,18.6,18.6C89.7,42,81.3,50.4,71.1,50.4z M60.5,44.2l0.4,0.3
					c2.9,2.3,6.4,3.6,10.2,3.6c9,0,16.4-7.3,16.4-16.4c0-9-7.3-16.4-16.4-16.4c-9,0-16.4,7.3-16.4,16.4c0,3.7,1.2,7.3,3.6,10.2
					l0.3,0.4L58,44.9L60.5,44.2z"/>
			</g>
			<g>
				<path fill="#FFFFFF" d="M64.5,54.5l-0.1,0.1c-0.6,0.9-1.3,1.9-1.9,2.8c-0.6,0.9-2,1-3.1,0.2c-1.2-0.9-5-4.3-7.4-6.5
					c-2.2-2.4-5.7-6.2-6.5-7.4c-0.8-1.1-0.7-2.6,0.2-3.1c0.9-0.6,1.9-1.3,2.8-1.9l0.1-0.1c-2.4-2.9-4.6-5.9-6.6-8.8
					c-1.2,0.8-2.4,1.7-3.5,2.8c-0.5,0.5-1,1.1-1.5,1.6c-0.5,5.9,2.3,13.8,9.9,21.4c7.7,8,15.9,11,22,10.5c0.6-0.5,1.1-0.9,1.6-1.5
					c1.1-1.1,2-2.3,2.8-3.5C70.3,59.2,67.4,57,64.5,54.5z"/>
				<path fill="#354872" d="M67.6,67.2L67.6,67.2c-7.1,0-14.9-4-21.5-10.9c-7-7-10.7-15.1-10.2-22.2v-0.3l0.2-0.3
					c0.6-0.7,1-1.2,1.5-1.7c1.1-1.1,2.4-2.1,3.7-2.9l0.9-0.6l0.6,0.9c2,2.9,4.2,5.9,6.5,8.7l0.6,0.7l-0.6,0.7
					c-0.1,0.1-0.2,0.2-0.4,0.4l-2.8,1.9c-0.2,0.1-0.2,0.3-0.2,0.4c-0.1,0.4,0,0.8,0.3,1.2c0.8,1.1,3.9,4.7,6.4,7.3
					c2.6,2.5,6.1,5.6,7.2,6.4c0.3,0.2,0.6,0.3,1,0.3c0.3,0,0.5-0.1,0.6-0.2l0.7-1c0.4-0.6,0.8-1.2,1.2-1.8c0.1-0.2,0.2-0.3,0.3-0.4
					l0.7-0.6l0.7,0.6c2.9,2.4,5.8,4.6,8.7,6.5l0.9,0.6L74,61.8c-0.8,1.3-1.8,2.6-2.9,3.7c-0.5,0.5-1,1-1.7,1.5l-0.3,0.2h-0.3
					C68.5,67.2,68,67.2,67.6,67.2z M38.1,34.6c-0.2,3.3,0.6,11.2,9.6,20.1C53.9,61.3,61.1,65,67.6,65l0,0c0.3,0,0.6,0,0.8,0
					c0.5-0.4,0.9-0.8,1.3-1.2c0.7-0.7,1.4-1.6,2-2.4c-2.4-1.6-4.7-3.4-7.1-5.3c-0.2,0.3-0.4,0.6-0.6,1l-0.7,1
					c-0.5,0.8-1.4,1.2-2.5,1.2c-0.8,0-1.6-0.3-2.2-0.7c-1.4-1-5.3-4.5-7.5-6.6l0,0c-2.1-2.2-5.7-6.2-6.6-7.5
					c-0.6-0.9-0.9-1.9-0.7-2.9c0.1-0.8,0.6-1.4,1.2-1.8l1.9-1.3c-1.9-2.3-3.7-4.7-5.3-7.1c-0.9,0.6-1.7,1.3-2.4,2
					C38.9,33.7,38.5,34.2,38.1,34.6z"/>
			</g>
			<path fill="#354872" d="M71.1,45.9c-7.8,0-14.1-6.3-14.1-14.1c0-7.8,6.3-14.1,14.1-14.1c7.8,0,14.1,6.3,14.1,14.1
				C85.2,39.6,78.9,45.9,71.1,45.9z"/>
			<g>
				<g>
					<polygon fill="#FFDF6A" points="68.4,32.7 62.7,27.3 68.4,22 70,23.6 65.9,27.3 70,31.1 					"/>
				</g>
				<g>
					<rect x="64.8" y="26.2" fill="#FFDF6A" width="12.2" height="2.2"/>
				</g>
			</g>
			<g>
				<g>
					<polygon fill="#FFDF6A" points="72.9,41 71.4,39.4 75.4,35.7 71.4,31.9 72.9,30.3 78.6,35.7 					"/>
				</g>
				<g>
					<rect x="64.3" y="34.5" fill="#FFDF6A" width="12.2" height="2.2"/>
				</g>
			</g>
		</g>
	</g>
	<g>
		<path fill="#FFFFFF" d="M644.5,249.1c-0.7,0-1.2-0.5-1.2-1.2v-54.5c0-0.7,0.5-1.2,1.2-1.2c0.6,0,1.2,0.5,1.2,1.2v54.5
			C645.7,248.6,645.2,249.1,644.5,249.1z"/>
	</g>
	<g>
		<path fill="#FFFFFF" d="M644.5,342.8c-0.7,0-1.2-0.5-1.2-1.2v-54.5c0-0.6,0.5-1.2,1.2-1.2c0.6,0,1.2,0.5,1.2,1.2v54.5
			C645.7,342.3,645.2,342.8,644.5,342.8z"/>
	</g>
	<g>
		<circle fill="#FFFFFF" cx="644.5" cy="187.7" r="40.2"/>
		<g>
			<g>
				<path fill="#FFDF6A" d="M662.1,197.8c-1.3,0-2.4,0.7-2.9,1.8H656c0.7-2.7,3.1-4.8,6.1-4.8c1.4,0,2.6,0.4,3.7,1.2h4.4v3.6h-2H665
					C664.4,198.5,663.3,197.8,662.1,197.8z"/>
				<polygon fill="#354872" points="658.1,188.1 665.8,188.1 663.6,180.4 658.1,180.4 				"/>
				<g>
					<path fill="#354872" d="M671.2,200.7h-6.9l-0.3-0.6c-0.4-0.7-1.1-1.2-1.9-1.2c-0.8,0-1.6,0.5-1.9,1.2l-0.3,0.6h-5.7v-24.6h12.2
						l4.3,12.7v5h0.6L671.2,200.7L671.2,200.7z M665.6,198.5h3.4V196h-0.6v-6.8l-3.7-10.8h-8.4v20.1h2.2c0.8-1.1,2.1-1.8,3.5-1.8
						C663.5,196.7,664.8,197.4,665.6,198.5z"/>
				</g>
				<g>
					<g>
						<rect x="619.9" y="170.9" fill="#FFFFFF" width="35.3" height="24.7"/>
						<path fill="#354872" d="M656.4,196.7h-37.5v-26.9h37.5V196.7z M621,194.5h33.1v-22.4H621V194.5z"/>
					</g>
					<rect x="623.3" y="174.3" fill="#FFDF6A" width="28.7" height="16.9"/>
				</g>
				<g>
					<rect x="618.9" y="194.9" fill="#FFFFFF" width="36.4" height="4.8"/>
					<path fill="#354872" d="M656.4,200.7h-38.6v-7h38.6V200.7z M620,198.5h34.2V196H620V198.5z"/>
				</g>
				<g>
					<path fill="#FFFFFF" d="M654.9,199.6h-4.1H654.9z"/>
					<rect x="650.8" y="198.5" fill="#354872" width="4.1" height="2.2"/>
				</g>
				<g>
					<circle fill="#FFFFFF" cx="662.1" cy="201.1" r="3.3"/>
					<path fill="#354872" d="M662.1,205.5c-2.4,0-4.4-2-4.4-4.4c0-2.4,2-4.4,4.4-4.4c2.4,0,4.4,2,4.4,4.4
						C666.4,203.5,664.5,205.5,662.1,205.5z M662.1,198.9c-1.2,0-2.2,1-2.2,2.2c0,1.2,1,2.2,2.2,2.2c1.2,0,2.2-1,2.2-2.2
						C664.2,199.9,663.3,198.9,662.1,198.9z"/>
				</g>
				<g>
					<path fill="#FFFFFF" d="M642,201.1c0,1.8,1.5,3.3,3.3,3.3s3.3-1.5,3.3-3.3c0-1.8-1.5-3.3-3.3-3.3S642,199.3,642,201.1z"/>
					<path fill="#354872" d="M645.3,205.5c-2.4,0-4.4-2-4.4-4.4c0-2.4,2-4.4,4.4-4.4c2.4,0,4.4,2,4.4,4.4
						C649.7,203.5,647.7,205.5,645.3,205.5z M645.3,198.9c-1.2,0-2.2,1-2.2,2.2c0,1.2,1,2.2,2.2,2.2s2.2-1,2.2-2.2
						C647.5,199.9,646.5,198.9,645.3,198.9z"/>
				</g>
				<g>
					<circle fill="#FFFFFF" cx="625.7" cy="201.1" r="3.3"/>
					<path fill="#354872" d="M625.7,205.5c-2.4,0-4.4-2-4.4-4.4c0-2.4,2-4.4,4.4-4.4c2.4,0,4.4,2,4.4,4.4
						C630.1,203.5,628.2,205.5,625.7,205.5z M625.7,198.9c-1.2,0-2.2,1-2.2,2.2c0,1.2,1,2.2,2.2,2.2s2.2-1,2.2-2.2
						C627.9,199.9,626.9,198.9,625.7,198.9z"/>
				</g>
				<g>
					<circle fill="#FFFFFF" cx="625.7" cy="201.1" r="3.3"/>
					<path fill="#354872" d="M625.7,205.5c-2.4,0-4.4-2-4.4-4.4c0-2.4,2-4.4,4.4-4.4c2.4,0,4.4,2,4.4,4.4
						C630.1,203.5,628.2,205.5,625.7,205.5z M625.7,198.9c-1.2,0-2.2,1-2.2,2.2c0,1.2,1,2.2,2.2,2.2s2.2-1,2.2-2.2
						C627.9,199.9,626.9,198.9,625.7,198.9z"/>
				</g>
				<g>
					<circle fill="#FFFFFF" cx="662.1" cy="201.1" r="0.4"/>
					<path fill="#354872" d="M662.1,199.6c-0.8,0-1.5,0.7-1.5,1.5c0,0.8,0.7,1.5,1.5,1.5c0.8,0,1.5-0.7,1.5-1.5
						C663.5,200.3,662.9,199.6,662.1,199.6L662.1,199.6z"/>
				</g>
				<g>
					<path fill="#FFFFFF" d="M645.3,201.5c-0.2,0-0.4-0.2-0.4-0.4c0-0.2,0.2-0.4,0.4-0.4s0.4,0.2,0.4,0.4
						C645.7,201.3,645.5,201.5,645.3,201.5z"/>
					<path fill="#354872" d="M645.3,199.6c-0.8,0-1.5,0.7-1.5,1.5c0,0.8,0.7,1.5,1.5,1.5s1.5-0.7,1.5-1.5
						C646.8,200.3,646.1,199.6,645.3,199.6L645.3,199.6z"/>
				</g>
				<g>
					<circle fill="#FFFFFF" cx="625.7" cy="201.1" r="0.4"/>
					<path fill="#354872" d="M625.7,199.6c-0.8,0-1.5,0.7-1.5,1.5c0,0.8,0.7,1.5,1.5,1.5s1.5-0.7,1.5-1.5
						C627.2,200.3,626.6,199.6,625.7,199.6L625.7,199.6z"/>
				</g>
				<g>
					<path fill="#FFFFFF" d="M671.3,191.9h-4.2H671.3z"/>
					<rect x="667.1" y="190.8" fill="#354872" width="4.2" height="2.2"/>
				</g>
			</g>
			<g>
				<rect x="625.5" y="176.6" fill="#354872" width="8.9" height="2.2"/>
			</g>
		</g>
	</g>
</g>
</svg>
