<?xml version="1.0" encoding="utf-8"?>
<!-- Generator: Adobe Illustrator 16.2.0, SVG Export Plug-In . SVG Version: 6.00 Build 0)  -->
<!DOCTYPE svg PUBLIC "-//W3C//DTD SVG 1.1//EN" "http://www.w3.org/Graphics/SVG/1.1/DTD/svg11.dtd">
<svg version="1.1" id="Layer_1" xmlns="http://www.w3.org/2000/svg" xmlns:xlink="http://www.w3.org/1999/xlink" x="0px" y="0px"
	 width="1096px" height="325px" viewBox="0 0 1096 325" enable-background="new 0 0 1096 325" xml:space="preserve">
<g>
	<g>
		
			<rect x="717" y="101.9" transform="matrix(-0.7071 -0.7071 0.7071 -0.7071 1288.051 740.0052)" fill="#FFFFFF" width="160.6" height="2.7"/>
	</g>
	<g>
		<rect x="92.8" y="159.9" fill="#FFFFFF" width="160.6" height="2.7"/>
	</g>
	<g>
		<rect x="868" y="163.7" fill="#FFFFFF" width="160.6" height="2.7"/>
	</g>
	<g>
		<rect x="362.8" y="277.8" fill="#FFFFFF" width="336.4" height="2.7"/>
	</g>
	<g>
		<rect x="340.3" y="45.7" fill="#FFFFFF" width="385.7" height="2.7"/>
	</g>
	<g>
		
			<rect x="281.4" y="22.3" transform="matrix(-0.707 -0.7072 0.7072 -0.707 410.0842 375.0626)" fill="#FFFFFF" width="2.7" height="160.6"/>
	</g>
	<g>
		
			<rect x="202.5" y="217.3" transform="matrix(-0.7071 -0.7071 0.7071 -0.7071 328.1234 573.2476)" fill="#FFFFFF" width="160.6" height="2.7"/>
	</g>
	<g>
		
			<rect x="796" y="146.4" transform="matrix(-0.7066 -0.7076 0.7076 -0.7066 1200.3069 951.0253)" fill="#FFFFFF" width="2.7" height="160.6"/>
	</g>
	<g>
		<rect x="532.1" y="83.4" fill="#FFFFFF" width="2.7" height="51"/>
	</g>
	<g>
		<rect x="532" y="187.3" fill="#FFFFFF" width="2.7" height="51"/>
	</g>
	<g>
		<path fill="#FFFFFF" d="M328.9,111.3c-0.5,0.3-1.6,0.5-2.9,0.5c-3.1,0-5.4-2-5.4-5.6c0-3.5,2.3-5.8,5.8-5.8c1.4,0,2.2,0.3,2.6,0.5
			l-0.3,1.2c-0.5-0.3-1.3-0.5-2.2-0.5c-2.6,0-4.3,1.7-4.3,4.5c0,2.7,1.6,4.4,4.2,4.4c0.9,0,1.8-0.2,2.3-0.5L328.9,111.3z"/>
		<path fill="#FFFFFF" d="M333.3,101.8H330v-1.2h8.2v1.2h-3.4v9.8h-1.4L333.3,101.8L333.3,101.8z"/>
		<path fill="#FFFFFF" d="M339.8,108.2l-1.1,3.5h-1.5l3.7-11h1.7l3.8,11h-1.5l-1.2-3.5H339.8z M343.4,107l-1.1-3.2
			c-0.2-0.7-0.4-1.4-0.6-2l0,0c-0.2,0.7-0.3,1.3-0.6,2L340,107H343.4L343.4,107z"/>
		<path fill="#FFFFFF" d="M349.5,100.6v4.6h5.3v-4.6h1.4v11h-1.4v-5.2h-5.3v5.2h-1.4v-11H349.5z"/>
		<path fill="#FFFFFF" d="M366.3,100.6v9.9h1l-0.1,3.8H366l-0.1-2.7h-7l-0.1,2.7h-1.1l-0.1-3.8h0.8c0.4-0.8,0.8-1.6,1.1-2.4
			c0.4-1.3,0.5-2.7,0.5-4.6v-2.8L366.3,100.6L366.3,100.6z M361.4,103.9c0,1.8-0.2,3.3-0.6,4.5c-0.2,0.8-0.6,1.5-0.9,2.1h4.9v-8.7
			h-3.4V103.9z"/>
		<path fill="#FFFFFF" d="M370.9,108.2l-1.1,3.5h-1.5l3.7-11h1.7l3.8,11H376l-1.2-3.5H370.9z M374.5,107l-1.1-3.2
			c-0.2-0.7-0.4-1.4-0.6-2l0,0c-0.2,0.7-0.3,1.3-0.6,2l-1.1,3.2H374.5L374.5,107z"/>
		<path fill="#FFFFFF" d="M379.1,100.7c0.7-0.1,1.6-0.2,2.7-0.2c1.4,0,2.4,0.3,3.1,0.9c0.6,0.5,1,1.3,1,2.3s-0.3,1.8-0.9,2.4
			c-0.8,0.8-2,1.2-3.4,1.2c-0.4,0-0.8,0-1.1-0.1v4.4h-1.4V100.7L379.1,100.7z M380.5,106c0.3,0.1,0.7,0.1,1.2,0.1
			c1.7,0,2.8-0.8,2.8-2.4c0-1.5-1-2.2-2.6-2.2c-0.6,0-1.1,0-1.3,0.1v4.4H380.5z"/>
		<path fill="#FFFFFF" d="M389.9,101.8h-3.4v-1.2h8.2v1.2h-3.4v9.8h-1.4V101.8L389.9,101.8z"/>
		<path fill="#FFFFFF" d="M397.3,100.6v4.6h5.3v-4.6h1.4v11h-1.4v-5.2h-5.3v5.2h-1.4v-11H397.3z"/>
		<path fill="#FFFFFF" d="M408.4,108.2l-1.1,3.5h-1.5l3.7-11h1.7l3.8,11h-1.5l-1.2-3.5H408.4z M412,107l-1.1-3.2
			c-0.2-0.7-0.4-1.4-0.6-2l0,0c-0.2,0.7-0.3,1.3-0.6,2l-1.1,3.2H412L412,107z"/>
		<path fill="#FFFFFF" d="M415.6,111.6c0.2-0.3,0.3-0.6,0.4-1c0.5-1.3,0.8-2.8,1.7-3.7c0.3-0.3,0.6-0.5,0.9-0.6l0,0
			c-1.4-0.2-2.4-1.2-2.4-2.7c0-1,0.4-1.7,1-2.2c0.7-0.6,1.8-0.9,3.2-0.9c0.9,0,1.9,0.1,2.6,0.2v10.9h-1.4v-4.8h-1
			c-0.7,0-1.2,0.1-1.6,0.5c-0.8,0.8-1.1,2.4-1.5,3.4c-0.1,0.3-0.2,0.5-0.4,0.8L415.6,111.6L415.6,111.6L415.6,111.6z M421.6,101.7
			c-0.2,0-0.7-0.1-1.3-0.1c-1.4,0-2.6,0.5-2.6,2.1c0,1.3,1.2,2.1,2.7,2.1c0.5,0,0.9,0,1.2,0V101.7L421.6,101.7z"/>
		<path fill="#FFFFFF" d="M337.3,120.2v11h-1.4v-9.8h-5.1v9.8h-1.4v-11H337.3z"/>
		<path fill="#FFFFFF" d="M339.8,120.4c0.7-0.1,1.6-0.2,2.7-0.2c1.4,0,2.4,0.3,3.1,0.9c0.6,0.5,1,1.3,1,2.3s-0.3,1.8-0.9,2.4
			c-0.8,0.8-2,1.2-3.4,1.2c-0.4,0-0.8,0-1.1-0.1v4.4h-1.4V120.4L339.8,120.4z M341.3,125.7c0.3,0.1,0.7,0.1,1.2,0.1
			c1.7,0,2.8-0.8,2.8-2.4c0-1.5-1-2.2-2.6-2.2c-0.6,0-1.1,0-1.3,0.1v4.4H341.3z"/>
		<path fill="#FFFFFF" d="M357.8,125.6c0,3.8-2.3,5.8-5.1,5.8c-2.9,0-5-2.3-5-5.6c0-3.5,2.2-5.8,5.1-5.8
			C355.9,120.1,357.8,122.4,357.8,125.6z M349.3,125.8c0,2.4,1.3,4.5,3.5,4.5c2.3,0,3.5-2.1,3.5-4.6c0-2.2-1.1-4.5-3.5-4.5
			C350.4,121.2,349.3,123.4,349.3,125.8z"/>
		<path fill="#FFFFFF" d="M366.9,120.2v9.9h1l-0.1,3.8h-1.1l-0.1-2.7h-7l-0.1,2.7h-1.1l-0.1-3.8h0.8c0.4-0.8,0.8-1.6,1.1-2.4
			c0.4-1.3,0.5-2.7,0.5-4.6v-2.8L366.9,120.2L366.9,120.2z M362,123.5c0,1.8-0.2,3.3-0.6,4.5c-0.2,0.8-0.6,1.5-0.9,2.1h4.9v-8.7H362
			V123.5z"/>
		<path fill="#FFFFFF" d="M370,120.2l2.2,4.7c0.3,0.7,0.5,1.3,0.8,1.9l0,0c0.2-0.6,0.4-1.2,0.7-2l1.7-4.6h1.5l-2.3,5.7
			c-0.6,1.5-1.3,3.2-2.1,4.2c-0.7,0.9-1.5,1.4-2.5,1.4c-0.4,0-0.6,0-0.8-0.1l0.1-1.2c0.1,0,0.3,0,0.5,0c1.1,0,1.8-1.1,2.2-1.9
			c0.1-0.2,0.1-0.4,0-0.7l-3.7-7.4H370L370,120.2z"/>
		<path fill="#FFFFFF" d="M379.5,120.2v4.9h0.4l3.8-4.9h1.7l-4.2,5.1c1.8,0.2,2.5,1.4,3.1,2.8c0.4,1.1,0.7,2.1,1.2,3.1H384
			c-0.4-0.8-0.7-1.7-1-2.6c-0.5-1.5-1.2-2.5-3.1-2.5h-0.5v5.1H378v-11H379.5L379.5,120.2z"/>
		<path fill="#FFFFFF" d="M388.4,120.2v9.8h5.1v-9.8h1.4v9.9h1l-0.1,3.8h-1.1l-0.1-2.7H387v-11H388.4L388.4,120.2z"/>
		<path fill="#FFFFFF" d="M399,120.2v4.6c0,1.8,0,3.2-0.1,4.7l0,0c0.6-1.1,1.2-2.3,2-3.6l3.6-5.7h1.4v11h-1.3v-4.7
			c0-1.8,0-3.1,0.1-4.5l0,0c-0.5,1.2-1.3,2.5-2,3.7l-3.5,5.5h-1.5v-11H399L399,120.2z"/>
		<path fill="#FFFFFF" d="M407.4,131.3c0.2-0.3,0.3-0.6,0.4-1c0.5-1.3,0.8-2.8,1.7-3.7c0.3-0.3,0.6-0.5,0.9-0.6l0,0
			c-1.4-0.2-2.4-1.2-2.4-2.7c0-1,0.4-1.7,1-2.2c0.7-0.6,1.8-0.9,3.2-0.9c0.9,0,1.9,0.1,2.6,0.2v10.9h-1.4v-4.8h-1
			c-0.7,0-1.2,0.1-1.6,0.5c-0.8,0.8-1.1,2.4-1.5,3.4c-0.1,0.3-0.2,0.5-0.4,0.8L407.4,131.3L407.4,131.3z M413.4,121.4
			c-0.2,0-0.7-0.1-1.3-0.1c-1.4,0-2.6,0.5-2.6,2.1c0,1.3,1.2,2.1,2.7,2.1c0.5,0,0.9,0,1.2,0V121.4L413.4,121.4z"/>
	</g>
	<g>
		<path fill="#FFFFFF" d="M495.1,144.8v11h-1.4V146h-5.1v9.8h-1.4v-11H495.1z"/>
		<path fill="#FFFFFF" d="M497.5,145c0.7-0.1,1.6-0.2,2.7-0.2c1.4,0,2.4,0.3,3.1,0.9c0.6,0.5,1,1.3,1,2.3s-0.3,1.8-0.9,2.4
			c-0.8,0.8-2,1.2-3.4,1.2c-0.4,0-0.8,0-1.1-0.1v4.4h-1.4V145L497.5,145z M499,150.3c0.3,0.1,0.7,0.1,1.2,0.1c1.7,0,2.8-0.8,2.8-2.4
			c0-1.5-1-2.2-2.6-2.2c-0.6,0-1.1,0-1.3,0.1L499,150.3L499,150.3z"/>
		<path fill="#FFFFFF" d="M511.9,150.7h-4.3v4h4.8v1.2h-6.2v-11h6v1.2h-4.5v3.5h4.3L511.9,150.7L511.9,150.7z"/>
		<path fill="#FFFFFF" d="M522.2,144.8v9.9h1l-0.1,3.8H522l-0.1-2.6h-7l-0.1,2.6h-1.1l-0.1-3.8h0.8c0.4-0.8,0.8-1.6,1.1-2.4
			c0.4-1.3,0.5-2.7,0.5-4.6v-2.8h6.2V144.8z M517.3,148.1c0,1.8-0.2,3.3-0.6,4.5c-0.2,0.8-0.6,1.5-0.9,2.1h4.9V146h-3.4V148.1
			L517.3,148.1z"/>
		<path fill="#FFFFFF" d="M534.2,150.2c0,3.8-2.3,5.8-5.1,5.8c-2.9,0-5-2.3-5-5.6c0-3.5,2.2-5.8,5.1-5.8
			C532.2,144.7,534.2,147,534.2,150.2z M525.6,150.4c0,2.4,1.3,4.5,3.5,4.5c2.3,0,3.5-2.1,3.5-4.6c0-2.2-1.1-4.5-3.5-4.5
			C526.8,145.8,525.6,148,525.6,150.4z"/>
		<path fill="#FFFFFF" d="M544,144.8v11h-1.4V146h-5.1v9.8H536v-11H544z"/>
		<path fill="#FFFFFF" d="M553.8,144.8v11h-1.4V146h-3.7v3.3c0,2.4-0.1,5.1-1.7,6.1c-0.4,0.3-1,0.5-1.7,0.5l-0.2-1.1
			c0.4-0.1,0.9-0.3,1.2-0.6c0.9-0.9,1-3,1-4.8v-4.6H553.8L553.8,144.8z"/>
		<path fill="#FFFFFF" d="M558,152.4l-1.1,3.5h-1.5l3.7-11h1.7l3.8,11h-1.5l-1.2-3.5H558z M561.7,151.3l-1.1-3.2
			c-0.2-0.7-0.4-1.4-0.6-2l0,0c-0.2,0.7-0.3,1.3-0.6,2l-1.1,3.2H561.7z"/>
		<path fill="#FFFFFF" d="M567.6,146.1h-3.4v-1.2h8.2v1.2H569v9.8h-1.4V146.1L567.6,146.1z"/>
		<path fill="#FFFFFF" d="M574.1,152.4l-1.1,3.5h-1.5l3.7-11h1.7l3.8,11h-1.5l-1.2-3.5H574.1L574.1,152.4z M577.8,151.3l-1.1-3.2
			c-0.2-0.7-0.4-1.4-0.6-2l0,0c-0.2,0.7-0.3,1.3-0.6,2l-1.1,3.2H577.8z"/>
		<path fill="#FFFFFF" d="M489.9,166.1h-4.1l-0.4,2.7c0.2,0,0.5-0.1,0.9-0.1c0.8,0,1.6,0.2,2.3,0.6c0.8,0.5,1.5,1.4,1.5,2.7
			c0,2.1-1.7,3.6-4,3.6c-1.2,0-2.1-0.3-2.7-0.7l0.4-1.1c0.4,0.3,1.3,0.6,2.3,0.6c1.4,0,2.5-0.9,2.5-2.3c0-1.4-0.9-2.4-3.1-2.4
			c-0.6,0-1.1,0.1-1.5,0.1l0.7-5.1h5.1L489.9,166.1L489.9,166.1z"/>
		<path fill="#FFFFFF" d="M499,170.1c0,3.6-1.3,5.6-3.7,5.6c-2.1,0-3.5-1.9-3.5-5.5s1.5-5.5,3.7-5.5
			C497.8,164.7,499,166.7,499,170.1z M493.3,170.2c0,2.8,0.9,4.3,2.2,4.3c1.5,0,2.2-1.7,2.2-4.4c0-2.6-0.7-4.3-2.2-4.3
			C494.2,165.8,493.3,167.3,493.3,170.2z"/>
		<path fill="#FFFFFF" d="M505.2,167.9c0,2.2-1.2,3.4-2.6,3.4c-1.3,0-2.5-1.1-2.5-3.2c0-2.1,1.2-3.3,2.6-3.3
			C504.2,164.7,505.2,165.8,505.2,167.9z M501.3,168c0,1.4,0.5,2.4,1.4,2.4c0.9,0,1.4-1,1.4-2.4c0-1.3-0.4-2.4-1.4-2.4
			S501.3,166.6,501.3,168z M502.5,175.7l6.2-11h0.9l-6.3,11H502.5z M512.1,172.3c0,2.2-1.2,3.4-2.5,3.4c-1.3,0-2.5-1.1-2.5-3.2
			c0-2.1,1.2-3.3,2.6-3.3C511.1,169.1,512.1,170.2,512.1,172.3z M508.2,172.4c0,1.4,0.5,2.4,1.4,2.4c1,0,1.4-1,1.4-2.4
			c0-1.3-0.4-2.4-1.4-2.4C508.7,170,508.2,171,508.2,172.4z"/>
		<path fill="#FFFFFF" d="M518.6,167.6v3.3c0,1.3,0,2-0.1,3.2l0,0c0.5-1,0.8-1.5,1.3-2.4l2.5-4.1h1.7v7.9h-1.4v-3.4
			c0-1.3,0-2,0.1-3.2l0,0c-0.5,1-0.9,1.6-1.3,2.5c-0.8,1.2-1.6,2.7-2.5,4.1h-1.7v-7.9H518.6L518.6,167.6z"/>
		<path fill="#FFFFFF" d="M532.3,167.6v7.9h-1.4v-6.8h-2.7v2.1c0,2.2-0.2,3.7-1.2,4.4c-0.4,0.3-0.8,0.5-1.6,0.5l-0.1-1.1
			c0.3,0,0.6-0.2,0.8-0.3c0.7-0.5,0.8-1.7,0.8-3.4v-3.2L532.3,167.6L532.3,167.6z"/>
		<path fill="#FFFFFF" d="M536,167.6v3.3c0,1.3,0,2-0.1,3.2l0,0c0.5-1,0.8-1.5,1.3-2.4l2.5-4.1h1.7v7.9H540v-3.4c0-1.3,0-2,0.1-3.2
			l0,0c-0.5,1-0.9,1.6-1.3,2.5c-0.8,1.2-1.6,2.7-2.5,4.1h-1.7v-7.9H536L536,167.6z"/>
		<path fill="#FFFFFF" d="M549.9,166.2L549.9,166.2l-1.9,1l-0.3-1.1l2.3-1.2h1.2v10.6h-1.4L549.9,166.2L549.9,166.2z"/>
		<path fill="#FFFFFF" d="M562.2,170.1c0,3.6-1.3,5.6-3.7,5.6c-2.1,0-3.5-1.9-3.5-5.5s1.5-5.5,3.7-5.5S562.2,166.7,562.2,170.1z
			 M556.4,170.2c0,2.8,0.9,4.3,2.2,4.3c1.5,0,2.2-1.7,2.2-4.4c0-2.6-0.7-4.3-2.2-4.3C557.3,165.8,556.4,167.3,556.4,170.2z"/>
		<path fill="#FFFFFF" d="M570.6,170.1c0,3.6-1.3,5.6-3.7,5.6c-2.1,0-3.5-1.9-3.5-5.5s1.5-5.5,3.7-5.5
			C569.3,164.7,570.6,166.7,570.6,170.1z M564.8,170.2c0,2.8,0.8,4.3,2.2,4.3c1.5,0,2.2-1.7,2.2-4.4c0-2.6-0.7-4.3-2.2-4.3
			C565.7,165.8,564.8,167.3,564.8,170.2z"/>
		<path fill="#FFFFFF" d="M576.7,167.9c0,2.2-1.2,3.4-2.6,3.4c-1.3,0-2.5-1.1-2.5-3.2c0-2.1,1.2-3.3,2.6-3.3
			C575.7,164.7,576.7,165.8,576.7,167.9z M572.8,168c0,1.4,0.5,2.4,1.4,2.4c0.9,0,1.4-1,1.4-2.4c0-1.3-0.4-2.4-1.4-2.4
			C573.3,165.6,572.8,166.6,572.8,168z M574.1,175.7l6.2-11h0.9l-6.2,11H574.1z M583.6,172.3c0,2.2-1.2,3.4-2.5,3.4
			c-1.3,0-2.5-1.1-2.5-3.2c0-2.1,1.2-3.3,2.6-3.3C582.7,169.1,583.6,170.2,583.6,172.3z M579.7,172.4c0,1.4,0.5,2.4,1.4,2.4
			c0.9,0,1.4-1,1.4-2.4c0-1.3-0.4-2.4-1.4-2.4C580.2,170,579.7,171,579.7,172.4z"/>
	</g>
	<g>
		<path fill="#FFFFFF" d="M597.3,209.6v4.6c0,1.8,0,3.2-0.1,4.7l0,0c0.6-1.1,1.2-2.3,2-3.6l3.6-5.7h1.4v11h-1.3v-4.7
			c0-1.8,0-3.1,0.1-4.5h-0.1c-0.5,1.2-1.3,2.5-2,3.7l-3.5,5.5H596v-11H597.3L597.3,209.6z"/>
		<path fill="#FFFFFF" d="M606.3,210.3c0.8-0.5,1.7-0.8,2.9-0.8c1.9,0,3.2,1,3.2,2.7c0,1.4-1,2.4-2.3,2.7l0,0
			c1.6,0.2,2.7,1.2,2.7,2.8c0,2.3-2,3.2-4,3.2c-1,0-2-0.2-2.9-0.7l0.4-1.1c0.6,0.3,1.6,0.7,2.5,0.7c1.6,0,2.5-0.9,2.5-2.1
			c0-1.7-1.6-2.1-3-2.1h-0.7v-1.1h0.7c1.5,0,2.6-0.9,2.6-2c0-1.1-0.8-1.7-2-1.7c-0.8,0-1.7,0.3-2.3,0.7L606.3,210.3z"/>
		<path fill="#FFFFFF" d="M620.6,209.6v1.2h-4.4v9.8h-1.4v-11H620.6L620.6,209.6z"/>
		<path fill="#FFFFFF" d="M630.7,215c0,3.8-2.3,5.8-5.1,5.8c-2.9,0-5-2.3-5-5.6c0-3.5,2.2-5.8,5.1-5.8
			C628.8,209.4,630.7,211.7,630.7,215z M622.1,215.2c0,2.4,1.3,4.5,3.5,4.5c2.3,0,3.5-2.1,3.5-4.6c0-2.2-1.1-4.5-3.5-4.5
			C623.3,210.6,622.1,212.8,622.1,215.2z"/>
		<path fill="#FFFFFF" d="M634.5,210.8h-3.4v-1.2h8.2v1.2H636v9.8h-1.4L634.5,210.8L634.5,210.8z"/>
		<path fill="#FFFFFF" d="M649.4,215c0,3.8-2.3,5.8-5.1,5.8c-2.9,0-5-2.3-5-5.6c0-3.5,2.2-5.8,5.1-5.8
			C647.5,209.4,649.4,211.7,649.4,215z M640.8,215.2c0,2.4,1.3,4.5,3.5,4.5c2.3,0,3.5-2.1,3.5-4.6c0-2.2-1.1-4.5-3.5-4.5
			C642,210.6,640.8,212.8,640.8,215.2z"/>
		<path fill="#FFFFFF" d="M651.2,209.8c0.6-0.1,1.6-0.2,2.6-0.2c1.4,0,2.3,0.2,3,0.8c0.6,0.4,0.9,1.1,0.9,1.9c0,1.1-0.7,2-1.9,2.4
			l0,0c1,0.3,2.3,1.1,2.3,2.8c0,0.9-0.4,1.7-0.9,2.2c-0.8,0.7-2,1-3.8,1c-1,0-1.7-0.1-2.2-0.1V209.8L651.2,209.8z M652.7,214.3h1.3
			c1.5,0,2.4-0.8,2.4-1.9c0-1.3-1-1.8-2.4-1.8c-0.7,0-1,0.1-1.3,0.1V214.3z M652.7,219.6c0.3,0,0.7,0.1,1.2,0.1
			c1.5,0,2.8-0.5,2.8-2.1c0-1.5-1.3-2.1-2.8-2.1h-1.2V219.6L652.7,219.6L652.7,219.6z"/>
		<path fill="#FFFFFF" d="M667.4,209.6v11H666v-9.8h-3.6v3.3c0,2.4-0.1,5.1-1.7,6.1c-0.4,0.3-1,0.5-1.7,0.5l-0.2-1.1
			c0.4-0.1,0.9-0.3,1.2-0.6c0.9-0.9,1-3,1-4.8v-4.6H667.4L667.4,209.6z"/>
		<path fill="#FFFFFF" d="M675.6,215.5h-4.3v4h4.8v1.2h-6.2v-11h6v1.2h-4.5v3.5h4.3v1.1H675.6z"/>
		<path fill="#FFFFFF" d="M679.4,209.6v4.6h5.3v-4.6h1.4v11h-1.4v-5.2h-5.3v5.2H678v-11H679.4L679.4,209.6z"/>
		<path fill="#FFFFFF" d="M689.9,209.6v4.6c0,1.8,0,3.2-0.1,4.7l0,0c0.6-1.1,1.2-2.3,2-3.6l3.6-5.7h1.4v11h-1.3v-4.7
			c0-1.8,0-3.1,0.1-4.5l0,0c-0.5,1.2-1.3,2.5-2,3.7l-3.5,5.5h-1.5v-11H689.9L689.9,209.6z"/>
		<path fill="#FFFFFF" d="M705.1,215.5h-4.3v4h4.8v1.2h-6.2v-11h6v1.2h-4.5v3.5h4.3v1.1H705.1z"/>
		<path fill="#FFFFFF" d="M718,216.6c0,2.9-2,4.2-3.9,4.2c-2.1,0-3.8-1.6-3.8-4.1c0-2.7,1.7-4.2,3.9-4.2
			C716.5,212.5,718,214.2,718,216.6z M711.7,216.7c0,1.7,1,3,2.4,3c1.4,0,2.4-1.3,2.4-3.1c0-1.3-0.7-3-2.4-3
			C712.4,213.6,711.7,215.2,711.7,216.7z"/>
		<path fill="#FFFFFF" d="M725,212.7v1.1h-2.5v6.8h-1.4v-6.8h-2.5v-1.1H725z"/>
		<path fill="#FFFFFF" d="M729.8,219c0.4,0.3,1.4,0.7,2.4,0.7c1.9,0,2.4-1.2,2.4-2.1c0-1.5-1.4-2.1-2.8-2.1H731v-1.1h0.8
			c1,0,2.4-0.5,2.4-1.8c0-0.9-0.5-1.6-1.9-1.6c-0.8,0-1.7,0.4-2.1,0.7l-0.4-1c0.6-0.4,1.6-0.8,2.8-0.8c2.1,0,3,1.2,3,2.5
			c0,1.1-0.7,2-2,2.5l0,0c1.3,0.3,2.4,1.2,2.4,2.7c0,1.7-1.3,3.2-3.9,3.2c-1.2,0-2.2-0.4-2.8-0.7L729.8,219z"/>
		<path fill="#FFFFFF" d="M741.6,215.7v1.1h-4v-1.1H741.6z"/>
		<path fill="#FFFFFF" d="M744,212.7l1.1,1.7c0.3,0.4,0.5,0.9,0.8,1.3l0,0c0.3-0.5,0.5-0.9,0.8-1.3l1.1-1.7h1.6l-2.7,3.8l2.8,4.1
			h-1.6l-1.2-1.8c-0.3-0.5-0.6-0.9-0.9-1.4l0,0c-0.3,0.5-0.5,0.9-0.8,1.4l-1.1,1.8h-1.6l2.8-4l-2.7-3.9H744L744,212.7z"/>
		<path fill="#FFFFFF" d="M761.9,209.6v9.9h1l-0.1,3.8h-1.1l-0.1-2.7h-7l-0.1,2.7h-1.1l-0.1-3.8h0.8c0.4-0.8,0.8-1.6,1.1-2.4
			c0.4-1.3,0.5-2.7,0.5-4.6v-2.8L761.9,209.6L761.9,209.6z M757.1,212.9c0,1.8-0.2,3.3-0.6,4.5c-0.2,0.8-0.6,1.5-0.9,2.1h4.9v-8.7
			h-3.4V212.9z"/>
		<path fill="#FFFFFF" d="M766.1,209.6v4.6h5.3v-4.6h1.4v11h-1.4v-5.2h-5.3v5.2h-1.4v-11H766.1L766.1,209.6z"/>
		<path fill="#FFFFFF" d="M781.1,215.5h-4.3v4h4.8v1.2h-6.2v-11h6v1.2h-4.5v3.5h4.3v1.1H781.1z"/>
		<path fill="#FFFFFF" d="M784.7,209.6v4.6c0,1.8,0,3.2-0.1,4.7l0,0c0.6-1.1,1.2-2.3,2-3.6l3.6-5.7h1.4v11h-1.3v-4.7
			c0-1.8,0-3.1,0.1-4.5l0,0c-0.5,1.2-1.3,2.5-2,3.7l-3.5,5.5h-1.5v-11H784.7L784.7,209.6z M786.5,207.3c0.1,0.5,0.2,1,1,1
			s0.9-0.5,1-1h1.1c-0.1,1.1-0.7,1.7-2.1,1.7c-1.3,0-2-0.7-2.1-1.7H786.5z"/>
	</g>
	<g>
		<path fill="#FFFFFF" d="M801.9,24.6c0,3.8-2.3,5.8-5.1,5.8c-2.9,0-5-2.3-5-5.6c0-3.5,2.2-5.8,5.1-5.8
			C800,19,801.9,21.3,801.9,24.6z M793.4,24.7c0,2.4,1.3,4.5,3.5,4.5c2.3,0,3.5-2.1,3.5-4.6c0-2.2-1.1-4.5-3.5-4.5
			C794.5,20.1,793.4,22.3,793.4,24.7z"/>
		<path fill="#FFFFFF" d="M805.7,20.4h-3.4v-1.2h8.2v1.2h-3.4v9.8h-1.4V20.4L805.7,20.4z"/>
		<path fill="#FFFFFF" d="M817.6,19.2v1.2h-4.4v9.8h-1.4v-11H817.6z"/>
		<path fill="#FFFFFF" d="M818.9,19.3c0.7-0.1,1.6-0.2,2.7-0.2c1.4,0,2.4,0.3,3.1,0.9c0.6,0.5,1,1.3,1,2.3s-0.3,1.8-0.9,2.4
			c-0.8,0.8-2,1.2-3.4,1.2c-0.4,0-0.8,0-1.1-0.1v4.4h-1.4V19.3L818.9,19.3z M820.3,24.6c0.3,0.1,0.7,0.1,1.2,0.1
			c1.7,0,2.8-0.8,2.8-2.4c0-1.5-1-2.2-2.6-2.2c-0.6,0-1.1,0-1.3,0.1v4.4H820.3z"/>
		<path fill="#FFFFFF" d="M827.8,19.2l2.2,4.7c0.3,0.7,0.5,1.3,0.8,1.9l0,0c0.2-0.6,0.4-1.2,0.7-2l1.7-4.6h1.5l-2.3,5.7
			c-0.6,1.5-1.3,3.2-2.1,4.2c-0.7,0.9-1.5,1.4-2.5,1.4c-0.4,0-0.6,0-0.8-0.1l0.1-1.2c0.1,0,0.3,0,0.5,0c1.1,0,1.8-1.1,2.2-1.9
			c0.1-0.2,0.1-0.4,0-0.7l-3.7-7.4H827.8z"/>
		<path fill="#FFFFFF" d="M835.6,19.8c0.8-0.5,1.7-0.8,2.9-0.8c1.9,0,3.2,1,3.2,2.7c0,1.4-1,2.4-2.3,2.7l0,0
			c1.6,0.2,2.7,1.2,2.7,2.8c0,2.3-2,3.2-4,3.2c-1,0-2-0.2-2.9-0.7l0.4-1.1c0.6,0.3,1.6,0.7,2.5,0.7c1.6,0,2.5-0.9,2.5-2.1
			c0-1.7-1.6-2.1-3-2.1h-0.7V24h0.7c1.5,0,2.6-0.9,2.6-2c0-1.1-0.8-1.7-2-1.7c-0.8,0-1.7,0.3-2.3,0.7L835.6,19.8z"/>
		<path fill="#FFFFFF" d="M845.5,19.2v4.9h0.4l3.8-4.9h1.7l-4.2,5.1c1.8,0.2,2.5,1.4,3.1,2.8c0.4,1.1,0.7,2.1,1.2,3.1H850
			c-0.4-0.8-0.7-1.7-1-2.6c-0.5-1.5-1.2-2.5-3.1-2.5h-0.5v5.1H844v-11H845.5z"/>
		<path fill="#FFFFFF" d="M854.8,26.7l-1.1,3.5h-1.5l3.7-11h1.7l3.8,11h-1.5l-1.2-3.5H854.8z M858.5,25.6l-1.1-3.2
			c-0.2-0.7-0.4-1.4-0.6-2l0,0c-0.2,0.7-0.3,1.3-0.6,2l-1.1,3.2H858.5L858.5,25.6z"/>
		<path fill="#FFFFFF" d="M752.4,38.9c0.6-0.1,1.6-0.2,2.6-0.2c1.4,0,2.3,0.2,3,0.8c0.6,0.4,0.9,1.1,0.9,1.9c0,1.1-0.7,2-1.9,2.4
			l0,0c1,0.3,2.3,1.1,2.3,2.8c0,0.9-0.4,1.7-0.9,2.2c-0.8,0.7-2,1-3.8,1c-1,0-1.7-0.1-2.2-0.1V38.9L752.4,38.9z M753.8,43.5h1.3
			c1.5,0,2.4-0.8,2.4-1.8c0-1.3-1-1.8-2.4-1.8c-0.7,0-1,0-1.3,0.1V43.5z M753.8,48.7c0.3,0,0.7,0.1,1.2,0.1c1.5,0,2.8-0.5,2.8-2.1
			c0-1.5-1.3-2.1-2.8-2.1h-1.2V48.7L753.8,48.7z"/>
		<path fill="#FFFFFF" d="M766.8,40h-3.4v-1.2h8.2V40h-3.4v9.8h-1.4V40L766.8,40z"/>
		<path fill="#FFFFFF" d="M778.5,44.7h-4.3v4h4.8v1.2h-6.2v-11h6V40h-4.5v3.5h4.3L778.5,44.7L778.5,44.7z"/>
		<path fill="#FFFFFF" d="M782,38.8v3.5c0,1.5,0.8,2.4,2.3,2.4c0.8,0,1.6-0.3,2.2-0.6v-5.2h1.4v11h-1.4v-4.7l0,0
			c-0.8,0.4-1.7,0.7-2.6,0.7c-1.5,0-3.3-0.6-3.3-3.3v-3.7h1.4V38.8z"/>
		<path fill="#FFFFFF" d="M796.1,44.7h-4.3v4h4.8v1.2h-6.2v-11h6V40h-4.5v3.5h4.3v1.2H796.1z"/>
		<path fill="#FFFFFF" d="M799.9,38.8v4.6h5.3v-4.6h1.4v11h-1.4v-5.2h-5.3v5.2h-1.4v-11H799.9z"/>
		<path fill="#FFFFFF" d="M810.5,38.8v4.6c0,1.8,0,3.2-0.1,4.7l0,0c0.6-1.1,1.2-2.3,2-3.6l3.6-5.7h1.4v11h-1.3v-4.7
			c0-1.8,0-3.1,0.1-4.5l0,0c-0.5,1.2-1.3,2.5-2,3.7l-3.5,5.5h-1.5v-11H810.5z"/>
		<path fill="#FFFFFF" d="M833.6,49.8v-0.9l1.1-1.1c2.7-2.6,3.9-4,4-5.6c0-1.1-0.5-2.1-2.1-2.1c-1,0-1.8,0.5-2.3,0.9l-0.5-1
			c0.7-0.6,1.8-1.1,3-1.1c2.3,0,3.3,1.6,3.3,3.1c0,2-1.4,3.5-3.7,5.7l-0.8,0.8l0,0h4.8v1.2L833.6,49.8L833.6,49.8z"/>
		<path fill="#FFFFFF" d="M846.5,49.8v-2.9h-4.9V46l4.7-6.8h1.6v6.6h1.5v1.1h-1.5v2.9H846.5L846.5,49.8z M846.5,45.8v-3.5
			c0-0.6,0-1.1,0-1.7l0,0c-0.3,0.6-0.6,1.1-0.9,1.6l-2.6,3.6l0,0H846.5L846.5,45.8z"/>
		<path fill="#FFFFFF" d="M855.7,38.8v3.5c0,1.5,0.8,2.4,2.3,2.4c0.8,0,1.6-0.3,2.2-0.6v-5.2h1.4v11h-1.4v-4.7l0,0
			c-0.8,0.4-1.7,0.7-2.6,0.7c-1.5,0-3.3-0.6-3.3-3.3v-3.7h1.4V38.8z"/>
		<path fill="#FFFFFF" d="M865.9,46.4l-1.1,3.5h-1.5l3.7-11h1.7l3.8,11H871l-1.2-3.5H865.9z M869.6,45.2l-1.1-3.2
			c-0.2-0.7-0.4-1.4-0.6-2l0,0c-0.2,0.7-0.3,1.3-0.6,2l-1.1,3.2H869.6z"/>
		<path fill="#FFFFFF" d="M881.6,49.5c-0.5,0.3-1.6,0.5-2.9,0.5c-3.1,0-5.4-2-5.4-5.6c0-3.5,2.3-5.8,5.8-5.8c1.4,0,2.2,0.3,2.6,0.5
			l-0.3,1.2c-0.5-0.3-1.3-0.5-2.2-0.5c-2.6,0-4.3,1.7-4.3,4.5c0,2.7,1.6,4.4,4.2,4.4c0.9,0,1.8-0.2,2.3-0.5L881.6,49.5z"/>
		<path fill="#FFFFFF" d="M892.5,44.2c0,3.8-2.3,5.8-5.1,5.8c-2.9,0-5-2.3-5-5.6c0-3.5,2.2-5.8,5.1-5.8
			C890.6,38.6,892.5,40.9,892.5,44.2z M883.9,44.4c0,2.4,1.3,4.5,3.5,4.5c2.3,0,3.5-2.1,3.5-4.6c0-2.2-1.1-4.5-3.5-4.5
			C885.1,39.8,883.9,42,883.9,44.4z"/>
		<path fill="#FFFFFF" d="M894.4,38.9c0.6-0.1,1.6-0.2,2.6-0.2c1.4,0,2.3,0.2,3,0.8c0.6,0.4,0.9,1.1,0.9,1.9c0,1.1-0.7,2-1.9,2.4
			l0,0c1,0.3,2.3,1.1,2.3,2.8c0,0.9-0.4,1.7-0.9,2.2c-0.8,0.7-2,1-3.8,1c-1,0-1.7-0.1-2.2-0.1V38.9L894.4,38.9z M895.8,43.5h1.3
			c1.5,0,2.4-0.8,2.4-1.8c0-1.3-1-1.8-2.4-1.8c-0.7,0-1,0-1.3,0.1V43.5L895.8,43.5z M895.8,48.7c0.3,0,0.7,0.1,1.2,0.1
			c1.5,0,2.8-0.5,2.8-2.1c0-1.5-1.3-2.1-2.8-2.1h-1.2V48.7L895.8,48.7z"/>
		<path fill="#FFFFFF" d="M825.4,44.6h-4.3v4h4.8v1.2h-6.2v-11h6V40h-4.5v3.5h4.3v1.1H825.4z"/>
	</g>
	<g>
		<path fill="#FFFFFF" d="M820.5,221.8v9.9h1l-0.1,3.8h-1.1l-0.1-2.6h-7l-0.1,2.6H812l-0.1-3.8h0.8c0.4-0.8,0.8-1.6,1.1-2.4
			c0.4-1.3,0.5-2.7,0.5-4.6v-2.8h6.2V221.8z M815.7,225c0,1.8-0.2,3.3-0.6,4.5c-0.2,0.8-0.6,1.5-0.9,2.1h4.9V223h-3.4V225L815.7,225
			z"/>
		<path fill="#FFFFFF" d="M832.6,227.2c0,3.8-2.3,5.8-5.1,5.8c-2.9,0-5-2.3-5-5.6c0-3.5,2.2-5.8,5.1-5.8
			C830.6,221.6,832.6,223.9,832.6,227.2z M824,227.4c0,2.4,1.3,4.5,3.5,4.5c2.3,0,3.5-2.1,3.5-4.6c0-2.2-1.1-4.5-3.5-4.5
			C825.2,222.8,824,224.9,824,227.4z"/>
		<path fill="#FFFFFF" d="M842.1,232.5c-0.5,0.3-1.6,0.5-2.9,0.5c-3.1,0-5.4-2-5.4-5.6c0-3.5,2.3-5.8,5.8-5.8c1.4,0,2.2,0.3,2.6,0.5
			l-0.3,1.2c-0.5-0.3-1.3-0.5-2.2-0.5c-2.6,0-4.3,1.7-4.3,4.6c0,2.7,1.6,4.4,4.2,4.4c0.9,0,1.8-0.2,2.3-0.5L842.1,232.5z"/>
		<path fill="#FFFFFF" d="M846.6,223h-3.4v-1.2h8.2v1.2H848v9.8h-1.4V223L846.6,223z"/>
		<path fill="#FFFFFF" d="M853.1,229.3l-1.1,3.5h-1.5l3.7-11h1.7l3.8,11h-1.5l-1.2-3.5H853.1z M856.7,228.2l-1.1-3.2
			c-0.2-0.7-0.4-1.4-0.6-2l0,0c-0.2,0.7-0.3,1.3-0.6,2l-1.1,3.2H856.7L856.7,228.2z"/>
		<path fill="#FFFFFF" d="M861.3,221.9c0.6-0.1,1.6-0.2,2.6-0.2c1.4,0,2.3,0.2,3,0.8c0.6,0.4,0.9,1.1,0.9,1.9c0,1.1-0.7,2-1.9,2.4
			l0,0c1,0.3,2.3,1.1,2.3,2.8c0,0.9-0.4,1.7-0.9,2.2c-0.8,0.7-2,1-3.8,1c-1,0-1.7-0.1-2.2-0.1V221.9L861.3,221.9z M862.7,226.5h1.3
			c1.5,0,2.4-0.8,2.4-1.8c0-1.3-1-1.8-2.4-1.8c-0.7,0-1,0.1-1.3,0.1V226.5z M862.7,231.7c0.3,0,0.7,0.1,1.2,0.1
			c1.5,0,2.8-0.5,2.8-2.1c0-1.5-1.3-2.1-2.8-2.1h-1.2V231.7L862.7,231.7z"/>
		<path fill="#FFFFFF" d="M871.6,221.8v4.9h0.4l3.8-4.9h1.7l-4.2,5.1c1.8,0.2,2.5,1.4,3.1,2.8c0.4,1.1,0.7,2.1,1.2,3.1h-1.5
			c-0.4-0.8-0.7-1.7-1-2.6c-0.5-1.5-1.2-2.5-3.1-2.5h-0.5v5.1h-1.4v-11H871.6L871.6,221.8z"/>
		<path fill="#FFFFFF" d="M880.9,229.3l-1.1,3.5h-1.5l3.7-11h1.7l3.8,11H886l-1.2-3.5H880.9z M884.5,228.2l-1.1-3.2
			c-0.2-0.7-0.4-1.4-0.6-2l0,0c-0.2,0.7-0.3,1.3-0.6,2l-1.1,3.2H884.5L884.5,228.2L884.5,228.2z"/>
		<path fill="#FFFFFF" d="M900.6,221.8v11h-1.4V223H894v9.8h-1.4v-11H900.6z"/>
		<path fill="#FFFFFF" d="M903,221.9c0.7-0.1,1.6-0.2,2.7-0.2c1.4,0,2.4,0.3,3.1,0.9c0.6,0.5,1,1.3,1,2.3s-0.3,1.8-0.9,2.4
			c-0.8,0.8-2,1.2-3.4,1.2c-0.4,0-0.8,0-1.1-0.1v4.4H903V221.9L903,221.9z M904.5,227.2c0.3,0.1,0.7,0.1,1.2,0.1
			c1.7,0,2.8-0.8,2.8-2.4c0-1.5-1-2.2-2.6-2.2c-0.6,0-1.1,0-1.3,0.1L904.5,227.2L904.5,227.2z"/>
		<path fill="#FFFFFF" d="M921,227.2c0,3.8-2.3,5.8-5.1,5.8c-2.9,0-5-2.3-5-5.6c0-3.5,2.2-5.8,5.1-5.8
			C919.1,221.6,921,223.9,921,227.2z M912.5,227.4c0,2.4,1.3,4.5,3.5,4.5c2.3,0,3.5-2.1,3.5-4.6c0-2.2-1.1-4.5-3.5-4.5
			C913.7,222.8,912.5,224.9,912.5,227.4z"/>
		<path fill="#FFFFFF" d="M930.1,221.8v9.9h1l-0.1,3.8h-1.1l-0.1-2.6h-7l-0.1,2.6h-1.1l-0.1-3.8h0.8c0.4-0.8,0.8-1.6,1.1-2.4
			c0.4-1.3,0.5-2.7,0.5-4.6v-2.8h6.2V221.8z M925.2,225c0,1.8-0.2,3.3-0.6,4.5c-0.2,0.8-0.6,1.5-0.9,2.1h4.9V223h-3.4V225z"/>
		<path fill="#FFFFFF" d="M933.2,221.8l2.2,4.7c0.3,0.7,0.5,1.3,0.8,1.9l0,0c0.2-0.6,0.4-1.2,0.7-2l1.7-4.6h1.5l-2.3,5.7
			c-0.6,1.5-1.3,3.2-2.1,4.2c-0.7,0.9-1.5,1.4-2.5,1.4c-0.4,0-0.6,0-0.8-0.1l0.1-1.2c0.1,0,0.3,0,0.5,0c1.1,0,1.8-1.1,2.2-1.9
			c0.1-0.2,0.1-0.4-0.1-0.7l-3.7-7.4H933.2L933.2,221.8z"/>
		<path fill="#FFFFFF" d="M942.7,221.8v4.9h0.4l3.8-4.9h1.7l-4.2,5.1c1.8,0.2,2.5,1.4,3.1,2.8c0.4,1.1,0.7,2.1,1.2,3.1h-1.5
			c-0.4-0.8-0.7-1.7-1-2.6c-0.5-1.5-1.2-2.5-3.1-2.5h-0.5v5.1h-1.4v-11H942.7L942.7,221.8z"/>
		<path fill="#FFFFFF" d="M951.6,221.8v9.8h5.1v-9.8h1.4v9.9h1l-0.1,3.8h-1.1l-0.1-2.6h-7.6v-11h1.4V221.8z"/>
		<path fill="#FFFFFF" d="M962.2,221.8v4.6c0,1.8,0,3.2-0.1,4.7l0,0c0.6-1.1,1.2-2.3,2-3.6l3.6-5.7h1.4v11h-1.3v-4.7
			c0-1.8,0-3.1,0.1-4.5l0,0c-0.5,1.2-1.3,2.5-2,3.7l-3.5,5.5h-1.5v-11H962.2L962.2,221.8z"/>
		<path fill="#FFFFFF" d="M972.9,221.8v4.6c0,1.8,0,3.2-0.1,4.7l0,0c0.6-1.1,1.2-2.3,2-3.6l3.6-5.7h1.4v11h-1.3v-4.7
			c0-1.8,0-3.1,0.1-4.5l0,0c-0.5,1.2-1.3,2.5-2,3.7l-3.5,5.5h-1.5v-11H972.9L972.9,221.8z"/>
		<path fill="#FFFFFF" d="M800.6,241.4v4.6h5.3v-4.6h1.4v11H806v-5.2h-5.3v5.2h-1.4v-11H800.6L800.6,241.4z"/>
		<path fill="#FFFFFF" d="M819.3,246.8c0,3.8-2.3,5.8-5.1,5.8c-2.9,0-5-2.3-5-5.6c0-3.5,2.2-5.8,5.1-5.8
			C817.4,241.2,819.3,243.5,819.3,246.8z M810.7,247c0,2.4,1.3,4.5,3.5,4.5c2.3,0,3.5-2.1,3.5-4.6c0-2.2-1.1-4.5-3.5-4.5
			C811.9,242.4,810.7,244.6,810.7,247z"/>
		<path fill="#FFFFFF" d="M821.1,241.6c0.6-0.1,1.6-0.2,2.6-0.2c1.4,0,2.3,0.2,3,0.8c0.6,0.4,0.9,1.1,0.9,1.9c0,1.1-0.7,2-1.9,2.4
			l0,0c1,0.3,2.3,1.1,2.3,2.8c0,0.9-0.4,1.7-0.9,2.2c-0.8,0.7-2,1-3.8,1c-1,0-1.7-0.1-2.2-0.1V241.6L821.1,241.6z M822.6,246.1h1.3
			c1.5,0,2.4-0.8,2.4-1.8c0-1.3-1-1.8-2.4-1.8c-0.7,0-1,0-1.3,0.1V246.1z M822.6,251.4c0.3,0,0.7,0.1,1.2,0.1c1.5,0,2.8-0.5,2.8-2.1
			c0-1.5-1.3-2.1-2.8-2.1h-1.2V251.4L822.6,251.4z"/>
		<path fill="#FFFFFF" d="M831.8,249l-1.1,3.5h-1.5l3.7-11h1.7l3.8,11h-1.5l-1.2-3.5H831.8L831.8,249z M835.4,247.9l-1.1-3.2
			c-0.2-0.7-0.4-1.4-0.6-2l0,0c-0.2,0.7-0.3,1.3-0.6,2l-1.1,3.2H835.4L835.4,247.9L835.4,247.9z"/>
		<path fill="#FFFFFF" d="M839,252.4c0.2-0.3,0.3-0.6,0.4-1c0.5-1.3,0.8-2.8,1.7-3.7c0.3-0.3,0.6-0.5,0.9-0.6l0,0
			c-1.4-0.2-2.4-1.2-2.4-2.7c0-1,0.4-1.7,1-2.2c0.7-0.6,1.8-0.9,3.2-0.9c0.9,0,1.9,0.1,2.6,0.2v10.9H845v-4.8h-1
			c-0.7,0-1.2,0.1-1.6,0.5c-0.8,0.8-1.1,2.4-1.5,3.4c-0.1,0.3-0.2,0.5-0.4,0.8H839V252.4z M845,242.6c-0.2,0-0.7-0.1-1.3-0.1
			c-1.4,0-2.6,0.5-2.6,2.1c0,1.3,1.2,2.1,2.7,2.1c0.5,0,0.9,0,1.2,0V242.6L845,242.6z"/>
		<path fill="#FFFFFF" d="M860.3,241.4v11h-1.4v-9.8h-5.1v9.8h-1.4v-11H860.3L860.3,241.4z"/>
		<path fill="#FFFFFF" d="M872.3,246.8c0,3.8-2.3,5.8-5.1,5.8c-2.9,0-5-2.3-5-5.6c0-3.5,2.2-5.8,5.1-5.8
			C870.3,241.2,872.3,243.5,872.3,246.8z M863.7,247c0,2.4,1.3,4.5,3.5,4.5c2.3,0,3.5-2.1,3.5-4.6c0-2.2-1.1-4.5-3.5-4.5
			C864.9,242.4,863.7,244.6,863.7,247z"/>
		<path fill="#FFFFFF" d="M875.3,241.4v3.5c0,1.5,0.8,2.4,2.3,2.4c0.8,0,1.6-0.3,2.2-0.6v-5.2h1.4v11h-1.4v-4.7l0,0
			c-0.8,0.4-1.7,0.7-2.6,0.7c-1.5,0-3.3-0.6-3.3-3.3v-3.7L875.3,241.4L875.3,241.4z"/>
		<path fill="#FFFFFF" d="M885.8,242.6h-3.4v-1.2h8.2v1.2h-3.4v9.8h-1.4V242.6L885.8,242.6z"/>
		<path fill="#FFFFFF" d="M892.3,249l-1.1,3.5h-1.5l3.7-11h1.7l3.8,11h-1.5l-1.2-3.5H892.3L892.3,249z M896,247.9l-1.1-3.2
			c-0.2-0.7-0.4-1.4-0.6-2l0,0c-0.2,0.7-0.3,1.3-0.6,2l-1.1,3.2H896L896,247.9z"/>
		<path fill="#FFFFFF" d="M905.3,244.5v3.3c0,1.3,0,2-0.1,3.2l0,0c0.5-1,0.8-1.5,1.3-2.4l2.5-4.1h1.7v7.9h-1.4V249
			c0-1.3,0-2,0.1-3.2l0,0c-0.5,1-0.9,1.7-1.3,2.5c-0.8,1.2-1.6,2.8-2.5,4.1H904v-7.9H905.3L905.3,244.5z"/>
		<path fill="#FFFFFF" d="M919.1,244.5v7.9h-1.4v-6.8H915v2.1c0,2.2-0.2,3.7-1.2,4.4c-0.4,0.3-0.8,0.5-1.6,0.5l-0.1-1.1
			c0.3-0.1,0.6-0.2,0.8-0.3c0.7-0.5,0.8-1.7,0.8-3.4v-3.2L919.1,244.5L919.1,244.5z"/>
		<path fill="#FFFFFF" d="M922.7,244.5v3.3c0,1.3,0,2-0.1,3.2l0,0c0.5-1,0.8-1.5,1.3-2.4l2.5-4.1h1.7v7.9h-1.4V249
			c0-1.3,0-2,0.1-3.2l0,0c-0.5,1-0.9,1.7-1.3,2.5c-0.8,1.2-1.6,2.8-2.5,4.1h-1.7v-7.9H922.7L922.7,244.5z"/>
		<path fill="#FFFFFF" d="M935.3,241.4v4.6c0,1.8,0,3.2-0.1,4.7l0,0c0.6-1.1,1.2-2.3,2-3.6l3.6-5.7h1.4v11h-1.3v-4.7
			c0-1.8,0-3.1,0.1-4.5l0,0c-0.5,1.2-1.3,2.5-2,3.7l-3.5,5.5H934v-11H935.3L935.3,241.4z"/>
		<path fill="#FFFFFF" d="M946.2,241.4v4.6h5.3v-4.6h1.4v11h-1.4v-5.2h-5.3v5.2h-1.4v-11H946.2L946.2,241.4z"/>
		<path fill="#FFFFFF" d="M957.5,242.6h-3.4v-1.2h8.2v1.2H959v9.8h-1.4L957.5,242.6L957.5,242.6z"/>
		<path fill="#FFFFFF" d="M964,249l-1.1,3.5h-1.5l3.7-11h1.7l3.8,11h-1.5l-1.2-3.5H964L964,249z M967.6,247.9l-1.1-3.2
			c-0.2-0.7-0.4-1.4-0.6-2l0,0c-0.2,0.7-0.3,1.3-0.6,2l-1.1,3.2H967.6L967.6,247.9L967.6,247.9z"/>
		<path fill="#FFFFFF" d="M973.6,241.4v4.6c0,1.8,0,3.2-0.1,4.7l0,0c0.6-1.1,1.2-2.3,2-3.6l3.6-5.7h1.4v11h-1.3v-4.7
			c0-1.8,0-3.1,0.1-4.5l0,0c-0.5,1.2-1.3,2.5-2,3.7l-3.5,5.5h-1.5v-11H973.6L973.6,241.4z M975.4,239.1c0.1,0.5,0.2,1,1,1
			c0.8,0,0.9-0.5,1-1h1.1c-0.1,1.1-0.7,1.8-2.1,1.8c-1.3,0-2-0.7-2.1-1.8H975.4z"/>
		<path fill="#FFFFFF" d="M992.3,247.6c-0.1-1.5-0.2-3.4-0.2-4.8H992c-0.4,1.3-0.8,2.7-1.4,4.2l-1.9,5.4h-1.1l-1.8-5.3
			c-0.5-1.6-1-3-1.3-4.3l0,0c0,1.4-0.1,3.2-0.2,4.9l-0.3,4.7h-1.4l0.8-11h1.8l1.9,5.3c0.5,1.4,0.8,2.6,1.1,3.7l0,0
			c0.3-1.1,0.7-2.3,1.2-3.7l2-5.3h1.8l0.7,11h-1.4L992.3,247.6z"/>
	</g>
	<g>
		<path fill="#FFFFFF" d="M630.4,144.8v11H629V146h-5.1v9.8h-1.4v-11H630.4z"/>
		<path fill="#FFFFFF" d="M642.3,150.2c0,3.8-2.3,5.8-5.1,5.8c-2.9,0-5-2.3-5-5.6c0-3.5,2.2-5.8,5.1-5.8
			C640.4,144.7,642.3,147,642.3,150.2z M633.7,150.4c0,2.4,1.3,4.5,3.5,4.5c2.3,0,3.5-2.1,3.5-4.6c0-2.2-1.1-4.5-3.5-4.5
			C634.9,145.8,633.7,148,633.7,150.4z"/>
		<path fill="#FFFFFF" d="M653.7,155.9l-1.4-2.4c-0.6-0.9-0.9-1.5-1.3-2.2l0,0c-0.3,0.6-0.6,1.2-1.2,2.2l-1.3,2.4h-1.6l3.4-5.6
			l-3.2-5.4h1.6l1.5,2.6c0.4,0.7,0.7,1.3,1,1.9l0,0c0.3-0.7,0.6-1.2,1-1.9l1.5-2.6h1.6l-3.4,5.4l3.4,5.7L653.7,155.9L653.7,155.9z"
			/>
		<path fill="#FFFFFF" d="M658.7,152.4l-1.1,3.5H656l3.7-11h1.7l3.8,11h-1.5l-1.2-3.5H658.7z M662.3,151.3l-1.1-3.2
			c-0.2-0.7-0.4-1.4-0.6-2l0,0c-0.2,0.7-0.3,1.3-0.6,2l-1.1,3.2H662.3z"/>
		<path fill="#FFFFFF" d="M666.9,145c0.7-0.1,1.6-0.2,2.7-0.2c1.4,0,2.4,0.3,3.1,0.9c0.6,0.5,1,1.3,1,2.3s-0.3,1.8-0.9,2.4
			c-0.8,0.8-2,1.2-3.4,1.2c-0.4,0-0.8,0-1.1-0.1v4.4h-1.4V145L666.9,145z M668.3,150.3c0.3,0.1,0.7,0.1,1.2,0.1
			c1.7,0,2.8-0.8,2.8-2.4c0-1.5-1-2.2-2.6-2.2c-0.6,0-1.1,0-1.3,0.1v4.4H668.3z"/>
		<path fill="#FFFFFF" d="M677,144.8v4.1c0.3-0.1,1-0.1,1.4-0.1c2.3,0,4.3,1,4.3,3.4c0,1-0.3,1.8-0.9,2.4c-0.9,0.9-2.4,1.3-4,1.3
			c-1,0-1.8-0.1-2.2-0.1v-11H677L677,144.8z M677,154.8c0.3,0.1,0.7,0.1,1.2,0.1c1.6,0,2.9-0.8,2.9-2.5s-1.4-2.4-3-2.4
			c-0.4,0-0.8,0-1.2,0.1L677,154.8L677,154.8z"/>
		<path fill="#FFFFFF" d="M685.9,144.8v4.9h0.4l3.8-4.9h1.7l-4.2,5.1c1.8,0.2,2.5,1.4,3.1,2.8c0.4,1.1,0.7,2.1,1.2,3.1h-1.5
			c-0.4-0.8-0.7-1.7-1-2.6c-0.5-1.5-1.2-2.5-3.1-2.5h-0.5v5.1h-1.4v-11H685.9L685.9,144.8z"/>
		<path fill="#FFFFFF" d="M702.4,150.2c0,3.8-2.3,5.8-5.1,5.8c-2.9,0-5-2.3-5-5.6c0-3.5,2.2-5.8,5.1-5.8
			C700.5,144.7,702.4,147,702.4,150.2z M693.9,150.4c0,2.4,1.3,4.5,3.5,4.5c2.3,0,3.5-2.1,3.5-4.6c0-2.2-1.1-4.5-3.5-4.5
			C695.1,145.8,693.9,148,693.9,150.4z"/>
		<path fill="#FFFFFF" d="M704.3,145c0.6-0.1,1.6-0.2,2.6-0.2c1.4,0,2.3,0.2,3,0.8c0.6,0.4,0.9,1.1,0.9,1.9c0,1.1-0.7,2-1.9,2.4l0,0
			c1,0.3,2.3,1.1,2.3,2.8c0,0.9-0.4,1.7-0.9,2.2c-0.8,0.7-2,1-3.8,1c-1,0-1.7-0.1-2.2-0.1V145L704.3,145z M705.7,149.5h1.3
			c1.5,0,2.4-0.8,2.4-1.8c0-1.3-1-1.8-2.4-1.8c-0.7,0-1,0-1.3,0.1V149.5z M705.7,154.8c0.3,0,0.7,0.1,1.2,0.1c1.5,0,2.8-0.5,2.8-2.1
			c0-1.5-1.3-2.1-2.8-2.1h-1.2V154.8L705.7,154.8z"/>
		<path fill="#FFFFFF" d="M713.3,144.8l2.2,4.7c0.3,0.7,0.5,1.3,0.8,1.9l0,0c0.2-0.6,0.4-1.2,0.7-2l1.7-4.6h1.5l-2.3,5.7
			c-0.6,1.5-1.3,3.2-2.1,4.2c-0.7,0.9-1.5,1.4-2.5,1.4c-0.4,0-0.6,0-0.8-0.1l0.1-1.2c0.1,0,0.3,0,0.5,0c1.1,0,1.8-1.1,2.2-1.9
			c0.1-0.2,0.1-0.4-0.1-0.7l-3.7-7.4H713.3z"/>
		<path fill="#FFFFFF" d="M726.2,148v3.3c0,1.3,0,2-0.1,3.2h0.1c0.5-1,0.8-1.5,1.3-2.4l2.5-4.1h1.7v7.9h-1.4v-3.4c0-1.3,0-2,0.1-3.2
			l0,0c-0.5,1-0.9,1.7-1.3,2.5c-0.8,1.2-1.6,2.7-2.5,4.1h-1.7V148H726.2L726.2,148z"/>
		<path fill="#FFFFFF" d="M746.9,150.2c0,3.8-2.3,5.8-5.1,5.8c-2.9,0-5-2.3-5-5.6c0-3.5,2.2-5.8,5.1-5.8
			C744.9,144.7,746.9,147,746.9,150.2z M738.3,150.4c0,2.4,1.3,4.5,3.5,4.5c2.3,0,3.5-2.1,3.5-4.6c0-2.2-1.1-4.5-3.5-4.5
			C739.5,145.8,738.3,148,738.3,150.4z"/>
		<path fill="#FFFFFF" d="M754.9,144.8v1.2h-4.8v3c0.3,0,1-0.1,1.4-0.1c1,0,2.1,0.2,2.8,0.7c0.8,0.5,1.4,1.4,1.4,2.7
			c0,1-0.3,1.8-0.9,2.4c-0.9,0.9-2.4,1.2-3.9,1.2c-1,0-1.7-0.1-2.2-0.1v-11H754.9z M750.1,154.8c0.3,0.1,0.7,0.1,1.2,0.1
			c0.9,0,1.8-0.3,2.3-0.9c0.4-0.4,0.6-0.9,0.6-1.6c0-0.9-0.4-1.4-0.9-1.8c-0.6-0.4-1.3-0.6-2.1-0.6c-0.3,0-0.8,0-1.1,0.1V154.8
			L750.1,154.8z"/>
		<path fill="#FFFFFF" d="M765,144.8v11h-1.4V146H760v3.3c0,2.4-0.1,5.1-1.7,6.1c-0.4,0.3-1,0.5-1.7,0.5l-0.2-1.1
			c0.4-0.1,0.9-0.3,1.2-0.6c0.9-0.9,1-3,1-4.8v-4.6H765L765,144.8z"/>
		<path fill="#FFFFFF" d="M769.2,152.4l-1.1,3.5h-1.5l3.7-11h1.7l3.8,11h-1.5l-1.2-3.5H769.2z M772.8,151.3l-1.1-3.2
			c-0.2-0.7-0.4-1.4-0.6-2l0,0c-0.2,0.7-0.3,1.3-0.6,2l-1.1,3.2H772.8z"/>
		<path fill="#FFFFFF" d="M784.9,155.5c-0.5,0.3-1.6,0.5-2.9,0.5c-3.1,0-5.4-2-5.4-5.6c0-3.5,2.3-5.8,5.8-5.8c1.4,0,2.2,0.3,2.6,0.5
			l-0.3,1.2c-0.5-0.3-1.3-0.5-2.2-0.5c-2.6,0-4.3,1.7-4.3,4.5c0,2.7,1.6,4.4,4.2,4.4c0.9,0,1.8-0.2,2.3-0.5L784.9,155.5z"/>
		<path fill="#FFFFFF" d="M789.4,146.1H786v-1.2h8.2v1.2h-3.4v9.8h-1.4V146.1L789.4,146.1z"/>
		<path fill="#FFFFFF" d="M796.7,144.8v4.6c0,1.8,0,3.2-0.1,4.7l0,0c0.6-1.1,1.2-2.3,2-3.6l3.6-5.7h1.4v11h-1.3v-4.7
			c0-1.8,0-3.1,0.1-4.5l0,0c-0.5,1.2-1.3,2.5-2,3.7l-3.5,5.5h-1.5v-11H796.7L796.7,144.8z"/>
		<path fill="#FFDF6A" d="M639,164.5v9.9h1l-0.1,3.8h-1.1l-0.1-2.7h-7l-0.1,2.7h-1.1l-0.1-3.8h0.8c0.4-0.8,0.8-1.6,1.1-2.4
			c0.4-1.3,0.5-2.8,0.5-4.6v-2.8h6.2V164.5z M634.2,167.7c0,1.8-0.2,3.3-0.6,4.5c-0.2,0.8-0.6,1.5-0.9,2.1h4.9v-8.7h-3.4V167.7
			L634.2,167.7z"/>
		<path fill="#FFDF6A" d="M651.1,169.9c0,3.8-2.3,5.8-5.1,5.8c-2.9,0-5-2.3-5-5.6c0-3.5,2.2-5.8,5.1-5.8
			C649.1,164.3,651.1,166.6,651.1,169.9z M642.5,170.1c0,2.4,1.3,4.5,3.5,4.5c2.3,0,3.5-2.1,3.5-4.6c0-2.2-1.1-4.5-3.5-4.5
			C643.7,165.5,642.5,167.6,642.5,170.1z"/>
		<path fill="#FFDF6A" d="M660.6,175.1c-0.5,0.3-1.6,0.5-2.9,0.5c-3.1,0-5.4-2-5.4-5.6c0-3.5,2.3-5.8,5.8-5.8c1.4,0,2.2,0.3,2.6,0.5
			l-0.3,1.2c-0.5-0.3-1.3-0.5-2.2-0.5c-2.6,0-4.3,1.7-4.3,4.5c0,2.7,1.6,4.4,4.2,4.4c0.9,0,1.8-0.2,2.3-0.5L660.6,175.1z"/>
		<path fill="#FFDF6A" d="M665.1,165.7h-3.4v-1.2h8.2v1.2h-3.4v9.8h-1.4V165.7L665.1,165.7z"/>
		<path fill="#FFDF6A" d="M671.6,172l-1.1,3.5H669l3.7-11h1.7l3.8,11h-1.5l-1.2-3.5H671.6z M675.2,170.9l-1.1-3.2
			c-0.2-0.7-0.4-1.4-0.6-2l0,0c-0.2,0.7-0.3,1.3-0.6,2l-1.1,3.2H675.2z"/>
		<path fill="#FFDF6A" d="M679.8,164.6c0.6-0.1,1.6-0.2,2.6-0.2c1.4,0,2.3,0.2,3,0.8c0.6,0.4,0.9,1.1,0.9,1.9c0,1.1-0.7,2-1.9,2.4
			l0,0c1,0.3,2.3,1.1,2.3,2.8c0,0.9-0.4,1.7-0.9,2.2c-0.8,0.7-2,1-3.8,1c-1,0-1.7-0.1-2.2-0.1V164.6L679.8,164.6z M681.2,169.1h1.3
			c1.5,0,2.4-0.8,2.4-1.8c0-1.3-1-1.8-2.4-1.8c-0.7,0-1,0-1.3,0.1V169.1z M681.2,174.4c0.3,0,0.7,0.1,1.2,0.1c1.5,0,2.8-0.5,2.8-2.1
			c0-1.5-1.3-2.1-2.8-2.1h-1.2V174.4L681.2,174.4z"/>
		<path fill="#FFDF6A" d="M690.1,164.5v4.9h0.4l3.8-4.9h1.7l-4.2,5.1c1.8,0.2,2.5,1.4,3.1,2.8c0.4,1.1,0.7,2.1,1.2,3.1h-1.5
			c-0.4-0.8-0.7-1.7-1-2.6c-0.5-1.5-1.2-2.5-3.1-2.5H690v5.1h-1.4v-11H690.1L690.1,164.5z"/>
		<path fill="#FFDF6A" d="M699.4,172l-1.1,3.5h-1.5l3.7-11h1.7l3.8,11h-1.5l-1.2-3.5H699.4z M703,170.9l-1.1-3.2
			c-0.2-0.7-0.4-1.4-0.6-2l0,0c-0.2,0.7-0.3,1.3-0.6,2l-1.1,3.2H703z"/>
		<path fill="#FFDF6A" d="M717.3,164.5v1.2h-4.8v3c0.3,0,1-0.1,1.4-0.1c1,0,2.1,0.2,2.8,0.7c0.8,0.5,1.4,1.4,1.4,2.7
			c0,1-0.3,1.8-0.9,2.4c-0.9,0.9-2.4,1.2-3.9,1.2c-1,0-1.8-0.1-2.2-0.1v-11H717.3L717.3,164.5z M712.5,174.4
			c0.3,0.1,0.7,0.1,1.2,0.1c0.9,0,1.8-0.3,2.3-0.9c0.4-0.4,0.6-0.9,0.6-1.6c0-0.9-0.4-1.4-0.9-1.8c-0.6-0.4-1.3-0.6-2.1-0.6
			c-0.3,0-0.8,0-1.1,0.1V174.4L712.5,174.4z"/>
		<path fill="#FFDF6A" d="M725.7,170.3h-4.3v4h4.8v1.2H720v-11h6v1.2h-4.5v3.5h4.3L725.7,170.3L725.7,170.3z"/>
		<path fill="#FFDF6A" d="M735.7,175.1c-0.5,0.3-1.6,0.5-2.9,0.5c-3.1,0-5.4-2-5.4-5.6c0-3.5,2.3-5.8,5.8-5.8c1.4,0,2.2,0.3,2.6,0.5
			l-0.3,1.2c-0.5-0.3-1.3-0.5-2.2-0.5c-2.6,0-4.3,1.7-4.3,4.5c0,2.7,1.6,4.4,4.2,4.4c0.9,0,1.8-0.2,2.3-0.5L735.7,175.1z"/>
		<path fill="#FFDF6A" d="M745.5,164.5v11h-1.4v-9.8H739v9.8h-1.4v-11H745.5z"/>
		<path fill="#FFDF6A" d="M755.3,164.5v11h-1.4v-9.8h-3.6v3.3c0,2.4-0.1,5.1-1.7,6.1c-0.4,0.3-1,0.5-1.7,0.5l-0.2-1.1
			c0.4-0.1,0.9-0.3,1.2-0.6c0.9-0.9,1-3,1-4.8v-4.6H755.3L755.3,164.5z"/>
		<path fill="#FFDF6A" d="M759.5,172l-1.1,3.5h-1.5l3.7-11h1.7l3.8,11h-1.5l-1.2-3.5H759.5z M763.1,170.9l-1.1-3.2
			c-0.2-0.7-0.4-1.4-0.6-2l0,0c-0.2,0.7-0.3,1.3-0.6,2l-1.1,3.2H763.1z"/>
		<path fill="#FFDF6A" d="M769.1,165.7h-3.4v-1.2h8.2v1.2h-3.4v9.8h-1.4V165.7L769.1,165.7z"/>
		<path fill="#FFDF6A" d="M776.6,164.5v4.6h5.3v-4.6h1.4v11h-1.4v-5.2h-5.3v5.2h-1.4v-11H776.6z"/>
		<path fill="#FFDF6A" d="M795.2,169.9c0,3.8-2.3,5.8-5.1,5.8c-2.9,0-5-2.3-5-5.6c0-3.5,2.2-5.8,5.1-5.8
			C793.3,164.3,795.2,166.6,795.2,169.9z M786.7,170.1c0,2.4,1.3,4.5,3.5,4.5c2.3,0,3.5-2.1,3.5-4.6c0-2.2-1.1-4.5-3.5-4.5
			C787.9,165.5,786.7,167.6,786.7,170.1z"/>
	</g>
	<g>
		<path fill="#FFFFFF" d="M945.1,86.3c-0.5,0.3-1.6,0.5-2.9,0.5c-3.1,0-5.4-2-5.4-5.6c0-3.5,2.3-5.8,5.8-5.8c1.4,0,2.2,0.3,2.6,0.5
			l-0.3,1.2c-0.5-0.3-1.3-0.5-2.2-0.5c-2.6,0-4.3,1.7-4.3,4.5c0,2.7,1.6,4.4,4.2,4.4c0.9,0,1.8-0.2,2.3-0.5L945.1,86.3z"/>
		<path fill="#FFFFFF" d="M948,75.6v3.5c0,1.5,0.8,2.4,2.3,2.4c0.8,0,1.6-0.3,2.2-0.6v-5.2h1.4v11h-1.4V82l0,0
			c-0.8,0.4-1.7,0.7-2.6,0.7c-1.5,0-3.3-0.6-3.3-3.3v-3.7L948,75.6L948,75.6z"/>
		<path fill="#FFFFFF" d="M958.2,83.2l-1.1,3.5h-1.5l3.7-11h1.7l3.8,11h-1.5l-1.2-3.5H958.2z M961.8,82l-1.1-3.2
			c-0.2-0.7-0.4-1.4-0.6-2l0,0c-0.2,0.7-0.3,1.3-0.6,2l-1.1,3.2H961.8L961.8,82z"/>
		<path fill="#FFFFFF" d="M973.9,86.3c-0.5,0.3-1.6,0.5-2.9,0.5c-3.1,0-5.4-2-5.4-5.6c0-3.5,2.3-5.8,5.8-5.8c1.4,0,2.2,0.3,2.6,0.5
			l-0.3,1.2c-0.5-0.3-1.3-0.5-2.2-0.5c-2.6,0-4.3,1.7-4.3,4.5c0,2.7,1.6,4.4,4.2,4.4c0.9,0,1.8-0.2,2.3-0.5L973.9,86.3z"/>
		<path fill="#FFFFFF" d="M978.3,76.8H975v-1.2h8.2v1.2h-3.4v9.8h-1.4v-9.8H978.3z"/>
		<path fill="#FFFFFF" d="M991.2,75.6v11h-1.4v-9.8h-3.6v3.3c0,2.4-0.1,5.1-1.7,6.1c-0.4,0.3-1,0.5-1.7,0.5l-0.2-1.1
			c0.4-0.1,0.9-0.3,1.2-0.6c0.9-0.9,1-3,1-4.8v-4.6H991.2L991.2,75.6z"/>
		<path fill="#FFFFFF" d="M995,75.6v4.6c0,1.8,0,3.2-0.1,4.7l0,0c0.6-1.1,1.2-2.3,2-3.6l3.6-5.7h1.4v11h-1.3v-4.7
			c0-1.8,0-3.1,0.1-4.5l0,0c-0.5,1.2-1.3,2.5-2,3.7l-3.5,5.5h-1.5v-11H995z"/>
		<path fill="#FFFFFF" d="M1004.4,75.7c0.6-0.1,1.6-0.2,2.6-0.2c1.4,0,2.3,0.2,3,0.8c0.6,0.4,0.9,1.1,0.9,1.9c0,1.1-0.7,2-1.9,2.4
			l0,0c1,0.3,2.3,1.1,2.3,2.8c0,0.9-0.4,1.7-0.9,2.2c-0.8,0.7-2,1-3.8,1c-1,0-1.7-0.1-2.2-0.1V75.7L1004.4,75.7z M1005.9,80.3h1.3
			c1.5,0,2.4-0.8,2.4-1.8c0-1.3-1-1.8-2.4-1.8c-0.7,0-1,0-1.3,0.1V80.3L1005.9,80.3z M1005.9,85.5c0.3,0,0.7,0.1,1.2,0.1
			c1.5,0,2.8-0.5,2.8-2.1c0-1.5-1.3-2.1-2.8-2.1h-1.2V85.5L1005.9,85.5z"/>
		<path fill="#FFFFFF" d="M1014.7,75.6v4.1c0.3,0,0.9-0.1,1.3-0.1c2.3,0,4.3,1,4.3,3.5c0,1-0.3,1.8-0.9,2.3
			c-0.9,0.9-2.4,1.3-3.9,1.3c-1,0-1.7-0.1-2.2-0.1v-11H1014.7z M1014.7,85.5c0.3,0.1,0.7,0.1,1.1,0.1c1.6,0,2.9-0.8,2.9-2.5
			c0-1.7-1.5-2.4-2.9-2.4c-0.5,0-0.9,0-1.1,0.1V85.5L1014.7,85.5z M1023,75.6v11h-1.4v-11H1023z"/>
		<path fill="#FFFFFF" d="M1026.9,75.6v4.6c0,1.8,0,3.2-0.1,4.7l0,0c0.6-1.1,1.2-2.3,2-3.6l3.6-5.7h1.4v11h-1.3v-4.7
			c0-1.8,0-3.1,0.1-4.5l0,0c-0.5,1.2-1.3,2.5-2,3.7l-3.5,5.5h-1.5v-11H1026.9z M1028.7,73.3c0.1,0.5,0.2,1,1,1s0.9-0.5,1-1h1.1
			c-0.1,1.1-0.7,1.8-2.1,1.8c-1.3,0-2-0.7-2.1-1.8H1028.7z"/>
		<path fill="#FFFFFF" d="M1041.2,75.6v4.9h0.4l3.8-4.9h1.7l-4.2,5.1c1.8,0.2,2.5,1.4,3.1,2.8c0.4,1.1,0.7,2.1,1.2,3.1h-1.5
			c-0.4-0.8-0.7-1.7-1-2.6c-0.5-1.5-1.2-2.5-3.1-2.5h-0.5v5.1h-1.4v-11H1041.2z"/>
		<path fill="#FFFFFF" d="M1056.5,75.6v11h-1.4v-9.8h-3.6v3.3c0,2.4-0.1,5.1-1.6,6.1c-0.4,0.3-1,0.5-1.7,0.5l-0.2-1.1
			c0.4-0.1,0.9-0.3,1.2-0.6c0.9-0.9,1-3,1-4.8v-4.6H1056.5L1056.5,75.6z"/>
		<path fill="#FFFFFF" d="M1060.3,75.6v4.6c0,1.8,0,3.2-0.1,4.7l0,0c0.6-1.1,1.2-2.3,2-3.6l3.6-5.7h1.4v11h-1.3v-4.7
			c0-1.8,0-3.1,0.1-4.5l0,0c-0.5,1.2-1.3,2.5-2,3.7l-3.5,5.5h-1.5v-11H1060.3z"/>
		<path fill="#FFFFFF" d="M1075.4,81.4h-4.3v4h4.8v1.2h-6.2v-11h6v1.2h-4.5v3.5h4.3L1075.4,81.4L1075.4,81.4z"/>
		<path fill="#FFFFFF" d="M1079.2,75.6v4.6h5.3v-4.6h1.4v11h-1.4v-5.2h-5.3v5.2h-1.4v-11H1079.2z"/>
		<path fill="#FFFFFF" d="M1090.5,76.8h-3.4v-1.2h8.2v1.2h-3.4v9.8h-1.4V76.8L1090.5,76.8z"/>
		<path fill="#FFFFFF" d="M964.6,95.2v9.9h1l-0.1,3.8h-1.1l-0.1-2.7h-7l-0.1,2.7h-1.1l-0.1-3.8h0.8c0.4-0.8,0.8-1.6,1.1-2.4
			c0.4-1.3,0.5-2.7,0.5-4.6v-2.8L964.6,95.2L964.6,95.2z M959.8,98.5c0,1.8-0.2,3.3-0.6,4.5c-0.2,0.8-0.6,1.5-0.9,2.1h4.9v-8.7h-3.4
			V98.5L959.8,98.5z"/>
		<path fill="#FFFFFF" d="M976.7,100.6c0,3.8-2.3,5.8-5.1,5.8c-2.9,0-5-2.3-5-5.6c0-3.5,2.2-5.8,5.1-5.8
			C974.7,95,976.7,97.4,976.7,100.6z M968.1,100.8c0,2.4,1.3,4.5,3.5,4.5c2.3,0,3.5-2.1,3.5-4.6c0-2.2-1.1-4.5-3.5-4.5
			C969.3,96.2,968.1,98.4,968.1,100.8z"/>
		<path fill="#FFFFFF" d="M978.5,95.4c0.6-0.1,1.6-0.2,2.6-0.2c1.4,0,2.3,0.2,3,0.8c0.6,0.4,0.9,1.1,0.9,1.9c0,1.1-0.7,2-1.9,2.4
			l0,0c1,0.3,2.3,1.1,2.3,2.8c0,1-0.4,1.7-0.9,2.2c-0.8,0.7-2,1-3.8,1c-1,0-1.7-0.1-2.2-0.1V95.4L978.5,95.4z M980,99.9h1.3
			c1.5,0,2.4-0.8,2.4-1.8c0-1.3-1-1.8-2.4-1.8c-0.7,0-1,0-1.3,0.1V99.9z M980,105.2c0.3,0,0.7,0.1,1.2,0.1c1.5,0,2.8-0.5,2.8-2.1
			c0-1.5-1.3-2.1-2.8-2.1H980V105.2L980,105.2z"/>
		<path fill="#FFFFFF" d="M996.7,100.6c0,3.8-2.3,5.8-5.1,5.8c-2.9,0-5-2.3-5-5.6c0-3.5,2.2-5.8,5.1-5.8
			C994.7,95,996.7,97.4,996.7,100.6z M988.1,100.8c0,2.4,1.3,4.5,3.5,4.5c2.3,0,3.5-2.1,3.5-4.6c0-2.2-1.1-4.5-3.5-4.5
			C989.3,96.2,988.1,98.4,988.1,100.8z"/>
		<path fill="#FFFFFF" d="M1005.7,95.2v11h-1.4v-9.8h-3.6v3.3c0,2.4-0.1,5.1-1.6,6.1c-0.4,0.3-1,0.5-1.7,0.5l-0.2-1.1
			c0.4-0.1,0.9-0.3,1.2-0.6c0.9-0.9,1-3,1-4.8v-4.6H1005.7z"/>
		<path fill="#FFFFFF" d="M1009.6,95.2v4.1c0.3,0,1-0.1,1.4-0.1c2.3,0,4.3,1,4.3,3.4c0,1-0.3,1.8-0.9,2.4c-0.9,0.9-2.4,1.3-4,1.3
			c-1,0-1.8-0.1-2.2-0.1v-11H1009.6z M1009.6,105.2c0.3,0.1,0.7,0.1,1.2,0.1c1.6,0,2.9-0.8,2.9-2.5c0-1.7-1.4-2.4-3-2.4
			c-0.4,0-0.8,0-1.2,0.1L1009.6,105.2L1009.6,105.2z"/>
		<path fill="#FFFFFF" d="M1018.5,95.2v4.6h5.3v-4.6h1.4v11h-1.4V101h-5.3v5.2h-1.4v-11H1018.5z"/>
		<path fill="#FFFFFF" d="M1029.1,95.2v4.1c0.3,0,0.9-0.1,1.3-0.1c2.3,0,4.3,1,4.3,3.5c0,1-0.3,1.8-0.9,2.3
			c-0.9,0.9-2.4,1.3-3.9,1.3c-1,0-1.7-0.1-2.2-0.1v-11H1029.1z M1029.1,105.2c0.3,0.1,0.7,0.1,1.1,0.1c1.6,0,2.9-0.8,2.9-2.5
			c0-1.7-1.5-2.4-2.9-2.4c-0.5,0-1,0-1.1,0.1V105.2z M1037.4,95.2v11h-1.4v-11H1037.4z"/>
		<path fill="#FFFFFF" d="M1045.6,101.1h-4.3v4h4.8v1.2h-6.2v-11h6v1.2h-4.5v3.5h4.3v1.1H1045.6z"/>
		<path fill="#FFFFFF" d="M1060.7,101.4c-0.1-1.5-0.2-3.4-0.2-4.8l0,0c-0.4,1.3-0.8,2.7-1.4,4.2l-1.9,5.3h-1.1l-1.8-5.3
			c-0.5-1.6-1-3-1.3-4.3l0,0c0,1.4-0.1,3.2-0.2,4.9l-0.3,4.7h-1.4l0.8-11h1.8l1.9,5.3c0.5,1.4,0.8,2.6,1.1,3.7h0.1
			c0.3-1.1,0.7-2.3,1.2-3.7l2-5.3h1.8l0.7,11h-1.4L1060.7,101.4z"/>
		<path fill="#FFFFFF" d="M1066,95.2v4.1c0.3,0,0.9-0.1,1.3-0.1c2.3,0,4.3,1,4.3,3.5c0,1-0.3,1.8-0.9,2.3c-0.9,0.9-2.4,1.3-3.9,1.3
			c-1,0-1.7-0.1-2.2-0.1v-11H1066z M1066,105.2c0.3,0.1,0.7,0.1,1.1,0.1c1.6,0,2.9-0.8,2.9-2.5c0-1.7-1.5-2.4-2.9-2.4
			c-0.5,0-0.9,0-1.1,0.1V105.2z M1074.2,95.2v11h-1.4v-11H1074.2z"/>
	</g>
	<g>
		<path fill="#FFFFFF" d="M14.4,218.6c0.8-0.5,1.7-0.8,2.9-0.8c1.9,0,3.2,1,3.2,2.7c0,1.4-1,2.4-2.3,2.7l0,0
			c1.6,0.2,2.7,1.2,2.7,2.8c0,2.3-2,3.2-4,3.2c-1,0-2-0.2-2.9-0.7l0.4-1.1c0.6,0.3,1.6,0.7,2.5,0.7c1.6,0,2.5-0.9,2.5-2.1
			c0-1.7-1.6-2.1-3-2.1h-0.7v-1.1h0.7c1.5,0,2.6-0.9,2.6-2c0-1.1-0.8-1.7-2-1.7c-0.8,0-1.7,0.3-2.3,0.7L14.4,218.6z"/>
		<path fill="#FFFFFF" d="M22.8,218.1c0.6-0.1,1.6-0.2,2.6-0.2c1.4,0,2.3,0.2,3,0.8c0.6,0.4,0.9,1.1,0.9,1.9c0,1.1-0.7,2-1.9,2.4
			l0,0c1,0.3,2.3,1.1,2.3,2.8c0,0.9-0.4,1.7-0.9,2.2c-0.8,0.7-2,1-3.8,1c-1,0-1.7-0.1-2.2-0.1V218.1L22.8,218.1z M24.3,222.6h1.3
			c1.5,0,2.4-0.8,2.4-1.9c0-1.3-1-1.8-2.4-1.8c-0.7,0-1,0.1-1.3,0.1V222.6z M24.3,227.9c0.3,0,0.7,0.1,1.2,0.1
			c1.5,0,2.8-0.5,2.8-2.1c0-1.5-1.3-2.1-2.8-2.1h-1.2V227.9z"/>
		<path fill="#FFFFFF" d="M41,223.3c0,3.8-2.3,5.8-5.1,5.8c-2.9,0-5-2.3-5-5.6c0-3.5,2.2-5.8,5.1-5.8C39.1,217.8,41,220.1,41,223.3z
			 M32.4,223.5c0,2.4,1.3,4.5,3.5,4.5c2.3,0,3.5-2.1,3.5-4.6c0-2.2-1.1-4.5-3.5-4.5C33.6,218.9,32.4,221.1,32.4,223.5z"/>
		<path fill="#FFFFFF" d="M44.3,217.9v4.6h5.3v-4.6H51v11h-1.4v-5.2h-5.3v5.2h-1.4v-11H44.3L44.3,217.9z"/>
		<path fill="#FFFFFF" d="M62.9,223.3c0,3.8-2.3,5.8-5.1,5.8c-2.9,0-5-2.3-5-5.6c0-3.5,2.2-5.8,5.1-5.8
			C61,217.8,62.9,220.1,62.9,223.3z M54.4,223.5c0,2.4,1.3,4.5,3.5,4.5c2.3,0,3.5-2.1,3.5-4.6c0-2.2-1.1-4.5-3.5-4.5
			C55.6,218.9,54.4,221.1,54.4,223.5z"/>
		<path fill="#FFFFFF" d="M66.2,217.9v4.9h0.4l3.8-4.9h1.7L68,223c1.8,0.2,2.5,1.4,3.1,2.8c0.4,1.1,0.7,2.1,1.2,3.1h-1.5
			c-0.4-0.8-0.7-1.7-1-2.6c-0.5-1.5-1.2-2.5-3.1-2.5h-0.5v5.1h-1.4v-11H66.2L66.2,217.9z"/>
	</g>
	<g>
		<path fill="#FFFFFF" d="M152.6,216.7v4.9h0.4l3.8-4.9h1.7l-4.2,5.1c1.8,0.2,2.5,1.4,3.1,2.8c0.4,1.1,0.7,2.1,1.2,3.1h-1.5
			c-0.4-0.8-0.7-1.7-1-2.6c-0.5-1.5-1.2-2.5-3.1-2.5h-0.5v5.1h-1.4v-11H152.6L152.6,216.7z"/>
		<path fill="#FFFFFF" d="M169.2,222.1c0,3.8-2.3,5.8-5.1,5.8c-2.9,0-5-2.3-5-5.6c0-3.5,2.2-5.8,5.1-5.8
			C167.2,216.5,169.2,218.8,169.2,222.1z M160.6,222.2c0,2.4,1.3,4.5,3.5,4.5c2.3,0,3.5-2.1,3.5-4.6c0-2.2-1.1-4.5-3.5-4.5
			C161.8,217.6,160.6,219.8,160.6,222.2z"/>
		<path fill="#FFFFFF" d="M172.4,216.7v4.6h5.3v-4.6h1.4v11h-1.4v-5.2h-5.3v5.2H171v-11H172.4z"/>
		<path fill="#FFFFFF" d="M189.4,227.3c-0.5,0.3-1.6,0.5-2.9,0.5c-3.1,0-5.4-2-5.4-5.6c0-3.5,2.3-5.8,5.8-5.8c1.4,0,2.2,0.3,2.6,0.5
			l-0.3,1.2c-0.5-0.3-1.3-0.5-2.2-0.5c-2.6,0-4.3,1.7-4.3,4.5c0,2.7,1.6,4.4,4.2,4.4c0.9,0,1.8-0.2,2.3-0.5L189.4,227.3z"/>
		<path fill="#FFFFFF" d="M191.9,216.7l2.2,4.7c0.3,0.7,0.5,1.3,0.8,1.9l0,0c0.2-0.6,0.4-1.2,0.7-2l1.7-4.6h1.5l-2.3,5.7
			c-0.6,1.5-1.3,3.2-2.1,4.2c-0.7,0.9-1.5,1.4-2.5,1.4c-0.4,0-0.6,0-0.8-0.1l0.1-1.2c0.1,0,0.3,0,0.5,0c1.1,0,1.8-1.1,2.2-1.9
			c0.1-0.2,0.1-0.4,0-0.7l-3.7-7.4H191.9L191.9,216.7z"/>
		<path fill="#FFFFFF" d="M207,216.7v11h-1.4v-9.8H202v3.3c0,2.4-0.1,5.1-1.7,6.1c-0.4,0.3-1,0.5-1.7,0.5l-0.2-1.1
			c0.4-0.1,0.9-0.3,1.2-0.6c0.9-0.9,1-3,1-4.8v-4.6H207L207,216.7z"/>
		<path fill="#FFFFFF" d="M210.8,216.7v4.1c0.3,0,1-0.1,1.4-0.1c2.3,0,4.3,1,4.3,3.4c0,1-0.3,1.8-0.9,2.4c-0.9,0.9-2.4,1.3-4,1.3
			c-1,0-1.8-0.1-2.2-0.1v-11H210.8L210.8,216.7z M210.8,226.6c0.3,0.1,0.7,0.1,1.2,0.1c1.6,0,2.9-0.8,2.9-2.5s-1.4-2.4-3-2.4
			c-0.4,0-0.8,0-1.2,0.1L210.8,226.6L210.8,226.6z"/>
		<path fill="#FFFFFF" d="M219.3,217.9h-3.4v-1.2h8.2v1.2h-3.4v9.8h-1.4V217.9L219.3,217.9z"/>
		<path fill="#FFFFFF" d="M225.7,224.2l-1.1,3.5h-1.5l3.7-11h1.7l3.8,11h-1.5l-1.2-3.5H225.7z M229.4,223.1l-1.1-3.2
			c-0.2-0.7-0.4-1.4-0.6-2l0,0c-0.2,0.7-0.3,1.3-0.6,2l-1.1,3.2H229.4L229.4,223.1z"/>
		<path fill="#FFFFFF" d="M235.4,216.7v9.8h5.1v-9.8h1.4v9.9h1l-0.1,3.8h-1.1l-0.1-2.6H234v-11L235.4,216.7L235.4,216.7z"/>
		<path fill="#FFFFFF" d="M246,216.7v4.6c0,1.7,0,3.2-0.1,4.7l0,0c0.6-1.1,1.2-2.3,2-3.6l3.6-5.7h1.4v11h-1.3V223
			c0-1.8,0-3.1,0.1-4.5l0,0c-0.5,1.2-1.3,2.5-2,3.7l-3.5,5.5h-1.5v-11H246L246,216.7z"/>
		<path fill="#FFFFFF" d="M254.4,227.7c0.2-0.3,0.3-0.6,0.4-1c0.5-1.3,0.8-2.8,1.7-3.7c0.3-0.3,0.6-0.5,0.9-0.6l0,0
			c-1.4-0.2-2.4-1.2-2.4-2.7c0-1,0.4-1.7,1-2.2c0.7-0.6,1.8-0.9,3.2-0.9c0.9,0,1.9,0.1,2.6,0.2v10.9h-1.4v-4.8h-1
			c-0.7,0-1.2,0.1-1.6,0.5c-0.8,0.8-1.1,2.4-1.5,3.4c-0.1,0.3-0.2,0.5-0.4,0.8L254.4,227.7L254.4,227.7z M260.4,217.8
			c-0.2,0-0.7-0.1-1.3-0.1c-1.4,0-2.6,0.5-2.6,2.1c0,1.3,1.2,2.1,2.7,2.1c0.5,0,0.9,0,1.2,0V217.8L260.4,217.8z"/>
		<path fill="#FFFFFF" d="M142.3,247c-0.5,0.3-1.6,0.5-2.9,0.5c-3.1,0-5.4-2-5.4-5.6c0-3.5,2.3-5.8,5.8-5.8c1.4,0,2.2,0.3,2.6,0.5
			l-0.3,1.2c-0.5-0.3-1.3-0.5-2.2-0.5c-2.6,0-4.3,1.7-4.3,4.5c0,2.7,1.6,4.4,4.2,4.4c0.9,0,1.8-0.2,2.3-0.5L142.3,247z"/>
		<path fill="#FFFFFF" d="M153.1,241.7c0,3.8-2.3,5.8-5.1,5.8c-2.9,0-5-2.3-5-5.6c0-3.5,2.2-5.8,5.1-5.8
			C151.2,236.1,153.1,238.4,153.1,241.7z M144.6,241.9c0,2.4,1.3,4.5,3.5,4.5c2.3,0,3.5-2.1,3.5-4.6c0-2.2-1.1-4.5-3.5-4.5
			C145.8,237.3,144.6,239.4,144.6,241.9z"/>
		<path fill="#FFFFFF" d="M166.2,247c-0.5,0.3-1.6,0.5-2.9,0.5c-3.1,0-5.4-2-5.4-5.6c0-3.5,2.3-5.8,5.8-5.8c1.4,0,2.2,0.3,2.6,0.5
			l-0.3,1.2c-0.5-0.3-1.3-0.5-2.2-0.5c-2.6,0-4.3,1.7-4.3,4.5c0,2.7,1.6,4.4,4.2,4.4c0.9,0,1.8-0.2,2.3-0.5L166.2,247z"/>
		<path fill="#FFFFFF" d="M175.9,236.3v11h-1.4v-9.8h-5.1v9.8H168v-11H175.9L175.9,236.3z"/>
		<path fill="#FFFFFF" d="M184.1,242.1h-4.3v4h4.8v1.2h-6.2v-11h6v1.2h-4.5v3.5h4.3L184.1,242.1L184.1,242.1z"/>
		<path fill="#FFFFFF" d="M187.9,236.3v9.8h5.1v-9.8h1.4v9.9h1l-0.1,3.8h-1.1l-0.1-2.6h-7.6v-11L187.9,236.3L187.9,236.3z"/>
		<path fill="#FFFFFF" d="M198.4,236.3v4.6c0,1.8,0,3.2-0.1,4.7l0,0c0.6-1.1,1.2-2.3,2-3.6l3.6-5.7h1.4v11H204v-4.7
			c0-1.8,0-3.1,0.1-4.5l0,0c-0.5,1.2-1.3,2.5-2,3.7l-3.5,5.5h-1.5v-11H198.4L198.4,236.3z"/>
		<path fill="#FFFFFF" d="M209.7,243.8l-1.1,3.5H207l3.7-11h1.7l3.8,11h-1.5l-1.2-3.5H209.7z M213.3,242.7l-1.1-3.2
			c-0.2-0.7-0.4-1.4-0.6-2l0,0c-0.2,0.7-0.3,1.3-0.6,2l-1.1,3.2H213.3L213.3,242.7z"/>
		<path fill="#FFFFFF" d="M225.7,236.3v11h-1.4v-9.8h-3.6v3.3c0,2.4-0.1,5.1-1.7,6.1c-0.4,0.3-1,0.5-1.7,0.5l-0.2-1.1
			c0.4-0.1,0.9-0.3,1.2-0.6c0.9-0.9,1-3,1-4.8v-4.6H225.7L225.7,236.3z"/>
		<path fill="#FFFFFF" d="M229.5,236.3v4.6c0,1.8,0,3.2-0.1,4.7l0,0c0.6-1.1,1.2-2.3,2-3.6l3.6-5.7h1.4v11h-1.3v-4.7
			c0-1.8,0-3.1,0.1-4.5l0,0c-0.5,1.2-1.3,2.5-2,3.7l-3.5,5.5h-1.5v-11H229.5L229.5,236.3z"/>
		<path fill="#FFFFFF" d="M246.6,247c-0.5,0.3-1.6,0.5-2.9,0.5c-3.1,0-5.4-2-5.4-5.6c0-3.5,2.3-5.8,5.8-5.8c1.4,0,2.2,0.3,2.6,0.5
			l-0.3,1.2c-0.5-0.3-1.3-0.5-2.2-0.5c-2.6,0-4.3,1.7-4.3,4.5c0,2.7,1.6,4.4,4.2,4.4c0.9,0,1.8-0.2,2.3-0.5L246.6,247z"/>
		<path fill="#FFFFFF" d="M251.1,237.5h-3.4v-1.2h8.2v1.2h-3.4v9.8h-1.4V237.5L251.1,237.5z"/>
		<path fill="#FFFFFF" d="M266,241.7c0,3.8-2.3,5.8-5.1,5.8c-2.9,0-5-2.3-5-5.6c0-3.5,2.2-5.8,5.1-5.8
			C264,236.1,266,238.4,266,241.7z M257.4,241.9c0,2.4,1.3,4.5,3.5,4.5c2.3,0,3.5-2.1,3.5-4.6c0-2.2-1.1-4.5-3.5-4.5
			C258.6,237.3,257.4,239.4,257.4,241.9z"/>
		<path fill="#FFFFFF" d="M277,242.5c-0.1-1.5-0.2-3.4-0.2-4.8l0,0c-0.4,1.3-0.8,2.7-1.4,4.2l-1.9,5.4h-1.1l-1.8-5.3
			c-0.5-1.6-1-3-1.3-4.3l0,0c0,1.4-0.1,3.2-0.2,4.9l-0.3,4.7h-1.4l0.8-11h1.8l1.9,5.3c0.5,1.4,0.8,2.6,1.1,3.7l0,0
			c0.3-1.1,0.7-2.3,1.2-3.7l2-5.3h1.8l0.7,11h-1.4L277,242.5z"/>
	</g>
	<g>
		<path fill="#FFFFFF" d="M337.3,192.9v11h-1.4v-9.8h-5.1v9.8h-1.4v-11H337.3z"/>
		<path fill="#FFFFFF" d="M339.8,193.1c0.7-0.1,1.6-0.2,2.7-0.2c1.4,0,2.4,0.3,3.1,0.9c0.6,0.5,1,1.3,1,2.3s-0.3,1.8-0.9,2.4
			c-0.8,0.8-2,1.2-3.4,1.2c-0.4,0-0.8,0-1.1-0.1v4.4h-1.4V193.1L339.8,193.1L339.8,193.1z M341.3,198.4c0.3,0.1,0.7,0.1,1.2,0.1
			c1.7,0,2.8-0.8,2.8-2.4c0-1.5-1-2.2-2.6-2.2c-0.6,0-1.1,0-1.3,0.1v4.4H341.3z"/>
		<path fill="#FFFFFF" d="M357.8,198.3c0,3.8-2.3,5.8-5.1,5.8c-2.9,0-5-2.3-5-5.6c0-3.5,2.2-5.8,5.1-5.8
			C355.9,192.8,357.8,195.1,357.8,198.3z M349.3,198.5c0,2.4,1.3,4.5,3.5,4.5c2.3,0,3.5-2.1,3.5-4.6c0-2.2-1.1-4.5-3.5-4.5
			C350.4,193.9,349.3,196.1,349.3,198.5z"/>
		<path fill="#FFFFFF" d="M366.9,192.9v9.9h1l-0.1,3.8h-1.1l-0.1-2.7h-7l-0.1,2.7h-1.1l-0.1-3.8h0.8c0.4-0.8,0.8-1.6,1.1-2.4
			c0.4-1.3,0.5-2.7,0.5-4.6V193L366.9,192.9L366.9,192.9z M362,196.2c0,1.8-0.2,3.3-0.6,4.5c-0.2,0.8-0.6,1.5-0.9,2.1h4.9v-8.7H362
			V196.2z"/>
		<path fill="#FFFFFF" d="M370,192.9l2.2,4.7c0.3,0.7,0.5,1.3,0.8,1.9l0,0c0.2-0.6,0.4-1.2,0.7-2l1.7-4.6h1.5l-2.3,5.7
			c-0.6,1.5-1.3,3.2-2.1,4.2c-0.7,0.9-1.5,1.4-2.5,1.4c-0.4,0-0.6,0-0.8-0.1l0.1-1.2c0.1,0,0.3,0,0.5,0c1.1,0,1.8-1.1,2.2-1.9
			c0.1-0.2,0.1-0.4,0-0.7l-3.7-7.4H370L370,192.9L370,192.9z"/>
		<path fill="#FFFFFF" d="M379.5,192.9v4.9h0.4l3.8-4.9h1.7l-4.2,5.1c1.8,0.2,2.5,1.4,3.1,2.8c0.4,1.1,0.7,2.1,1.2,3.1H384
			c-0.4-0.8-0.7-1.7-1-2.6c-0.5-1.5-1.2-2.5-3.1-2.5h-0.5v5.1H378v-11H379.5L379.5,192.9L379.5,192.9z"/>
		<path fill="#FFFFFF" d="M388.4,192.9v9.8h5.1v-9.8h1.4v9.9h1l-0.1,3.8h-1.1l-0.1-2.7H387v-11H388.4L388.4,192.9z"/>
		<path fill="#FFFFFF" d="M399,192.9v4.6c0,1.8,0,3.2-0.1,4.7l0,0c0.6-1.1,1.2-2.3,2-3.6l3.6-5.7h1.4v11h-1.3v-4.7
			c0-1.8,0-3.1,0.1-4.5l0,0c-0.5,1.2-1.3,2.5-2,3.7l-3.5,5.5h-1.5v-11H399L399,192.9z"/>
		<path fill="#FFFFFF" d="M407.4,204c0.2-0.3,0.3-0.6,0.4-1c0.5-1.3,0.8-2.8,1.7-3.7c0.3-0.3,0.6-0.5,0.9-0.6l0,0
			c-1.4-0.2-2.4-1.2-2.4-2.7c0-1,0.4-1.7,1-2.2c0.7-0.6,1.8-0.9,3.2-0.9c0.9,0,1.9,0.1,2.6,0.2V204h-1.4v-4.8h-1
			c-0.7,0-1.2,0.1-1.6,0.5c-0.8,0.8-1.1,2.4-1.5,3.4c-0.1,0.3-0.2,0.5-0.4,0.8L407.4,204L407.4,204z M413.4,194.1
			c-0.2-0.1-0.7-0.1-1.3-0.1c-1.4,0-2.6,0.5-2.6,2.1c0,1.3,1.2,2.1,2.7,2.1c0.5,0,0.9,0,1.2,0V194.1L413.4,194.1z"/>
		<path fill="#FFFFFF" d="M341.1,212.6v11h-1.4v-9.8h-5.1v9.8h-1.4v-11H341.1z"/>
		<path fill="#FFFFFF" d="M353,218c0,3.8-2.3,5.8-5.1,5.8c-2.9,0-5-2.3-5-5.6c0-3.5,2.2-5.8,5.1-5.8C351.1,212.4,353,214.7,353,218z
			 M344.5,218.1c0,2.4,1.3,4.5,3.5,4.5c2.3,0,3.5-2.1,3.5-4.6c0-2.2-1.1-4.5-3.5-4.5S344.5,215.7,344.5,218.1z"/>
		<path fill="#FFFFFF" d="M362.1,212.6v9.9h1l-0.1,3.8h-1.1l-0.1-2.7h-7l-0.1,2.7h-1.1l-0.1-3.8h0.8c0.4-0.8,0.8-1.6,1.1-2.4
			c0.4-1.3,0.5-2.7,0.5-4.6v-2.8L362.1,212.6L362.1,212.6z M357.2,215.8c0,1.8-0.2,3.3-0.6,4.5c-0.2,0.8-0.6,1.5-0.9,2.1h4.9v-8.7
			h-3.4V215.8L357.2,215.8z"/>
		<path fill="#FFFFFF" d="M367.9,213.2c0.8-0.5,1.7-0.8,2.9-0.8c1.9,0,3.2,1,3.2,2.7c0,1.4-1,2.4-2.3,2.7l0,0
			c1.6,0.2,2.7,1.2,2.7,2.8c0,2.3-2,3.2-4,3.2c-1,0-2-0.2-2.9-0.7l0.4-1.1c0.6,0.3,1.6,0.7,2.5,0.7c1.6,0,2.5-0.9,2.5-2.1
			c0-1.7-1.6-2.1-3-2.1h-0.7v-1.1h0.7c1.5,0,2.6-0.9,2.6-2c0-1.1-0.8-1.7-2-1.7c-0.8,0-1.7,0.3-2.3,0.7L367.9,213.2z"/>
		<path fill="#FFFFFF" d="M378.1,220.1l-1.1,3.5h-1.5l3.7-11h1.7l3.8,11h-1.5l-1.2-3.5H378.1z M381.7,219l-1.1-3.2
			c-0.2-0.7-0.4-1.4-0.6-2l0,0c-0.2,0.7-0.3,1.3-0.6,2l-1.1,3.2H381.7L381.7,219z"/>
		<path fill="#FFFFFF" d="M387.8,212.6v4.9h0.4l3.8-4.9h1.7l-4.2,5.1c1.8,0.2,2.5,1.4,3.1,2.8c0.4,1.1,0.7,2.1,1.2,3.1h-1.5
			c-0.4-0.8-0.7-1.7-1-2.6c-0.5-1.5-1.2-2.5-3.1-2.5h-0.5v5.1h-1.4v-11H387.8L387.8,212.6z"/>
		<path fill="#FFFFFF" d="M397.1,220.1l-1.1,3.5h-1.5l3.7-11h1.7l3.8,11h-1.5l-1.2-3.5H397.1z M400.7,219l-1.1-3.2
			c-0.2-0.7-0.4-1.4-0.6-2l0,0c-0.2,0.7-0.3,1.3-0.6,2l-1.1,3.2H400.7L400.7,219z"/>
		<path fill="#FFFFFF" d="M405,213.2c0.8-0.5,1.7-0.8,2.9-0.8c1.9,0,3.2,1,3.2,2.7c0,1.4-1,2.4-2.3,2.7l0,0c1.6,0.2,2.7,1.2,2.7,2.8
			c0,2.3-2,3.2-4,3.2c-1,0-2-0.2-2.9-0.7l0.4-1.1c0.6,0.3,1.6,0.7,2.5,0.7c1.6,0,2.5-0.9,2.5-2.1c0-1.7-1.6-2.1-3-2.1h-0.7v-1.1h0.7
			c1.5,0,2.6-0.9,2.6-2c0-1.1-0.8-1.7-2-1.7c-0.8,0-1.7,0.3-2.3,0.7L405,213.2z"/>
	</g>
	<g>
		<circle fill="#FFFFFF" cx="46.5" cy="162.1" r="46.5"/>
		<g>
			<g>
				<path fill="#354872" d="M56.2,173.8c-4.7,0-9.1-1.5-12.8-4.3l-6,1.6l1.6-6c-2.8-3.7-4.3-8.2-4.3-12.8c0-11.8,9.6-21.5,21.5-21.5
					c11.8,0,21.5,9.6,21.5,21.5C77.7,164.2,68,173.8,56.2,173.8z M43.9,166.8l0.5,0.4c3.4,2.7,7.4,4.1,11.8,4.1
					c10.4,0,18.9-8.5,18.9-18.9c0-10.4-8.5-18.9-18.9-18.9c-10.4,0-18.9,8.5-18.9,18.9c0,4.3,1.4,8.4,4.1,11.8l0.4,0.5l-0.8,2.9
					L43.9,166.8z"/>
			</g>
			<g>
				<path fill="#FFFFFF" d="M48.5,178.7c-0.1,0-0.1,0.1-0.1,0.1c-0.7,1.1-1.4,2.2-2.2,3.3c-0.7,1-2.3,1.2-3.6,0.3
					c-1.4-1-5.8-5-8.6-7.5c-2.6-2.7-6.6-7.1-7.6-8.6c-0.9-1.3-0.8-3,0.3-3.6c1.1-0.7,2.2-1.4,3.3-2.2l0.1-0.1
					c-2.8-3.4-5.3-6.8-7.6-10.2c-1.4,0.9-2.8,2-4,3.2c-0.6,0.6-1.2,1.2-1.7,1.9c-0.5,6.9,2.6,16,11.4,24.7
					c8.9,9.3,18.4,12.7,25.4,12.1c0.6-0.5,1.3-1.1,1.9-1.7c1.3-1.3,2.3-2.6,3.2-4C55.3,184,51.9,181.5,48.5,178.7z"/>
				<path fill="#354872" d="M52.1,193.4L52.1,193.4c-8.2,0-17.2-4.6-24.9-12.6c-8.1-8.1-12.4-17.4-11.8-25.7v-0.4l0.3-0.3
					c0.6-0.8,1.2-1.4,1.8-2c1.3-1.3,2.7-2.4,4.3-3.4l1.1-0.7l0.7,1c2.3,3.4,4.8,6.8,7.5,10.1l0.7,0.8l-0.7,0.8
					c-0.1,0.1-0.2,0.3-0.4,0.4l-3.3,2.2c-0.2,0.1-0.2,0.3-0.3,0.5c-0.1,0.4,0,0.9,0.4,1.4c0.9,1.3,4.6,5.4,7.4,8.4
					c3,2.9,7.1,6.5,8.4,7.4c0.3,0.2,0.7,0.4,1.1,0.4c0.3,0,0.6-0.1,0.7-0.3l0.8-1.1c0.5-0.7,0.9-1.4,1.4-2.1
					c0.1-0.2,0.3-0.3,0.4-0.4l0.8-0.7l0.8,0.7c3.3,2.7,6.7,5.3,10.1,7.5l1,0.7l-0.7,1.1c-1,1.5-2.1,3-3.4,4.3
					c-0.6,0.6-1.2,1.1-2,1.8l-0.3,0.3h-0.4C53.2,193.4,52.7,193.4,52.1,193.4z M18,155.7c-0.2,3.8,0.6,13,11.1,23.3
					c7.2,7.5,15.6,11.8,23.1,11.8l0,0c0.3,0,0.7,0,1,0c0.6-0.5,1-0.9,1.5-1.3c0.9-0.9,1.7-1.8,2.4-2.8c-2.8-1.9-5.5-3.9-8.2-6.1
					c-0.2,0.4-0.5,0.7-0.7,1.1l-0.8,1.1c-0.6,0.9-1.7,1.4-2.9,1.4c-0.9,0-1.8-0.3-2.6-0.8c-1.6-1.1-6.1-5.2-8.7-7.6l-0.1-0.1
					c-2.4-2.6-6.6-7.2-7.7-8.7c-0.7-1-1-2.2-0.8-3.3c0.2-0.9,0.7-1.7,1.4-2.1l2.2-1.5c-2.2-2.7-4.2-5.4-6.1-8.2
					c-1,0.7-1.9,1.5-2.8,2.4C18.9,154.6,18.5,155.1,18,155.7z"/>
			</g>
			<path fill="#354872" d="M56.2,168.7c-9,0-16.4-7.3-16.4-16.4c0-9,7.3-16.4,16.4-16.4c9,0,16.4,7.3,16.4,16.4
				C72.5,161.4,65.2,168.7,56.2,168.7z"/>
			<g>
				<g>
					<polygon fill="#FFDF6A" points="53.1,153.4 46.5,147.2 53.1,141 54.9,142.9 50.2,147.2 54.9,151.6 					"/>
				</g>
				<g>
					<rect x="48.9" y="145.9" fill="#FFDF6A" width="14.1" height="2.6"/>
				</g>
			</g>
			<g>
				<g>
					<polygon fill="#FFDF6A" points="58.2,163 56.5,161.2 61.1,156.8 56.5,152.5 58.2,150.6 64.9,156.8 					"/>
				</g>
				<g>
					<rect x="48.3" y="155.6" fill="#FFDF6A" width="14.1" height="2.6"/>
				</g>
			</g>
		</g>
	</g>
	<g>
		<circle fill="#FFFFFF" cx="208.9" cy="162.1" r="46.5"/>
		<g>
			<g>
				<path fill="#354872" d="M228.7,161.8h-2.6V150c0-9.6-7.8-17.4-17.4-17.4c-9.6,0-17.4,7.8-17.4,17.4v11.8h-2.6V150
					c0-11,9-20,20-20s20,9,20,20V161.8z"/>
			</g>
			<path fill="#FFDF6A" d="M229.9,162.7c0,2.2-1.8,4.1-4.1,4.1h-0.3c-2.2,0-4.1-1.8-4.1-4.1v-7.4c0-2.2,1.8-4.1,4.1-4.1h0.3
				c2.2,0,4.1,1.8,4.1,4.1V162.7z"/>
			<g>
				<path fill="#FFFFFF" d="M187.6,193.7v-7.3c0-3.2,3-5.9,6.6-5.9h29c3.7,0,6.6,2.6,6.6,5.9v7.3H187.6z"/>
				<path fill="#354872" d="M231.1,193.7h-2.6v-7.3c0-2.5-2.4-4.6-5.3-4.6h-29c-2.9,0-5.3,2.1-5.3,4.6v7.3h-2.6v-7.3
					c0-3.9,3.5-7.1,7.9-7.1h29c4.4,0,7.9,3.2,7.9,7.1V193.7L231.1,193.7z"/>
			</g>
			<g>
				<path fill="#FFFFFF" d="M223.5,149.9v11.8c0,8.2-6.6,14.8-14.8,14.8l0,0c-8.2,0-14.8-6.6-14.8-14.8v-11.8H223.5L223.5,149.9z"/>
				<path fill="#354872" d="M208.7,177.8c-8.9,0-16.1-7.2-16.1-16.1v-11.8h2.6v11.8c0,7.4,6.1,13.5,13.5,13.5
					c7.4,0,13.5-6.1,13.5-13.5v-11.8h2.6v11.8C224.7,170.6,217.5,177.8,208.7,177.8z"/>
			</g>
			<path fill="#354872" d="M219,134.4h-7.7h-7.9c-2.4,0-4.5,1.2-5.7,3.1h-2.3c-0.2,0-0.4,0-0.6,0c-2.6,2.9-4.3,6.7-4.7,10.8V162h3.7
				v-11.5c0-2.1,1.7-3.7,3.7-3.7h2.2h11.7h6.7h2h1.5h2c3.8,0,6.8-3.1,6.8-6.8v-5.6H219L219,134.4z"/>
			<g>
				<path fill="#354872" d="M195.1,162h-2.6v-11.5c0-2.8,2.2-5,5-5h25.9c3.1,0,5.6-2.5,5.6-5.6v-5.6h2.6v5.6c0,4.5-3.6,8.1-8.1,8.1
					h-25.9c-1.3,0-2.4,1.1-2.4,2.4L195.1,162L195.1,162z"/>
			</g>
			<path fill="#FFDF6A" d="M195.6,162.7c0,2.2-1.8,4.1-4.1,4.1h-0.3c-2.2,0-4.1-1.8-4.1-4.1v-7.4c0-2.2,1.8-4.1,4.1-4.1h0.3
				c2.2,0,4.1,1.8,4.1,4.1V162.7z"/>
			<g>
				<path fill="#354872" d="M191.3,161.8h-2.6V150c0-11,9-20,20-20v2.6c-9.6,0-17.4,7.8-17.4,17.4V161.8z"/>
			</g>
			<g>
				<polygon fill="#354872" points="211.4,186.4 205.4,186.4 202.7,181.8 204.9,180.5 206.8,183.8 209.9,183.8 211.9,180.5 
					214.1,181.8 				"/>
			</g>
			<g>
				
					<rect x="206.7" y="188.2" transform="matrix(-0.2126 -0.9771 0.9771 -0.2126 71.0011 436.2543)" fill="#354872" width="9.2" height="2.6"/>
			</g>
			<g>
				
					<rect x="204.2" y="185" transform="matrix(-0.9771 -0.2126 0.2126 -0.9771 365.981 418.5862)" fill="#354872" width="2.6" height="9.2"/>
			</g>
			<g>
				<path fill="#354872" d="M223.5,172.8h-11.6v-2.6h11.6c1.5,0,2.7-1.2,2.7-2.7h2.6C228.7,170.4,226.3,172.8,223.5,172.8z"/>
			</g>
			<g>
				<rect x="208.3" y="156" fill="#354872" width="2.6" height="8.1"/>
			</g>
		</g>
	</g>
	<g>
		<circle fill="#FFFFFF" cx="1020.7" cy="162.1" r="46.5"/>
		<g>
			<circle fill="#FFDF6A" cx="1025.5" cy="146.2" r="7.9"/>
			<g>
				<g>
					<rect x="1023.5" y="131" fill="#354872" width="2.6" height="5.2"/>
				</g>
				<g>
					
						<rect x="1016" y="134.3" transform="matrix(-0.5001 -0.866 0.866 -0.5001 1410.6013 1085.4905)" fill="#354872" width="5.2" height="2.6"/>
				</g>
				<g>
					
						<rect x="1011.8" y="139.1" transform="matrix(-0.8659 -0.5003 0.5003 -0.8659 1822.5735 769.3916)" fill="#354872" width="5.2" height="2.6"/>
				</g>
				<g>
					<rect x="1010.5" y="145.4" fill="#354872" width="5.2" height="2.6"/>
				</g>
				<g>
					
						<rect x="1013.8" y="150.2" transform="matrix(-0.5002 -0.8659 0.8659 -0.5002 1390.543 1108.1926)" fill="#354872" width="2.6" height="5.2"/>
				</g>
				<g>
					
						<rect x="1034" y="150.4" transform="matrix(-0.8662 -0.4998 0.4998 -0.8662 1858.6365 801.0845)" fill="#354872" width="5.2" height="2.6"/>
				</g>
				<g>
					<rect x="1035.3" y="144" fill="#354872" width="5.2" height="2.6"/>
				</g>
				<g>
					
						<rect x="1034.5" y="136.6" transform="matrix(-0.4999 -0.8661 0.8661 -0.4999 1433.0857 1105.9287)" fill="#354872" width="2.6" height="5.2"/>
				</g>
				<g>
					
						<rect x="1029.8" y="132.3" transform="matrix(-0.866 -0.5001 0.5001 -0.866 1856.5791 767.4047)" fill="#354872" width="2.6" height="5.2"/>
				</g>
			</g>
			<g>
				<path fill="#FFFFFF" d="M1009.8,185.5h4.2c1.5,2,4,3.4,6.7,3.4h5.6h8h0.4l0,0h3.3c2.1,0,3.8-1.7,3.8-3.8c0-2.1-1.7-3.8-3.8-3.8
					h3c2.1,0,3.8-1.7,3.8-3.8c0-2.1-1.7-3.8-3.8-3.8h1c2.1,0,3.8-1.7,3.8-3.8c0-2.1-1.7-3.8-3.8-3.8h2c2.1,0,3.8-1.7,3.8-3.8
					c0-2.1-1.7-3.8-3.8-3.8h-10.6c-0.2,0-0.4,0-0.6,0.1h-4.3l1.3-4.7v-5.3c0-2.6-2.1-4.8-4.8-4.8h-1.6c-0.1,0-0.1,0-0.2,0v7.3
					l-1.8,2.6l-6.9,7.5c-1,1-1.7,2.3-2.1,3.8h-2.8L1009.8,185.5L1009.8,185.5L1009.8,185.5z"/>
				<path fill="#354872" d="M1034.7,190.1h-14c-2.8,0-5.5-1.2-7.3-3.4h-3.6v-2.6h4.9l0.4,0.5c1.4,1.8,3.4,2.9,5.7,2.9h17.3
					c1.4,0,2.5-1.1,2.5-2.5c0-1.4-1.1-2.5-2.5-2.5V180h3c1.4,0,2.5-1.1,2.5-2.5c0-1.4-1.1-2.5-2.5-2.5v-2.6h1c1.4,0,2.5-1.1,2.5-2.5
					c0-1.4-1.1-2.5-2.5-2.5v-2.6h2c1.4,0,2.5-1.1,2.5-2.5c0-1.4-1.1-2.5-2.5-2.5h-10.6c-0.1,0-0.3,0-0.4,0h-0.2h-5.9l1.8-6.2v-5.2
					c0-1.9-1.6-3.5-3.5-3.5h-0.5v6.4l-2.2,3.1l-6.9,7.5c-0.9,0.9-1.5,2-1.8,3.2l-0.2,1h-3.8v-2.6h1.9c0.4-1.3,1.2-2.4,2.1-3.4
					l6.8-7.5l1.6-2.2v-8.1l1.2-0.1c0.1,0,0.2,0,0.3,0h1.6c3.3,0,6,2.7,6,6v5.5l-0.9,3.3h2.5c0.3,0,0.5-0.1,0.7-0.1h10.6
					c2.8,0,5.1,2.3,5.1,5.1c0,2.1-1.2,3.8-3,4.6c0.6,0.8,1,1.9,1,3c0,1.8-0.9,3.3-2.3,4.2c0.8,0.9,1.3,2.1,1.3,3.4
					c0,2.4-1.6,4.3-3.8,4.9c0.5,0.8,0.8,1.7,0.8,2.7c0,2.8-2.3,5.1-5.1,5.1L1034.7,190.1z"/>
			</g>
			<rect x="992.2" y="163.4" fill="#354872" width="15.8" height="29.9"/>
			<g>
				<rect x="1002.6" y="188" fill="#FFFFFF" width="2" height="1.9"/>
			</g>
		</g>
	</g>
	<g>
		<g>
			<path fill="#FFFFFF" d="M580,46.5c0,25.7-20.8,46.5-46.5,46.5S487,72.2,487,46.5S507.8,0,533.5,0S580,20.8,580,46.5z"/>
			<g>
				<path fill="#FFDF6A" d="M522.6,71.9h18.3V34.1c-0.8-1.2-6.2-1.2-6.9,0.1l-15.8,15.4c-0.7,1.3-0.2,2.2,0.2,4.5L522.6,71.9z"/>
				<g>
					<g>
						<path fill="#FFFFFF" d="M545.9,14c1.1,0,2.1,0.9,2.1,2.1v36.5c0,1.2-0.9,2.1-2.1,2.1h-21.3c-1.2,0-2.1-0.9-2.1-2.1V16.1
							c0-1.2,0.9-2.1,2.1-2.1H545.9z"/>
						<path fill="#354872" d="M545.9,56h-21.3c-1.9,0-3.4-1.5-3.4-3.4V16.1c0-1.9,1.5-3.4,3.4-3.4h21.3c1.9,0,3.4,1.5,3.4,3.4v36.5
							C549.3,54.5,547.7,56,545.9,56z M524.6,15.2c-0.4,0-0.8,0.4-0.8,0.8v36.5c0,0.4,0.4,0.8,0.8,0.8h21.3c0.4,0,0.8-0.4,0.8-0.8
							V16.1c0-0.4-0.4-0.8-0.8-0.8L524.6,15.2L524.6,15.2z"/>
					</g>
					<g>
						<path fill="#FFFFFF" d="M536.7,51.5v-7.3V51.5z"/>
						<rect x="535.4" y="44.2" fill="#354872" width="2.6" height="7.3"/>
					</g>
					<g>
						<path fill="#FFFFFF" d="M542,51.5V38.6V51.5z"/>
						<rect x="540.7" y="38.6" fill="#354872" width="2.6" height="12.9"/>
					</g>
					<g>
						<path fill="#FFFFFF" d="M536.7,42.4v-7.3V42.4z"/>
						<rect x="535.4" y="35.1" fill="#354872" width="2.6" height="7.3"/>
					</g>
					<g>
						<path fill="#FFFFFF" d="M536.7,33.2v-7.3V33.2z"/>
						<rect x="535.4" y="25.9" fill="#354872" width="2.6" height="7.3"/>
					</g>
					<g>
						<path fill="#FFFFFF" d="M536.7,24.1v-7.3V24.1z"/>
						<rect x="535.4" y="16.8" fill="#354872" width="2.6" height="7.3"/>
					</g>
					<circle fill="#FFDF6A" cx="528.7" cy="20.8" r="3.2"/>
					<circle fill="#354872" cx="528.7" cy="25" r="3.2"/>
				</g>
				<g>
					<path fill="#FFDF6A" d="M536.3,69.8c0.1-1,0.2-2.1,0.2-3.2c0-5.2-1.1-9.3-3.2-12.1V40.4c0-1.7-1.4-3-3-3H529c-1.7,0-3,1.4-3,3
						v17.7L536.3,69.8z"/>
					<path fill="#354872" d="M537.5,69.9l-2.5-0.3c0.1-1,0.2-2,0.2-3c0-4.8-1-8.7-3-11.4l-0.3-0.3V40.4c0-1-0.8-1.7-1.7-1.7H529
						c-1,0-1.7,0.8-1.7,1.7v17.7h-2.6V40.4c0-2.4,1.9-4.3,4.3-4.3h1.2c2.4,0,4.3,1.9,4.3,4.3v13.7c2.1,3.1,3.2,7.3,3.2,12.5
						C537.7,67.7,537.7,68.8,537.5,69.9z"/>
				</g>
				<g>
					<rect x="517.7" y="73.5" fill="#354872" width="27.6" height="6.9"/>
				</g>
			</g>
		</g>
		<g>
			<path fill="#FFFFFF" d="M580,277.7c0,25.7-20.8,46.5-46.5,46.5S487,303.4,487,277.7s20.8-46.5,46.5-46.5S580,252,580,277.7z"/>
			<g>
				<path fill="#FFDF6A" d="M522.6,303.1h18.3v-37.8c-0.8-1.2-6.2-1.2-6.9,0.1l-15.8,15.4c-0.7,1.3-0.2,2.2,0.2,4.5L522.6,303.1z"/>
				<g>
					<g>
						<path fill="#FFFFFF" d="M545.9,245.2c1.1,0,2.1,0.9,2.1,2.1v36.5c0,1.2-0.9,2.1-2.1,2.1h-21.3c-1.2,0-2.1-0.9-2.1-2.1v-36.5
							c0-1.1,0.9-2.1,2.1-2.1H545.9L545.9,245.2z"/>
						<path fill="#354872" d="M545.9,287.2h-21.3c-1.9,0-3.4-1.5-3.4-3.4v-36.5c0-1.9,1.5-3.4,3.4-3.4h21.3c1.9,0,3.4,1.5,3.4,3.4
							v36.5C549.3,285.6,547.7,287.2,545.9,287.2z M524.6,246.4c-0.4,0-0.8,0.4-0.8,0.8v36.5c0,0.4,0.4,0.8,0.8,0.8h21.3
							c0.4,0,0.8-0.4,0.8-0.8v-36.5c0-0.4-0.4-0.8-0.8-0.8H524.6L524.6,246.4z"/>
					</g>
					<g>
						<path fill="#FFFFFF" d="M536.7,282.7v-7.3V282.7z"/>
						<rect x="535.4" y="275.4" fill="#354872" width="2.6" height="7.3"/>
					</g>
					<g>
						<path fill="#FFFFFF" d="M542,282.7v-12.9V282.7z"/>
						<rect x="540.7" y="269.8" fill="#354872" width="2.6" height="12.9"/>
					</g>
					<g>
						<path fill="#FFFFFF" d="M536.7,273.6v-7.3V273.6z"/>
						<rect x="535.4" y="266.3" fill="#354872" width="2.6" height="7.3"/>
					</g>
					<g>
						<path fill="#FFFFFF" d="M536.7,264.4v-7.3V264.4z"/>
						<rect x="535.4" y="257.1" fill="#354872" width="2.6" height="7.3"/>
					</g>
					<g>
						<path fill="#FFFFFF" d="M536.7,255.3V248V255.3z"/>
						<rect x="535.4" y="248" fill="#354872" width="2.6" height="7.3"/>
					</g>
					<path fill="#FFDF6A" d="M532,252c0,1.8-1.4,3.2-3.2,3.2s-3.2-1.4-3.2-3.2s1.4-3.2,3.2-3.2C530.5,248.8,532,250.2,532,252z"/>
					<circle fill="#354872" cx="528.7" cy="256.2" r="3.2"/>
				</g>
				<g>
					<path fill="#FFDF6A" d="M536.3,301c0.1-1,0.2-2.1,0.2-3.2c0-5.2-1.1-9.3-3.2-12.1v-14.1c0-1.7-1.4-3-3-3H529c-1.7,0-3,1.4-3,3
						v17.7L536.3,301z"/>
					<path fill="#354872" d="M537.5,301.1l-2.5-0.3c0.1-1,0.2-2,0.2-3c0-4.8-1-8.7-3-11.4l-0.3-0.3v-14.5c0-1-0.8-1.7-1.7-1.7H529
						c-1,0-1.7,0.8-1.7,1.7v17.7h-2.6v-17.7c0-2.4,1.9-4.3,4.3-4.3h1.2c2.4,0,4.3,1.9,4.3,4.3v13.7c2.1,3.1,3.2,7.3,3.2,12.5
						C537.7,298.9,537.7,300,537.5,301.1z"/>
				</g>
				<g>
					<rect x="517.7" y="304.7" fill="#354872" width="27.6" height="6.9"/>
				</g>
			</g>
		</g>
	</g>
	<g>
		<g>
			<circle fill="#FFFFFF" cx="371.3" cy="277.7" r="46.5"/>
			<g>
				<g>
					<path fill="#FFDF6A" d="M342,304.2h58.5L342,245.8V304.2z M352.8,293.4v-21.7l21.7,21.7H352.8z"/>
					<g>
						<path fill="#FFFFFF" d="M342,300.6h4.8H342z"/>
						<rect x="342" y="299.4" fill="#354872" width="4.8" height="2.6"/>
					</g>
					<g>
						<path fill="#FFFFFF" d="M342,296h2.7H342z"/>
						<rect x="342" y="294.7" fill="#354872" width="2.7" height="2.6"/>
					</g>
					<g>
						<path fill="#FFFFFF" d="M342,291.3h4.8H342z"/>
						<rect x="342" y="290.1" fill="#354872" width="4.8" height="2.6"/>
					</g>
					<g>
						<path fill="#FFFFFF" d="M342,286.7h2.7H342z"/>
						<rect x="342" y="285.4" fill="#354872" width="2.7" height="2.6"/>
					</g>
					<g>
						<path fill="#FFFFFF" d="M342,282h4.8H342z"/>
						<rect x="342" y="280.7" fill="#354872" width="4.8" height="2.6"/>
					</g>
					<g>
						<path fill="#FFFFFF" d="M342,277.4h2.7H342z"/>
						<rect x="342" y="276.1" fill="#354872" width="2.7" height="2.6"/>
					</g>
					<g>
						<path fill="#FFFFFF" d="M342,272.7h4.8H342z"/>
						<rect x="342" y="271.4" fill="#354872" width="4.8" height="2.6"/>
					</g>
					<g>
						<path fill="#FFFFFF" d="M342,268.1h2.7H342z"/>
						<rect x="342" y="266.8" fill="#354872" width="2.7" height="2.6"/>
					</g>
					<g>
						<path fill="#FFFFFF" d="M342,263.4h4.8H342z"/>
						<rect x="342" y="262.1" fill="#354872" width="4.8" height="2.6"/>
					</g>
					<g>
						<path fill="#FFFFFF" d="M342,258.8h2.7H342z"/>
						<rect x="342" y="257.5" fill="#354872" width="2.7" height="2.6"/>
					</g>
					<g>
						<path fill="#FFFFFF" d="M342,254.1h4.8H342z"/>
						<rect x="342" y="252.8" fill="#354872" width="4.8" height="2.6"/>
					</g>
				</g>
				<g>
					<polygon fill="#FFFFFF" points="384.2,297.5 384.2,299 379.9,306.8 375.7,299 375.7,297.5 					"/>
					<polygon fill="#354872" points="379.9,309.4 374.4,299.3 374.4,297.5 377,297.5 377,298.7 379.9,304.1 382.9,298.7 
						382.9,297.5 385.4,297.5 385.4,299.3 					"/>
				</g>
				<g>
					<rect x="375.7" y="260.8" fill="#FFFFFF" width="8.4" height="36.6"/>
					<path fill="#354872" d="M382.9,262.1v34H377v-34H382.9L382.9,262.1z M385.4,259.6h-11v39.2h11V259.6L385.4,259.6z"/>
				</g>
				<g>
					<rect x="378.7" y="260.4" fill="#354872" width="2.6" height="36"/>
				</g>
				<g>
					<path fill="#FFFFFF" d="M384.2,250.4V247c0-0.4-0.4-0.8-0.9-0.8h-6.6c-0.5,0-0.9,0.3-0.9,0.8v3.4H384.2L384.2,250.4z"/>
					<path fill="#354872" d="M385.4,250.4h-2.6v-2.9H377v2.9h-2.6V247c0-0.5,0.2-1,0.6-1.4c0.4-0.4,1-0.7,1.6-0.7l0,0h6.6
						c1.2,0,2.2,0.9,2.2,2V250.4L385.4,250.4z"/>
				</g>
				<rect x="374.5" y="251.9" fill="#FFDF6A" width="11" height="6.5"/>
				<g>
					<g>
						<rect x="364" y="306.2" fill="#354872" width="2.6" height="4.4"/>
					</g>
					<g>
						<g>
							<polygon fill="#354872" points="369.8,250 367.2,250 367.2,247.5 363.3,247.5 363.3,250 360.7,250 360.7,244.9 369.8,244.9 
															"/>
						</g>
					</g>
					<g>
						<rect x="361.9" y="275.1" fill="#FFFFFF" width="6.7" height="22.3"/>
						<polygon fill="#354872" points="369.9,298.7 360.6,298.7 360.6,275.1 363.1,275.1 363.1,296.1 367.3,296.1 367.3,275.1 
							369.9,275.1 						"/>
					</g>
					<g>
						<polygon fill="#354872" points="362,308 362,303.1 364.6,303.1 364.6,305.4 365.8,305.4 365.8,303.1 368.4,303.1 368.4,308 
													"/>
					</g>
					<g>
						<g>
							<rect x="361.2" y="250.2" fill="#354872" width="8.2" height="24.4"/>
							<path fill="#354872" d="M370.6,275.9h-10.8v-27h10.8V275.9z M362.4,273.3h5.6v-21.8h-5.6V273.3z"/>
						</g>
					</g>
					<g>
						<g>
							<polygon fill="#354872" points="355.9,276.1 355.9,253.9 369.3,253.9 369.3,256.5 358.5,256.5 358.5,276.1 							"/>
						</g>
					</g>
					<g>
						<rect x="362.3" y="297.5" fill="#354872" width="5.9" height="5.3"/>
						<path fill="#354872" d="M361,304.2v-7.9h8.5v7.9H361z M363.6,298.8v2.8h3.3v-2.8H363.6z"/>
					</g>
				</g>
			</g>
		</g>
		<g>
			<circle fill="#FFFFFF" cx="371.3" cy="46.5" r="46.5"/>
			<g>
				<g>
					<g>
						<polygon fill="#354872" points="370.9,44.5 369.6,42.3 371.3,41.3 373.1,42.3 371.8,44.5 371.3,44.2 						"/>
					</g>
					<g>
						<path fill="#354872" d="M397,58.9l-2.1-1.2l1.3-2.2l2.1,1.2L397,58.9z M392.8,56.5l-2.1-1.2l1.3-2.2l2.1,1.2L392.8,56.5z
							 M388.6,54.1l-2.1-1.2l1.3-2.2l2.1,1.2L388.6,54.1z M384.4,51.7l-2.1-1.2l1.3-2.2l2.1,1.2L384.4,51.7z M380.2,49.3l-2.1-1.2
							l1.3-2.2l2.1,1.2L380.2,49.3z M376,46.9l-2.1-1.2l1.3-2.2l2.1,1.2L376,46.9z"/>
					</g>
					<g>
						<polygon fill="#354872" points="400.4,61.4 399.9,60.6 399.1,60.1 399.4,59.6 399.1,59.2 399.9,58.7 400.4,57.9 403.4,59.6 
													"/>
					</g>
					<g>
						<path fill="#354872" d="M375,76l-1.3-2.2l2.1-1.2l1.3,2.2L375,76z M379.2,73.6l-1.3-2.2l2.1-1.2l1.3,2.2L379.2,73.6z
							 M383.5,71.1l-1.3-2.2l2.1-1.2l1.3,2.2L383.5,71.1z M387.7,68.7l-1.3-2.2l2.1-1.2l1.3,2.2L387.7,68.7z M391.9,66.3l-1.3-2.2
							l2.1-1.2L394,65L391.9,66.3z M396.1,63.8l-1.3-2.2l2.1-1.2l1.3,2.2L396.1,63.8z"/>
					</g>
					<g>
						<polygon fill="#354872" points="371.2,78.2 369.4,77.2 370.7,75 371.2,75.3 371.6,75 372.9,77.2 						"/>
					</g>
					<g>
						<path fill="#354872" d="M367.3,76l-2.1-1.2l1.3-2.2l2.1,1.2L367.3,76z M363.1,73.6l-2.1-1.2l1.3-2.2l2.1,1.2L363.1,73.6z
							 M358.9,71.2l-2.1-1.2l1.3-2.2l2.1,1.2L358.9,71.2z M354.7,68.8l-2.1-1.2l1.3-2.2l2.1,1.2L354.7,68.8z M350.5,66.4l-2.1-1.2
							l1.3-2.2l2.1,1.2L350.5,66.4z M346.3,64l-2.1-1.2l1.3-2.2l2.1,1.2L346.3,64z"/>
					</g>
					<g>
						<polygon fill="#354872" points="342.1,61.7 339.1,59.9 342.1,58.2 342.6,59 343.4,59.4 343.1,59.9 343.4,60.4 342.6,60.8 
													"/>
					</g>
					<g>
						<path fill="#354872" d="M345.5,59.2l-1.3-2.2l2.1-1.2l1.3,2.2L345.5,59.2z M349.7,56.7l-1.3-2.2l2.1-1.2l1.3,2.2L349.7,56.7z
							 M354,54.3l-1.3-2.2l2.1-1.2l1.3,2.2L354,54.3z M358.2,51.8l-1.3-2.2l2.1-1.2l1.3,2.2L358.2,51.8z M362.4,49.4l-1.3-2.2
							l2.1-1.2l1.3,2.2L362.4,49.4z M366.7,47l-1.3-2.2l2.1-1.2l1.3,2.2L366.7,47z"/>
					</g>
				</g>
				<g>
					<g>
						<polygon fill="#FFDF6A" points="371.3,24.3 391.1,35.6 371.2,47.1 351.4,35.8 						"/>
						<path fill="#354872" d="M371.2,48.4c-0.2,0-0.4-0.1-0.6-0.2l-19.8-11.3c-0.4-0.2-0.6-0.7-0.6-1.1c0-0.5,0.2-0.9,0.6-1.1
							l19.9-11.5c0.4-0.2,0.9-0.2,1.3,0l19.8,11.3c0.4,0.2,0.6,0.7,0.6,1.1c0,0.5-0.2,0.9-0.6,1.1l-19.9,11.5
							C371.6,48.3,371.4,48.4,371.2,48.4z M354,35.8l17.2,9.8l17.4-10l-17.2-9.8L354,35.8z"/>
					</g>
					<g>
						<g>
							<polygon fill="#354872" points="391,35.5 391.2,58.5 371.3,70 371.1,47 							"/>
						</g>
						<g>
							<g>
								<path fill="#354872" d="M371.4,71.4c-0.2,0-0.4-0.1-0.6-0.2c-0.4-0.2-0.6-0.6-0.6-1.1l-0.2-23c0-0.5,0.2-0.9,0.6-1.1
									l19.9-11.5c0.4-0.2,0.9-0.2,1.3,0c0.4,0.2,0.6,0.6,0.6,1.1l0.2,23c0,0.5-0.2,0.9-0.6,1.1l-19.9,11.5
									C371.9,71.3,371.6,71.4,371.4,71.4z M372.5,47.9l0.2,20.1l17.4-10l-0.2-20L372.5,47.9z"/>
							</g>
						</g>
					</g>
					<g>
						<g>
							<polygon fill="#FFFFFF" points="371.2,47.1 371.4,70.1 351.6,58.8 351.4,35.8 							"/>
						</g>
						<g>
							<g>
								<path fill="#354872" d="M371.4,71.4L371.4,71.4c-0.2,0-0.5-0.1-0.6-0.2L351,59.9c-0.4-0.2-0.6-0.6-0.6-1.1l-0.2-23
									c0-0.5,0.2-0.9,0.6-1.1c0.4-0.2,0.9-0.2,1.3,0L371.8,46c0.4,0.2,0.6,0.6,0.6,1.1l0.2,22.8c0,0.1,0,0.1,0,0.2
									C372.7,70.8,372.2,71.4,371.4,71.4z M352.9,58l17.2,9.8l-0.2-20L352.7,38L352.9,58z"/>
							</g>
						</g>
					</g>
				</g>
				<g>
					<g>
						<polygon fill="#FFDF6A" points="371.4,16.1 381.8,22.1 371.3,28.1 360.9,22.2 						"/>
						<path fill="#354872" d="M371.3,29.4c-0.2,0-0.4-0.1-0.6-0.2l-10.4-6c-0.4-0.2-0.6-0.7-0.6-1.1c0-0.5,0.2-0.9,0.6-1.1l10.5-6.1
							c0.4-0.2,0.9-0.2,1.3,0l10.4,6c0.4,0.2,0.6,0.7,0.6,1.1c0,0.5-0.2,0.9-0.6,1.1L372,29.2C371.7,29.4,371.5,29.4,371.3,29.4z
							 M363.4,22.2l7.9,4.5l7.9-4.6l-7.9-4.5L363.4,22.2z"/>
					</g>
					<g>
						<g>
							<polygon fill="#354872" points="381.7,22 381.8,34.1 371.3,40.1 371.2,28 							"/>
						</g>
						<g>
							<g>
								<path fill="#354872" d="M371.4,41.5c-0.2,0-0.4-0.1-0.6-0.2c-0.4-0.2-0.6-0.6-0.6-1.1l-0.2-12c0-0.5,0.2-0.9,0.6-1.1
									l10.5-6.1c0.4-0.2,0.9-0.2,1.3,0s0.6,0.6,0.6,1.1l0.1,12.1c0,0.5-0.2,0.9-0.6,1.1L372,41.4
									C371.8,41.5,371.6,41.5,371.4,41.5z M372.6,28.9l0.1,9.2l7.9-4.6l-0.1-9.2L372.6,28.9z"/>
							</g>
						</g>
					</g>
					<g>
						<g>
							<polygon fill="#FFFFFF" points="371.3,28.1 371.4,40.3 361,34.3 360.9,22.2 							"/>
						</g>
						<g>
							<g>
								<path fill="#354872" d="M371.4,41.5L371.4,41.5c-0.2,0-0.5-0.1-0.6-0.2l-10.4-6c-0.4-0.2-0.6-0.6-0.6-1.1l-0.1-12.1
									c0-0.5,0.2-0.9,0.6-1.1c0.4-0.2,0.9-0.2,1.3,0l10.4,6c0.4,0.2,0.6,0.6,0.6,1.1l0.1,11.9c0,0.1,0,0.1,0,0.2
									C372.7,41,372.1,41.5,371.4,41.5z M362.2,33.5l7.9,4.5l-0.1-9.1l-7.9-4.5L362.2,33.5z"/>
							</g>
						</g>
					</g>
				</g>
			</g>
		</g>
	</g>
	<g>
		<g>
			<circle fill="#FFFFFF" cx="696" cy="46.5" r="46.5"/>
			<g>
				<circle fill="#FFDF6A" cx="693" cy="46.5" r="15.4"/>
				<g>
					<polygon fill="#354872" points="692.8,48.7 685,40.8 686.9,39 692.8,45.1 701.9,35.8 703.7,37.6 					"/>
				</g>
				<g>
					<g>
						<path fill="#354872" d="M709.5,75.5h-10v-1.3c0-0.1,0-2.9,2.1-5.9c0.9-1.3,2.2-2.4,3.4-3.4c1-0.8,2.5-2,2.5-2.6v-0.6
							c0-1.7-1.3-3-3-3s-3,1.3-3,3h-2.6c0-3.1,2.5-5.6,5.6-5.6s5.6,2.5,5.6,5.6v0.6c0,1.8-1.7,3.1-3.4,4.6c-1.1,0.9-2.3,1.9-2.9,2.9
							c-0.8,1.2-1.2,2.4-1.4,3.2h7.3L709.5,75.5L709.5,75.5z"/>
					</g>
					<g>
						<rect x="716.7" y="56.9" fill="#354872" width="2.6" height="18.3"/>
					</g>
					<g>
						<polygon fill="#354872" points="721.7,69.9 709.2,69.9 716.8,56.8 719,58.1 713.7,67.3 721.7,67.3 						"/>
					</g>
				</g>
				<g>
					<path fill="#FFFFFF" d="M693.4,68.2c-0.1,0-0.1,0-0.2,0c-12,0-21.7-9.7-21.7-21.7s9.7-21.7,21.7-21.7
						c10.6,0,19.5,7.7,21.4,17.8h-3.4l3.6,4.2l3.6,4.2l3.6-4.2l3.6-4.2h-4.4c-1.9-13.6-13.6-24.1-27.7-24.1c-15.4,0-28,12.5-28,28
						c0,15.4,12.5,28,28,28c0.1,0,0.1,0,0.2,0L693.4,68.2L693.4,68.2z"/>
					<path fill="#354872" d="M693.1,75.8L693.1,75.8c-16.1,0-29.3-13.1-29.3-29.3c0-16.1,13.1-29.3,29.3-29.3
						c14.1,0,26.3,10.3,28.8,24.1h6.1L718.1,53l-9.9-11.7h4.6C710.5,32.4,702.4,26,693,26c-11.3,0-20.4,9.2-20.4,20.4
						S681.9,67,693.1,67h1.5v8.8H693.1z M693.1,19.8c-14.7,0-26.7,12-26.7,26.7c0,14.4,11.4,26.1,25.6,26.7v-3.7
						c-12.2-0.6-21.9-10.6-21.9-23c0-12.7,10.3-23,23-23c11.1,0,20.6,7.9,22.6,18.9l0.3,1.5h-2.2l4.3,5.2l4.3-5.2h-2.8l-0.2-1.1
						C717.7,29.7,706.4,19.8,693.1,19.8z"/>
				</g>
				<g>
					<circle fill="#FFFFFF" cx="693" cy="46.5" r="3.3"/>
					<path fill="#354872" d="M693,51.2c-2.6,0-4.6-2.1-4.6-4.6c0-2.6,2.1-4.6,4.6-4.6c2.6,0,4.6,2.1,4.6,4.6
						C697.7,49.1,695.6,51.2,693,51.2z M693,44.5c-1.1,0-2.1,0.9-2.1,2.1c0,1.2,0.9,2.1,2.1,2.1c1.1,0,2.1-0.9,2.1-2.1
						C695.1,45.4,694.2,44.5,693,44.5z"/>
				</g>
				<g>
					<g>
						<rect x="691.2" y="30.8" fill="#354872" width="2.6" height="2.6"/>
					</g>
					<g>
						<rect x="677.1" y="45.6" fill="#354872" width="2.6" height="2.6"/>
					</g>
					<g>
						<rect x="691.8" y="59.7" fill="#354872" width="2.6" height="2.6"/>
					</g>
					<g>
						<rect x="706" y="44.9" fill="#354872" width="2.6" height="2.6"/>
					</g>
				</g>
			</g>
		</g>
		<g>
			<circle fill="#FFFFFF" cx="696" cy="277.7" r="46.5"/>
			<g>
				<g>
					<path fill="#354872" d="M701.5,309.6h-10.4l-0.8-3.5c-1-0.2-2-0.4-3-0.7l-2.5,2.8l-9-5.2l1.1-3.5c-0.7-0.7-1.5-1.4-2.1-2.1
						l-3.7,1.2l-5.2-9l2.9-2.6c-0.3-0.9-0.5-1.7-0.7-2.6l-4.1-0.9v-10.4l4.3-0.9c0.2-0.7,0.4-1.4,0.6-2.2l-3.5-3.1l5.2-9l4.7,1.5
						c0.4-0.5,0.9-0.9,1.3-1.3l-1.6-4.9l9-5.2l3.6,4c0.5-0.1,0.9-0.3,1.4-0.4l1.2-5.4h10.4l1.2,5.4c0.4,0.1,0.8,0.2,1.3,0.3l3.8-4.2
						l9,5.2l-1.7,5.2c0.3,0.3,0.6,0.6,1,0.9l5.4-1.7l5.2,9l-3.9,3.5c0.2,0.5,0.3,1,0.5,1.5l5.2,1.1v10.4l-4.7,1
						c-0.1,0.7-0.3,1.4-0.4,2l3.6,3.3l-5.2,9l-4.1-1.3c-0.5,0.6-1.1,1.2-1.7,1.8l1.3,4.1l-9,5.2l-2.6-2.8c-0.9,0.3-1.8,0.6-2.8,0.8
						L701.5,309.6z M693.2,307h6.3l0.7-3.4l0.8-0.2c1.3-0.3,2.7-0.7,4-1.2l0.8-0.3l2.4,2.6l5.4-3.1l-1.2-3.7l0.6-0.6
						c1-0.9,1.8-1.8,2.6-2.8l0.6-0.7l3.8,1.2l3.1-5.4l-3.2-2.9l0.2-0.8c0.3-1,0.5-2.1,0.7-3.3l0.1-0.9l4.3-0.9v-6.3l-4.8-1l-0.2-0.8
						c-0.2-1-0.5-1.9-0.9-2.8l-0.3-0.8l3.6-3.3l-3.1-5.4l-4.9,1.6l-0.6-0.6c-0.7-0.7-1.3-1.3-2-1.9l-0.6-0.6l1.6-4.9l-5.4-3.1
						l-3.5,3.9l-0.8-0.2c-0.9-0.3-1.7-0.5-2.6-0.7l-0.8-0.2l-1.1-5h-6.3l-1.1,5l-0.8,0.2c-0.9,0.2-1.8,0.4-2.8,0.7l-0.8,0.3
						l-3.3-3.6l-5.4,3.1l1.5,4.6l-0.7,0.6c-0.8,0.6-1.5,1.4-2.3,2.2l-0.6,0.6l-4.3-1.4l-3.1,5.4l3.2,2.9l-0.3,0.8
						c-0.5,1.3-0.8,2.4-1,3.5l-0.2,0.8l-3.9,0.8v6.3l3.8,0.8l0.1,0.9c0.2,1.3,0.6,2.7,1,3.9l0.3,0.8l-2.6,2.4l3.1,5.4l3.3-1.1
						l0.6,0.7c0.9,1.1,2,2.1,3,3l0.7,0.6l-1,3.1l5.4,3.1l2.3-2.5l0.8,0.3c1.3,0.5,2.8,0.8,4.2,1l0.9,0.1L693.2,307z"/>
				</g>
				<path fill="#FFDF6A" d="M696.1,294.2c-4,0-7.9-1.4-10.9-4.1l11.4-11.4h15.9c-0.2,4-1.9,7.8-4.8,10.7
					C704.6,292.5,700.5,294.2,696.1,294.2z"/>
				<path fill="#FFFFFF" d="M697.1,276.2v-14.9c8.1,0.5,14.6,6.8,15.3,14.9H697.1z"/>
				<path fill="#FFDF6A" d="M696.1,294.2c-4,0-7.9-1.4-10.9-4.1l11.4-11.4h15.9c-0.2,4-1.9,7.8-4.8,10.7
					C704.6,292.5,700.5,294.2,696.1,294.2z"/>
				<path fill="#354872" d="M697.1,276.2v-14.9c8.1,0.5,14.6,6.8,15.3,14.9H697.1z"/>
				<g>
					<path fill="#354872" d="M696,299c-5.2,0-10.2-1.9-14.1-5.3l1.7-1.9c3.4,3,7.8,4.7,12.4,4.7c10.3,0,18.6-8.4,18.6-18.6
						c0-10-7.8-18.1-17.7-18.6l0.1-2.6c11.3,0.5,20.2,9.8,20.2,21.2C717.2,289.4,707.7,299,696,299z"/>
				</g>
				<path fill="#354872" d="M692,259.8v16.3l-11.4,11.6c-1.9-3-2.9-6.4-2.9-10C677.6,269.1,683.7,261.7,692,259.8L692,259.8z
					 M694.5,256.9c-10.9,0.8-19.5,9.8-19.5,20.9c0,5.3,2,10.2,5.3,13.9l14.2-14.5V256.9L694.5,256.9z"/>
			</g>
		</g>
	</g>
	<g>
		<circle fill="#FFFFFF" cx="858.3" cy="162.1" r="46.5"/>
		<g>
			<g>
				<path fill="#FFDF6A" d="M878.6,173.9c-1.5,0-2.8,0.8-3.4,2.1h-3.7c0.8-3.2,3.6-5.5,7-5.5c1.6,0,3.1,0.5,4.3,1.4h5.1v4.2h-2.3
					H882C881.4,174.7,880.1,173.9,878.6,173.9z"/>
				<polygon fill="#354872" points="874,162.6 882.9,162.6 880.4,153.7 874,153.7 				"/>
				<g>
					<path fill="#354872" d="M889.2,177.2h-8l-0.4-0.7c-0.4-0.8-1.3-1.4-2.2-1.4c-1,0-1.8,0.5-2.2,1.4l-0.4,0.7h-6.6v-28.4h14.1
						l5,14.7v5.8h0.7V177.2L889.2,177.2z M882.7,174.7h4v-2.9H886v-7.9l-4.3-12.5H872v23.3h2.6c0.9-1.3,2.5-2.1,4.1-2.1
						C880.2,172.6,881.7,173.4,882.7,174.7z"/>
				</g>
				<g>
					<g>
						<rect x="829.9" y="142.8" fill="#FFFFFF" width="40.9" height="28.5"/>
						<path fill="#354872" d="M872,172.6h-43.4v-31.1H872V172.6z M831.1,170h38.3v-26h-38.3V170z"/>
					</g>
					<rect x="833.7" y="146.6" fill="#FFDF6A" width="33.2" height="19.5"/>
				</g>
				<g>
					<rect x="828.6" y="170.5" fill="#FFFFFF" width="42.1" height="5.5"/>
					<path fill="#354872" d="M872,177.2h-44.6v-8.1H872V177.2z M829.9,174.7h39.5v-2.9h-39.5V174.7z"/>
				</g>
				<g>
					<path fill="#FFFFFF" d="M870.3,175.9h-4.7H870.3z"/>
					<rect x="865.6" y="174.6" fill="#354872" width="4.7" height="2.6"/>
				</g>
				<g>
					<circle fill="#FFFFFF" cx="878.6" cy="177.7" r="3.8"/>
					<path fill="#354872" d="M878.6,182.8c-2.8,0-5.1-2.3-5.1-5.1s2.3-5.1,5.1-5.1c2.8,0,5.1,2.3,5.1,5.1S881.4,182.8,878.6,182.8z
						 M878.6,175.1c-1.4,0-2.5,1.1-2.5,2.5c0,1.4,1.1,2.5,2.5,2.5c1.4,0,2.5-1.1,2.5-2.5C881.1,176.3,880,175.1,878.6,175.1z"/>
				</g>
				<g>
					<circle fill="#FFFFFF" cx="859.2" cy="177.7" r="3.8"/>
					<path fill="#354872" d="M859.2,182.8c-2.8,0-5.1-2.3-5.1-5.1s2.3-5.1,5.1-5.1s5.1,2.3,5.1,5.1S862,182.8,859.2,182.8z
						 M859.2,175.1c-1.4,0-2.5,1.1-2.5,2.5c0,1.4,1.1,2.5,2.5,2.5c1.4,0,2.5-1.1,2.5-2.5C861.8,176.3,860.6,175.1,859.2,175.1z"/>
				</g>
				<g>
					<circle fill="#FFFFFF" cx="836.6" cy="177.7" r="3.8"/>
					<path fill="#354872" d="M836.6,182.8c-2.8,0-5.1-2.3-5.1-5.1s2.3-5.1,5.1-5.1c2.8,0,5.1,2.3,5.1,5.1S839.4,182.8,836.6,182.8z
						 M836.6,175.1c-1.4,0-2.5,1.1-2.5,2.5c0,1.4,1.1,2.5,2.5,2.5c1.4,0,2.5-1.1,2.5-2.5C839.1,176.3,838,175.1,836.6,175.1z"/>
				</g>
				<g>
					<circle fill="#FFFFFF" cx="836.6" cy="177.7" r="3.8"/>
					<path fill="#354872" d="M836.6,182.8c-2.8,0-5.1-2.3-5.1-5.1s2.3-5.1,5.1-5.1c2.8,0,5.1,2.3,5.1,5.1S839.4,182.8,836.6,182.8z
						 M836.6,175.1c-1.4,0-2.5,1.1-2.5,2.5c0,1.4,1.1,2.5,2.5,2.5c1.4,0,2.5-1.1,2.5-2.5C839.1,176.3,838,175.1,836.6,175.1z"/>
				</g>
				<g>
					<path fill="#FFFFFF" d="M878.6,178.1c-0.2,0-0.4-0.2-0.4-0.4s0.2-0.4,0.4-0.4c0.2,0,0.4,0.2,0.4,0.4S878.8,178.1,878.6,178.1z"
						/>
					<path fill="#354872" d="M878.6,175.9c-1,0-1.7,0.8-1.7,1.7c0,0.9,0.8,1.7,1.7,1.7c0.9,0,1.7-0.8,1.7-1.7
						C880.3,176.7,879.5,175.9,878.6,175.9L878.6,175.9z"/>
				</g>
				<g>
					<path fill="#FFFFFF" d="M859.2,178.1c-0.2,0-0.4-0.2-0.4-0.4s0.2-0.4,0.4-0.4s0.4,0.2,0.4,0.4
						C859.7,177.9,859.5,178.1,859.2,178.1z"/>
					<path fill="#354872" d="M859.2,175.9c-1,0-1.7,0.8-1.7,1.7c0,0.9,0.8,1.7,1.7,1.7c1,0,1.7-0.8,1.7-1.7
						C861,176.7,860.2,175.9,859.2,175.9L859.2,175.9z"/>
				</g>
				<g>
					<path fill="#FFFFFF" d="M836.6,178.1c-0.2,0-0.4-0.2-0.4-0.4s0.2-0.4,0.4-0.4c0.2,0,0.4,0.2,0.4,0.4S836.8,178.1,836.6,178.1z"
						/>
					<path fill="#354872" d="M836.6,175.9c-1,0-1.7,0.8-1.7,1.7c0,0.9,0.8,1.7,1.7,1.7c1,0,1.7-0.8,1.7-1.7
						C838.3,176.7,837.5,175.9,836.6,175.9L836.6,175.9z"/>
				</g>
				<g>
					<path fill="#FFFFFF" d="M889.3,167h-4.8H889.3z"/>
					<rect x="884.5" y="165.8" fill="#354872" width="4.8" height="2.6"/>
				</g>
			</g>
			<g>
				<rect x="836.3" y="149.4" fill="#354872" width="10.3" height="2.6"/>
			</g>
		</g>
	</g>
</g>
</svg>
