<?xml version="1.0" encoding="utf-8"?>
<!-- Generator: Adobe Illustrator 16.2.0, SVG Export Plug-In . SVG Version: 6.00 Build 0)  -->
<!DOCTYPE svg PUBLIC "-//W3C//DTD SVG 1.1//EN" "http://www.w3.org/Graphics/SVG/1.1/DTD/svg11.dtd">
<svg version="1.1" id="Layer_1" xmlns="http://www.w3.org/2000/svg" xmlns:xlink="http://www.w3.org/1999/xlink" x="0px" y="0px"
	 width="275px" height="964px" viewBox="0 0 275 964" enable-background="new 0 0 275 964" xml:space="preserve">
<g>
	<g>
		
			<rect x="186.3" y="608.1" transform="matrix(0.7069 0.7073 -0.7073 0.7069 533.2115 65.5652)" fill="#FFFFFF" width="2.3" height="136.2"/>
	</g>
	<g>
		<path fill="#FFFFFF" d="M137.5,155.8c-0.6,0-1.2-0.5-1.2-1.2v-38.9c0-0.6,0.5-1.2,1.2-1.2c0.6,0,1.2,0.5,1.2,1.2v38.9
			C138.7,155.3,138.1,155.8,137.5,155.8z"/>
	</g>
	<g>
		<rect x="136.3" y="736.1" fill="#FFFFFF" width="2.3" height="136.2"/>
	</g>
	<g>
		<rect x="37.1" y="307.6" fill="#FFFFFF" width="2.3" height="285.3"/>
	</g>
	<g>
		<rect x="234" y="288.6" fill="#FFFFFF" width="2.3" height="327.1"/>
	</g>
	<g>
		
			<rect x="120" y="238.7" transform="matrix(0.7071 0.7071 -0.7071 0.7071 224.6666 -62.7686)" fill="#FFFFFF" width="136.2" height="2.3"/>
	</g>
	<g>
		
			<rect x="88.4" y="171.7" transform="matrix(0.7072 0.707 -0.707 0.7072 195.7756 6.8683)" fill="#FFFFFF" width="2.3" height="136.2"/>
	</g>
	<g>
		
			<rect x="14.7" y="675.1" transform="matrix(0.7071 0.7071 -0.7071 0.7071 502.4003 139.4988)" fill="#FFFFFF" width="136.2" height="2.3"/>
	</g>
	<g>
		<path fill="#FFFFFF" d="M148.3,376.9c-0.4,0.2-1.3,0.4-2.5,0.4c-2.6,0-4.6-1.7-4.6-4.7c0-2.9,2-4.9,4.9-4.9c1.2,0,1.9,0.3,2.2,0.4
			l-0.3,1c-0.5-0.2-1.1-0.4-1.9-0.4c-2.2,0-3.7,1.4-3.7,3.9c0,2.3,1.3,3.8,3.6,3.8c0.7,0,1.5-0.2,2-0.4L148.3,376.9z"/>
		<path fill="#FFFFFF" d="M152.1,368.9h-2.8v-1h6.9v1h-2.9v8.3h-1.2V368.9L152.1,368.9z"/>
		<path fill="#FFFFFF" d="M157.6,374.2l-1,2.9h-1.2l3.2-9.4h1.5l3.2,9.4H162l-1-2.9H157.6z M160.6,373.3l-0.9-2.7
			c-0.2-0.6-0.3-1.2-0.5-1.7l0,0c-0.1,0.6-0.3,1.1-0.5,1.7l-0.9,2.7H160.6L160.6,373.3z"/>
		<path fill="#FFFFFF" d="M165.8,367.8v3.9h4.5v-3.9h1.2v9.4h-1.2v-4.4h-4.5v4.4h-1.2v-9.4H165.8z"/>
		<path fill="#FFFFFF" d="M180,367.8v8.4h0.8l-0.1,3.2h-0.9l-0.1-2.2h-5.9l-0.1,2.2h-0.9l-0.1-3.2h0.7c0.3-0.6,0.7-1.3,0.9-2.1
			c0.3-1.1,0.4-2.3,0.4-3.9v-2.4H180z M175.9,370.6c0,1.5-0.1,2.8-0.5,3.8c-0.2,0.7-0.5,1.3-0.8,1.8h4.1v-7.4h-2.9v1.8H175.9z"/>
		<path fill="#FFFFFF" d="M183.9,374.2l-1,2.9h-1.2l3.2-9.4h1.5l3.2,9.4h-1.3l-1-2.9H183.9z M187,373.3l-0.9-2.7
			c-0.2-0.6-0.3-1.2-0.5-1.7l0,0c-0.1,0.6-0.3,1.1-0.5,1.7l-0.9,2.7H187L187,373.3z"/>
		<path fill="#FFFFFF" d="M190.9,367.9c0.6-0.1,1.3-0.2,2.3-0.2c1.2,0,2.1,0.3,2.6,0.8c0.5,0.4,0.8,1.1,0.8,2c0,0.8-0.2,1.5-0.7,2
			c-0.6,0.7-1.7,1-2.9,1c-0.4,0-0.7,0-1-0.1v3.7h-1.2L190.9,367.9L190.9,367.9z M192.1,372.5c0.3,0.1,0.6,0.1,1,0.1
			c1.5,0,2.3-0.7,2.3-2c0-1.2-0.9-1.8-2.2-1.8c-0.5,0-0.9,0-1.1,0.1V372.5z"/>
		<path fill="#FFFFFF" d="M200,368.9h-2.8v-1h6.9v1h-2.9v8.3H200V368.9L200,368.9z"/>
		<path fill="#FFFFFF" d="M206.4,367.8v3.9h4.5v-3.9h1.2v9.4h-1.2v-4.4h-4.5v4.4h-1.2v-9.4H206.4z"/>
		<path fill="#FFFFFF" d="M215.7,374.2l-1,2.9h-1.2l3.2-9.4h1.5l3.2,9.4H220l-1-2.9H215.7z M218.8,373.3l-0.9-2.7
			c-0.2-0.6-0.3-1.2-0.5-1.7l0,0c-0.1,0.6-0.3,1.1-0.5,1.7l-0.9,2.7H218.8L218.8,373.3z"/>
		<path fill="#FFFFFF" d="M221.8,377.2c0.1-0.3,0.3-0.5,0.4-0.8c0.4-1.1,0.7-2.4,1.4-3.1c0.2-0.2,0.5-0.4,0.8-0.5l0,0
			c-1.2-0.2-2.1-1-2.1-2.3c0-0.8,0.3-1.5,0.9-1.9c0.6-0.5,1.5-0.7,2.7-0.7c0.8,0,1.6,0.1,2.2,0.2v9.2h-1.2v-4.1H226
			c-0.6,0-1,0.1-1.3,0.5c-0.6,0.7-0.9,2-1.2,2.9c-0.1,0.2-0.2,0.4-0.3,0.7L221.8,377.2L221.8,377.2z M226.9,368.8
			c-0.2,0-0.6-0.1-1.1-0.1c-1.2,0-2.2,0.5-2.2,1.7c0,1.1,1,1.8,2.3,1.8c0.4,0,0.8,0,1,0V368.8L226.9,368.8z"/>
		<path fill="#FFFFFF" d="M162.4,384.5v9.4h-1.2v-8.3h-4.3v8.3h-1.2v-9.4H162.4z"/>
		<path fill="#FFFFFF" d="M164.5,384.6c0.6-0.1,1.3-0.2,2.3-0.2c1.2,0,2.1,0.3,2.6,0.8c0.5,0.4,0.8,1.1,0.8,2c0,0.8-0.2,1.5-0.7,2
			c-0.6,0.7-1.7,1-2.9,1c-0.4,0-0.7,0-1-0.1v3.7h-1.2L164.5,384.6L164.5,384.6z M165.8,389.1c0.3,0.1,0.6,0.1,1,0.1
			c1.5,0,2.3-0.7,2.3-2c0-1.2-0.9-1.8-2.2-1.8c-0.5,0-0.9,0-1.1,0.1V389.1L165.8,389.1L165.8,389.1L165.8,389.1z"/>
		<path fill="#FFFFFF" d="M179.8,389.1c0,3.2-2,4.9-4.3,4.9c-2.5,0-4.2-1.9-4.2-4.7c0-3,1.8-4.9,4.3-4.9
			C178.2,384.3,179.8,386.3,179.8,389.1z M172.5,389.2c0,2,1.1,3.8,3,3.8s3-1.8,3-3.9c0-1.9-1-3.8-3-3.8S172.5,387.2,172.5,389.2z"
			/>
		<path fill="#FFFFFF" d="M187.5,384.5v8.4h0.8l-0.1,3.2h-0.9l-0.1-2.2h-5.9l-0.1,2.2h-0.9l-0.1-3.2h0.7c0.3-0.6,0.7-1.3,0.9-2.1
			c0.3-1.1,0.4-2.3,0.4-3.9v-2.4H187.5L187.5,384.5z M183.4,387.2c0,1.5-0.1,2.8-0.5,3.8c-0.2,0.7-0.5,1.3-0.8,1.8h4.1v-7.4h-2.9
			v1.8H183.4z"/>
		<path fill="#FFFFFF" d="M190.1,384.5l1.9,4c0.2,0.6,0.5,1.1,0.7,1.6l0,0c0.2-0.5,0.3-1,0.6-1.7l1.5-3.9h1.3l-2,4.8
			c-0.5,1.2-1.1,2.7-1.8,3.6c-0.6,0.8-1.3,1.2-2.1,1.2c-0.3,0-0.5,0-0.7-0.1l0.1-1c0.1,0,0.2,0,0.4,0c1,0,1.5-0.9,1.8-1.6
			c0.1-0.2,0.1-0.3,0-0.6l-3.1-6.3H190.1L190.1,384.5L190.1,384.5z"/>
		<path fill="#FFFFFF" d="M198.2,384.5v4.1h0.4l3.2-4.1h1.5l-3.5,4.3c1.5,0.2,2.1,1.2,2.6,2.4c0.3,1,0.6,1.8,1,2.6H202
			c-0.3-0.6-0.6-1.5-0.8-2.2c-0.4-1.2-1-2.1-2.6-2.1h-0.4v4.3H197v-9.4L198.2,384.5L198.2,384.5z"/>
		<path fill="#FFFFFF" d="M205.7,384.5v8.3h4.3v-8.3h1.2v8.4h0.8l-0.1,3.2h-1l-0.1-2.2h-6.4v-9.4H205.7L205.7,384.5z"/>
		<path fill="#FFFFFF" d="M214.7,384.5v3.9c0,1.5,0,2.7-0.1,4l0,0c0.5-1,1.1-2,1.7-3.1l3-4.8h1.2v9.4h-1.1v-4c0-1.5,0-2.6,0.1-3.8
			l0,0c-0.5,1-1.1,2.1-1.7,3.1l-2.9,4.6h-1.3v-9.4L214.7,384.5L214.7,384.5L214.7,384.5L214.7,384.5z"/>
		<path fill="#FFFFFF" d="M221.8,393.8c0.1-0.3,0.3-0.5,0.4-0.8c0.4-1.1,0.7-2.4,1.4-3.1c0.2-0.2,0.5-0.4,0.8-0.5l0,0
			c-1.2-0.2-2.1-1-2.1-2.3c0-0.8,0.3-1.5,0.9-1.9c0.6-0.5,1.5-0.7,2.7-0.7c0.8,0,1.6,0.1,2.2,0.2v9.2h-1.2v-4.1H226
			c-0.6,0-1,0.1-1.3,0.5c-0.6,0.7-0.9,2-1.2,2.9c-0.1,0.2-0.2,0.4-0.3,0.7L221.8,393.8L221.8,393.8z M226.9,385.5
			c-0.2,0-0.6-0.1-1.1-0.1c-1.2,0-2.2,0.5-2.2,1.7c0,1.1,1,1.8,2.3,1.8c0.4,0,0.8,0,1,0V385.5L226.9,385.5z"/>
	</g>
	<g>
		<path fill="#FFFFFF" d="M106,438.8v9.4h-1.2v-8.3h-4.3v8.3h-1.2v-9.4H106z"/>
		<path fill="#FFFFFF" d="M108.1,438.9c0.6-0.1,1.3-0.2,2.3-0.2c1.2,0,2.1,0.3,2.6,0.8c0.5,0.4,0.8,1.1,0.8,2c0,0.8-0.2,1.5-0.7,2
			c-0.6,0.7-1.7,1-2.9,1c-0.4,0-0.7,0-1-0.1v3.7H108L108.1,438.9L108.1,438.9z M109.3,443.5c0.3,0.1,0.6,0.1,1,0.1
			c1.5,0,2.3-0.7,2.3-2c0-1.2-0.9-1.8-2.2-1.8c-0.5,0-0.9,0-1.1,0.1V443.5z"/>
		<path fill="#FFFFFF" d="M120.3,443.8h-3.6v3.4h4.1v1h-5.3v-9.4h5.1v1h-3.8v3h3.6L120.3,443.8L120.3,443.8z"/>
		<path fill="#FFFFFF" d="M129,438.8v8.4h0.8l-0.1,3.2h-0.9l-0.1-2.2h-5.9l-0.1,2.2h-0.9l-0.1-3.2h0.7c0.3-0.6,0.7-1.3,0.9-2.1
			c0.3-1.1,0.4-2.3,0.4-3.9v-2.4H129L129,438.8z M124.9,441.6c0,1.5-0.1,2.8-0.5,3.8c-0.2,0.7-0.5,1.3-0.8,1.8h4.1v-7.4h-2.9v1.8
			H124.9z"/>
		<path fill="#FFFFFF" d="M139.2,443.4c0,3.2-2,4.9-4.3,4.9c-2.5,0-4.2-1.9-4.2-4.7c0-3,1.8-4.9,4.3-4.9
			C137.6,438.7,139.2,440.6,139.2,443.4z M132,443.6c0,2,1.1,3.8,3,3.8s3-1.8,3-3.9c0-1.9-1-3.8-3-3.8S132,441.5,132,443.6z"/>
		<path fill="#FFFFFF" d="M147.5,438.8v9.4h-1.2v-8.3H142v8.3h-1.2v-9.4H147.5z"/>
		<path fill="#FFFFFF" d="M155.8,438.8v9.4h-1.2v-8.3h-3.1v2.8c0,2-0.1,4.3-1.4,5.2c-0.3,0.2-0.9,0.4-1.4,0.4l-0.2-1
			c0.4-0.1,0.8-0.3,1-0.5c0.7-0.7,0.8-2.6,0.8-4.1v-3.9H155.8L155.8,438.8z"/>
		<path fill="#FFFFFF" d="M159.4,445.2l-1,2.9h-1.2l3.2-9.4h1.5l3.2,9.4h-1.3l-1-2.9H159.4z M162.5,444.3l-0.9-2.7
			c-0.2-0.6-0.3-1.2-0.5-1.7l0,0c-0.1,0.6-0.3,1.1-0.5,1.7l-0.9,2.7H162.5L162.5,444.3z"/>
		<path fill="#FFFFFF" d="M167.6,439.9h-2.8v-1h6.9v1h-2.9v8.3h-1.2V439.9L167.6,439.9z"/>
		<path fill="#FFFFFF" d="M173.1,445.2l-1,2.9h-1.2l3.2-9.4h1.5l3.2,9.4h-1.3l-1-2.9H173.1z M176.2,444.3l-0.9-2.7
			c-0.2-0.6-0.3-1.2-0.5-1.7l0,0c-0.1,0.6-0.3,1.1-0.5,1.7l-0.9,2.7H176.2L176.2,444.3z"/>
		<path fill="#FFFFFF" d="M101.7,456.8h-3.4l-0.3,2.3c0.2,0,0.4-0.1,0.7-0.1c0.7,0,1.4,0.2,1.9,0.5c0.7,0.4,1.3,1.2,1.3,2.3
			c0,1.8-1.4,3.1-3.4,3.1c-1,0-1.8-0.3-2.2-0.6l0.3-0.9c0.4,0.2,1.1,0.5,1.9,0.5c1.2,0,2.1-0.7,2.1-2c0-1.2-0.8-2-2.6-2
			c-0.5,0-0.9,0.1-1.2,0.1l0.6-4.3h4.3V456.8L101.7,456.8L101.7,456.8z"/>
		<path fill="#FFFFFF" d="M109.4,460.2c0,3.1-1.1,4.8-3.1,4.8c-1.8,0-3-1.7-3-4.6c0-3,1.3-4.7,3.1-4.7
			C108.3,455.7,109.4,457.4,109.4,460.2z M104.5,460.4c0,2.3,0.7,3.7,1.8,3.7c1.2,0,1.8-1.5,1.8-3.8c0-2.2-0.6-3.7-1.8-3.7
			C105.3,456.6,104.5,457.9,104.5,460.4z"/>
		<path fill="#FFFFFF" d="M114.6,458.4c0,1.9-1,2.8-2.2,2.8c-1.1,0-2.1-0.9-2.1-2.7c0-1.8,1-2.8,2.2-2.8S114.6,456.6,114.6,458.4z
			 M111.3,458.4c0,1.2,0.4,2,1.2,2s1.2-0.9,1.2-2.1c0-1.1-0.3-2-1.2-2C111.7,456.4,111.3,457.3,111.3,458.4z M112.3,465l5.3-9.3h0.8
			l-5.3,9.3H112.3z M120.4,462.1c0,1.9-1,2.8-2.2,2.8c-1.1,0-2.1-0.9-2.1-2.7s1-2.8,2.2-2.8C119.6,459.4,120.4,460.4,120.4,462.1z
			 M117.1,462.2c0,1.2,0.4,2,1.2,2c0.8,0,1.2-0.9,1.2-2.1c0-1.1-0.3-2-1.2-2C117.6,460.1,117.1,461,117.1,462.2z"/>
		<path fill="#FFFFFF" d="M126,458.1v2.8c0,1.1,0,1.7-0.1,2.7l0,0c0.4-0.8,0.6-1.3,1.1-2.1l2.1-3.5h1.4v6.7h-1.2V462
			c0-1.1,0-1.7,0.1-2.7l0,0c-0.4,0.9-0.7,1.4-1.1,2.1c-0.6,1-1.4,2.3-2.1,3.5h-1.4v-6.7L126,458.1L126,458.1z"/>
		<path fill="#FFFFFF" d="M137.6,458.1v6.7h-1.2V459h-2.3v1.7c0,1.9-0.2,3.1-1.1,3.7c-0.3,0.3-0.7,0.4-1.3,0.4l-0.1-1
			c0.2,0,0.5-0.1,0.7-0.3c0.6-0.5,0.7-1.4,0.7-2.9v-2.7L137.6,458.1L137.6,458.1z"/>
		<path fill="#FFFFFF" d="M140.7,458.1v2.8c0,1.1,0,1.7-0.1,2.7l0,0c0.4-0.8,0.6-1.3,1.1-2.1l2.1-3.5h1.4v6.7H144V462
			c0-1.1,0-1.7,0.1-2.7l0,0c-0.4,0.9-0.7,1.4-1.1,2.1c-0.6,1-1.4,2.3-2.1,3.5h-1.4v-6.7L140.7,458.1L140.7,458.1z"/>
		<path fill="#FFFFFF" d="M152.5,457L152.5,457l-1.6,0.8l-0.2-0.9l2-1.1h1v9h-1.2V457L152.5,457z"/>
		<path fill="#FFFFFF" d="M163,460.2c0,3.1-1.1,4.8-3.1,4.8c-1.8,0-3-1.7-3-4.6c0-3,1.3-4.7,3.1-4.7
			C161.9,455.7,163,457.4,163,460.2z M158.1,460.4c0,2.3,0.7,3.7,1.8,3.7c1.2,0,1.8-1.5,1.8-3.8c0-2.2-0.6-3.7-1.8-3.7
			C158.8,456.6,158.1,457.9,158.1,460.4z"/>
		<path fill="#FFFFFF" d="M170.1,460.2c0,3.1-1.1,4.8-3.1,4.8c-1.8,0-3-1.7-3-4.6c0-3,1.3-4.7,3.1-4.7
			C169,455.7,170.1,457.4,170.1,460.2z M165.2,460.4c0,2.3,0.7,3.7,1.8,3.7c1.2,0,1.8-1.5,1.8-3.8c0-2.2-0.6-3.7-1.8-3.7
			C166,456.6,165.2,457.9,165.2,460.4z"/>
		<path fill="#FFFFFF" d="M175.3,458.4c0,1.9-1,2.8-2.2,2.8c-1.1,0-2.1-0.9-2.1-2.7c0-1.8,1-2.8,2.2-2.8S175.3,456.6,175.3,458.4z
			 M172,458.4c0,1.2,0.4,2,1.2,2s1.2-0.9,1.2-2.1c0-1.1-0.3-2-1.2-2C172.4,456.4,172,457.3,172,458.4z M173,465l5.3-9.3h0.8
			l-5.3,9.3H173z M181.1,462.1c0,1.9-1,2.8-2.1,2.8s-2.1-0.9-2.1-2.7s1-2.8,2.2-2.8C180.3,459.4,181.1,460.4,181.1,462.1z
			 M177.8,462.2c0,1.2,0.4,2,1.2,2s1.2-0.9,1.2-2.1c0-1.1-0.3-2-1.2-2C178.2,460.1,177.8,461,177.8,462.2z"/>
	</g>
	<g>
		<path fill="#FFFFFF" d="M47.4,515.2v3.9c0,1.5,0,2.7-0.1,4l0,0c0.5-1,1.1-2,1.7-3.1l3-4.8h1.2v9.4h-1.1v-4c0-1.5,0-2.6,0.1-3.8
			l0,0c-0.5,1-1.1,2.1-1.7,3.1l-2.9,4.6h-1.3v-9.4L47.4,515.2L47.4,515.2z"/>
		<path fill="#FFFFFF" d="M55.1,515.7c0.6-0.4,1.5-0.7,2.5-0.7c1.6,0,2.7,0.8,2.7,2.3c0,1.2-0.8,2-1.9,2.3l0,0
			c1.3,0.1,2.3,1,2.3,2.3c0,1.9-1.7,2.7-3.4,2.7c-0.8,0-1.7-0.2-2.4-0.6l0.3-0.9c0.5,0.3,1.3,0.6,2.1,0.6c1.4,0,2.1-0.8,2.1-1.8
			c0-1.4-1.3-1.8-2.5-1.8h-0.6v-0.9h0.6c1.2,0,2.2-0.8,2.2-1.7c0-0.9-0.7-1.5-1.7-1.5c-0.7,0-1.4,0.3-1.9,0.6L55.1,515.7z"/>
		<path fill="#FFFFFF" d="M67.2,515.2v1h-3.8v8.3h-1.2v-9.4L67.2,515.2L67.2,515.2z"/>
		<path fill="#FFFFFF" d="M75.8,519.7c0,3.2-2,4.9-4.3,4.9c-2.5,0-4.2-1.9-4.2-4.7c0-3,1.8-4.9,4.3-4.9S75.8,517,75.8,519.7z
			 M68.5,519.9c0,2,1.1,3.8,3,3.8s3-1.8,3-3.9c0-1.9-1-3.8-3-3.8S68.5,517.8,68.5,519.9z"/>
		<path fill="#FFFFFF" d="M79,516.2h-2.8v-1h6.9v1h-2.9v8.3H79V516.2L79,516.2z"/>
		<path fill="#FFFFFF" d="M91.6,519.7c0,3.2-2,4.9-4.3,4.9c-2.5,0-4.2-1.9-4.2-4.7c0-3,1.8-4.9,4.3-4.9C90,515,91.6,517,91.6,519.7z
			 M84.4,519.9c0,2,1.1,3.8,3,3.8s3-1.8,3-3.9c0-1.9-1-3.8-3-3.8S84.4,517.8,84.4,519.9z"/>
		<path fill="#FFFFFF" d="M93.2,515.3c0.5-0.1,1.4-0.2,2.2-0.2c1.2,0,2,0.2,2.6,0.7c0.5,0.4,0.8,0.9,0.8,1.7c0,0.9-0.6,1.7-1.6,2.1
			l0,0c0.9,0.2,1.9,1,1.9,2.3c0,0.8-0.3,1.4-0.8,1.9c-0.7,0.6-1.7,0.9-3.2,0.9c-0.8,0-1.5-0.1-1.9-0.1V515.3L93.2,515.3z
			 M94.4,519.1h1.1c1.3,0,2-0.7,2-1.6c0-1.1-0.8-1.5-2.1-1.5c-0.6,0-0.9,0-1.1,0.1v3H94.4z M94.4,523.6c0.2,0,0.6,0.1,1,0.1
			c1.2,0,2.4-0.5,2.4-1.8s-1.1-1.8-2.4-1.8h-1V523.6L94.4,523.6z"/>
		<path fill="#FFFFFF" d="M106.9,515.2v9.4h-1.2v-8.3h-3.1v2.8c0,2-0.1,4.3-1.4,5.2c-0.3,0.2-0.9,0.4-1.4,0.4l-0.2-1
			c0.4-0.1,0.8-0.3,1-0.5c0.7-0.7,0.8-2.6,0.8-4.1v-3.9H106.9L106.9,515.2z"/>
		<path fill="#FFFFFF" d="M113.8,520.1h-3.6v3.4h4.1v1H109v-9.4h5.1v1h-3.8v3h3.6v1H113.8z"/>
		<path fill="#FFFFFF" d="M117,515.2v3.9h4.5v-3.9h1.2v9.4h-1.2v-4.4H117v4.4h-1.2v-9.4H117z"/>
		<path fill="#FFFFFF" d="M126,515.2v3.9c0,1.5,0,2.7-0.1,4l0,0c0.5-1,1.1-2,1.7-3.1l3-4.8h1.2v9.4h-1.1v-4c0-1.5,0-2.6,0.1-3.8l0,0
			c-0.5,1-1.1,2.1-1.7,3.2l-2.9,4.6h-1.3v-9.4H126L126,515.2z"/>
		<path fill="#FFFFFF" d="M138.8,520.1h-3.6v3.4h4.1v1H134v-9.4h5.1v1h-3.8v3h3.6v1H138.8z"/>
		<path fill="#FFFFFF" d="M52.3,537.7c0,2.5-1.7,3.6-3.3,3.6c-1.8,0-3.2-1.3-3.2-3.5c0-2.2,1.5-3.6,3.3-3.6
			C51,534.3,52.3,535.7,52.3,537.7z M47,537.8c0,1.5,0.8,2.6,2,2.6s2-1.1,2-2.6c0-1.1-0.6-2.6-2-2.6S47,536.5,47,537.8z"/>
		<path fill="#FFFFFF" d="M58.3,534.4v1h-2.1v5.7H55v-5.7h-2.1v-1H58.3z"/>
		<path fill="#FFFFFF" d="M62.3,539.8c0.3,0.2,1.2,0.6,2,0.6c1.6,0,2.1-1,2-1.7c0-1.3-1.2-1.8-2.3-1.8h-0.7V536H64
			c0.9,0,2-0.5,2-1.5c0-0.7-0.5-1.4-1.6-1.4c-0.7,0-1.4,0.3-1.8,0.6l-0.3-0.9c0.5-0.3,1.4-0.7,2.4-0.7c1.8,0,2.6,1.1,2.6,2.2
			c0,0.9-0.6,1.7-1.7,2.1l0,0c1.1,0.2,2,1.1,2,2.3c0,1.4-1.1,2.7-3.3,2.7c-1,0-1.9-0.3-2.3-0.6L62.3,539.8z"/>
		<path fill="#FFFFFF" d="M72.3,536.9v0.9h-3.4v-0.9H72.3z"/>
		<path fill="#FFFFFF" d="M74.3,534.4l1,1.4c0.3,0.4,0.5,0.7,0.7,1.1l0,0c0.2-0.4,0.4-0.7,0.7-1.1l0.9-1.4H79l-2.3,3.2l2.4,3.5h-1.4
			l-1-1.5c-0.3-0.4-0.5-0.8-0.7-1.2l0,0c-0.2,0.4-0.5,0.8-0.7,1.2l-1,1.5H73l2.4-3.4l-2.3-3.3H74.3L74.3,534.4z"/>
		<path fill="#FFFFFF" d="M89.6,531.8v8.4h0.8l-0.1,3.2h-0.9l-0.1-2.2h-5.9l-0.1,2.2h-0.9l-0.1-3.2H83c0.3-0.6,0.7-1.3,0.9-2.1
			c0.3-1.1,0.4-2.3,0.4-3.9v-2.4H89.6L89.6,531.8z M85.5,534.6c0,1.5-0.1,2.8-0.5,3.8c-0.2,0.7-0.5,1.3-0.8,1.8h4.1v-7.4h-2.9
			L85.5,534.6L85.5,534.6z"/>
		<path fill="#FFFFFF" d="M93.1,531.8v3.9h4.5v-3.9h1.2v9.4h-1.2v-4.4h-4.5v4.4h-1.2v-9.4H93.1z"/>
		<path fill="#FFFFFF" d="M105.8,536.8h-3.6v3.4h4.1v1H101v-9.4h5v1h-3.8v3h3.6V536.8z"/>
		<path fill="#FFFFFF" d="M108.9,531.8v3.9c0,1.5,0,2.7-0.1,4l0,0c0.5-1,1.1-2,1.7-3.1l3-4.8h1.2v9.4h-1.1v-4c0-1.5,0-2.6,0.1-3.8
			l0,0c-0.5,1-1.1,2.1-1.7,3.1l-2.9,4.6h-1.3v-9.4L108.9,531.8L108.9,531.8z M110.5,529.8c0.1,0.4,0.2,0.9,0.8,0.9
			c0.6,0,0.8-0.4,0.8-0.9h0.9c-0.1,0.9-0.6,1.5-1.8,1.5c-1.1,0-1.7-0.6-1.7-1.5H110.5z"/>
	</g>
	<g>
		<path fill="#FFFFFF" d="M64.2,771.7v8.4H65l-0.1,3.2H64l-0.1-2.2H58l-0.1,2.2H57l-0.1-3.2h0.7c0.3-0.6,0.7-1.3,0.9-2.1
			c0.3-1.1,0.4-2.3,0.4-3.9v-2.4H64.2L64.2,771.7z M60.1,774.4c0,1.5-0.1,2.8-0.5,3.8c-0.2,0.7-0.5,1.3-0.8,1.8H63v-7.4h-2.9V774.4
			L60.1,774.4z"/>
		<path fill="#FFFFFF" d="M74.4,776.2c0,3.2-2,4.9-4.3,4.9c-2.5,0-4.2-1.9-4.2-4.7c0-3,1.8-4.9,4.3-4.9S74.4,773.5,74.4,776.2z
			 M67.1,776.4c0,2,1.1,3.8,3,3.8s3-1.8,3-3.9c0-1.9-1-3.8-3-3.8S67.1,774.3,67.1,776.4z"/>
		<path fill="#FFFFFF" d="M82.5,780.7c-0.4,0.2-1.3,0.4-2.5,0.4c-2.6,0-4.6-1.7-4.6-4.7c0-2.9,2-4.9,4.9-4.9c1.2,0,1.9,0.3,2.2,0.4
			l-0.3,1c-0.5-0.2-1.1-0.4-1.9-0.4c-2.2,0-3.6,1.4-3.6,3.9c0,2.3,1.3,3.8,3.6,3.8c0.7,0,1.5-0.2,2-0.4L82.5,780.7z"/>
		<path fill="#FFFFFF" d="M86.3,772.7h-2.8v-1h6.9v1h-2.9v8.3h-1.2V772.7z"/>
		<path fill="#FFFFFF" d="M91.8,778.1l-1,2.9h-1.3l3.2-9.4h1.5l3.2,9.4h-1.3l-1-2.9H91.8L91.8,778.1z M94.8,777.1l-0.9-2.7
			c-0.2-0.6-0.3-1.2-0.5-1.7l0,0c-0.1,0.6-0.3,1.1-0.5,1.7l-0.9,2.7H94.8z"/>
		<path fill="#FFFFFF" d="M98.8,771.8c0.5-0.1,1.4-0.2,2.2-0.2c1.2,0,2,0.2,2.6,0.7c0.5,0.4,0.8,0.9,0.8,1.7c0,0.9-0.6,1.7-1.6,2.1
			l0,0c0.9,0.2,1.9,1,1.9,2.3c0,0.8-0.3,1.4-0.8,1.9c-0.7,0.6-1.7,0.9-3.2,0.9c-0.8,0-1.5-0.1-1.9-0.1V771.8z M100,775.6h1.1
			c1.3,0,2-0.7,2-1.6c0-1.1-0.8-1.5-2.1-1.5c-0.6,0-0.9,0-1.1,0.1L100,775.6L100,775.6z M100,780.1c0.2,0,0.6,0.1,1,0.1
			c1.2,0,2.4-0.5,2.4-1.8s-1.1-1.8-2.4-1.8h-1V780.1L100,780.1z"/>
		<path fill="#FFFFFF" d="M107.5,771.7v4.1h0.4l3.2-4.1h1.5l-3.5,4.3c1.5,0.2,2.1,1.2,2.6,2.4c0.3,1,0.6,1.8,1,2.6h-1.3
			c-0.3-0.6-0.6-1.5-0.8-2.2c-0.4-1.2-1-2.1-2.6-2.1h-0.4v4.3h-1.2v-9.4L107.5,771.7L107.5,771.7z"/>
		<path fill="#FFFFFF" d="M115.4,778.1l-1,2.9h-1.2l3.2-9.4h1.5l3.2,9.4h-1.3l-1-2.9H115.4L115.4,778.1z M118.4,777.1l-0.9-2.7
			c-0.2-0.6-0.3-1.2-0.5-1.7l0,0c-0.1,0.6-0.3,1.1-0.5,1.7l-0.9,2.7H118.4z"/>
		<path fill="#FFFFFF" d="M53,788.3v9.4h-1.2v-8.3h-4.3v8.3h-1.2v-9.4H53z"/>
		<path fill="#FFFFFF" d="M55.1,788.4c0.6-0.1,1.3-0.2,2.3-0.2c1.2,0,2.1,0.3,2.6,0.8c0.5,0.4,0.8,1.1,0.8,2c0,0.8-0.3,1.5-0.7,2
			c-0.6,0.7-1.7,1-2.9,1c-0.4,0-0.7,0-1-0.1v3.7H55L55.1,788.4L55.1,788.4z M56.3,792.9c0.3,0.1,0.6,0.1,1,0.1c1.5,0,2.3-0.7,2.3-2
			c0-1.2-0.9-1.8-2.2-1.8c-0.5,0-0.9,0-1.1,0.1V792.9L56.3,792.9z"/>
		<path fill="#FFFFFF" d="M70.3,792.9c0,3.2-2,4.9-4.3,4.9c-2.5,0-4.2-1.9-4.2-4.7c0-3,1.8-4.9,4.3-4.9
			C68.7,788.2,70.3,790.1,70.3,792.9z M63.1,793c0,2,1.1,3.8,3,3.8s3-1.8,3-3.9c0-1.9-1-3.8-3-3.8S63.1,791,63.1,793z"/>
		<path fill="#FFFFFF" d="M78,788.3v8.4h0.8l-0.1,3.2h-0.9l-0.1-2.2h-5.9l-0.1,2.2h-0.9l-0.1-3.2h0.7c0.3-0.6,0.7-1.3,0.9-2.1
			c0.3-1.1,0.4-2.3,0.4-3.9v-2.4H78L78,788.3z M73.9,791.1c0,1.5-0.1,2.8-0.5,3.8c-0.2,0.7-0.5,1.3-0.8,1.8h4.1v-7.4h-2.9
			L73.9,791.1L73.9,791.1z"/>
		<path fill="#FFFFFF" d="M80.6,788.3l1.9,4c0.2,0.6,0.5,1.1,0.7,1.6l0,0c0.2-0.5,0.3-1,0.6-1.7l1.5-3.9h1.3l-2,4.8
			c-0.5,1.2-1.1,2.7-1.7,3.6c-0.6,0.8-1.3,1.2-2.1,1.2c-0.3,0-0.5,0-0.7-0.1l0.1-1c0.1,0,0.2,0,0.4,0c1,0,1.5-0.9,1.8-1.6
			c0.1-0.2,0.1-0.3,0-0.6l-3.1-6.3H80.6L80.6,788.3z"/>
		<path fill="#FFFFFF" d="M88.7,788.3v4.1h0.4l3.2-4.1h1.5l-3.5,4.3c1.5,0.2,2.1,1.1,2.6,2.4c0.3,1,0.6,1.8,1,2.6h-1.3
			c-0.3-0.6-0.6-1.5-0.8-2.2c-0.4-1.2-1-2.1-2.6-2.1h-0.4v4.3h-1.2v-9.4L88.7,788.3L88.7,788.3z"/>
		<path fill="#FFFFFF" d="M96.3,788.3v8.3h4.3v-8.3h1.2v8.4h0.8l-0.1,3.2h-1l-0.1-2.2H95v-9.4H96.3L96.3,788.3z"/>
		<path fill="#FFFFFF" d="M105.2,788.3v3.9c0,1.5,0,2.7-0.1,4l0,0c0.5-1,1.1-2,1.7-3.1l3-4.8h1.2v9.4h-1v-4c0-1.5,0-2.6,0.1-3.8l0,0
			c-0.5,1-1.1,2.1-1.7,3.1l-2.9,4.6h-1.3v-9.4L105.2,788.3L105.2,788.3z"/>
		<path fill="#FFFFFF" d="M114.4,788.3v3.9c0,1.5,0,2.7-0.1,4l0,0c0.5-1,1.1-2,1.7-3.1l3-4.8h1.2v9.4h-1.1v-4c0-1.5,0-2.6,0.1-3.8
			l0,0c-0.5,1-1.1,2.1-1.7,3.1l-2.9,4.6h-1.3v-9.4L114.4,788.3L114.4,788.3z"/>
		<path fill="#FFFFFF" d="M37.6,805v3.9h4.5V805h1.2v9.4h-1.2V810h-4.5v4.4h-1.2V805H37.6L37.6,805z"/>
		<path fill="#FFFFFF" d="M53.4,809.5c0,3.2-2,4.9-4.3,4.9c-2.5,0-4.2-1.9-4.2-4.7c0-3,1.8-4.9,4.3-4.9
			C51.8,804.8,53.4,806.8,53.4,809.5z M46.2,809.7c0,2,1.1,3.8,3,3.8c1.9,0,3-1.8,3-3.9c0-1.9-1-3.8-3-3.8S46.2,807.6,46.2,809.7z"
			/>
		<path fill="#FFFFFF" d="M55,805.1c0.5-0.1,1.4-0.2,2.2-0.2c1.2,0,2,0.2,2.6,0.7c0.5,0.4,0.8,0.9,0.8,1.7c0,0.9-0.6,1.7-1.6,2.1
			l0,0c0.9,0.2,1.9,1,1.9,2.3c0,0.8-0.3,1.4-0.8,1.9c-0.7,0.6-1.7,0.9-3.2,0.9c-0.8,0-1.5-0.1-1.9-0.1V805.1L55,805.1z M56.2,808.9
			h1.1c1.3,0,2-0.7,2-1.6c0-1.1-0.8-1.5-2.1-1.5c-0.6,0-0.9,0-1.1,0.1L56.2,808.9L56.2,808.9z M56.2,813.4c0.2,0,0.6,0.1,1,0.1
			c1.2,0,2.4-0.5,2.4-1.8s-1.1-1.8-2.4-1.8h-1V813.4L56.2,813.4z"/>
		<path fill="#FFFFFF" d="M64,811.4l-1,2.9h-1.3L65,805h1.5l3.2,9.4h-1.3l-1-2.9L64,811.4L64,811.4z M67.1,810.4l-0.9-2.7
			c-0.2-0.6-0.3-1.2-0.5-1.7l0,0c-0.1,0.6-0.3,1.1-0.5,1.7l-0.9,2.7H67.1L67.1,810.4z"/>
		<path fill="#FFFFFF" d="M70.2,814.3c0.1-0.2,0.3-0.5,0.4-0.8c0.4-1.1,0.7-2.4,1.4-3.1c0.2-0.2,0.5-0.4,0.8-0.5l0,0
			c-1.2-0.2-2.1-1-2.1-2.3c0-0.8,0.3-1.5,0.9-1.9c0.6-0.5,1.5-0.7,2.7-0.7c0.8,0,1.6,0.1,2.2,0.2v9.2h-1.2v-4.1h-0.9
			c-0.6,0-1,0.1-1.3,0.5c-0.6,0.7-0.9,2-1.2,2.9c-0.1,0.2-0.2,0.4-0.3,0.7L70.2,814.3L70.2,814.3L70.2,814.3z M75.2,805.9
			c-0.2,0-0.6-0.1-1.1-0.1c-1.2,0-2.2,0.5-2.2,1.7c0,1.1,1,1.8,2.3,1.8c0.4,0,0.8,0,1,0V805.9L75.2,805.9z"/>
		<path fill="#FFFFFF" d="M88.2,805v9.4H87V806h-4.3v8.3h-1.2V805H88.2L88.2,805z"/>
		<path fill="#FFFFFF" d="M98.3,809.5c0,3.2-2,4.9-4.3,4.9c-2.5,0-4.2-1.9-4.2-4.7c0-3,1.8-4.9,4.3-4.9
			C96.7,804.8,98.3,806.8,98.3,809.5z M91.1,809.7c0,2,1.1,3.8,3,3.8s3-1.8,3-3.9c0-1.9-1-3.8-3-3.8S91.1,807.6,91.1,809.7z"/>
		<path fill="#FFFFFF" d="M100.9,805v3c0,1.3,0.7,2,2,2c0.7,0,1.4-0.2,1.8-0.5V805h1.2v9.4h-1.2v-4l0,0c-0.7,0.4-1.4,0.6-2.2,0.6
			c-1.2,0-2.8-0.5-2.8-2.8V805H100.9L100.9,805z"/>
		<path fill="#FFFFFF" d="M109.9,806H107v-1h6.9v1H111v8.3h-1.2L109.9,806L109.9,806z"/>
		<path fill="#FFFFFF" d="M115.4,811.4l-1,2.9h-1.2l3.2-9.4h1.5l3.2,9.4h-1.3l-1-2.9H115.4L115.4,811.4z M118.4,810.4l-0.9-2.7
			c-0.2-0.6-0.3-1.2-0.5-1.7l0,0c-0.1,0.6-0.3,1.1-0.5,1.7l-0.9,2.7H118.4L118.4,810.4z"/>
		<path fill="#FFFFFF" d="M45.3,824.2v2.8c0,1.1,0,1.7-0.1,2.7l0,0c0.4-0.8,0.6-1.3,1.1-2.1l2.1-3.5h1.4v6.7h-1.2V828
			c0-1.1,0-1.7,0.1-2.7l0,0c-0.4,0.9-0.7,1.4-1.1,2.1c-0.6,1-1.4,2.3-2.1,3.5h-1.4v-6.7H45.3L45.3,824.2z"/>
		<path fill="#FFFFFF" d="M57,824.2v6.7h-1.2v-5.8h-2.3v1.7c0,1.9-0.2,3.1-1.1,3.7c-0.3,0.3-0.7,0.4-1.3,0.4l-0.1-1
			c0.2,0,0.5-0.1,0.7-0.3c0.6-0.5,0.7-1.4,0.7-2.9V824L57,824.2L57,824.2z"/>
		<path fill="#FFFFFF" d="M60.1,824.2v2.8c0,1.1,0,1.7-0.1,2.7l0,0c0.4-0.8,0.6-1.3,1.1-2.1l2.1-3.5h1.4v6.7h-1.2V828
			c0-1.1,0-1.7,0.1-2.7l0,0c-0.4,0.9-0.7,1.4-1.1,2.1c-0.6,1-1.4,2.3-2.1,3.5h-1.4v-6.7H60.1L60.1,824.2z"/>
		<path fill="#FFFFFF" d="M70.8,821.6v3.9c0,1.5,0,2.7-0.1,4l0,0c0.5-1,1.1-2,1.7-3.1l3-4.8h1.2v9.4h-1.1v-4c0-1.5,0-2.6,0.1-3.8
			l0,0c-0.5,1-1.1,2.1-1.7,3.1l-2.9,4.6h-1.3v-9.4L70.8,821.6L70.8,821.6z"/>
		<path fill="#FFFFFF" d="M80,821.6v3.9h4.5v-3.9h1.2v9.4h-1.2v-4.4H80v4.4h-1.2v-9.4H80z"/>
		<path fill="#FFFFFF" d="M89.6,822.6h-2.8v-1h6.9v1h-2.9v8.3h-1.2V822.6L89.6,822.6z"/>
		<path fill="#FFFFFF" d="M95.1,828l-1,2.9h-1.2l3.2-9.4h1.5l3.2,9.4h-1.3l-1-2.9H95.1z M98.2,827.1l-0.9-2.7
			c-0.2-0.6-0.3-1.2-0.5-1.7l0,0c-0.1,0.6-0.3,1.1-0.5,1.7l-0.9,2.7H98.2L98.2,827.1z"/>
		<path fill="#FFFFFF" d="M103.2,821.6v3.9c0,1.5,0,2.7-0.1,4l0,0c0.5-1,1.1-2,1.7-3.1l3-4.8h1.2v9.4h-1.1v-4c0-1.5,0-2.6,0.1-3.8
			l0,0c-0.5,1-1.1,2.1-1.7,3.1l-2.9,4.6h-1.3v-9.4L103.2,821.6L103.2,821.6z M104.7,819.7c0.1,0.4,0.2,0.9,0.8,0.9s0.8-0.4,0.8-0.9
			h0.9c-0.1,0.9-0.6,1.5-1.8,1.5c-1.1,0-1.7-0.6-1.7-1.5H104.7z"/>
		<path fill="#FFFFFF" d="M119.1,826.9c-0.1-1.3-0.2-2.9-0.1-4l0,0c-0.3,1.1-0.7,2.3-1.2,3.6l-1.7,4.5h-0.9l-1.5-4.5
			c-0.4-1.3-0.8-2.5-1.1-3.6l0,0c0,1.2-0.1,2.7-0.2,4.1l-0.3,4h-1.2l0.7-9.4h1.5l1.6,4.5c0.4,1.2,0.7,2.2,0.9,3.1l0,0
			c0.2-0.9,0.6-2,1-3.1l1.7-4.5h1.5l0.6,9.4h-1.2L119.1,826.9z"/>
	</g>
	<g>
		<path fill="#FFFFFF" d="M163.4,771.7v9.4h-1.2v-8.3h-4.3v8.3h-1.2v-9.4H163.4z"/>
		<path fill="#FFFFFF" d="M173.5,776.2c0,3.2-2,4.9-4.3,4.9c-2.5,0-4.2-1.9-4.2-4.7c0-3,1.8-4.9,4.3-4.9
			C171.9,771.5,173.5,773.5,173.5,776.2z M166.2,776.4c0,2,1.1,3.8,3,3.8c1.9,0,3-1.8,3-3.9c0-1.9-1-3.8-3-3.8
			S166.2,774.3,166.2,776.4z"/>
		<path fill="#FFFFFF" d="M183.1,781l-1.2-2.1c-0.5-0.8-0.8-1.3-1.1-1.8l0,0c-0.3,0.5-0.5,1-1,1.9l-1.1,2.1h-1.4l2.9-4.7l-2.7-4.6
			h1.4l1.2,2.2c0.3,0.6,0.6,1.1,0.9,1.6l0,0c0.3-0.6,0.5-1,0.8-1.6l1.3-2.2h1.4l-2.8,4.6l2.9,4.8L183.1,781L183.1,781z"/>
		<path fill="#FFFFFF" d="M187.4,778.1l-1,2.9h-1.2l3.2-9.4h1.5l3.2,9.4h-1.3l-1-2.9H187.4z M190.4,777.1l-0.9-2.7
			c-0.2-0.6-0.3-1.2-0.5-1.7l0,0c-0.1,0.6-0.3,1.1-0.5,1.7l-0.9,2.7H190.4z"/>
		<path fill="#FFFFFF" d="M194.4,771.8c0.6-0.1,1.3-0.2,2.3-0.2c1.2,0,2.1,0.3,2.6,0.8c0.5,0.4,0.8,1.1,0.8,2c0,0.8-0.3,1.5-0.7,2
			c-0.6,0.7-1.7,1-2.9,1c-0.4,0-0.7,0-1-0.1v3.7h-1.2L194.4,771.8L194.4,771.8z M195.6,776.3c0.3,0.1,0.6,0.1,1,0.1
			c1.5,0,2.3-0.7,2.3-2c0-1.2-0.9-1.8-2.2-1.8c-0.5,0-0.9,0-1.1,0.1V776.3L195.6,776.3z"/>
		<path fill="#FFFFFF" d="M202.9,771.7v3.5c0.3,0,0.8-0.1,1.2-0.1c1.9,0,3.6,0.8,3.6,2.9c0,0.9-0.3,1.5-0.7,2
			c-0.8,0.8-2.1,1.1-3.4,1.1c-0.8,0-1.5-0.1-1.9-0.1v-9.3H202.9L202.9,771.7z M202.9,780.1c0.3,0.1,0.6,0.1,1,0.1
			c1.3,0,2.5-0.7,2.5-2.1c0-1.5-1.2-2-2.5-2c-0.3,0-0.7,0-1,0.1V780.1L202.9,780.1z"/>
		<path fill="#FFFFFF" d="M210.4,771.7v4.1h0.4l3.2-4.1h1.5L212,776c1.5,0.2,2.1,1.2,2.6,2.4c0.3,1,0.6,1.8,1,2.6h-1.3
			c-0.3-0.6-0.6-1.5-0.8-2.2c-0.4-1.2-1-2.1-2.6-2.1h-0.4v4.3h-1.2v-9.4L210.4,771.7L210.4,771.7z"/>
		<path fill="#FFFFFF" d="M224.5,776.2c0,3.2-2,4.9-4.3,4.9c-2.5,0-4.2-1.9-4.2-4.7c0-3,1.8-4.9,4.3-4.9
			C222.9,771.5,224.5,773.5,224.5,776.2z M217.2,776.4c0,2,1.1,3.8,3,3.8c1.9,0,3-1.8,3-3.9c0-1.9-1-3.8-3-3.8
			S217.2,774.3,217.2,776.4z"/>
		<path fill="#FFFFFF" d="M226.1,771.8c0.5-0.1,1.4-0.2,2.2-0.2c1.2,0,2,0.2,2.6,0.7c0.5,0.4,0.8,0.9,0.8,1.6c0,0.9-0.6,1.7-1.6,2.1
			l0,0c0.9,0.2,1.9,1,1.9,2.3c0,0.8-0.3,1.4-0.8,1.9c-0.7,0.6-1.7,0.9-3.2,0.9c-0.8,0-1.5-0.1-1.9-0.1V771.8L226.1,771.8z
			 M227.3,775.6h1.1c1.3,0,2-0.7,2-1.6c0-1.1-0.8-1.5-2.1-1.5c-0.6,0-0.9,0-1.1,0.1L227.3,775.6L227.3,775.6z M227.3,780.1
			c0.2,0,0.6,0.1,1,0.1c1.2,0,2.4-0.5,2.4-1.8s-1.1-1.8-2.4-1.8h-1V780.1z"/>
		<path fill="#FFFFFF" d="M233.7,771.7l1.9,4c0.2,0.6,0.5,1.1,0.7,1.7l0,0c0.2-0.5,0.3-1,0.6-1.7l1.5-3.9h1.3l-2,4.8
			c-0.5,1.2-1.1,2.7-1.7,3.6c-0.6,0.8-1.3,1.2-2.1,1.2c-0.3,0-0.5,0-0.7-0.1l0.1-1c0.1,0,0.2,0,0.4,0c1,0,1.5-0.9,1.8-1.6
			c0.1-0.2,0.1-0.3,0-0.6l-3.1-6.3L233.7,771.7L233.7,771.7z"/>
		<path fill="#FFFFFF" d="M157.7,790.9v2.8c0,1.1,0,1.7-0.1,2.7l0,0c0.4-0.8,0.6-1.3,1.1-2.1l2.1-3.5h1.4v6.7H161v-2.8
			c0-1.1,0-1.7,0.1-2.7l0,0c-0.4,0.9-0.7,1.4-1.1,2.1c-0.6,1-1.4,2.3-2.1,3.5h-1.4v-6.7H157.7L157.7,790.9L157.7,790.9L157.7,790.9z
			"/>
		<path fill="#FFFFFF" d="M175.3,792.9c0,3.2-2,4.9-4.3,4.9c-2.5,0-4.2-1.9-4.2-4.7c0-3,1.8-4.9,4.3-4.9S175.3,790.1,175.3,792.9z
			 M168,793c0,2,1.1,3.8,3,3.8s3-1.8,3-3.9c0-1.9-1-3.8-3-3.8S168,791,168,793z"/>
		<path fill="#FFFFFF" d="M182.1,788.3v1h-4v2.5c0.3,0,0.8-0.1,1.2-0.1c0.9,0,1.8,0.2,2.4,0.6c0.7,0.5,1.2,1.2,1.2,2.3
			c0,0.9-0.3,1.5-0.8,2c-0.8,0.8-2,1-3.3,1c-0.8,0-1.5-0.1-1.9-0.1v-9.3L182.1,788.3L182.1,788.3z M178,796.7c0.3,0.1,0.6,0.1,1,0.1
			c0.7,0,1.5-0.2,2-0.7c0.3-0.3,0.5-0.8,0.5-1.4c0-0.7-0.3-1.2-0.8-1.5s-1.1-0.5-1.8-0.5c-0.3,0-0.7,0-1,0.1L178,796.7L178,796.7z"
			/>
		<path fill="#FFFFFF" d="M190.6,788.3v9.4h-1.2v-8.3h-3.1v2.8c0,2-0.1,4.3-1.4,5.2c-0.3,0.2-0.9,0.4-1.4,0.4l-0.2-1
			c0.4-0.1,0.8-0.3,1-0.5c0.8-0.7,0.8-2.6,0.8-4.1v-3.9H190.6L190.6,788.3z"/>
		<path fill="#FFFFFF" d="M194.2,794.7l-1,2.9H192l3.2-9.4h1.5l3.2,9.4h-1.3l-1-2.9H194.2L194.2,794.7z M197.3,793.8l-0.9-2.7
			c-0.2-0.6-0.3-1.2-0.5-1.7l0,0c-0.1,0.6-0.3,1.1-0.5,1.7l-0.9,2.7H197.3L197.3,793.8z"/>
		<path fill="#FFFFFF" d="M207.5,797.4c-0.4,0.2-1.3,0.4-2.5,0.4c-2.6,0-4.6-1.7-4.6-4.7c0-2.9,2-4.9,4.9-4.9c1.2,0,1.9,0.2,2.2,0.4
			l-0.3,1c-0.5-0.2-1.1-0.4-1.9-0.4c-2.2,0-3.6,1.4-3.6,3.9c0,2.3,1.3,3.8,3.6,3.8c0.7,0,1.5-0.2,2-0.4L207.5,797.4z"/>
		<path fill="#FFFFFF" d="M211.3,789.3h-2.8v-1h6.9v1h-2.9v8.3h-1.2V789.3L211.3,789.3z"/>
		<path fill="#FFFFFF" d="M217.6,788.3v3.9c0,1.5,0,2.7-0.1,4l0,0c0.5-1,1.1-2,1.7-3.1l3-4.8h1.2v9.4h-1.1v-4c0-1.5,0-2.6,0.1-3.8
			l0,0c-0.5,1-1.1,2.1-1.7,3.1l-2.9,4.6h-1.3v-9.4L217.6,788.3L217.6,788.3z"/>
		<path fill="#FFDF6A" d="M163,805v8.4h0.8l-0.1,3.2h-0.9l-0.1-2.2h-5.9l-0.1,2.2h-0.9l-0.1-3.2h0.7c0.3-0.6,0.7-1.3,0.9-2.1
			c0.3-1.1,0.4-2.3,0.4-3.9V805H163z M158.9,807.7c0,1.5-0.1,2.8-0.5,3.8c-0.2,0.7-0.5,1.3-0.8,1.8h4.1V806h-2.9L158.9,807.7
			L158.9,807.7L158.9,807.7z"/>
		<path fill="#FFDF6A" d="M173.3,809.5c0,3.2-2,4.9-4.3,4.9c-2.5,0-4.2-1.9-4.2-4.7c0-3,1.8-4.9,4.3-4.9S173.3,806.8,173.3,809.5z
			 M166,809.7c0,2,1.1,3.8,3,3.8s3-1.8,3-3.9c0-1.9-1-3.8-3-3.8S166,807.6,166,809.7z"/>
		<path fill="#FFDF6A" d="M181.4,814c-0.4,0.2-1.3,0.4-2.5,0.4c-2.6,0-4.6-1.7-4.6-4.7c0-2.9,2-4.9,4.9-4.9c1.2,0,1.9,0.3,2.2,0.4
			l-0.3,1c-0.5-0.2-1.1-0.4-1.9-0.4c-2.2,0-3.6,1.4-3.6,3.9c0,2.3,1.3,3.8,3.6,3.8c0.7,0,1.5-0.1,2-0.4L181.4,814z"/>
		<path fill="#FFDF6A" d="M185.1,806h-2.8v-1h6.9v1h-2.9v8.3h-1.2V806z"/>
		<path fill="#FFDF6A" d="M190.6,811.4l-1,2.9h-1.2l3.2-9.4h1.5l3.2,9.4H195l-1-2.9H190.6L190.6,811.4z M193.7,810.4l-0.9-2.7
			c-0.2-0.6-0.3-1.2-0.5-1.7l0,0c-0.1,0.6-0.3,1.1-0.5,1.7l-0.9,2.7H193.7L193.7,810.4z"/>
		<path fill="#FFDF6A" d="M197.6,805.1c0.5-0.1,1.4-0.2,2.2-0.2c1.2,0,2,0.2,2.6,0.7c0.5,0.4,0.8,0.9,0.8,1.7c0,0.9-0.6,1.7-1.6,2.1
			l0,0c0.9,0.2,1.9,1,1.9,2.3c0,0.8-0.3,1.4-0.8,1.9c-0.7,0.6-1.7,0.9-3.2,0.9c-0.8,0-1.5-0.1-1.9-0.1V805.1L197.6,805.1z
			 M198.8,808.9h1.1c1.3,0,2-0.7,2-1.6c0-1.1-0.8-1.5-2.1-1.5c-0.6,0-0.9,0-1.1,0.1L198.8,808.9L198.8,808.9L198.8,808.9z
			 M198.8,813.4c0.2,0,0.6,0.1,1,0.1c1.2,0,2.4-0.5,2.4-1.8s-1.1-1.8-2.4-1.8h-1V813.4L198.8,813.4L198.8,813.4z"/>
		<path fill="#FFDF6A" d="M206.3,805v4.1h0.4l3.2-4.1h1.5l-3.5,4.3c1.5,0.2,2.1,1.2,2.6,2.4c0.3,1,0.6,1.8,1,2.6h-1.3
			c-0.3-0.6-0.6-1.5-0.8-2.2c-0.4-1.2-1-2.1-2.6-2.1h-0.4v4.3h-1.2V805H206.3L206.3,805z"/>
		<path fill="#FFDF6A" d="M214.2,811.4l-1,2.9H212l3.2-9.4h1.5l3.2,9.4h-1.3l-1-2.9H214.2L214.2,811.4z M217.3,810.4l-0.9-2.7
			c-0.2-0.6-0.3-1.2-0.5-1.7l0,0c-0.1,0.6-0.3,1.1-0.5,1.7l-0.9,2.7H217.3L217.3,810.4z"/>
		<path fill="#FFDF6A" d="M161.9,821.6v1h-4v2.5c0.3,0,0.8-0.1,1.2-0.1c0.9,0,1.8,0.2,2.4,0.6c0.7,0.5,1.2,1.2,1.2,2.3
			c0,0.9-0.3,1.5-0.8,2c-0.8,0.8-2,1-3.3,1c-0.8,0-1.5-0.1-1.9-0.1v-9.3L161.9,821.6L161.9,821.6z M157.9,830c0.3,0.1,0.6,0.1,1,0.1
			c0.8,0,1.5-0.2,2-0.7c0.3-0.3,0.5-0.8,0.5-1.4c0-0.7-0.3-1.2-0.8-1.5c-0.5-0.3-1.1-0.5-1.8-0.5c-0.3,0-0.7,0-1,0.1L157.9,830
			L157.9,830z"/>
		<path fill="#FFDF6A" d="M169,826.6h-3.6v3.4h4.1v1h-5.3v-9.4h5v1h-3.8v3h3.6V826.6L169,826.6z"/>
		<path fill="#FFDF6A" d="M177.5,830.7c-0.4,0.2-1.3,0.4-2.5,0.4c-2.6,0-4.6-1.7-4.6-4.7c0-2.9,2-4.9,4.9-4.9c1.2,0,1.9,0.2,2.2,0.4
			l-0.3,1c-0.5-0.2-1.1-0.4-1.9-0.4c-2.2,0-3.6,1.4-3.6,3.9c0,2.3,1.3,3.8,3.6,3.8c0.7,0,1.5-0.2,2-0.4L177.5,830.7z"/>
		<path fill="#FFDF6A" d="M185.8,821.6v9.4h-1.2v-8.3h-4.3v8.3h-1.2v-9.4H185.8z"/>
		<path fill="#FFDF6A" d="M194.1,821.6v9.4h-1.2v-8.3h-3.1v2.8c0,2-0.1,4.3-1.4,5.2c-0.4,0.2-0.9,0.4-1.4,0.4l-0.2-1
			c0.4-0.1,0.8-0.3,1-0.5c0.8-0.7,0.8-2.6,0.8-4.1v-3.9H194.1L194.1,821.6L194.1,821.6L194.1,821.6z"/>
		<path fill="#FFDF6A" d="M197.7,828l-1,2.9h-1.2l3.2-9.4h1.5l3.2,9.4H202l-1-2.9H197.7z M200.8,827.1l-0.9-2.7
			c-0.2-0.6-0.3-1.2-0.5-1.7l0,0c-0.1,0.6-0.3,1.1-0.5,1.7l-0.9,2.7H200.8z"/>
		<path fill="#FFDF6A" d="M205.9,822.6H203v-1h6.9v1H207v8.3h-1.2v-8.3H205.9z"/>
		<path fill="#FFDF6A" d="M212.2,821.6v3.9h4.5v-3.9h1.2v9.4h-1.2v-4.4h-4.5v4.4H211v-9.4H212.2z"/>
		<path fill="#FFDF6A" d="M228,826.2c0,3.2-2,4.9-4.3,4.9c-2.5,0-4.2-1.9-4.2-4.7c0-3,1.8-4.9,4.3-4.9
			C226.4,821.5,228,823.4,228,826.2z M220.8,826.3c0,2,1.1,3.8,3,3.8c1.9,0,3-1.8,3-3.9c0-1.9-1-3.8-3-3.8S220.8,824.3,220.8,826.3z
			"/>
	</g>
	<g>
		<path fill="#FFFFFF" d="M77.5,944.5c-0.4,0.2-1.3,0.4-2.5,0.4c-2.6,0-4.6-1.7-4.6-4.7c0-2.9,2-4.9,4.9-4.9c1.2,0,1.9,0.2,2.2,0.4
			l-0.3,1c-0.5-0.2-1.1-0.4-1.9-0.4c-2.2,0-3.6,1.4-3.6,3.9c0,2.3,1.3,3.8,3.6,3.8c0.7,0,1.5-0.2,2-0.4L77.5,944.5z"/>
		<path fill="#FFFFFF" d="M80,935.5v3c0,1.3,0.7,2,2,2c0.7,0,1.4-0.2,1.8-0.5v-4.4H85v9.4h-1.2v-4l0,0c-0.7,0.4-1.4,0.6-2.2,0.6
			c-1.2,0-2.8-0.5-2.8-2.8v-3.1L80,935.5z"/>
		<path fill="#FFFFFF" d="M88.7,941.9l-1,2.9h-1.2l3.2-9.4h1.5l3.2,9.3h-1.3l-1-2.9L88.7,941.9z M91.7,940.9l-0.9-2.7
			c-0.2-0.6-0.3-1.2-0.5-1.7l0,0c-0.1,0.6-0.3,1.1-0.5,1.7l-0.9,2.7H91.7z"/>
		<path fill="#FFFFFF" d="M102,944.5c-0.4,0.2-1.3,0.4-2.5,0.4c-2.6,0-4.6-1.7-4.6-4.7c0-2.9,2-4.9,4.9-4.9c1.2,0,1.9,0.2,2.2,0.4
			l-0.3,1c-0.5-0.2-1.1-0.4-1.9-0.4c-2.2,0-3.6,1.4-3.6,3.9c0,2.3,1.3,3.8,3.6,3.8c0.7,0,1.5-0.2,2-0.4L102,944.5z"/>
		<path fill="#FFFFFF" d="M105.7,936.4h-2.8v-1h6.9v1h-2.9v8.3h-1.2V936.4z"/>
		<path fill="#FFFFFF" d="M116.7,935.4v9.4h-1.2v-8.3h-3.1v2.8c0,2-0.1,4.3-1.4,5.2c-0.3,0.2-0.9,0.4-1.4,0.4l-0.2-1
			c0.4-0.1,0.8-0.3,1-0.5c0.7-0.7,0.8-2.6,0.8-4.1v-3.9H116.7z"/>
		<path fill="#FFFFFF" d="M119.9,935.4v3.9c0,1.5,0,2.7-0.1,4l0,0c0.5-1,1-2,1.7-3.1l3-4.8h1.2v9.4h-1.1v-4c0-1.5,0-2.6,0.1-3.8l0,0
			c-0.5,1-1.1,2.1-1.7,3.2l-2.9,4.7h-1.3v-9.4L119.9,935.4z"/>
		<path fill="#FFFFFF" d="M127.9,935.5c0.5-0.1,1.4-0.2,2.2-0.2c1.2,0,2,0.2,2.6,0.7c0.5,0.4,0.8,0.9,0.8,1.6c0,0.9-0.6,1.7-1.6,2.1
			l0,0c0.9,0.2,1.9,1,1.9,2.3c0,0.8-0.3,1.4-0.8,1.9c-0.7,0.6-1.7,0.9-3.2,0.9c-0.8,0-1.5-0.1-1.9-0.1V935.5z M129.1,939.3h1.1
			c1.3,0,2-0.7,2-1.6c0-1.1-0.8-1.5-2.1-1.5c-0.6,0-0.9,0-1.1,0.1L129.1,939.3z M129.1,943.8c0.2,0,0.6,0.1,1,0.1
			c1.2,0,2.4-0.5,2.4-1.8s-1.1-1.8-2.4-1.8h-1V943.8z"/>
		<path fill="#FFFFFF" d="M136.6,935.4v3.5c0.3,0,0.8-0.1,1.1-0.1c1.9,0,3.6,0.8,3.6,2.9c0,0.9-0.3,1.5-0.7,2
			c-0.8,0.8-2.1,1.1-3.3,1.1c-0.8,0-1.5-0.1-1.9-0.1v-9.3H136.6z M136.6,943.8c0.3,0.1,0.6,0.1,1,0.1c1.3,0,2.5-0.7,2.5-2.1
			c0-1.5-1.3-2-2.5-2c-0.4,0-0.8,0-1,0.1V943.8z M143.6,935.3v9.4h-1.2v-9.4H143.6z"/>
		<path fill="#FFFFFF" d="M146.9,935.3v3.9c0,1.5,0,2.7-0.1,4l0,0c0.5-1,1.1-2,1.7-3.1l3-4.8h1.2v9.4h-1.1v-4c0-1.5,0-2.6,0.1-3.8
			l0,0c-0.5,1-1.1,2.1-1.7,3.2l-2.9,4.7h-1.3v-9.4L146.9,935.3z M148.4,933.4c0.1,0.4,0.2,0.9,0.8,0.9c0.6,0,0.8-0.4,0.8-0.9h0.9
			c-0.1,0.9-0.6,1.5-1.8,1.5c-1.1,0-1.7-0.6-1.8-1.5H148.4z"/>
		<path fill="#FFFFFF" d="M159,935.3v4.1h0.4l3.2-4.2h1.5l-3.5,4.3c1.5,0.2,2.1,1.1,2.6,2.4c0.3,1,0.6,1.8,1,2.6h-1.3
			c-0.3-0.6-0.6-1.5-0.8-2.2c-0.4-1.2-1-2.1-2.6-2.1H159v4.3h-1.2v-9.4h1.2V935.3z"/>
		<path fill="#FFFFFF" d="M172,935.3v9.4h-1.2v-8.3h-3.1v2.8c0,2-0.1,4.3-1.4,5.2c-0.3,0.2-0.9,0.4-1.4,0.4l-0.2-1
			c0.4-0.1,0.8-0.3,1-0.5c0.8-0.7,0.8-2.6,0.8-4.1v-3.9H172z"/>
		<path fill="#FFFFFF" d="M175.2,935.3v3.9c0,1.5,0,2.7-0.1,4l0,0c0.5-1,1.1-2,1.7-3.1l3-4.8h1.2v9.4h-1.1v-4c0-1.5,0-2.6,0.1-3.8
			l0,0c-0.5,1-1.1,2.1-1.7,3.2l-2.9,4.7h-1.3v-9.4L175.2,935.3z"/>
		<path fill="#FFFFFF" d="M188.1,940.2h-3.6v3.4h4.1v1h-5.3v-9.4h5.1v1h-3.8v3h3.6v1H188.1z"/>
		<path fill="#FFFFFF" d="M191.2,935.3v3.9h4.5v-3.9h1.2v9.4h-1.2v-4.4h-4.5v4.4H190v-9.3L191.2,935.3z"/>
		<path fill="#FFFFFF" d="M200.9,936.3h-2.8v-1h6.9v1h-2.9v8.3h-1.2V936.3z"/>
		<path fill="#FFFFFF" d="M94.2,952.1v8.4H95l-0.1,3.2H94l-0.1-2.2H88l-0.1,2.2H87l-0.1-3.2h0.7c0.3-0.6,0.7-1.3,0.9-2.1
			c0.3-1.1,0.4-2.3,0.4-3.9v-2.4H94.2z M90.1,954.9c0,1.5-0.1,2.8-0.5,3.8c-0.2,0.7-0.5,1.3-0.8,1.8h4.1v-7.4H90L90.1,954.9z"/>
		<path fill="#FFFFFF" d="M104.4,956.6c0,3.2-1.9,4.9-4.3,4.9c-2.5,0-4.2-1.9-4.2-4.7c0-3,1.8-4.9,4.3-4.9S104.4,953.9,104.4,956.6z
			 M97.1,956.8c0,2,1.1,3.8,3,3.8s3-1.8,3-3.9c0-1.9-1-3.8-3-3.8S97.1,954.8,97.1,956.8z"/>
		<path fill="#FFFFFF" d="M105.9,952.2c0.5-0.1,1.4-0.2,2.2-0.2c1.2,0,2,0.2,2.6,0.7c0.5,0.4,0.8,0.9,0.8,1.6c0,0.9-0.6,1.7-1.6,2.1
			l0,0c0.9,0.2,1.9,1,1.9,2.3c0,0.8-0.3,1.4-0.8,1.9c-0.7,0.6-1.7,0.9-3.2,0.9c-0.8,0-1.5-0.1-1.9-0.1V952.2z M107.2,956h1.1
			c1.3,0,2-0.7,2-1.6c0-1.1-0.8-1.5-2.1-1.5c-0.6,0-0.9,0-1.1,0.1L107.2,956z M107.2,960.5c0.2,0,0.6,0.1,1,0.1
			c1.2,0,2.4-0.5,2.4-1.8c0-1.3-1.1-1.8-2.4-1.8h-1V960.5z"/>
		<path fill="#FFFFFF" d="M121.3,956.6c0,3.2-1.9,4.9-4.3,4.9c-2.5,0-4.2-1.9-4.2-4.7c0-3,1.8-4.9,4.3-4.9
			C119.7,951.9,121.3,953.8,121.3,956.6z M114.1,956.8c0,2,1.1,3.8,3,3.8s3-1.8,3-3.9c0-1.9-1-3.8-3-3.8S114.1,954.7,114.1,956.8z"
			/>
		<path fill="#FFFFFF" d="M129,952v9.4h-1.2v-8.3h-3.1v2.8c0,2-0.1,4.3-1.4,5.2c-0.3,0.2-0.9,0.4-1.4,0.4l-0.2-1
			c0.4-0.1,0.8-0.3,1-0.5c0.7-0.7,0.8-2.6,0.8-4.1V952L129,952z"/>
		<path fill="#FFFFFF" d="M132.3,952v3.5c0.3,0,0.8-0.1,1.2-0.1c1.9,0,3.6,0.8,3.6,2.9c0,0.9-0.3,1.5-0.7,2
			c-0.8,0.8-2.1,1.1-3.4,1.1c-0.8,0-1.5-0.1-1.9-0.1V952L132.3,952z M132.3,960.4c0.3,0.1,0.6,0.1,1,0.1c1.3,0,2.5-0.7,2.5-2.1
			c0-1.5-1.2-2-2.5-2c-0.3,0-0.7,0-1,0.1V960.4z"/>
		<path fill="#FFFFFF" d="M139.8,952v3.9h4.5V952h1.2v9.4h-1.2V957h-4.5v4.4h-1.2V952H139.8z"/>
		<path fill="#FFFFFF" d="M148.9,952v3.5c0.3,0,0.8-0.1,1.1-0.1c1.9,0,3.6,0.8,3.6,2.9c0,0.9-0.3,1.5-0.7,2
			c-0.8,0.8-2.1,1.1-3.3,1.1c-0.8,0-1.5-0.1-1.9-0.1V952L148.9,952z M148.9,960.4c0.3,0.1,0.6,0.1,1,0.1c1.3,0,2.5-0.7,2.5-2.1
			c0-1.5-1.3-2-2.5-2c-0.4,0-0.8,0-1,0.1V960.4z M155.8,952v9.4h-1.2V952H155.8z"/>
		<path fill="#FFFFFF" d="M162.9,956.9h-3.6v3.4h4.1v1h-5.3v-9.4h5v1h-3.8v3h3.6V956.9z"/>
		<path fill="#FFFFFF" d="M175.7,957.2c-0.1-1.3-0.2-2.9-0.1-4l0,0c-0.3,1.1-0.7,2.3-1.2,3.6l-1.6,4.5h-0.9l-1.5-4.5
			c-0.4-1.3-0.8-2.5-1.1-3.6l0,0c0,1.2-0.1,2.7-0.2,4.1l-0.2,4h-1.1l0.6-9.4h1.5l1.6,4.5c0.4,1.2,0.7,2.2,0.9,3.1l0,0
			c0.2-0.9,0.6-2,1-3.2l1.7-4.5h1.5l0.6,9.4H176L175.7,957.2z"/>
		<path fill="#FFFFFF" d="M180.1,951.9v3.5c0.3,0,0.8-0.1,1.1-0.1c1.9,0,3.6,0.8,3.6,2.9c0,0.9-0.3,1.5-0.7,2
			c-0.8,0.8-2.1,1.1-3.3,1.1c-0.8,0-1.5-0.1-1.9-0.1v-9.3H180.1z M180.1,960.3c0.3,0.1,0.6,0.1,1,0.1c1.3,0,2.5-0.7,2.5-2.1
			c0-1.5-1.3-2-2.5-2c-0.4,0-0.8,0-1,0.1V960.3z M187.1,951.9v9.4h-1.2v-9.4H187.1z"/>
	</g>
	<g>
		<path fill="#FFFFFF" d="M113.2,100c0.6-0.4,1.5-0.7,2.5-0.7c1.6,0,2.7,0.8,2.7,2.3c0,1.2-0.8,2-1.9,2.3l0,0c1.3,0.1,2.3,1,2.3,2.3
			c0,1.9-1.7,2.7-3.4,2.7c-0.8,0-1.7-0.2-2.4-0.6l0.3-0.9c0.5,0.3,1.3,0.6,2.1,0.6c1.4,0,2.2-0.8,2.2-1.8c0-1.4-1.3-1.8-2.5-1.8
			h-0.6v-0.9h0.6c1.2,0,2.2-0.8,2.2-1.7c0-0.9-0.7-1.5-1.7-1.5c-0.7,0-1.4,0.3-1.9,0.6L113.2,100z"/>
		<path fill="#FFFFFF" d="M120.4,99.6c0.5-0.1,1.4-0.2,2.2-0.2c1.2,0,2,0.2,2.6,0.7c0.5,0.4,0.8,0.9,0.8,1.7c0,0.9-0.6,1.7-1.6,2.1
			l0,0c0.9,0.2,1.9,1,1.9,2.3c0,0.8-0.3,1.4-0.8,1.9c-0.7,0.6-1.7,0.9-3.2,0.9c-0.8,0-1.5-0.1-1.9-0.1V99.6L120.4,99.6z
			 M121.6,103.4h1.1c1.3,0,2-0.7,2-1.6c0-1.1-0.8-1.5-2.1-1.5c-0.6,0-0.9,0-1.1,0.1v3H121.6z M121.6,107.9c0.2,0,0.6,0.1,1,0.1
			c1.2,0,2.4-0.5,2.4-1.8s-1.1-1.8-2.4-1.8h-1V107.9L121.6,107.9z"/>
		<path fill="#FFFFFF" d="M135.8,104c0,3.2-2,4.9-4.3,4.9c-2.5,0-4.2-1.9-4.2-4.7c0-3,1.8-4.9,4.3-4.9
			C134.2,99.3,135.8,101.2,135.8,104z M128.6,104.2c0,2,1.1,3.8,3,3.8s3-1.8,3-3.9c0-1.9-1-3.8-3-3.8S128.6,102.1,128.6,104.2z"/>
		<path fill="#FFFFFF" d="M138.6,99.4v3.9h4.5v-3.9h1.2v9.4h-1.2v-4.4h-4.5v4.4h-1.2v-9.4H138.6z"/>
		<path fill="#FFFFFF" d="M154.4,104c0,3.2-2,4.9-4.3,4.9c-2.5,0-4.2-1.9-4.2-4.7c0-3,1.8-4.9,4.3-4.9
			C152.8,99.3,154.4,101.2,154.4,104z M147.2,104.2c0,2,1.1,3.8,3,3.8c1.9,0,3-1.8,3-3.9c0-1.9-1-3.8-3-3.8S147.2,102.1,147.2,104.2
			z"/>
		<path fill="#FFFFFF" d="M157.2,99.4v4.1h0.4l3.2-4.1h1.5l-3.5,4.3c1.5,0.2,2.1,1.2,2.6,2.4c0.3,1,0.6,1.8,1,2.7H161
			c-0.3-0.6-0.6-1.5-0.8-2.2c-0.4-1.2-1-2.1-2.6-2.1h-0.4v4.3H156v-9.4H157.2L157.2,99.4z"/>
	</g>
	<g>
		<path fill="#FFFFFF" d="M91.8,247.7v4.1h0.4l3.2-4.1h1.5l-3.5,4.3c1.5,0.2,2.1,1.2,2.6,2.4c0.3,1,0.6,1.8,1,2.7h-1.3
			c-0.3-0.6-0.6-1.5-0.8-2.2c-0.4-1.2-1-2.1-2.6-2.1h-0.4v4.3h-1.2v-9.4H91.8L91.8,247.7z"/>
		<path fill="#FFFFFF" d="M105.8,252.3c0,3.2-2,4.9-4.3,4.9c-2.5,0-4.2-1.9-4.2-4.7c0-3,1.8-4.9,4.3-4.9
			C104.2,247.5,105.8,249.5,105.8,252.3z M98.6,252.4c0,2,1.1,3.8,3,3.8s3-1.8,3-3.9c0-1.9-1-3.8-3-3.8S98.6,250.3,98.6,252.4z"/>
		<path fill="#FFFFFF" d="M108.6,247.7v3.9h4.5v-3.9h1.2v9.4h-1.2v-4.4h-4.5v4.4h-1.2v-9.4H108.6L108.6,247.7z"/>
		<path fill="#FFFFFF" d="M123,256.7c-0.4,0.2-1.3,0.4-2.5,0.4c-2.6,0-4.6-1.7-4.6-4.7c0-2.9,2-4.9,4.9-4.9c1.2,0,1.9,0.3,2.2,0.4
			l-0.3,1c-0.5-0.2-1.1-0.4-1.9-0.4c-2.2,0-3.6,1.4-3.6,3.9c0,2.3,1.3,3.8,3.6,3.8c0.7,0,1.5-0.2,2-0.4L123,256.7z"/>
		<path fill="#FFFFFF" d="M125.1,247.7l1.9,4c0.2,0.6,0.5,1.1,0.7,1.7l0,0c0.2-0.5,0.3-1,0.6-1.7l1.5-3.9h1.3l-2,4.8
			c-0.5,1.2-1.1,2.7-1.7,3.6c-0.6,0.8-1.3,1.2-2.1,1.2c-0.3,0-0.5,0-0.7-0.1l0.1-1c0.1,0,0.2,0,0.4,0c1,0,1.5-0.9,1.8-1.6
			c0.1-0.2,0.1-0.3,0-0.6l-3.1-6.3L125.1,247.7L125.1,247.7z"/>
		<path fill="#FFFFFF" d="M137.9,247.7v9.4h-1.2v-8.3h-3.1v2.8c0,2-0.1,4.3-1.4,5.2c-0.3,0.2-0.9,0.4-1.4,0.4l-0.2-1
			c0.4-0.1,0.8-0.3,1-0.5c0.7-0.7,0.8-2.6,0.8-4.1v-3.9H137.9L137.9,247.7z"/>
		<path fill="#FFFFFF" d="M141.2,247.7v3.5c0.3,0,0.8-0.1,1.2-0.1c1.9,0,3.6,0.8,3.6,2.9c0,0.9-0.3,1.5-0.7,2
			c-0.8,0.8-2.1,1.1-3.4,1.1c-0.8,0-1.5-0.1-1.9-0.1v-9.3H141.2L141.2,247.7z M141.2,256.1c0.3,0.1,0.6,0.1,1,0.1
			c1.3,0,2.5-0.7,2.5-2.1c0-1.5-1.2-2-2.5-2c-0.3,0-0.7,0-1,0.1V256.1L141.2,256.1z"/>
		<path fill="#FFFFFF" d="M148.3,248.7h-2.8v-1h6.9v1h-2.9v8.3h-1.2V248.7L148.3,248.7z"/>
		<path fill="#FFFFFF" d="M153.8,254.1l-1,2.9h-1.2l3.2-9.4h1.5l3.2,9.4h-1.3l-1-2.9H153.8L153.8,254.1z M156.9,253.1l-0.9-2.7
			c-0.2-0.6-0.3-1.2-0.5-1.7l0,0c-0.1,0.6-0.3,1.1-0.5,1.7l-0.9,2.7H156.9z"/>
		<path fill="#FFFFFF" d="M162,247.7v8.3h4.3v-8.3h1.2v8.4h0.8l-0.1,3.2h-1l-0.1-2.2h-6.4v-9.4H162L162,247.7z"/>
		<path fill="#FFFFFF" d="M171,247.7v3.9c0,1.5,0,2.7-0.1,4l0,0c0.5-1,1.1-2,1.7-3.1l3-4.8h1.2v9.4h-1.1v-4c0-1.5,0-2.6,0.1-3.8l0,0
			c-0.5,1-1.1,2.1-1.7,3.1l-2.9,4.6h-1.3v-9.4L171,247.7L171,247.7z"/>
		<path fill="#FFFFFF" d="M178.1,257c0.1-0.3,0.3-0.5,0.4-0.8c0.4-1.1,0.7-2.4,1.4-3.1c0.2-0.2,0.5-0.4,0.8-0.5l0,0
			c-1.2-0.2-2.1-1-2.1-2.3c0-0.8,0.3-1.5,0.9-1.9c0.6-0.5,1.5-0.7,2.7-0.7c0.8,0,1.6,0.1,2.2,0.2v9.2h-1.2V253h-0.9
			c-0.6,0-1,0.1-1.3,0.5c-0.6,0.7-0.9,2-1.2,2.9c-0.1,0.2-0.2,0.4-0.3,0.7L178.1,257L178.1,257L178.1,257z M183.2,248.6
			c-0.2,0-0.6-0.1-1.1-0.1c-1.2,0-2.2,0.5-2.2,1.7c0,1.1,1,1.8,2.3,1.8c0.4,0,0.8,0,1,0V248.6L183.2,248.6L183.2,248.6z"/>
		<path fill="#FFFFFF" d="M83,273.4c-0.4,0.2-1.3,0.4-2.5,0.4c-2.6,0-4.6-1.7-4.6-4.7c0-2.9,2-4.9,4.9-4.9c1.2,0,1.9,0.3,2.2,0.4
			l-0.3,1c-0.5-0.2-1.1-0.4-1.9-0.4c-2.2,0-3.6,1.4-3.6,3.9c0,2.3,1.3,3.8,3.6,3.8c0.7,0,1.5-0.2,2-0.4L83,273.4z"/>
		<path fill="#FFFFFF" d="M92.2,268.9c0,3.2-2,4.9-4.3,4.9c-2.5,0-4.2-1.9-4.2-4.7c0-3,1.8-4.9,4.3-4.9
			C90.6,264.2,92.2,266.1,92.2,268.9z M85,269.1c0,2,1.1,3.8,3,3.8s3-1.8,3-3.9c0-1.9-1-3.8-3-3.8S85,267,85,269.1z"/>
		<path fill="#FFFFFF" d="M103.3,273.4c-0.4,0.2-1.3,0.4-2.5,0.4c-2.6,0-4.6-1.7-4.6-4.7c0-2.9,2-4.9,4.9-4.9c1.2,0,1.9,0.3,2.2,0.4
			l-0.3,1c-0.5-0.2-1.1-0.4-1.9-0.4c-2.2,0-3.6,1.4-3.6,3.9c0,2.3,1.3,3.8,3.6,3.8c0.7,0,1.5-0.2,2-0.4L103.3,273.4z"/>
		<path fill="#FFFFFF" d="M111.6,264.3v9.4h-1.2v-8.3H106v8.3h-1.2v-9.4H111.6z"/>
		<path fill="#FFFFFF" d="M118.5,269.3h-3.6v3.4h4.1v1h-5.3v-9.4h5v1h-3.8v3h3.6V269.3L118.5,269.3z"/>
		<path fill="#FFFFFF" d="M121.7,264.3v8.3h4.3v-8.3h1.2v8.4h0.8l-0.1,3.2h-1l-0.1-2.2h-6.4v-9.4H121.7L121.7,264.3z"/>
		<path fill="#FFFFFF" d="M130.7,264.3v3.9c0,1.5,0,2.7-0.1,4l0,0c0.5-1,1.1-2,1.7-3.1l3-4.8h1.2v9.4h-1.1v-4c0-1.5,0-2.6,0.1-3.8
			l0,0c-0.5,1-1.1,2.1-1.7,3.1l-2.9,4.6h-1.3v-9.4L130.7,264.3L130.7,264.3z"/>
		<path fill="#FFFFFF" d="M140.2,270.7l-1,2.9H138l3.2-9.4h1.5l3.2,9.4h-1.3l-1-2.9H140.2z M143.2,269.8l-0.9-2.7
			c-0.2-0.6-0.3-1.2-0.5-1.7l0,0c-0.1,0.6-0.3,1.1-0.5,1.7l-0.9,2.7H143.2L143.2,269.8z"/>
		<path fill="#FFFFFF" d="M153.8,264.3v9.4h-1.2v-8.3h-3.1v2.8c0,2-0.1,4.3-1.4,5.2c-0.3,0.2-0.9,0.4-1.4,0.4l-0.2-1
			c0.4-0.1,0.8-0.3,1-0.5c0.7-0.7,0.8-2.6,0.8-4.1v-3.9H153.8L153.8,264.3z"/>
		<path fill="#FFFFFF" d="M157,264.3v3.9c0,1.5,0,2.7-0.1,4l0,0c0.5-1,1.1-2,1.7-3.1l3-4.8h1.2v9.4h-1.1v-4c0-1.5,0-2.6,0.1-3.8l0,0
			c-0.5,1-1.1,2.1-1.7,3.1l-2.9,4.6h-1.3v-9.4L157,264.3L157,264.3z"/>
		<path fill="#FFFFFF" d="M171.5,273.4c-0.4,0.2-1.3,0.4-2.5,0.4c-2.6,0-4.6-1.7-4.6-4.7c0-2.9,2-4.9,4.9-4.9c1.2,0,1.9,0.3,2.2,0.4
			l-0.3,1c-0.5-0.2-1.1-0.4-1.9-0.4c-2.2,0-3.6,1.4-3.6,3.9c0,2.3,1.3,3.8,3.6,3.8c0.7,0,1.5-0.2,2-0.4L171.5,273.4z"/>
		<path fill="#FFFFFF" d="M175.3,265.3h-2.8v-1h6.9v1h-2.9v8.3h-1.2V265.3L175.3,265.3z"/>
		<path fill="#FFFFFF" d="M187.9,268.9c0,3.2-2,4.9-4.3,4.9c-2.5,0-4.2-1.9-4.2-4.7c0-3,1.8-4.9,4.3-4.9
			C186.3,264.2,187.9,266.1,187.9,268.9z M180.7,269.1c0,2,1.1,3.8,3,3.8c1.9,0,3-1.8,3-3.9c0-1.9-1-3.8-3-3.8
			S180.7,267,180.7,269.1z"/>
		<path fill="#FFFFFF" d="M197.3,269.6c-0.1-1.3-0.2-2.9-0.1-4l0,0c-0.3,1.1-0.7,2.3-1.2,3.6l-1.7,4.5h-0.9l-1.5-4.5
			c-0.4-1.3-0.8-2.5-1.1-3.6l0,0c0,1.2-0.1,2.7-0.2,4.1l-0.3,4h-1.2l0.7-9.4h1.5l1.6,4.5c0.4,1.2,0.7,2.2,0.9,3.1l0,0
			c0.2-0.9,0.6-2,1-3.1l1.7-4.5h1.5l0.6,9.4h-1.2L197.3,269.6z"/>
	</g>
	<g>
		<path fill="#FFFFFF" d="M51.2,367.8v9.4H50v-8.3h-4.3v8.3h-1.2v-9.4H51.2z"/>
		<path fill="#FFFFFF" d="M53.3,367.9c0.6-0.1,1.3-0.2,2.3-0.2c1.2,0,2.1,0.3,2.6,0.8c0.5,0.4,0.8,1.1,0.8,2c0,0.8-0.3,1.5-0.7,2
			c-0.6,0.7-1.7,1-2.9,1c-0.4,0-0.7,0-1-0.1v3.7h-1.2L53.3,367.9L53.3,367.9z M54.5,372.4c0.3,0.1,0.6,0.1,1,0.1
			c1.5,0,2.3-0.7,2.3-2c0-1.2-0.9-1.8-2.2-1.8c-0.5,0-0.9,0-1.1,0.1V372.4z"/>
		<path fill="#FFFFFF" d="M68.6,372.4c0,3.2-2,4.9-4.3,4.9c-2.5,0-4.2-1.9-4.2-4.7c0-3,1.8-4.9,4.3-4.9S68.6,369.6,68.6,372.4z
			 M61.3,372.5c0,2,1.1,3.8,3,3.8c1.9,0,3-1.8,3-3.9c0-1.9-1-3.8-3-3.8S61.3,370.5,61.3,372.5z"/>
		<path fill="#FFFFFF" d="M76.3,367.8v8.4h0.8l-0.1,3.2h-0.9l-0.1-2.2h-5.9l-0.1,2.2h-1l-0.1-3.2h0.7c0.3-0.6,0.7-1.3,0.9-2.1
			c0.3-1.1,0.4-2.3,0.4-3.9v-2.4H76.3L76.3,367.8z M72.2,370.6c0,1.5-0.1,2.8-0.5,3.8c-0.2,0.7-0.5,1.3-0.8,1.8H75v-7.4h-2.9v1.8
			H72.2z"/>
		<path fill="#FFFFFF" d="M78.9,367.8l1.9,4c0.2,0.6,0.5,1.1,0.7,1.7l0,0c0.2-0.5,0.3-1,0.6-1.7l1.5-3.9h1.3l-2,4.8
			c-0.5,1.2-1.1,2.7-1.7,3.6c-0.6,0.8-1.3,1.1-2.1,1.1c-0.3,0-0.5,0-0.7-0.1l0.1-1c0.1,0,0.2,0,0.4,0c1,0,1.5-0.9,1.8-1.6
			c0.1-0.2,0.1-0.3,0-0.6l-3.1-6.3H78.9L78.9,367.8z"/>
		<path fill="#FFFFFF" d="M87,367.8v4.1h0.4l3.2-4.1H92l-3.5,4.3c1.5,0.2,2.1,1.2,2.6,2.4c0.3,1,0.6,1.8,1,2.7h-1.3
			c-0.3-0.6-0.6-1.5-0.8-2.2c-0.4-1.2-1-2.1-2.6-2.1H87v4.3h-1.2v-9.4H87L87,367.8z"/>
		<path fill="#FFFFFF" d="M94.5,367.8v8.3h4.3v-8.3h1.2v8.4h0.8l-0.1,3.2h-1l-0.1-2.2h-6.4v-9.4H94.5L94.5,367.8z"/>
		<path fill="#FFFFFF" d="M103.5,367.8v3.9c0,1.5,0,2.7-0.1,4l0,0c0.5-1,1.1-2,1.7-3.1l3-4.8h1.2v9.4h-1.1v-4c0-1.5,0-2.6,0.1-3.8
			l0,0c-0.5,1-1.1,2.1-1.7,3.1l-2.9,4.6h-1.3v-9.4h1.1V367.8z"/>
		<path fill="#FFFFFF" d="M110.6,377.2c0.1-0.3,0.3-0.5,0.4-0.8c0.4-1.1,0.7-2.4,1.4-3.1c0.2-0.2,0.5-0.4,0.8-0.5l0,0
			c-1.2-0.2-2.1-1-2.1-2.3c0-0.8,0.3-1.5,0.9-1.9c0.6-0.5,1.5-0.7,2.7-0.7c0.8,0,1.6,0.1,2.2,0.2v9.2h-1.2v-4.1h-0.9
			c-0.6,0-1,0.1-1.3,0.5c-0.6,0.7-0.9,2-1.2,2.9c-0.1,0.2-0.2,0.4-0.3,0.7L110.6,377.2L110.6,377.2z M115.7,368.8
			c-0.2,0-0.6-0.1-1.1-0.1c-1.2,0-2.2,0.5-2.2,1.7c0,1.1,1,1.8,2.3,1.8c0.4,0,0.8,0,1,0V368.8L115.7,368.8z"/>
		<path fill="#FFFFFF" d="M51.2,384.5v9.3H50v-8.3h-4.3v8.3h-1.2v-9.3H51.2z"/>
		<path fill="#FFFFFF" d="M61.3,389c0,3.2-2,4.9-4.3,4.9c-2.5,0-4.2-1.9-4.2-4.7c0-3,1.8-4.9,4.3-4.9
			C59.7,384.3,61.3,386.3,61.3,389z M54.1,389.2c0,2,1.1,3.8,3,3.8s3-1.8,3-3.9c0-1.9-1-3.8-3-3.8S54.1,387.1,54.1,389.2z"/>
		<path fill="#FFFFFF" d="M69,384.5v8.4h0.8l-0.1,3.2h-0.9l-0.1-2.2h-5.9l-0.1,2.2h-0.9l-0.1-3.2h0.7c0.3-0.6,0.7-1.3,0.9-2.1
			c0.3-1.1,0.4-2.3,0.4-3.9v-2.4H69L69,384.5z M64.9,387.2c0,1.5-0.1,2.8-0.5,3.8c-0.2,0.7-0.5,1.3-0.8,1.8h4.1v-7.4h-2.9
			L64.9,387.2L64.9,387.2z"/>
		<path fill="#FFFFFF" d="M73.9,385c0.6-0.4,1.5-0.7,2.5-0.7c1.6,0,2.7,0.8,2.7,2.3c0,1.2-0.8,2-1.9,2.3l0,0c1.3,0.1,2.3,1,2.3,2.3
			c0,1.9-1.7,2.7-3.4,2.7c-0.8,0-1.7-0.2-2.4-0.6l0.3-0.9c0.5,0.3,1.3,0.6,2.1,0.6c1.4,0,2.1-0.8,2.1-1.8c0-1.4-1.3-1.8-2.5-1.8
			h-0.6v-0.9h0.6c1.2,0,2.2-0.8,2.2-1.7c0-0.9-0.7-1.5-1.7-1.5c-0.7,0-1.4,0.3-1.9,0.6L73.9,385z"/>
		<path fill="#FFFFFF" d="M82.6,390.9l-1,2.9h-1.3l3.2-9.4H85l3.2,9.4h-1.3l-1-2.9H82.6z M85.7,389.9l-0.9-2.7
			c-0.2-0.6-0.3-1.2-0.5-1.7l0,0c-0.1,0.6-0.3,1.1-0.5,1.7l-0.9,2.7H85.7L85.7,389.9z"/>
		<path fill="#FFFFFF" d="M90.8,384.5v4.1h0.4l3.2-4.1h1.5l-3.5,4.3c1.5,0.2,2.1,1.2,2.6,2.4c0.3,1,0.6,1.8,1,2.6h-1.3
			c-0.3-0.6-0.6-1.5-0.8-2.2c-0.4-1.2-1-2.1-2.6-2.1h-0.4v4.3h-1.2v-9.3H90.8L90.8,384.5z"/>
		<path fill="#FFFFFF" d="M98.7,390.9l-1,2.9h-1.2l3.2-9.4h1.5l3.2,9.4H103l-1-2.9H98.7z M101.8,389.9l-0.9-2.7
			c-0.2-0.6-0.3-1.2-0.5-1.7l0,0c-0.1,0.6-0.3,1.1-0.5,1.7l-0.9,2.7H101.8L101.8,389.9z"/>
		<path fill="#FFFFFF" d="M105.4,385c0.6-0.4,1.5-0.7,2.5-0.7c1.6,0,2.7,0.8,2.7,2.3c0,1.2-0.8,2-1.9,2.3l0,0c1.3,0.1,2.3,1,2.3,2.3
			c0,1.9-1.7,2.7-3.4,2.7c-0.8,0-1.7-0.2-2.4-0.6l0.3-0.9c0.5,0.3,1.3,0.6,2.1,0.6c1.4,0,2.1-0.8,2.1-1.8c0-1.4-1.3-1.8-2.5-1.8
			h-0.6v-0.9h0.6c1.2,0,2.2-0.8,2.2-1.7c0-0.9-0.7-1.5-1.7-1.5c-0.7,0-1.4,0.3-1.9,0.6L105.4,385z"/>
	</g>
	<g>
		<circle fill="#FFFFFF" cx="137.5" cy="177.2" r="39.5"/>
		<g>
			<g>
				<path fill="#354872" d="M154.3,176.8h-2.2v-10c0-8.2-6.6-14.8-14.8-14.8c-8.2,0-14.8,6.6-14.8,14.8v10h-2.2v-10
					c0-9.4,7.6-17,17-17c9.4,0,17,7.6,17,17V176.8L154.3,176.8z"/>
			</g>
			<path fill="#FFDF6A" d="M155.3,177.6c0,1.9-1.5,3.4-3.4,3.4h-0.3c-1.9,0-3.4-1.5-3.4-3.4v-6.3c0-1.9,1.5-3.4,3.4-3.4h0.3
				c1.9,0,3.4,1.5,3.4,3.4V177.6z"/>
			<g>
				<path fill="#FFFFFF" d="M119.4,203.9v-6.2c0-2.7,2.5-5,5.6-5h24.6c3.1,0,5.6,2.2,5.6,5v6.2H119.4L119.4,203.9z"/>
				<path fill="#354872" d="M156.3,203.9h-2.2v-6.2c0-2.1-2-3.9-4.5-3.9H125c-2.5,0-4.5,1.7-4.5,3.9v6.2h-2.2v-6.2
					c0-3.3,3-6.1,6.7-6.1h24.6c3.7,0,6.7,2.7,6.7,6.1V203.9z"/>
			</g>
			<g>
				<path fill="#FFFFFF" d="M149.9,166.8v10c0,6.9-5.6,12.5-12.5,12.5l0,0c-6.9,0-12.5-5.6-12.5-12.5v-10H149.9z"/>
				<path fill="#354872" d="M137.3,190.5c-7.5,0-13.6-6.1-13.6-13.6v-10h2.2v10c0,6.3,5.1,11.4,11.4,11.4s11.4-5.1,11.4-11.4v-10
					h2.2v10C150.9,184.4,144.8,190.5,137.3,190.5z"/>
			</g>
			<path fill="#354872" d="M146.1,153.6h-6.5h-6.7c-2,0-3.8,1-4.8,2.6h-2c-0.2,0-0.3,0-0.5,0c-2.2,2.5-3.7,5.7-4,9.2V177h3.2v-9.7
				c0-1.7,1.4-3.2,3.2-3.2h1.8h9.9h5.7h1.7h1.2h1.7c3.2,0,5.8-2.6,5.8-5.8v-4.7H146.1L146.1,153.6L146.1,153.6L146.1,153.6z"/>
			<g>
				<path fill="#354872" d="M125.8,177.1h-2.2v-9.7c0-2.3,1.9-4.3,4.2-4.3h22c2.6,0,4.7-2.1,4.7-4.7v-4.7h2.2v4.7
					c0,3.8-3.1,6.9-6.9,6.9h-22c-1.1,0-2.1,0.9-2.1,2.1L125.8,177.1L125.8,177.1z"/>
			</g>
			<path fill="#FFDF6A" d="M126.2,177.6c0,1.9-1.5,3.4-3.4,3.4h-0.3c-1.9,0-3.4-1.5-3.4-3.4v-6.3c0-1.9,1.5-3.4,3.4-3.4h0.3
				c1.9,0,3.4,1.5,3.4,3.4V177.6z"/>
			<g>
				<path fill="#354872" d="M122.5,176.8h-2.2v-10c0-9.4,7.6-17,17-17v2.2c-8.2,0-14.8,6.6-14.8,14.8V176.8L122.5,176.8z"/>
			</g>
			<g>
				<polygon fill="#354872" points="139.6,197.7 134.5,197.7 132.3,193.8 134.1,192.7 135.8,195.5 138.4,195.5 140,192.7 
					141.9,193.8 				"/>
			</g>
			<g>
				
					<rect x="135.6" y="199.3" transform="matrix(0.213 0.977 -0.977 0.213 305.585 21.3786)" fill="#354872" width="7.8" height="2.2"/>
			</g>
			<g>
				
					<rect x="133.5" y="196.5" transform="matrix(0.9771 0.2127 -0.2127 0.9771 45.6977 -24.0351)" fill="#354872" width="2.2" height="7.8"/>
			</g>
			<g>
				<path fill="#354872" d="M149.9,186.2H140V184h9.8c1.2,0,2.3-1,2.3-2.2h2.2C154.3,184.2,152.3,186.2,149.9,186.2z"/>
			</g>
			<g>
				<rect x="137" y="171.9" fill="#354872" width="2.2" height="6.9"/>
			</g>
		</g>
	</g>
	<g>
		<circle fill="#FFFFFF" cx="137.5" cy="884.7" r="39.5"/>
		<g>
			<circle fill="#FFDF6A" cx="141.6" cy="871.1" r="6.7"/>
			<g>
				<g>
					<rect x="139.9" y="858.3" fill="#354872" width="2.2" height="4.4"/>
				</g>
				<g>
					
						<rect x="133.5" y="861.1" transform="matrix(0.4997 0.8662 -0.8662 0.4997 814.7217 313.7766)" fill="#354872" width="4.4" height="2.2"/>
				</g>
				<g>
					
						<rect x="130.1" y="865.1" transform="matrix(0.8659 0.5003 -0.5003 0.8659 451.1086 50.0297)" fill="#354872" width="4.4" height="2.2"/>
				</g>
				<g>
					<rect x="128.9" y="870.5" fill="#354872" width="4.4" height="2.2"/>
				</g>
				<g>
					
						<rect x="131.7" y="874.5" transform="matrix(0.5 0.866 -0.866 0.5 825.6754 323.2918)" fill="#354872" width="2.2" height="4.4"/>
				</g>
				<g>
					
						<rect x="148.7" y="874.6" transform="matrix(0.8661 0.4999 -0.4999 0.8661 457.927 41.805)" fill="#354872" width="4.4" height="2.2"/>
				</g>
				<g>
					<rect x="149.9" y="869.3" fill="#354872" width="4.4" height="2.2"/>
				</g>
				<g>
					
						<rect x="149.3" y="863" transform="matrix(0.5002 0.8659 -0.8659 0.5002 824.3934 302.2083)" fill="#354872" width="2.2" height="4.4"/>
				</g>
				<g>
					
						<rect x="145.3" y="859.2" transform="matrix(0.8661 0.4999 -0.4999 0.8661 450.1926 42.1822)" fill="#354872" width="2.2" height="4.4"/>
				</g>
			</g>
			<g>
				<path fill="#FFFFFF" d="M128.3,904.5h3.6c1.3,1.7,3.4,2.9,5.7,2.9h4.7h6.8h0.3l0,0h2.8c1.8,0,3.2-1.4,3.2-3.2s-1.4-3.2-3.2-3.2
					h2.6c1.8,0,3.2-1.4,3.2-3.2c0-1.8-1.4-3.2-3.2-3.2h0.9c1.8,0,3.2-1.4,3.2-3.2s-1.4-3.2-3.2-3.2h1.7c1.8,0,3.2-1.4,3.2-3.2
					c0-1.8-1.4-3.2-3.2-3.2h-9c-0.2,0-0.4,0-0.5,0.1h-3.6l1.1-4v-4.5c0-2.2-1.8-4-4-4H140c-0.1,0-0.1,0-0.2,0v6.2l-1.6,2.2l-5.9,6.4
					c-0.8,0.9-1.4,2-1.7,3.2h-2.4L128.3,904.5L128.3,904.5L128.3,904.5L128.3,904.5z"/>
				<path fill="#354872" d="M149.4,908.4h-11.9c-2.4,0-4.6-1-6.2-2.9h-3.1v-2.2h4.1l0.3,0.4c1.1,1.5,2.9,2.4,4.8,2.4h14.7
					c1.2,0,2.1-1,2.1-2.1c0-1.2-1-2.1-2.1-2.1v-2.2h2.6c1.2,0,2.1-1,2.1-2.1c0-1.2-1-2.1-2.1-2.1v-2.2h0.9c1.2,0,2.1-1,2.1-2.1
					c0-1.2-1-2.1-2.1-2.1v-2.2h1.7c1.2,0,2.1-1,2.1-2.1c0-1.2-1-2.1-2.1-2.1h-9c-0.1,0-0.2,0-0.4,0h-0.2h-5l1.5-5.2v-4.4
					c0-1.6-1.3-2.9-2.9-2.9h-0.4v5.4l-1.8,2.6l-5.9,6.4c-0.7,0.8-1.2,1.7-1.5,2.7l-0.2,0.8h-3.2v-2.2h1.6c0.4-1.1,1-2,1.8-2.9
					l5.8-6.3l1.3-1.9V868h1c0.1,0,0.2,0,0.2,0h1.3c2.8,0,5.1,2.3,5.1,5.1v4.7l-0.8,2.8h2.1c0.2,0,0.4,0,0.6,0h9
					c2.4,0,4.3,1.9,4.3,4.3c0,1.7-1,3.2-2.5,3.9c0.5,0.7,0.8,1.6,0.8,2.5c0,1.5-0.8,2.8-1.9,3.6c0.7,0.8,1.1,1.8,1.1,2.8
					c0,2-1.4,3.7-3.2,4.2c0.4,0.7,0.6,1.4,0.6,2.3c0,2.4-1.9,4.3-4.3,4.3L149.4,908.4z"/>
			</g>
			<rect x="113.3" y="885.7" fill="#354872" width="13.4" height="25.3"/>
			<g>
				<rect x="122.2" y="906.6" fill="#FFFFFF" width="1.7" height="1.6"/>
			</g>
		</g>
	</g>
	<g>
		<g>
			<circle fill="#FFFFFF" cx="235.5" cy="452.4" r="39.5"/>
			<g>
				<path fill="#FFDF6A" d="M226.3,473.9h15.5v-32.1c-0.7-1-5.2-1-5.9,0.1L222.5,455c-0.6,1.1-0.2,1.8,0.1,3.8L226.3,473.9z"/>
				<g>
					<g>
						<path fill="#FFFFFF" d="M246,424.8c1,0,1.8,0.8,1.8,1.8v31c0,1-0.8,1.8-1.8,1.8h-18c-1,0-1.8-0.8-1.8-1.8v-31
							c0-1,0.8-1.8,1.8-1.8H246L246,424.8z"/>
						<path fill="#354872" d="M246,460.4h-18c-1.6,0-2.9-1.3-2.9-2.9v-31c0-1.6,1.3-2.9,2.9-2.9h18c1.6,0,2.9,1.3,2.9,2.9v31
							C248.9,459.2,247.6,460.4,246,460.4z M228,425.9c-0.4,0-0.7,0.3-0.7,0.7v31c0,0.4,0.3,0.7,0.7,0.7h18c0.4,0,0.7-0.3,0.7-0.7
							v-31c0-0.4-0.3-0.7-0.7-0.7H228z"/>
					</g>
					<g>
						<path fill="#FFFFFF" d="M238.3,456.7v-6.2V456.7z"/>
						<rect x="237.2" y="450.5" fill="#354872" width="2.2" height="6.2"/>
					</g>
					<g>
						<path fill="#FFFFFF" d="M242.7,456.7v-11V456.7z"/>
						<rect x="241.6" y="445.7" fill="#354872" width="2.2" height="11"/>
					</g>
					<g>
						<path fill="#FFFFFF" d="M238.3,448.9v-6.2V448.9z"/>
						<rect x="237.2" y="442.7" fill="#354872" width="2.2" height="6.2"/>
					</g>
					<g>
						<path fill="#FFFFFF" d="M238.3,441.1V435V441.1z"/>
						<rect x="237.2" y="435" fill="#354872" width="2.2" height="6.2"/>
					</g>
					<g>
						<path fill="#FFFFFF" d="M238.3,433.4v-6.2V433.4z"/>
						<rect x="237.2" y="427.2" fill="#354872" width="2.2" height="6.2"/>
					</g>
					<circle fill="#FFDF6A" cx="231.5" cy="430.6" r="2.7"/>
					<circle fill="#354872" cx="231.5" cy="434.2" r="2.7"/>
				</g>
				<g>
					<path fill="#FFDF6A" d="M237.9,472.1c0.1-0.9,0.1-1.8,0.1-2.7c0-4.4-1-7.8-2.7-10.3v-12c0-1.4-1.1-2.6-2.6-2.6h-1
						c-1.4,0-2.6,1.1-2.6,2.6v15L237.9,472.1z"/>
					<path fill="#354872" d="M239,472.3l-2.2-0.2c0.1-0.8,0.1-1.7,0.1-2.6c0-4.1-0.8-7.4-2.5-9.6l-0.2-0.3v-12.3
						c0-0.8-0.7-1.5-1.5-1.5h-1c-0.8,0-1.5,0.7-1.5,1.5v15H228v-15c0-2,1.6-3.6,3.6-3.6h1c2,0,3.6,1.6,3.6,3.6v11.6
						c1.8,2.6,2.7,6.2,2.7,10.6C239.1,470.4,239.1,471.3,239,472.3z"/>
				</g>
				<g>
					<rect x="222.2" y="475.3" fill="#354872" width="23.4" height="5.8"/>
				</g>
			</g>
		</g>
		<g>
			<circle fill="#FFFFFF" cx="39.5" cy="452.4" r="39.5"/>
			<g>
				<path fill="#FFDF6A" d="M30.2,473.9h15.5v-32.1c-0.7-1-5.2-1-5.9,0.1L26.5,455c-0.6,1.1-0.2,1.8,0.1,3.8L30.2,473.9z"/>
				<g>
					<g>
						<path fill="#FFFFFF" d="M50,424.8c1,0,1.8,0.8,1.8,1.8v31c0,1-0.8,1.8-1.8,1.8H32c-1,0-1.8-0.8-1.8-1.8v-31
							c0-1,0.8-1.8,1.8-1.8H50L50,424.8z"/>
						<path fill="#354872" d="M50,460.4H32c-1.6,0-2.9-1.3-2.9-2.9v-31c0-1.6,1.3-2.9,2.9-2.9h18c1.6,0,2.9,1.3,2.9,2.9v31
							C52.8,459.2,51.6,460.4,50,460.4z M31.9,425.9c-0.4,0-0.7,0.3-0.7,0.7v31c0,0.4,0.3,0.7,0.7,0.7h18c0.4,0,0.7-0.3,0.7-0.7v-31
							c0-0.4-0.3-0.7-0.7-0.7H31.9L31.9,425.9z"/>
					</g>
					<g>
						<path fill="#FFFFFF" d="M42.2,456.7v-6.2V456.7z"/>
						<rect x="41.1" y="450.5" fill="#354872" width="2.2" height="6.2"/>
					</g>
					<g>
						<path fill="#FFFFFF" d="M46.7,456.7v-11V456.7z"/>
						<rect x="45.6" y="445.7" fill="#354872" width="2.2" height="11"/>
					</g>
					<g>
						<path fill="#FFFFFF" d="M42.2,448.9v-6.2V448.9z"/>
						<rect x="41.1" y="442.7" fill="#354872" width="2.2" height="6.2"/>
					</g>
					<g>
						<path fill="#FFFFFF" d="M42.2,441.1V435V441.1z"/>
						<rect x="41.1" y="435" fill="#354872" width="2.2" height="6.2"/>
					</g>
					<g>
						<path fill="#FFFFFF" d="M42.2,433.4v-6.2V433.4z"/>
						<rect x="41.1" y="427.2" fill="#354872" width="2.2" height="6.2"/>
					</g>
					<circle fill="#FFDF6A" cx="35.4" cy="430.6" r="2.7"/>
					<circle fill="#354872" cx="35.4" cy="434.2" r="2.7"/>
				</g>
				<g>
					<path fill="#FFDF6A" d="M41.8,472.1c0.1-0.9,0.1-1.8,0.1-2.7c0-4.4-1-7.8-2.7-10.3v-12c0-1.4-1.1-2.6-2.6-2.6h-1
						c-1.4,0-2.6,1.1-2.6,2.6v15L41.8,472.1z"/>
					<path fill="#354872" d="M42.9,472.3l-2.2-0.2c0.1-0.8,0.1-1.7,0.1-2.6c0-4.1-0.9-7.4-2.5-9.6l-0.2-0.3v-12.3
						c0-0.8-0.7-1.5-1.5-1.5h-1c-0.8,0-1.5,0.7-1.5,1.5v15H32v-15c0-2,1.6-3.6,3.6-3.6h1c2,0,3.6,1.6,3.6,3.6v11.6
						c1.8,2.6,2.7,6.2,2.7,10.6C43,470.4,43,471.3,42.9,472.3z"/>
				</g>
				<g>
					<rect x="26.1" y="475.3" fill="#354872" width="23.4" height="5.8"/>
				</g>
			</g>
		</g>
	</g>
	<g>
		<g>
			<circle fill="#FFFFFF" cx="39.5" cy="314.9" r="39.5"/>
			<g>
				<g>
					<path fill="#FFDF6A" d="M14.7,337.3h49.6l-49.6-49.6V337.3z M23.8,328.2v-18.4l18.4,18.4H23.8z"/>
					<g>
						<path fill="#FFFFFF" d="M14.7,334.3h4H14.7z"/>
						<rect x="14.7" y="333.2" fill="#354872" width="4" height="2.2"/>
					</g>
					<g>
						<path fill="#FFFFFF" d="M14.7,330.3H17H14.7z"/>
						<rect x="14.7" y="329.2" fill="#354872" width="2.3" height="2.2"/>
					</g>
					<g>
						<path fill="#FFFFFF" d="M14.7,326.4h4H14.7z"/>
						<rect x="14.7" y="325.3" fill="#354872" width="4" height="2.2"/>
					</g>
					<g>
						<path fill="#FFFFFF" d="M14.7,322.4H17H14.7z"/>
						<rect x="14.7" y="321.4" fill="#354872" width="2.3" height="2.2"/>
					</g>
					<g>
						<path fill="#FFFFFF" d="M14.7,318.5h4H14.7z"/>
						<rect x="14.7" y="317.4" fill="#354872" width="4" height="2.2"/>
					</g>
					<g>
						<path fill="#FFFFFF" d="M14.7,314.6H17H14.7z"/>
						<rect x="14.7" y="313.5" fill="#354872" width="2.3" height="2.2"/>
					</g>
					<g>
						<path fill="#FFFFFF" d="M14.7,310.6h4H14.7z"/>
						<rect x="14.7" y="309.5" fill="#354872" width="4" height="2.2"/>
					</g>
					<g>
						<path fill="#FFFFFF" d="M14.7,306.7H17H14.7z"/>
						<rect x="14.7" y="305.6" fill="#354872" width="2.3" height="2.2"/>
					</g>
					<g>
						<path fill="#FFFFFF" d="M14.7,302.7h4H14.7z"/>
						<rect x="14.7" y="301.6" fill="#354872" width="4" height="2.2"/>
					</g>
					<g>
						<path fill="#FFFFFF" d="M14.7,298.8H17H14.7z"/>
						<rect x="14.7" y="297.7" fill="#354872" width="2.3" height="2.2"/>
					</g>
					<g>
						<path fill="#FFFFFF" d="M14.7,294.8h4H14.7z"/>
						<rect x="14.7" y="293.7" fill="#354872" width="4" height="2.2"/>
					</g>
				</g>
				<g>
					<polygon fill="#FFFFFF" points="50.4,331.7 50.4,332.9 46.8,339.5 43.3,332.9 43.3,331.7 					"/>
					<polygon fill="#354872" points="46.8,341.8 42.2,333.2 42.2,331.7 44.4,331.7 44.4,332.6 46.8,337.2 49.3,332.6 49.3,331.7 
						51.5,331.7 51.5,333.2 					"/>
				</g>
				<g>
					<rect x="43.3" y="300.5" fill="#FFFFFF" width="7.1" height="31"/>
					<path fill="#354872" d="M49.3,301.6v28.9h-5v-28.9H49.3L49.3,301.6z M51.5,299.4h-9.3v33.2h9.3V299.4L51.5,299.4z"/>
				</g>
				<g>
					<rect x="45.8" y="300.1" fill="#354872" width="2.2" height="30.6"/>
				</g>
				<g>
					<path fill="#FFFFFF" d="M50.4,291.6v-2.9c0-0.4-0.4-0.6-0.8-0.6H44c-0.4,0-0.8,0.3-0.8,0.6v2.9H50.4L50.4,291.6z"/>
					<path fill="#354872" d="M51.5,291.6h-2.2v-2.4h-5v2.4h-2.2v-2.9c0-0.4,0.2-0.9,0.5-1.2c0.4-0.4,0.9-0.6,1.4-0.6l0,0h5.6
						c1,0,1.9,0.8,1.9,1.7V291.6L51.5,291.6z"/>
				</g>
				<rect x="42.2" y="293" fill="#FFDF6A" width="9.3" height="5.5"/>
				<g>
					<g>
						<rect x="33.3" y="339" fill="#354872" width="2.2" height="3.7"/>
					</g>
					<g>
						<g>
							<polygon fill="#354872" points="38.2,291.3 36,291.3 36,289.2 32.7,289.2 32.7,291.3 30.5,291.3 30.5,287 38.2,287 							
								"/>
						</g>
					</g>
					<g>
						<rect x="31.5" y="312.6" fill="#FFFFFF" width="5.7" height="18.9"/>
						<polygon fill="#354872" points="38.3,332.6 30.4,332.6 30.4,312.6 32.6,312.6 32.6,330.4 36.1,330.4 36.1,312.6 38.3,312.6 
													"/>
					</g>
					<g>
						<polygon fill="#354872" points="31.7,340.5 31.7,336.4 33.8,336.4 33.8,338.4 34.9,338.4 34.9,336.4 37.1,336.4 37.1,340.5 
													"/>
					</g>
					<g>
						<g>
							<rect x="30.9" y="291.5" fill="#354872" width="6.9" height="20.7"/>
							<path fill="#354872" d="M38.9,313.3h-9.1v-22.9h9.1V313.3z M32,311.1h4.8v-18.5H32V311.1z"/>
						</g>
					</g>
					<g>
						<g>
							<polygon fill="#354872" points="26.4,313.5 26.4,294.6 37.8,294.6 37.8,296.8 28.6,296.8 28.6,313.5 							"/>
						</g>
					</g>
					<g>
						<rect x="31.9" y="331.7" fill="#354872" width="5" height="4.5"/>
						<path fill="#354872" d="M30.8,337.3v-6.7H38v6.7H30.8z M32.9,332.7v2.4h2.8v-2.4H32.9z"/>
					</g>
				</g>
			</g>
		</g>
		<g>
			<circle fill="#FFFFFF" cx="235.5" cy="314.8" r="39.5"/>
			<g>
				<g>
					<g>
						<polygon fill="#354872" points="235.2,313.1 234.1,311.3 235.6,310.4 237.1,311.2 236,313.1 235.6,312.9 						"/>
					</g>
					<g>
						<path fill="#354872" d="M257.4,325.3l-1.8-1l1.1-1.9l1.8,1L257.4,325.3z M253.8,323.3l-1.8-1l1.1-1.9l1.8,1L253.8,323.3z
							 M250.3,321.3l-1.8-1l1.1-1.9l1.8,1L250.3,321.3z M246.7,319.2l-1.8-1l1.1-1.9l1.8,1L246.7,319.2z M243.1,317.2l-1.8-1
							l1.1-1.9l1.8,1L243.1,317.2z M239.6,315.2l-1.8-1l1.1-1.9l1.8,1L239.6,315.2z"/>
					</g>
					<g>
						<polygon fill="#354872" points="260.2,327.4 259.8,326.7 259.1,326.4 259.4,325.9 259.1,325.5 259.8,325.2 260.2,324.5 
							262.8,325.9 						"/>
					</g>
					<g>
						<path fill="#354872" d="M238.7,339.8l-1.1-1.9l1.8-1l1.1,1.9L238.7,339.8z M242.3,337.8l-1.1-1.9l1.8-1l1.1,1.9L242.3,337.8z
							 M245.9,335.7l-1.1-1.9l1.8-1l1.1,1.9L245.9,335.7z M249.5,333.6l-1.1-1.9l1.8-1l1.1,1.9L249.5,333.6z M253.1,331.6l-1.1-1.9
							l1.8-1l1.1,1.9L253.1,331.6z M256.6,329.5l-1.1-1.9l1.8-1l1.1,1.9L256.6,329.5z"/>
					</g>
					<g>
						<polygon fill="#354872" points="235.5,341.7 234,340.9 235,339 235.4,339.2 235.8,339 236.9,340.9 						"/>
					</g>
					<g>
						<path fill="#354872" d="M232.2,339.9l-1.8-1l1.1-1.9l1.8,1L232.2,339.9z M228.6,337.8l-1.8-1l1.1-1.9l1.8,1L228.6,337.8z
							 M225.1,335.8l-1.8-1l1.1-1.9l1.8,1L225.1,335.8z M221.5,333.8l-1.8-1l1.1-1.9l1.8,1L221.5,333.8z M218,331.7l-1.8-1l1.1-1.9
							l1.8,1L218,331.7z M214.4,329.7l-1.8-1l1.1-1.9l1.8,1L214.4,329.7z"/>
					</g>
					<g>
						<polygon fill="#354872" points="210.8,327.7 208.3,326.2 210.8,324.7 211.2,325.4 211.9,325.8 211.7,326.2 211.9,326.6 
							211.2,327 						"/>
					</g>
					<g>
						<path fill="#354872" d="M213.7,325.5l-1.1-1.9l1.8-1l1.1,1.9L213.7,325.5z M217.3,323.5l-1.1-1.9l1.8-1l1.1,1.9L217.3,323.5z
							 M220.9,321.4l-1.1-1.9l1.8-1l1.1,1.9L220.9,321.4z M224.5,319.3l-1.1-1.9l1.8-1l1.1,1.9L224.5,319.3z M228.1,317.3l-1.1-1.9
							l1.8-1l1.1,1.9L228.1,317.3z M231.6,315.2l-1.1-1.9l1.8-1l1.1,1.9L231.6,315.2z"/>
					</g>
				</g>
				<g>
					<g>
						<polygon fill="#FFDF6A" points="235.6,296 252.4,305.6 235.5,315.3 218.7,305.7 						"/>
						<path fill="#354872" d="M235.5,316.4c-0.2,0-0.4,0-0.5-0.1l-16.8-9.6c-0.3-0.2-0.5-0.6-0.5-0.9c0-0.4,0.2-0.8,0.5-0.9
							l16.9-9.8c0.3-0.2,0.7-0.2,1.1,0l16.8,9.6c0.3,0.2,0.5,0.6,0.5,0.9c0,0.4-0.2,0.8-0.5,0.9l-16.9,9.8
							C235.9,316.4,235.7,316.4,235.5,316.4z M220.9,305.7l14.6,8.3l14.7-8.5l-14.6-8.3L220.9,305.7z"/>
					</g>
					<g>
						<g>
							<polygon fill="#354872" points="252.3,305.5 252.5,325 235.6,334.7 235.4,315.2 							"/>
						</g>
						<g>
							<g>
								<path fill="#354872" d="M235.7,335.9c-0.2,0-0.4,0-0.5-0.1c-0.3-0.2-0.5-0.5-0.5-0.9l-0.2-19.5c0-0.4,0.2-0.8,0.5-1
									l16.9-9.8c0.3-0.2,0.8-0.2,1.1,0c0.3,0.2,0.5,0.5,0.6,0.9l0.2,19.5c0,0.4-0.2,0.8-0.5,1l-16.9,9.8
									C236.1,335.9,235.9,335.9,235.7,335.9z M236.6,316l0.2,17l14.7-8.5l-0.2-17L236.6,316z"/>
							</g>
						</g>
					</g>
					<g>
						<g>
							<polygon fill="#FFFFFF" points="235.5,315.3 235.7,334.8 218.9,325.3 218.7,305.7 							"/>
						</g>
						<g>
							<g>
								<path fill="#354872" d="M235.7,335.9L235.7,335.9c-0.2,0-0.4,0-0.6-0.1l-16.8-9.6c-0.3-0.2-0.5-0.5-0.5-0.9l-0.2-19.5
									c0-0.4,0.2-0.8,0.5-0.9c0.3-0.2,0.8-0.2,1.1,0l16.8,9.6c0.3,0.2,0.5,0.5,0.5,0.9l0.2,19.3c0,0.1,0,0.1,0,0.2
									C236.8,335.4,236.3,335.9,235.7,335.9z M220,324.6l14.6,8.3l-0.2-17l-14.6-8.3L220,324.6z"/>
							</g>
						</g>
					</g>
				</g>
				<g>
					<g>
						<polygon fill="#FFDF6A" points="235.6,289 244.5,294.1 235.6,299.2 226.7,294.2 						"/>
						<path fill="#354872" d="M235.6,300.3c-0.2,0-0.4,0-0.5-0.1l-8.8-5.1c-0.3-0.2-0.5-0.6-0.5-0.9c0-0.4,0.2-0.8,0.5-0.9l8.9-5.1
							c0.3-0.2,0.8-0.2,1.1,0l8.8,5.1c0.3,0.2,0.6,0.6,0.6,0.9c0,0.4-0.2,0.8-0.5,0.9l-8.9,5.1C235.9,300.3,235.8,300.3,235.6,300.3
							z M228.9,294.2l6.7,3.8l6.7-3.9l-6.7-3.8L228.9,294.2z"/>
					</g>
					<g>
						<g>
							<polygon fill="#354872" points="244.4,294 244.5,304.3 235.6,309.4 235.5,299.1 							"/>
						</g>
						<g>
							<g>
								<path fill="#354872" d="M235.7,310.6c-0.2,0-0.4,0-0.5-0.1c-0.3-0.2-0.5-0.5-0.5-0.9l-0.1-10.3c0-0.4,0.2-0.8,0.5-1l8.9-5.1
									c0.3-0.2,0.7-0.2,1.1,0c0.3,0.2,0.5,0.5,0.6,0.9l0.1,10.3c0,0.4-0.2,0.8-0.5,1l-8.9,5.1C236,310.6,235.9,310.6,235.7,310.6z
									 M236.7,299.9l0.1,7.8l6.7-3.9l-0.1-7.8L236.7,299.9z"/>
							</g>
						</g>
					</g>
					<g>
						<g>
							<polygon fill="#FFFFFF" points="235.6,299.2 235.7,309.5 226.8,304.5 226.7,294.2 							"/>
						</g>
						<g>
							<g>
								<path fill="#354872" d="M235.7,310.6L235.7,310.6c-0.2,0-0.4,0-0.6-0.1l-8.8-5.1c-0.3-0.2-0.5-0.5-0.5-0.9l-0.1-10.3
									c0-0.4,0.2-0.8,0.5-0.9c0.3-0.1,0.8-0.2,1.1,0l8.8,5.1c0.3,0.2,0.5,0.5,0.5,0.9l0.1,10.1c0,0.1,0,0.1,0,0.2
									C236.8,310.1,236.3,310.6,235.7,310.6z M227.9,303.8l6.7,3.8l-0.1-7.8l-6.7-3.8L227.9,303.8z"/>
							</g>
						</g>
					</g>
				</g>
			</g>
		</g>
	</g>
	<g>
		<g>
			<circle fill="#FFFFFF" cx="235.5" cy="590.2" r="39.5"/>
			<g>
				<circle fill="#FFDF6A" cx="233" cy="590.2" r="13.1"/>
				<g>
					<polygon fill="#354872" points="232.9,592.1 226.3,585.4 227.8,583.9 232.9,589 240.6,581.2 242.1,582.7 					"/>
				</g>
				<g>
					<g>
						<path fill="#354872" d="M247,614.8h-8.5v-1.1c0-0.1,0-2.5,1.7-5c0.7-1.1,1.9-2,2.9-2.9c0.8-0.7,2.1-1.7,2.1-2.2v-0.5
							c0-1.4-1.1-2.5-2.5-2.5c-1.4,0-2.5,1.1-2.5,2.5H238c0-2.6,2.1-4.7,4.7-4.7c2.6,0,4.7,2.1,4.7,4.7v0.5c0,1.5-1.4,2.7-2.9,3.9
							c-0.9,0.8-1.9,1.6-2.5,2.4c-0.7,1-1,2-1.2,2.7h6.2V614.8L247,614.8L247,614.8z"/>
					</g>
					<g>
						<rect x="253.2" y="599" fill="#354872" width="2.2" height="15.5"/>
					</g>
					<g>
						<polygon fill="#354872" points="257.4,610 246.8,610 253.2,598.9 255.1,600 250.6,607.9 257.4,607.9 						"/>
					</g>
				</g>
				<g>
					<path fill="#FFFFFF" d="M233.3,608.6c-0.1,0-0.1,0-0.2,0c-10.2,0-18.4-8.3-18.4-18.4c0-10.2,8.3-18.4,18.4-18.4
						c9,0,16.6,6.5,18.1,15.1h-2.9l3,3.6l3,3.6l3-3.6l3-3.6h-3.8c-1.6-11.5-11.5-20.4-23.5-20.4c-13.1,0-23.7,10.6-23.7,23.7
						c0,13.1,10.6,23.7,23.7,23.7c0.1,0,0.1,0,0.2,0L233.3,608.6L233.3,608.6z"/>
					<path fill="#354872" d="M233.1,615L233.1,615c-13.7,0-24.8-11.1-24.8-24.8s11.1-24.8,24.8-24.8c12,0,22.3,8.7,24.4,20.4h5.2
						l-8.4,9.9l-8.4-9.9h3.9c-2-7.6-8.8-12.9-16.8-12.9c-9.6,0-17.3,7.8-17.3,17.3c0,9.6,7.8,17.3,17.3,17.3h1.3v7.5H233.1z
						 M233.1,567.6c-12.5,0-22.6,10.2-22.6,22.6c0,12.2,9.7,22.1,21.7,22.6v-3.1c-10.3-0.5-18.6-9-18.6-19.5
						c0-10.8,8.7-19.5,19.5-19.5c9.4,0,17.5,6.7,19.2,16l0.2,1.3h-1.9l3.7,4.4l3.7-4.4h-2.4l-0.1-0.9
						C254,576,244.4,567.6,233.1,567.6z"/>
				</g>
				<g>
					<circle fill="#FFFFFF" cx="233" cy="590.2" r="2.8"/>
					<path fill="#354872" d="M233,594.2c-2.2,0-3.9-1.8-3.9-3.9c0-2.2,1.8-3.9,3.9-3.9s3.9,1.8,3.9,3.9
						C237,592.4,235.2,594.2,233,594.2z M233,588.5c-1,0-1.8,0.8-1.8,1.8s0.8,1.8,1.8,1.8s1.8-0.8,1.8-1.8S234,588.5,233,588.5z"/>
				</g>
				<g>
					<g>
						<rect x="231.5" y="576.9" fill="#354872" width="2.2" height="2.2"/>
					</g>
					<g>
						<rect x="219.5" y="589.4" fill="#354872" width="2.2" height="2.2"/>
					</g>
					<g>
						<rect x="232" y="601.4" fill="#354872" width="2.2" height="2.2"/>
					</g>
					<g>
						<rect x="244" y="588.9" fill="#354872" width="2.2" height="2.2"/>
					</g>
				</g>
			</g>
		</g>
		<g>
			<circle fill="#FFFFFF" cx="39.5" cy="590.2" r="39.5"/>
			<g>
				<g>
					<path fill="#354872" d="M44.2,617.2h-8.8l-0.6-3c-0.9-0.2-1.7-0.4-2.5-0.6L30,616l-7.7-4.4l1-2.9c-0.6-0.6-1.2-1.2-1.8-1.8
						l-3.1,1l-4.4-7.7l2.5-2.2c-0.2-0.7-0.4-1.5-0.6-2.2l-3.5-0.7v-8.8l3.7-0.8c0.1-0.6,0.3-1.2,0.5-1.9l-2.9-2.7l4.4-7.7l4,1.3
						c0.4-0.4,0.7-0.7,1.1-1.1l-1.3-4.2l7.7-4.4l3,3.4c0.4-0.1,0.8-0.2,1.2-0.3l1-4.6h8.8l1,4.6c0.4,0.1,0.7,0.2,1.1,0.3l3.2-3.6
						l7.7,4.4l-1.4,4.4c0.3,0.2,0.5,0.5,0.8,0.8l4.6-1.5l4.4,7.7l-3.3,3c0.1,0.4,0.3,0.9,0.4,1.3l4.4,0.9v8.8l-3.9,0.8
						c-0.1,0.6-0.2,1.1-0.4,1.7l3,2.8l-4.4,7.7l-3.4-1.1c-0.4,0.5-0.9,1.1-1.4,1.6l1.1,3.5l-7.7,4.4l-2.2-2.4
						c-0.8,0.3-1.6,0.5-2.3,0.7L44.2,617.2z M37.1,615.1h5.3l0.6-2.9l0.7-0.1c1.1-0.2,2.3-0.6,3.4-1l0.7-0.3l2,2.2l4.6-2.7l-1-3.1
						l0.5-0.5c0.8-0.8,1.5-1.6,2.2-2.4l0.5-0.6l3.2,1l2.7-4.6l-2.7-2.5l0.2-0.7c0.3-0.9,0.5-1.8,0.6-2.8l0.1-0.7l3.7-0.8v-5.3
						l-4-0.9l-0.2-0.7c-0.2-0.8-0.4-1.6-0.8-2.4l-0.3-0.7l3.1-2.8l-2.7-4.6l-4.2,1.4l-0.5-0.5c-0.6-0.6-1.1-1.1-1.7-1.6l-0.6-0.5
						l1.3-4.1l-4.6-2.7l-3,3.3l-0.7-0.2c-0.7-0.2-1.5-0.4-2.2-0.6l-0.7-0.1l-0.9-4.2h-5.3l-0.9,4.3l-0.7,0.1
						c-0.8,0.2-1.5,0.4-2.3,0.6l-0.7,0.2l-2.8-3.1l-4.6,2.7l1.2,3.9l-0.6,0.5c-0.6,0.5-1.3,1.2-1.9,1.9l-0.5,0.5l-3.6-1.2l-2.7,4.6
						l2.7,2.5l-0.3,0.7c-0.4,1.1-0.7,2-0.9,2.9l-0.1,0.7l-3.3,0.7v5.3l3.2,0.7l0.1,0.7c0.2,1.1,0.5,2.2,0.8,3.3l0.2,0.7l-2.2,2
						l2.7,4.6l2.8-0.9l0.5,0.6c0.8,0.9,1.7,1.8,2.6,2.6l0.6,0.5l-0.9,2.6l4.6,2.7l1.9-2.1l0.7,0.2c1.1,0.4,2.3,0.7,3.6,0.9l0.7,0.1
						L37.1,615.1z"/>
				</g>
				<path fill="#FFDF6A" d="M39.5,604.2c-3.4,0-6.7-1.2-9.2-3.5L40,591h13.5c-0.2,3.4-1.6,6.6-4.1,9.1
					C46.8,602.8,43.3,604.2,39.5,604.2z"/>
				<path fill="#FFFFFF" d="M40.5,588.9v-12.7c6.9,0.4,12.4,5.8,13,12.7H40.5z"/>
				<path fill="#FFDF6A" d="M39.5,604.2c-3.4,0-6.7-1.2-9.2-3.5L40,591h13.5c-0.2,3.4-1.6,6.6-4.1,9.1
					C46.8,602.8,43.3,604.2,39.5,604.2z"/>
				<path fill="#354872" d="M40.5,588.9v-12.7c6.9,0.4,12.4,5.8,13,12.7H40.5z"/>
				<g>
					<path fill="#354872" d="M39.5,608.2c-4.4,0-8.6-1.6-11.9-4.5l1.4-1.6c2.9,2.6,6.6,4,10.5,4c8.7,0,15.8-7.1,15.8-15.8
						c0-8.5-6.6-15.4-15-15.8l0.1-2.2c9.6,0.5,17.1,8.3,17.1,18C57.5,600.2,49.4,608.2,39.5,608.2z"/>
				</g>
				<path fill="#354872" d="M36.1,575.1v13.8l-9.7,9.9c-1.6-2.5-2.5-5.4-2.5-8.5C23.9,582.9,29.1,576.6,36.1,575.1L36.1,575.1z
					 M38.2,572.5c-9.2,0.6-16.5,8.3-16.5,17.7c0,4.5,1.7,8.6,4.5,11.8l12.1-12.3L38.2,572.5L38.2,572.5z"/>
			</g>
		</g>
	</g>
	<g>
		<circle fill="#FFFFFF" cx="137.5" cy="727.9" r="39.5"/>
		<g>
			<g>
				<path fill="#FFDF6A" d="M154.7,737.9c-1.3,0-2.3,0.7-2.9,1.8h-3.1c0.7-2.7,3.1-4.7,6-4.7c1.3,0,2.6,0.4,3.6,1.2h4.3v3.5h-1.9
					h-3.1C157,738.6,155.9,737.9,154.7,737.9z"/>
				<polygon fill="#354872" points="150.8,728.3 158.4,728.3 156.2,720.8 150.8,720.8 				"/>
				<g>
					<path fill="#354872" d="M163.7,740.7h-6.8l-0.3-0.6c-0.4-0.7-1.1-1.2-1.9-1.2s-1.5,0.4-1.9,1.2l-0.3,0.6h-5.6v-24.1h12
						l4.3,12.4v4.9h0.6L163.7,740.7L163.7,740.7z M158.2,738.5h3.4v-2.4H161v-6.7l-3.6-10.6H149v19.8h2.2c0.8-1.1,2.1-1.8,3.5-1.8
						C156.1,736.8,157.4,737.4,158.2,738.5z"/>
				</g>
				<g>
					<g>
						<rect x="113.4" y="711.5" fill="#FFFFFF" width="34.6" height="24.2"/>
						<path fill="#354872" d="M149.1,736.8h-36.8v-26.4h36.8V736.8z M114.5,734.6H147v-22h-32.5V734.6L114.5,734.6z"/>
					</g>
					<rect x="116.6" y="714.8" fill="#FFDF6A" width="28.1" height="16.6"/>
				</g>
				<g>
					<rect x="112.3" y="735" fill="#FFFFFF" width="35.7" height="4.7"/>
					<path fill="#354872" d="M149.1,740.7h-37.9v-6.8h37.9V740.7z M113.4,738.6h33.5v-2.5h-33.5V738.6L113.4,738.6z"/>
				</g>
				<g>
					<path fill="#FFFFFF" d="M147.7,739.6h-4H147.7z"/>
					<rect x="143.6" y="738.5" fill="#354872" width="4" height="2.2"/>
				</g>
				<g>
					<circle fill="#FFFFFF" cx="154.7" cy="741.1" r="3.2"/>
					<path fill="#354872" d="M154.7,745.4c-2.4,0-4.3-1.9-4.3-4.3c0-2.4,1.9-4.3,4.3-4.3c2.4,0,4.3,1.9,4.3,4.3
						C159,743.5,157.1,745.4,154.7,745.4z M154.7,739c-1.2,0-2.1,1-2.1,2.1c0,1.1,1,2.1,2.1,2.1c1.2,0,2.1-1,2.1-2.1
						C156.8,740,155.9,739,154.7,739z"/>
				</g>
				<g>
					<circle fill="#FFFFFF" cx="138.3" cy="741.1" r="3.2"/>
					<path fill="#354872" d="M138.3,745.4c-2.4,0-4.3-1.9-4.3-4.3c0-2.4,1.9-4.3,4.3-4.3c2.4,0,4.3,1.9,4.3,4.3
						C142.6,743.5,140.7,745.4,138.3,745.4z M138.3,739c-1.2,0-2.1,1-2.1,2.1c0,1.1,1,2.1,2.1,2.1c1.2,0,2.1-1,2.1-2.1
						C140.4,740,139.5,739,138.3,739z"/>
				</g>
				<g>
					<circle fill="#FFFFFF" cx="119.1" cy="741.1" r="3.2"/>
					<path fill="#354872" d="M119.1,745.4c-2.4,0-4.3-1.9-4.3-4.3c0-2.4,1.9-4.3,4.3-4.3s4.3,1.9,4.3,4.3
						C123.4,743.5,121.4,745.4,119.1,745.4z M119.1,739c-1.2,0-2.1,1-2.1,2.1c0,1.1,1,2.1,2.1,2.1s2.1-1,2.1-2.1
						C121.2,740,120.2,739,119.1,739z"/>
				</g>
				<g>
					<circle fill="#FFFFFF" cx="119.1" cy="741.1" r="3.2"/>
					<path fill="#354872" d="M119.1,745.4c-2.4,0-4.3-1.9-4.3-4.3c0-2.4,1.9-4.3,4.3-4.3s4.3,1.9,4.3,4.3
						C123.4,743.5,121.4,745.4,119.1,745.4z M119.1,739c-1.2,0-2.1,1-2.1,2.1c0,1.1,1,2.1,2.1,2.1s2.1-1,2.1-2.1
						C121.2,740,120.2,739,119.1,739z"/>
				</g>
				<g>
					<circle fill="#FFFFFF" cx="154.7" cy="741.1" r="0.4"/>
					<path fill="#354872" d="M154.7,739.6c-0.8,0-1.5,0.7-1.5,1.5s0.7,1.5,1.5,1.5s1.5-0.7,1.5-1.5S155.5,739.6,154.7,739.6
						L154.7,739.6z"/>
				</g>
				<g>
					<circle fill="#FFFFFF" cx="138.3" cy="741.1" r="0.4"/>
					<path fill="#354872" d="M138.3,739.6c-0.8,0-1.5,0.7-1.5,1.5s0.7,1.5,1.5,1.5s1.5-0.7,1.5-1.5
						C139.7,740.3,139.1,739.6,138.3,739.6L138.3,739.6z"/>
				</g>
				<g>
					<circle fill="#FFFFFF" cx="119.1" cy="741.1" r="0.4"/>
					<path fill="#354872" d="M119.1,739.6c-0.8,0-1.5,0.7-1.5,1.5s0.7,1.5,1.5,1.5c0.8,0,1.5-0.7,1.5-1.5
						C120.5,740.3,119.9,739.6,119.1,739.6L119.1,739.6z"/>
				</g>
				<g>
					<path fill="#FFFFFF" d="M163.8,732.1h-4.1H163.8z"/>
					<rect x="159.7" y="731" fill="#354872" width="4.1" height="2.2"/>
				</g>
			</g>
			<g>
				<rect x="118.9" y="717.1" fill="#354872" width="8.7" height="2.2"/>
			</g>
		</g>
	</g>
	<g>
		<path fill="#FFFFFF" d="M137.5,93.6c-0.6,0-1.2-0.5-1.2-1.2V52.9c0-0.6,0.5-1.2,1.2-1.2c0.6,0,1.2,0.5,1.2,1.2v39.5
			C138.7,93.1,138.1,93.6,137.5,93.6z"/>
	</g>
	<g>
		<circle fill="#FFFFFF" cx="137.5" cy="39.5" r="39.5"/>
		<g>
			<g>
				<path fill="#354872" d="M145.7,49.4c-4,0-7.7-1.3-10.9-3.6l-5.1,1.4l1.4-5.1c-2.4-3.2-3.6-6.9-3.6-10.9c0-10,8.2-18.2,18.2-18.2
					s18.2,8.2,18.2,18.2S155.7,49.4,145.7,49.4z M135.3,43.4l0.4,0.3c2.9,2.3,6.3,3.5,10,3.5c8.8,0,16-7.2,16-16s-7.2-16-16-16
					c-8.8,0-16,7.2-16,16c0,3.7,1.2,7.1,3.5,10l0.3,0.4l-0.7,2.5L135.3,43.4z"/>
			</g>
			<g>
				<path fill="#FFFFFF" d="M139.2,53.5l-0.1,0.1c-0.6,0.9-1.2,1.8-1.8,2.8c-0.6,0.9-2,1-3.1,0.2c-1.2-0.9-4.9-4.2-7.3-6.4
					c-2.2-2.3-5.6-6.1-6.4-7.3c-0.8-1.1-0.6-2.5,0.2-3.1c0.9-0.6,1.8-1.2,2.8-1.8l0.1-0.1c-2.4-2.9-4.5-5.8-6.5-8.7
					c-1.2,0.8-2.4,1.7-3.4,2.7c-0.5,0.5-1,1-1.4,1.6c-0.5,5.8,2.2,13.6,9.7,21c7.5,7.9,15.6,10.8,21.6,10.3c0.5-0.4,1.1-0.9,1.6-1.4
					c1.1-1.1,2-2.2,2.7-3.4C144.9,58,142,55.9,139.2,53.5z"/>
				<path fill="#354872" d="M142.2,66L142.2,66c-6.9,0-14.6-3.9-21.1-10.7c-6.9-6.8-10.5-14.8-10-21.8v-0.3l0.2-0.3
					c0.5-0.7,1-1.2,1.5-1.7c1.1-1.1,2.3-2.1,3.6-2.9l0.9-0.6l0.6,0.9c1.9,2.9,4.1,5.8,6.4,8.6l0.6,0.7l-0.6,0.7
					c-0.1,0.1-0.2,0.2-0.4,0.3l-2.8,1.8c-0.1,0.1-0.2,0.3-0.2,0.4c-0.1,0.4,0,0.8,0.3,1.2c0.8,1.1,3.9,4.6,6.3,7.1
					c2.6,2.4,6,5.5,7.1,6.3c0.3,0.2,0.6,0.3,0.9,0.3s0.5-0.1,0.6-0.2l0.6-1c0.4-0.6,0.8-1.2,1.2-1.8c0.1-0.2,0.2-0.3,0.3-0.4
					l0.7-0.6l0.7,0.6c2.8,2.3,5.7,4.5,8.6,6.4l0.9,0.6l-0.6,0.9c-0.8,1.3-1.8,2.5-2.9,3.6c-0.5,0.5-1,1-1.7,1.5l-0.3,0.2h-0.3
					C143.1,65.9,142.7,66,142.2,66z M113.3,34c-0.2,3.2,0.5,11,9.4,19.8c6.1,6.4,13.2,10,19.6,10l0,0c0.3,0,0.6,0,0.8,0
					c0.5-0.4,0.9-0.8,1.2-1.1c0.7-0.7,1.4-1.5,2-2.4c-2.3-1.6-4.7-3.3-6.9-5.2c-0.2,0.3-0.4,0.6-0.6,0.9l-0.6,1
					c-0.5,0.8-1.4,1.2-2.4,1.2c-0.8,0-1.5-0.3-2.2-0.7c-1.3-0.9-5.2-4.4-7.4-6.5l0,0c-2.1-2.2-5.6-6.1-6.5-7.4
					c-0.6-0.8-0.8-1.9-0.7-2.8c0.1-0.8,0.6-1.4,1.2-1.8l1.9-1.3c-1.8-2.3-3.6-4.6-5.2-6.9c-0.8,0.6-1.6,1.3-2.4,2
					C114.1,33.1,113.7,33.5,113.3,34z"/>
			</g>
			<path fill="#354872" d="M145.7,45c-7.6,0-13.9-6.2-13.9-13.9c0-7.6,6.2-13.9,13.9-13.9c7.6,0,13.9,6.2,13.9,13.9
				C159.5,38.8,153.3,45,145.7,45z"/>
			<g>
				<g>
					<polygon fill="#FFDF6A" points="143.1,32.1 137.4,26.8 143.1,21.6 144.6,23.1 140.6,26.8 144.6,30.5 					"/>
				</g>
				<g>
					<rect x="139.5" y="25.7" fill="#FFDF6A" width="11.9" height="2.2"/>
				</g>
			</g>
			<g>
				<g>
					<polygon fill="#FFDF6A" points="147.4,40.2 145.9,38.7 149.9,35 145.9,31.3 147.4,29.7 153.1,35 					"/>
				</g>
				<g>
					<rect x="139" y="33.9" fill="#FFDF6A" width="11.9" height="2.2"/>
				</g>
			</g>
		</g>
	</g>
	<g>
		<path fill="#FFFFFF" d="M151.4,626.7c0,3.2-2,4.9-4.3,4.9c-2.5,0-4.2-1.9-4.2-4.7c0-3,1.8-4.9,4.3-4.9
			C149.8,622,151.4,623.9,151.4,626.7z M144.2,626.8c0,2,1.1,3.8,3,3.8c1.9,0,3-1.8,3-3.9c0-1.9-1-3.8-3-3.8
			S144.2,624.8,144.2,626.8z"/>
		<path fill="#FFFFFF" d="M154.7,623.1h-2.8v-1h6.9v1h-2.9v8.3h-1.2V623.1z"/>
		<path fill="#FFFFFF" d="M164.7,622.1v1H161v8.3h-1.2V622h4.9V622.1z"/>
		<path fill="#FFFFFF" d="M165.8,622.2c0.6-0.1,1.3-0.2,2.3-0.2c1.2,0,2.1,0.3,2.6,0.8c0.5,0.4,0.8,1.1,0.8,2c0,0.8-0.3,1.5-0.7,2
			c-0.6,0.7-1.7,1-2.9,1c-0.4,0-0.7,0-1-0.1v3.7h-1.2L165.8,622.2L165.8,622.2L165.8,622.2z M167,626.7c0.3,0.1,0.6,0.1,1,0.1
			c1.5,0,2.3-0.7,2.3-2c0-1.2-0.9-1.8-2.2-1.8c-0.5,0-0.9,0-1.1,0.1V626.7z"/>
		<path fill="#FFFFFF" d="M173.3,622.1l1.9,4c0.2,0.6,0.5,1.1,0.7,1.7l0,0c0.2-0.5,0.3-1,0.6-1.7l1.5-3.9h1.3l-2,4.8
			c-0.5,1.2-1.1,2.7-1.7,3.6c-0.6,0.8-1.3,1.2-2.1,1.2c-0.3,0-0.5,0-0.7-0.1l0.1-1c0.1,0,0.2,0,0.4,0c1,0,1.5-0.9,1.8-1.6
			c0.1-0.2,0.1-0.3,0-0.6l-3.1-6.3L173.3,622.1L173.3,622.1z"/>
		<path fill="#FFFFFF" d="M180,622.7c0.6-0.4,1.5-0.7,2.5-0.7c1.6,0,2.7,0.8,2.7,2.3c0,1.1-0.8,2-1.9,2.3l0,0c1.3,0.1,2.3,1,2.3,2.3
			c0,1.9-1.7,2.7-3.4,2.7c-0.8,0-1.7-0.2-2.4-0.6l0.3-0.9c0.5,0.3,1.3,0.6,2.1,0.6c1.4,0,2.2-0.8,2.2-1.8c0-1.4-1.3-1.8-2.5-1.8
			h-0.6v-0.9h0.6c1.2,0,2.2-0.8,2.2-1.7c0-0.9-0.7-1.5-1.7-1.5c-0.7,0-1.4,0.3-1.9,0.6L180,622.7z"/>
		<path fill="#FFFFFF" d="M188.4,622.1v4.1h0.4l3.2-4.1h1.5l-3.5,4.3c1.5,0.2,2.1,1.2,2.6,2.4c0.3,1,0.6,1.8,1,2.6h-1.3
			c-0.3-0.6-0.6-1.5-0.8-2.2c-0.4-1.2-1-2.1-2.6-2.1h-0.4v4.3h-1.2V622L188.4,622.1L188.4,622.1z"/>
		<path fill="#FFFFFF" d="M196.3,628.5l-1,2.9h-1.2l3.2-9.4h1.5l3.2,9.4h-1.3l-1-2.9H196.3z M199.4,627.6l-0.9-2.7
			c-0.2-0.6-0.3-1.2-0.5-1.7l0,0c-0.1,0.6-0.3,1.1-0.5,1.7l-0.9,2.7H199.4z"/>
		<path fill="#FFFFFF" d="M75.3,638.9c0.5-0.1,1.4-0.2,2.2-0.2c1.2,0,2,0.2,2.6,0.7c0.5,0.4,0.8,0.9,0.8,1.7c0,0.9-0.6,1.7-1.6,2.1
			l0,0c0.9,0.2,1.9,1,1.9,2.3c0,0.8-0.3,1.4-0.8,1.9c-0.7,0.6-1.7,0.9-3.2,0.9c-0.8,0-1.5-0.1-1.9-0.1V638.9L75.3,638.9z
			 M76.6,642.7h1.1c1.3,0,2-0.7,2-1.6c0-1.1-0.8-1.5-2.1-1.5c-0.6,0-0.9,0-1.1,0.1L76.6,642.7L76.6,642.7z M76.6,647.2
			c0.2,0,0.6,0.1,1,0.1c1.2,0,2.4-0.5,2.4-1.8c0-1.3-1.1-1.8-2.4-1.8h-1V647.2z"/>
		<path fill="#FFFFFF" d="M87.6,639.8h-2.8v-1h6.9v1h-2.9v8.3h-1.2V639.8L87.6,639.8z"/>
		<path fill="#FFFFFF" d="M97.5,643.7h-3.6v3.4H98v1h-5.3v-9.4h5v1h-3.8v3h3.6V643.7z"/>
		<path fill="#FFFFFF" d="M100.5,638.8v3c0,1.3,0.7,2,2,2c0.7,0,1.4-0.2,1.8-0.5v-4.4h1.2v9.4h-1.2v-4l0,0c-0.7,0.4-1.4,0.6-2.2,0.6
			c-1.2,0-2.8-0.5-2.8-2.8V639L100.5,638.8L100.5,638.8z"/>
		<path fill="#FFFFFF" d="M112.5,643.7h-3.6v3.4h4.1v1h-5.3v-9.4h5.1v1H109v3h3.6L112.5,643.7L112.5,643.7z"/>
		<path fill="#FFFFFF" d="M115.7,638.8v3.9h4.5v-3.9h1.2v9.4h-1.2v-4.4h-4.5v4.4h-1.2v-9.4H115.7L115.7,638.8z"/>
		<path fill="#FFFFFF" d="M124.6,638.8v3.9c0,1.5,0,2.7-0.1,4l0,0c0.5-1,1.1-2,1.7-3.1l3-4.8h1.2v9.4h-1.1v-4c0-1.5,0-2.6,0.1-3.8
			l0,0c-0.5,1-1.1,2.1-1.7,3.1l-2.9,4.6h-1.3v-9.4L124.6,638.8L124.6,638.8z"/>
		<path fill="#FFFFFF" d="M144.3,648.1v-0.8l1-0.9c2.3-2.2,3.3-3.4,3.4-4.7c0-0.9-0.4-1.8-1.8-1.8c-0.8,0-1.5,0.4-1.9,0.8l-0.4-0.9
			c0.6-0.5,1.5-0.9,2.6-0.9c1.9,0,2.8,1.3,2.8,2.6c0,1.7-1.2,3-3.1,4.8l-0.7,0.7l0,0h4.1v1L144.3,648.1L144.3,648.1z"/>
		<path fill="#FFFFFF" d="M155.2,648.1v-2.5H151v-0.8l4-5.8h1.3v5.6h1.3v1h-1.3v2.5H155.2L155.2,648.1z M155.2,644.7v-3
			c0-0.5,0-0.9,0-1.4l0,0c-0.3,0.5-0.5,0.9-0.7,1.3l-2.2,3.1l0,0H155.2L155.2,644.7z"/>
		<path fill="#FFFFFF" d="M163,638.8v3c0,1.3,0.7,2,2,2c0.7,0,1.4-0.2,1.8-0.5v-4.4h1.2v9.4h-1.2v-4l0,0c-0.6,0.4-1.4,0.6-2.2,0.6
			c-1.2,0-2.8-0.5-2.8-2.8V639L163,638.8L163,638.8z"/>
		<path fill="#FFFFFF" d="M171.7,645.2l-1,2.9h-1.2l3.2-9.4h1.5l3.2,9.4H176l-1-2.9H171.7L171.7,645.2z M174.7,644.2l-0.9-2.7
			c-0.2-0.6-0.3-1.2-0.5-1.7l0,0c-0.1,0.6-0.3,1.1-0.5,1.7l-0.9,2.7H174.7L174.7,644.2z"/>
		<path fill="#FFFFFF" d="M185,647.8c-0.4,0.2-1.3,0.4-2.5,0.4c-2.6,0-4.6-1.7-4.6-4.7c0-2.9,2-4.9,4.9-4.9c1.2,0,1.9,0.3,2.2,0.4
			l-0.3,1c-0.5-0.2-1.1-0.4-1.9-0.4c-2.2,0-3.6,1.4-3.6,3.9c0,2.3,1.3,3.8,3.6,3.8c0.7,0,1.5-0.2,2-0.4L185,647.8z"/>
		<path fill="#FFFFFF" d="M194.2,643.3c0,3.2-2,4.9-4.3,4.9c-2.5,0-4.2-1.9-4.2-4.7c0-3,1.8-4.9,4.3-4.9S194.2,640.6,194.2,643.3z
			 M186.9,643.5c0,2,1.1,3.8,3,3.8c1.9,0,3-1.8,3-3.9c0-1.9-1-3.8-3-3.8S186.9,641.4,186.9,643.5z"/>
		<path fill="#FFFFFF" d="M195.8,638.9c0.5-0.1,1.4-0.2,2.2-0.2c1.2,0,2,0.2,2.6,0.7c0.5,0.4,0.8,0.9,0.8,1.6c0,0.9-0.6,1.7-1.6,2.1
			l0,0c0.9,0.2,1.9,1,1.9,2.3c0,0.8-0.3,1.4-0.8,1.9c-0.7,0.6-1.7,0.9-3.2,0.9c-0.8,0-1.5-0.1-1.9-0.1V638.9L195.8,638.9z
			 M197,642.7h1.1c1.3,0,2-0.7,2-1.6c0-1.1-0.8-1.5-2.1-1.5c-0.6,0-0.9,0-1.1,0.1L197,642.7L197,642.7z M197,647.2
			c0.2,0,0.6,0.1,1,0.1c1.3,0,2.4-0.5,2.4-1.8c0-1.3-1.1-1.8-2.4-1.8h-1V647.2L197,647.2z"/>
		<path fill="#FFFFFF" d="M137.4,643.8h-3.6v3.4h4.1v1h-5.3v-9.4h5.1v1h-3.8v3h3.6v1H137.4z"/>
	</g>
</g>
</svg>
